G04 #@! TF.GenerationSoftware,KiCad,Pcbnew,5.1.5+dfsg1-2build2*
G04 #@! TF.CreationDate,2021-11-14T20:21:27+01:00*
G04 #@! TF.ProjectId,rpi-han-interface,7270692d-6861-46e2-9d69-6e7465726661,rev?*
G04 #@! TF.SameCoordinates,Original*
G04 #@! TF.FileFunction,Soldermask,Bot*
G04 #@! TF.FilePolarity,Negative*
%FSLAX46Y46*%
G04 Gerber Fmt 4.6, Leading zero omitted, Abs format (unit mm)*
G04 Created by KiCad (PCBNEW 5.1.5+dfsg1-2build2) date 2021-11-14 20:21:27*
%MOMM*%
%LPD*%
G04 APERTURE LIST*
%ADD10C,0.100000*%
G04 APERTURE END LIST*
D10*
G36*
X172889487Y-120173996D02*
G01*
X173126253Y-120272068D01*
X173126255Y-120272069D01*
X173339339Y-120414447D01*
X173520553Y-120595661D01*
X173662932Y-120808747D01*
X173761004Y-121045513D01*
X173811000Y-121296861D01*
X173811000Y-121553139D01*
X173761004Y-121804487D01*
X173662932Y-122041253D01*
X173662931Y-122041255D01*
X173520553Y-122254339D01*
X173339339Y-122435553D01*
X173126255Y-122577931D01*
X173126254Y-122577932D01*
X173126253Y-122577932D01*
X172889487Y-122676004D01*
X172638139Y-122726000D01*
X172381861Y-122726000D01*
X172130513Y-122676004D01*
X171893747Y-122577932D01*
X171893746Y-122577932D01*
X171893745Y-122577931D01*
X171680661Y-122435553D01*
X171499447Y-122254339D01*
X171357069Y-122041255D01*
X171357068Y-122041253D01*
X171258996Y-121804487D01*
X171209000Y-121553139D01*
X171209000Y-121296861D01*
X171258996Y-121045513D01*
X171357068Y-120808747D01*
X171499447Y-120595661D01*
X171680661Y-120414447D01*
X171893745Y-120272069D01*
X171893747Y-120272068D01*
X172130513Y-120173996D01*
X172381861Y-120124000D01*
X172638139Y-120124000D01*
X172889487Y-120173996D01*
G37*
G36*
X114889487Y-120173996D02*
G01*
X115126253Y-120272068D01*
X115126255Y-120272069D01*
X115339339Y-120414447D01*
X115520553Y-120595661D01*
X115662932Y-120808747D01*
X115761004Y-121045513D01*
X115811000Y-121296861D01*
X115811000Y-121553139D01*
X115761004Y-121804487D01*
X115662932Y-122041253D01*
X115662931Y-122041255D01*
X115520553Y-122254339D01*
X115339339Y-122435553D01*
X115126255Y-122577931D01*
X115126254Y-122577932D01*
X115126253Y-122577932D01*
X114889487Y-122676004D01*
X114638139Y-122726000D01*
X114381861Y-122726000D01*
X114130513Y-122676004D01*
X113893747Y-122577932D01*
X113893746Y-122577932D01*
X113893745Y-122577931D01*
X113680661Y-122435553D01*
X113499447Y-122254339D01*
X113357069Y-122041255D01*
X113357068Y-122041253D01*
X113258996Y-121804487D01*
X113209000Y-121553139D01*
X113209000Y-121296861D01*
X113258996Y-121045513D01*
X113357068Y-120808747D01*
X113499447Y-120595661D01*
X113680661Y-120414447D01*
X113893745Y-120272069D01*
X113893747Y-120272068D01*
X114130513Y-120173996D01*
X114381861Y-120124000D01*
X114638139Y-120124000D01*
X114889487Y-120173996D01*
G37*
G36*
X119233871Y-113323408D02*
G01*
X119538883Y-113449748D01*
X119813387Y-113633166D01*
X120046834Y-113866613D01*
X120230252Y-114141117D01*
X120356592Y-114446129D01*
X120421000Y-114769928D01*
X120421000Y-115100072D01*
X120356592Y-115423871D01*
X120230252Y-115728883D01*
X120046834Y-116003387D01*
X119813387Y-116236834D01*
X119538883Y-116420252D01*
X119233871Y-116546592D01*
X118910073Y-116611000D01*
X118579927Y-116611000D01*
X118256129Y-116546592D01*
X117951117Y-116420252D01*
X117676613Y-116236834D01*
X117443166Y-116003387D01*
X117259748Y-115728883D01*
X117133408Y-115423871D01*
X117069000Y-115100072D01*
X117069000Y-114769928D01*
X117133408Y-114446129D01*
X117259748Y-114141117D01*
X117443166Y-113866613D01*
X117676613Y-113633166D01*
X117951117Y-113449748D01*
X118256129Y-113323408D01*
X118579927Y-113259000D01*
X118910073Y-113259000D01*
X119233871Y-113323408D01*
G37*
G36*
X125331560Y-112255166D02*
G01*
X125479153Y-112316301D01*
X125611982Y-112405055D01*
X125724945Y-112518018D01*
X125813699Y-112650847D01*
X125874834Y-112798440D01*
X125906000Y-112955123D01*
X125906000Y-113114877D01*
X125874834Y-113271560D01*
X125813699Y-113419153D01*
X125724945Y-113551982D01*
X125611982Y-113664945D01*
X125479153Y-113753699D01*
X125479152Y-113753700D01*
X125479151Y-113753700D01*
X125331560Y-113814834D01*
X125174878Y-113846000D01*
X125015122Y-113846000D01*
X124858440Y-113814834D01*
X124710849Y-113753700D01*
X124710848Y-113753700D01*
X124710847Y-113753699D01*
X124578018Y-113664945D01*
X124465055Y-113551982D01*
X124376301Y-113419153D01*
X124315166Y-113271560D01*
X124284000Y-113114877D01*
X124284000Y-112955123D01*
X124315166Y-112798440D01*
X124376301Y-112650847D01*
X124465055Y-112518018D01*
X124578018Y-112405055D01*
X124710847Y-112316301D01*
X124858440Y-112255166D01*
X125015122Y-112224000D01*
X125174878Y-112224000D01*
X125331560Y-112255166D01*
G37*
G36*
X127871560Y-110985166D02*
G01*
X128019153Y-111046301D01*
X128151982Y-111135055D01*
X128264945Y-111248018D01*
X128353699Y-111380847D01*
X128414834Y-111528440D01*
X128446000Y-111685123D01*
X128446000Y-111844877D01*
X128414834Y-112001560D01*
X128353699Y-112149153D01*
X128264945Y-112281982D01*
X128151982Y-112394945D01*
X128019153Y-112483699D01*
X128019152Y-112483700D01*
X128019151Y-112483700D01*
X127871560Y-112544834D01*
X127714878Y-112576000D01*
X127555122Y-112576000D01*
X127398440Y-112544834D01*
X127250849Y-112483700D01*
X127250848Y-112483700D01*
X127250847Y-112483699D01*
X127118018Y-112394945D01*
X127005055Y-112281982D01*
X126916301Y-112149153D01*
X126855166Y-112001560D01*
X126824000Y-111844877D01*
X126824000Y-111685123D01*
X126855166Y-111528440D01*
X126916301Y-111380847D01*
X127005055Y-111248018D01*
X127118018Y-111135055D01*
X127250847Y-111046301D01*
X127398440Y-110985166D01*
X127555122Y-110954000D01*
X127714878Y-110954000D01*
X127871560Y-110985166D01*
G37*
G36*
X125331560Y-109715166D02*
G01*
X125479153Y-109776301D01*
X125611982Y-109865055D01*
X125724945Y-109978018D01*
X125813699Y-110110847D01*
X125874834Y-110258440D01*
X125906000Y-110415123D01*
X125906000Y-110574877D01*
X125874834Y-110731560D01*
X125813699Y-110879153D01*
X125724945Y-111011982D01*
X125611982Y-111124945D01*
X125479153Y-111213699D01*
X125479152Y-111213700D01*
X125479151Y-111213700D01*
X125331560Y-111274834D01*
X125174878Y-111306000D01*
X125015122Y-111306000D01*
X124858440Y-111274834D01*
X124710849Y-111213700D01*
X124710848Y-111213700D01*
X124710847Y-111213699D01*
X124578018Y-111124945D01*
X124465055Y-111011982D01*
X124376301Y-110879153D01*
X124315166Y-110731560D01*
X124284000Y-110574877D01*
X124284000Y-110415123D01*
X124315166Y-110258440D01*
X124376301Y-110110847D01*
X124465055Y-109978018D01*
X124578018Y-109865055D01*
X124710847Y-109776301D01*
X124858440Y-109715166D01*
X125015122Y-109684000D01*
X125174878Y-109684000D01*
X125331560Y-109715166D01*
G37*
G36*
X127871560Y-108445166D02*
G01*
X128019153Y-108506301D01*
X128151982Y-108595055D01*
X128264945Y-108708018D01*
X128353699Y-108840847D01*
X128414834Y-108988440D01*
X128446000Y-109145123D01*
X128446000Y-109304877D01*
X128414834Y-109461560D01*
X128353699Y-109609153D01*
X128264945Y-109741982D01*
X128151982Y-109854945D01*
X128019153Y-109943699D01*
X128019152Y-109943700D01*
X128019151Y-109943700D01*
X127871560Y-110004834D01*
X127714878Y-110036000D01*
X127555122Y-110036000D01*
X127398440Y-110004834D01*
X127250849Y-109943700D01*
X127250848Y-109943700D01*
X127250847Y-109943699D01*
X127118018Y-109854945D01*
X127005055Y-109741982D01*
X126916301Y-109609153D01*
X126855166Y-109461560D01*
X126824000Y-109304877D01*
X126824000Y-109145123D01*
X126855166Y-108988440D01*
X126916301Y-108840847D01*
X127005055Y-108708018D01*
X127118018Y-108595055D01*
X127250847Y-108506301D01*
X127398440Y-108445166D01*
X127555122Y-108414000D01*
X127714878Y-108414000D01*
X127871560Y-108445166D01*
G37*
G36*
X125331560Y-107175166D02*
G01*
X125479153Y-107236301D01*
X125611982Y-107325055D01*
X125724945Y-107438018D01*
X125813699Y-107570847D01*
X125874834Y-107718440D01*
X125906000Y-107875123D01*
X125906000Y-108034877D01*
X125874834Y-108191560D01*
X125813699Y-108339153D01*
X125724945Y-108471982D01*
X125611982Y-108584945D01*
X125479153Y-108673699D01*
X125479152Y-108673700D01*
X125479151Y-108673700D01*
X125331560Y-108734834D01*
X125174878Y-108766000D01*
X125015122Y-108766000D01*
X124858440Y-108734834D01*
X124710849Y-108673700D01*
X124710848Y-108673700D01*
X124710847Y-108673699D01*
X124578018Y-108584945D01*
X124465055Y-108471982D01*
X124376301Y-108339153D01*
X124315166Y-108191560D01*
X124284000Y-108034877D01*
X124284000Y-107875123D01*
X124315166Y-107718440D01*
X124376301Y-107570847D01*
X124465055Y-107438018D01*
X124578018Y-107325055D01*
X124710847Y-107236301D01*
X124858440Y-107175166D01*
X125015122Y-107144000D01*
X125174878Y-107144000D01*
X125331560Y-107175166D01*
G37*
G36*
X128446000Y-107496000D02*
G01*
X126824000Y-107496000D01*
X126824000Y-105874000D01*
X128446000Y-105874000D01*
X128446000Y-107496000D01*
G37*
G36*
X119071971Y-103131204D02*
G01*
X119233871Y-103163408D01*
X119538883Y-103289748D01*
X119813387Y-103473166D01*
X120046834Y-103706613D01*
X120230252Y-103981117D01*
X120356592Y-104286129D01*
X120421000Y-104609928D01*
X120421000Y-104940072D01*
X120356592Y-105263871D01*
X120230252Y-105568883D01*
X120046834Y-105843387D01*
X119813387Y-106076834D01*
X119538883Y-106260252D01*
X119233871Y-106386592D01*
X119071971Y-106418796D01*
X118910073Y-106451000D01*
X118579927Y-106451000D01*
X118418029Y-106418796D01*
X118256129Y-106386592D01*
X117951117Y-106260252D01*
X117676613Y-106076834D01*
X117443166Y-105843387D01*
X117259748Y-105568883D01*
X117133408Y-105263871D01*
X117069000Y-104940072D01*
X117069000Y-104609928D01*
X117133408Y-104286129D01*
X117259748Y-103981117D01*
X117443166Y-103706613D01*
X117676613Y-103473166D01*
X117951117Y-103289748D01*
X118256129Y-103163408D01*
X118418029Y-103131204D01*
X118579927Y-103099000D01*
X118910073Y-103099000D01*
X119071971Y-103131204D01*
G37*
G36*
X142353512Y-98798927D02*
G01*
X142502812Y-98828624D01*
X142666784Y-98896544D01*
X142814354Y-98995147D01*
X142939853Y-99120646D01*
X143038456Y-99268216D01*
X143106376Y-99432188D01*
X143141000Y-99606259D01*
X143141000Y-99783741D01*
X143106376Y-99957812D01*
X143038456Y-100121784D01*
X142939853Y-100269354D01*
X142814354Y-100394853D01*
X142666784Y-100493456D01*
X142502812Y-100561376D01*
X142353512Y-100591073D01*
X142328742Y-100596000D01*
X142151258Y-100596000D01*
X142126488Y-100591073D01*
X141977188Y-100561376D01*
X141813216Y-100493456D01*
X141665646Y-100394853D01*
X141540147Y-100269354D01*
X141441544Y-100121784D01*
X141373624Y-99957812D01*
X141339000Y-99783741D01*
X141339000Y-99606259D01*
X141373624Y-99432188D01*
X141441544Y-99268216D01*
X141540147Y-99120646D01*
X141665646Y-98995147D01*
X141813216Y-98896544D01*
X141977188Y-98828624D01*
X142126488Y-98798927D01*
X142151258Y-98794000D01*
X142328742Y-98794000D01*
X142353512Y-98798927D01*
G37*
G36*
X157593512Y-98798927D02*
G01*
X157742812Y-98828624D01*
X157906784Y-98896544D01*
X158054354Y-98995147D01*
X158179853Y-99120646D01*
X158278456Y-99268216D01*
X158346376Y-99432188D01*
X158381000Y-99606259D01*
X158381000Y-99783741D01*
X158346376Y-99957812D01*
X158278456Y-100121784D01*
X158179853Y-100269354D01*
X158054354Y-100394853D01*
X157906784Y-100493456D01*
X157742812Y-100561376D01*
X157593512Y-100591073D01*
X157568742Y-100596000D01*
X157391258Y-100596000D01*
X157366488Y-100591073D01*
X157217188Y-100561376D01*
X157053216Y-100493456D01*
X156905646Y-100394853D01*
X156780147Y-100269354D01*
X156681544Y-100121784D01*
X156613624Y-99957812D01*
X156579000Y-99783741D01*
X156579000Y-99606259D01*
X156613624Y-99432188D01*
X156681544Y-99268216D01*
X156780147Y-99120646D01*
X156905646Y-98995147D01*
X157053216Y-98896544D01*
X157217188Y-98828624D01*
X157366488Y-98798927D01*
X157391258Y-98794000D01*
X157568742Y-98794000D01*
X157593512Y-98798927D01*
G37*
G36*
X144893512Y-98798927D02*
G01*
X145042812Y-98828624D01*
X145206784Y-98896544D01*
X145354354Y-98995147D01*
X145479853Y-99120646D01*
X145578456Y-99268216D01*
X145646376Y-99432188D01*
X145681000Y-99606259D01*
X145681000Y-99783741D01*
X145646376Y-99957812D01*
X145578456Y-100121784D01*
X145479853Y-100269354D01*
X145354354Y-100394853D01*
X145206784Y-100493456D01*
X145042812Y-100561376D01*
X144893512Y-100591073D01*
X144868742Y-100596000D01*
X144691258Y-100596000D01*
X144666488Y-100591073D01*
X144517188Y-100561376D01*
X144353216Y-100493456D01*
X144205646Y-100394853D01*
X144080147Y-100269354D01*
X143981544Y-100121784D01*
X143913624Y-99957812D01*
X143879000Y-99783741D01*
X143879000Y-99606259D01*
X143913624Y-99432188D01*
X143981544Y-99268216D01*
X144080147Y-99120646D01*
X144205646Y-98995147D01*
X144353216Y-98896544D01*
X144517188Y-98828624D01*
X144666488Y-98798927D01*
X144691258Y-98794000D01*
X144868742Y-98794000D01*
X144893512Y-98798927D01*
G37*
G36*
X147433512Y-98798927D02*
G01*
X147582812Y-98828624D01*
X147746784Y-98896544D01*
X147894354Y-98995147D01*
X148019853Y-99120646D01*
X148118456Y-99268216D01*
X148186376Y-99432188D01*
X148221000Y-99606259D01*
X148221000Y-99783741D01*
X148186376Y-99957812D01*
X148118456Y-100121784D01*
X148019853Y-100269354D01*
X147894354Y-100394853D01*
X147746784Y-100493456D01*
X147582812Y-100561376D01*
X147433512Y-100591073D01*
X147408742Y-100596000D01*
X147231258Y-100596000D01*
X147206488Y-100591073D01*
X147057188Y-100561376D01*
X146893216Y-100493456D01*
X146745646Y-100394853D01*
X146620147Y-100269354D01*
X146521544Y-100121784D01*
X146453624Y-99957812D01*
X146419000Y-99783741D01*
X146419000Y-99606259D01*
X146453624Y-99432188D01*
X146521544Y-99268216D01*
X146620147Y-99120646D01*
X146745646Y-98995147D01*
X146893216Y-98896544D01*
X147057188Y-98828624D01*
X147206488Y-98798927D01*
X147231258Y-98794000D01*
X147408742Y-98794000D01*
X147433512Y-98798927D01*
G37*
G36*
X149973512Y-98798927D02*
G01*
X150122812Y-98828624D01*
X150286784Y-98896544D01*
X150434354Y-98995147D01*
X150559853Y-99120646D01*
X150658456Y-99268216D01*
X150726376Y-99432188D01*
X150761000Y-99606259D01*
X150761000Y-99783741D01*
X150726376Y-99957812D01*
X150658456Y-100121784D01*
X150559853Y-100269354D01*
X150434354Y-100394853D01*
X150286784Y-100493456D01*
X150122812Y-100561376D01*
X149973512Y-100591073D01*
X149948742Y-100596000D01*
X149771258Y-100596000D01*
X149746488Y-100591073D01*
X149597188Y-100561376D01*
X149433216Y-100493456D01*
X149285646Y-100394853D01*
X149160147Y-100269354D01*
X149061544Y-100121784D01*
X148993624Y-99957812D01*
X148959000Y-99783741D01*
X148959000Y-99606259D01*
X148993624Y-99432188D01*
X149061544Y-99268216D01*
X149160147Y-99120646D01*
X149285646Y-98995147D01*
X149433216Y-98896544D01*
X149597188Y-98828624D01*
X149746488Y-98798927D01*
X149771258Y-98794000D01*
X149948742Y-98794000D01*
X149973512Y-98798927D01*
G37*
G36*
X152513512Y-98798927D02*
G01*
X152662812Y-98828624D01*
X152826784Y-98896544D01*
X152974354Y-98995147D01*
X153099853Y-99120646D01*
X153198456Y-99268216D01*
X153266376Y-99432188D01*
X153301000Y-99606259D01*
X153301000Y-99783741D01*
X153266376Y-99957812D01*
X153198456Y-100121784D01*
X153099853Y-100269354D01*
X152974354Y-100394853D01*
X152826784Y-100493456D01*
X152662812Y-100561376D01*
X152513512Y-100591073D01*
X152488742Y-100596000D01*
X152311258Y-100596000D01*
X152286488Y-100591073D01*
X152137188Y-100561376D01*
X151973216Y-100493456D01*
X151825646Y-100394853D01*
X151700147Y-100269354D01*
X151601544Y-100121784D01*
X151533624Y-99957812D01*
X151499000Y-99783741D01*
X151499000Y-99606259D01*
X151533624Y-99432188D01*
X151601544Y-99268216D01*
X151700147Y-99120646D01*
X151825646Y-98995147D01*
X151973216Y-98896544D01*
X152137188Y-98828624D01*
X152286488Y-98798927D01*
X152311258Y-98794000D01*
X152488742Y-98794000D01*
X152513512Y-98798927D01*
G37*
G36*
X155053512Y-98798927D02*
G01*
X155202812Y-98828624D01*
X155366784Y-98896544D01*
X155514354Y-98995147D01*
X155639853Y-99120646D01*
X155738456Y-99268216D01*
X155806376Y-99432188D01*
X155841000Y-99606259D01*
X155841000Y-99783741D01*
X155806376Y-99957812D01*
X155738456Y-100121784D01*
X155639853Y-100269354D01*
X155514354Y-100394853D01*
X155366784Y-100493456D01*
X155202812Y-100561376D01*
X155053512Y-100591073D01*
X155028742Y-100596000D01*
X154851258Y-100596000D01*
X154826488Y-100591073D01*
X154677188Y-100561376D01*
X154513216Y-100493456D01*
X154365646Y-100394853D01*
X154240147Y-100269354D01*
X154141544Y-100121784D01*
X154073624Y-99957812D01*
X154039000Y-99783741D01*
X154039000Y-99606259D01*
X154073624Y-99432188D01*
X154141544Y-99268216D01*
X154240147Y-99120646D01*
X154365646Y-98995147D01*
X154513216Y-98896544D01*
X154677188Y-98828624D01*
X154826488Y-98798927D01*
X154851258Y-98794000D01*
X155028742Y-98794000D01*
X155053512Y-98798927D01*
G37*
G36*
X160133512Y-98798927D02*
G01*
X160282812Y-98828624D01*
X160446784Y-98896544D01*
X160594354Y-98995147D01*
X160719853Y-99120646D01*
X160818456Y-99268216D01*
X160886376Y-99432188D01*
X160921000Y-99606259D01*
X160921000Y-99783741D01*
X160886376Y-99957812D01*
X160818456Y-100121784D01*
X160719853Y-100269354D01*
X160594354Y-100394853D01*
X160446784Y-100493456D01*
X160282812Y-100561376D01*
X160133512Y-100591073D01*
X160108742Y-100596000D01*
X159931258Y-100596000D01*
X159906488Y-100591073D01*
X159757188Y-100561376D01*
X159593216Y-100493456D01*
X159445646Y-100394853D01*
X159320147Y-100269354D01*
X159221544Y-100121784D01*
X159153624Y-99957812D01*
X159119000Y-99783741D01*
X159119000Y-99606259D01*
X159153624Y-99432188D01*
X159221544Y-99268216D01*
X159320147Y-99120646D01*
X159445646Y-98995147D01*
X159593216Y-98896544D01*
X159757188Y-98828624D01*
X159906488Y-98798927D01*
X159931258Y-98794000D01*
X160108742Y-98794000D01*
X160133512Y-98798927D01*
G37*
G36*
X162673512Y-98798927D02*
G01*
X162822812Y-98828624D01*
X162986784Y-98896544D01*
X163134354Y-98995147D01*
X163259853Y-99120646D01*
X163358456Y-99268216D01*
X163426376Y-99432188D01*
X163461000Y-99606259D01*
X163461000Y-99783741D01*
X163426376Y-99957812D01*
X163358456Y-100121784D01*
X163259853Y-100269354D01*
X163134354Y-100394853D01*
X162986784Y-100493456D01*
X162822812Y-100561376D01*
X162673512Y-100591073D01*
X162648742Y-100596000D01*
X162471258Y-100596000D01*
X162446488Y-100591073D01*
X162297188Y-100561376D01*
X162133216Y-100493456D01*
X161985646Y-100394853D01*
X161860147Y-100269354D01*
X161761544Y-100121784D01*
X161693624Y-99957812D01*
X161659000Y-99783741D01*
X161659000Y-99606259D01*
X161693624Y-99432188D01*
X161761544Y-99268216D01*
X161860147Y-99120646D01*
X161985646Y-98995147D01*
X162133216Y-98896544D01*
X162297188Y-98828624D01*
X162446488Y-98798927D01*
X162471258Y-98794000D01*
X162648742Y-98794000D01*
X162673512Y-98798927D01*
G37*
G36*
X167753512Y-98798927D02*
G01*
X167902812Y-98828624D01*
X168066784Y-98896544D01*
X168214354Y-98995147D01*
X168339853Y-99120646D01*
X168438456Y-99268216D01*
X168506376Y-99432188D01*
X168541000Y-99606259D01*
X168541000Y-99783741D01*
X168506376Y-99957812D01*
X168438456Y-100121784D01*
X168339853Y-100269354D01*
X168214354Y-100394853D01*
X168066784Y-100493456D01*
X167902812Y-100561376D01*
X167753512Y-100591073D01*
X167728742Y-100596000D01*
X167551258Y-100596000D01*
X167526488Y-100591073D01*
X167377188Y-100561376D01*
X167213216Y-100493456D01*
X167065646Y-100394853D01*
X166940147Y-100269354D01*
X166841544Y-100121784D01*
X166773624Y-99957812D01*
X166739000Y-99783741D01*
X166739000Y-99606259D01*
X166773624Y-99432188D01*
X166841544Y-99268216D01*
X166940147Y-99120646D01*
X167065646Y-98995147D01*
X167213216Y-98896544D01*
X167377188Y-98828624D01*
X167526488Y-98798927D01*
X167551258Y-98794000D01*
X167728742Y-98794000D01*
X167753512Y-98798927D01*
G37*
G36*
X137273512Y-98798927D02*
G01*
X137422812Y-98828624D01*
X137586784Y-98896544D01*
X137734354Y-98995147D01*
X137859853Y-99120646D01*
X137958456Y-99268216D01*
X138026376Y-99432188D01*
X138061000Y-99606259D01*
X138061000Y-99783741D01*
X138026376Y-99957812D01*
X137958456Y-100121784D01*
X137859853Y-100269354D01*
X137734354Y-100394853D01*
X137586784Y-100493456D01*
X137422812Y-100561376D01*
X137273512Y-100591073D01*
X137248742Y-100596000D01*
X137071258Y-100596000D01*
X137046488Y-100591073D01*
X136897188Y-100561376D01*
X136733216Y-100493456D01*
X136585646Y-100394853D01*
X136460147Y-100269354D01*
X136361544Y-100121784D01*
X136293624Y-99957812D01*
X136259000Y-99783741D01*
X136259000Y-99606259D01*
X136293624Y-99432188D01*
X136361544Y-99268216D01*
X136460147Y-99120646D01*
X136585646Y-98995147D01*
X136733216Y-98896544D01*
X136897188Y-98828624D01*
X137046488Y-98798927D01*
X137071258Y-98794000D01*
X137248742Y-98794000D01*
X137273512Y-98798927D01*
G37*
G36*
X134733512Y-98798927D02*
G01*
X134882812Y-98828624D01*
X135046784Y-98896544D01*
X135194354Y-98995147D01*
X135319853Y-99120646D01*
X135418456Y-99268216D01*
X135486376Y-99432188D01*
X135521000Y-99606259D01*
X135521000Y-99783741D01*
X135486376Y-99957812D01*
X135418456Y-100121784D01*
X135319853Y-100269354D01*
X135194354Y-100394853D01*
X135046784Y-100493456D01*
X134882812Y-100561376D01*
X134733512Y-100591073D01*
X134708742Y-100596000D01*
X134531258Y-100596000D01*
X134506488Y-100591073D01*
X134357188Y-100561376D01*
X134193216Y-100493456D01*
X134045646Y-100394853D01*
X133920147Y-100269354D01*
X133821544Y-100121784D01*
X133753624Y-99957812D01*
X133719000Y-99783741D01*
X133719000Y-99606259D01*
X133753624Y-99432188D01*
X133821544Y-99268216D01*
X133920147Y-99120646D01*
X134045646Y-98995147D01*
X134193216Y-98896544D01*
X134357188Y-98828624D01*
X134506488Y-98798927D01*
X134531258Y-98794000D01*
X134708742Y-98794000D01*
X134733512Y-98798927D01*
G37*
G36*
X132193512Y-98798927D02*
G01*
X132342812Y-98828624D01*
X132506784Y-98896544D01*
X132654354Y-98995147D01*
X132779853Y-99120646D01*
X132878456Y-99268216D01*
X132946376Y-99432188D01*
X132981000Y-99606259D01*
X132981000Y-99783741D01*
X132946376Y-99957812D01*
X132878456Y-100121784D01*
X132779853Y-100269354D01*
X132654354Y-100394853D01*
X132506784Y-100493456D01*
X132342812Y-100561376D01*
X132193512Y-100591073D01*
X132168742Y-100596000D01*
X131991258Y-100596000D01*
X131966488Y-100591073D01*
X131817188Y-100561376D01*
X131653216Y-100493456D01*
X131505646Y-100394853D01*
X131380147Y-100269354D01*
X131281544Y-100121784D01*
X131213624Y-99957812D01*
X131179000Y-99783741D01*
X131179000Y-99606259D01*
X131213624Y-99432188D01*
X131281544Y-99268216D01*
X131380147Y-99120646D01*
X131505646Y-98995147D01*
X131653216Y-98896544D01*
X131817188Y-98828624D01*
X131966488Y-98798927D01*
X131991258Y-98794000D01*
X132168742Y-98794000D01*
X132193512Y-98798927D01*
G37*
G36*
X129653512Y-98798927D02*
G01*
X129802812Y-98828624D01*
X129966784Y-98896544D01*
X130114354Y-98995147D01*
X130239853Y-99120646D01*
X130338456Y-99268216D01*
X130406376Y-99432188D01*
X130441000Y-99606259D01*
X130441000Y-99783741D01*
X130406376Y-99957812D01*
X130338456Y-100121784D01*
X130239853Y-100269354D01*
X130114354Y-100394853D01*
X129966784Y-100493456D01*
X129802812Y-100561376D01*
X129653512Y-100591073D01*
X129628742Y-100596000D01*
X129451258Y-100596000D01*
X129426488Y-100591073D01*
X129277188Y-100561376D01*
X129113216Y-100493456D01*
X128965646Y-100394853D01*
X128840147Y-100269354D01*
X128741544Y-100121784D01*
X128673624Y-99957812D01*
X128639000Y-99783741D01*
X128639000Y-99606259D01*
X128673624Y-99432188D01*
X128741544Y-99268216D01*
X128840147Y-99120646D01*
X128965646Y-98995147D01*
X129113216Y-98896544D01*
X129277188Y-98828624D01*
X129426488Y-98798927D01*
X129451258Y-98794000D01*
X129628742Y-98794000D01*
X129653512Y-98798927D01*
G37*
G36*
X127113512Y-98798927D02*
G01*
X127262812Y-98828624D01*
X127426784Y-98896544D01*
X127574354Y-98995147D01*
X127699853Y-99120646D01*
X127798456Y-99268216D01*
X127866376Y-99432188D01*
X127901000Y-99606259D01*
X127901000Y-99783741D01*
X127866376Y-99957812D01*
X127798456Y-100121784D01*
X127699853Y-100269354D01*
X127574354Y-100394853D01*
X127426784Y-100493456D01*
X127262812Y-100561376D01*
X127113512Y-100591073D01*
X127088742Y-100596000D01*
X126911258Y-100596000D01*
X126886488Y-100591073D01*
X126737188Y-100561376D01*
X126573216Y-100493456D01*
X126425646Y-100394853D01*
X126300147Y-100269354D01*
X126201544Y-100121784D01*
X126133624Y-99957812D01*
X126099000Y-99783741D01*
X126099000Y-99606259D01*
X126133624Y-99432188D01*
X126201544Y-99268216D01*
X126300147Y-99120646D01*
X126425646Y-98995147D01*
X126573216Y-98896544D01*
X126737188Y-98828624D01*
X126886488Y-98798927D01*
X126911258Y-98794000D01*
X127088742Y-98794000D01*
X127113512Y-98798927D01*
G37*
G36*
X124573512Y-98798927D02*
G01*
X124722812Y-98828624D01*
X124886784Y-98896544D01*
X125034354Y-98995147D01*
X125159853Y-99120646D01*
X125258456Y-99268216D01*
X125326376Y-99432188D01*
X125361000Y-99606259D01*
X125361000Y-99783741D01*
X125326376Y-99957812D01*
X125258456Y-100121784D01*
X125159853Y-100269354D01*
X125034354Y-100394853D01*
X124886784Y-100493456D01*
X124722812Y-100561376D01*
X124573512Y-100591073D01*
X124548742Y-100596000D01*
X124371258Y-100596000D01*
X124346488Y-100591073D01*
X124197188Y-100561376D01*
X124033216Y-100493456D01*
X123885646Y-100394853D01*
X123760147Y-100269354D01*
X123661544Y-100121784D01*
X123593624Y-99957812D01*
X123559000Y-99783741D01*
X123559000Y-99606259D01*
X123593624Y-99432188D01*
X123661544Y-99268216D01*
X123760147Y-99120646D01*
X123885646Y-98995147D01*
X124033216Y-98896544D01*
X124197188Y-98828624D01*
X124346488Y-98798927D01*
X124371258Y-98794000D01*
X124548742Y-98794000D01*
X124573512Y-98798927D01*
G37*
G36*
X122033512Y-98798927D02*
G01*
X122182812Y-98828624D01*
X122346784Y-98896544D01*
X122494354Y-98995147D01*
X122619853Y-99120646D01*
X122718456Y-99268216D01*
X122786376Y-99432188D01*
X122821000Y-99606259D01*
X122821000Y-99783741D01*
X122786376Y-99957812D01*
X122718456Y-100121784D01*
X122619853Y-100269354D01*
X122494354Y-100394853D01*
X122346784Y-100493456D01*
X122182812Y-100561376D01*
X122033512Y-100591073D01*
X122008742Y-100596000D01*
X121831258Y-100596000D01*
X121806488Y-100591073D01*
X121657188Y-100561376D01*
X121493216Y-100493456D01*
X121345646Y-100394853D01*
X121220147Y-100269354D01*
X121121544Y-100121784D01*
X121053624Y-99957812D01*
X121019000Y-99783741D01*
X121019000Y-99606259D01*
X121053624Y-99432188D01*
X121121544Y-99268216D01*
X121220147Y-99120646D01*
X121345646Y-98995147D01*
X121493216Y-98896544D01*
X121657188Y-98828624D01*
X121806488Y-98798927D01*
X121831258Y-98794000D01*
X122008742Y-98794000D01*
X122033512Y-98798927D01*
G37*
G36*
X165213512Y-98798927D02*
G01*
X165362812Y-98828624D01*
X165526784Y-98896544D01*
X165674354Y-98995147D01*
X165799853Y-99120646D01*
X165898456Y-99268216D01*
X165966376Y-99432188D01*
X166001000Y-99606259D01*
X166001000Y-99783741D01*
X165966376Y-99957812D01*
X165898456Y-100121784D01*
X165799853Y-100269354D01*
X165674354Y-100394853D01*
X165526784Y-100493456D01*
X165362812Y-100561376D01*
X165213512Y-100591073D01*
X165188742Y-100596000D01*
X165011258Y-100596000D01*
X164986488Y-100591073D01*
X164837188Y-100561376D01*
X164673216Y-100493456D01*
X164525646Y-100394853D01*
X164400147Y-100269354D01*
X164301544Y-100121784D01*
X164233624Y-99957812D01*
X164199000Y-99783741D01*
X164199000Y-99606259D01*
X164233624Y-99432188D01*
X164301544Y-99268216D01*
X164400147Y-99120646D01*
X164525646Y-98995147D01*
X164673216Y-98896544D01*
X164837188Y-98828624D01*
X164986488Y-98798927D01*
X165011258Y-98794000D01*
X165188742Y-98794000D01*
X165213512Y-98798927D01*
G37*
G36*
X120281000Y-100596000D02*
G01*
X118479000Y-100596000D01*
X118479000Y-98794000D01*
X120281000Y-98794000D01*
X120281000Y-100596000D01*
G37*
G36*
X139813512Y-98798927D02*
G01*
X139962812Y-98828624D01*
X140126784Y-98896544D01*
X140274354Y-98995147D01*
X140399853Y-99120646D01*
X140498456Y-99268216D01*
X140566376Y-99432188D01*
X140601000Y-99606259D01*
X140601000Y-99783741D01*
X140566376Y-99957812D01*
X140498456Y-100121784D01*
X140399853Y-100269354D01*
X140274354Y-100394853D01*
X140126784Y-100493456D01*
X139962812Y-100561376D01*
X139813512Y-100591073D01*
X139788742Y-100596000D01*
X139611258Y-100596000D01*
X139586488Y-100591073D01*
X139437188Y-100561376D01*
X139273216Y-100493456D01*
X139125646Y-100394853D01*
X139000147Y-100269354D01*
X138901544Y-100121784D01*
X138833624Y-99957812D01*
X138799000Y-99783741D01*
X138799000Y-99606259D01*
X138833624Y-99432188D01*
X138901544Y-99268216D01*
X139000147Y-99120646D01*
X139125646Y-98995147D01*
X139273216Y-98896544D01*
X139437188Y-98828624D01*
X139586488Y-98798927D01*
X139611258Y-98794000D01*
X139788742Y-98794000D01*
X139813512Y-98798927D01*
G37*
G36*
X172889487Y-97173996D02*
G01*
X173057868Y-97243742D01*
X173126255Y-97272069D01*
X173339339Y-97414447D01*
X173520553Y-97595661D01*
X173609884Y-97729354D01*
X173662932Y-97808747D01*
X173761004Y-98045513D01*
X173811000Y-98296861D01*
X173811000Y-98553139D01*
X173761004Y-98804487D01*
X173682030Y-98995147D01*
X173662931Y-99041255D01*
X173520553Y-99254339D01*
X173339339Y-99435553D01*
X173126255Y-99577931D01*
X173126254Y-99577932D01*
X173126253Y-99577932D01*
X172889487Y-99676004D01*
X172638139Y-99726000D01*
X172381861Y-99726000D01*
X172130513Y-99676004D01*
X171893747Y-99577932D01*
X171893746Y-99577932D01*
X171893745Y-99577931D01*
X171680661Y-99435553D01*
X171499447Y-99254339D01*
X171357069Y-99041255D01*
X171337970Y-98995147D01*
X171258996Y-98804487D01*
X171209000Y-98553139D01*
X171209000Y-98296861D01*
X171258996Y-98045513D01*
X171357068Y-97808747D01*
X171410117Y-97729354D01*
X171499447Y-97595661D01*
X171680661Y-97414447D01*
X171893745Y-97272069D01*
X171962132Y-97243742D01*
X172130513Y-97173996D01*
X172381861Y-97124000D01*
X172638139Y-97124000D01*
X172889487Y-97173996D01*
G37*
G36*
X114889487Y-97173996D02*
G01*
X115057868Y-97243742D01*
X115126255Y-97272069D01*
X115339339Y-97414447D01*
X115520553Y-97595661D01*
X115609884Y-97729354D01*
X115662932Y-97808747D01*
X115761004Y-98045513D01*
X115811000Y-98296861D01*
X115811000Y-98553139D01*
X115761004Y-98804487D01*
X115682030Y-98995147D01*
X115662931Y-99041255D01*
X115520553Y-99254339D01*
X115339339Y-99435553D01*
X115126255Y-99577931D01*
X115126254Y-99577932D01*
X115126253Y-99577932D01*
X114889487Y-99676004D01*
X114638139Y-99726000D01*
X114381861Y-99726000D01*
X114130513Y-99676004D01*
X113893747Y-99577932D01*
X113893746Y-99577932D01*
X113893745Y-99577931D01*
X113680661Y-99435553D01*
X113499447Y-99254339D01*
X113357069Y-99041255D01*
X113337970Y-98995147D01*
X113258996Y-98804487D01*
X113209000Y-98553139D01*
X113209000Y-98296861D01*
X113258996Y-98045513D01*
X113357068Y-97808747D01*
X113410117Y-97729354D01*
X113499447Y-97595661D01*
X113680661Y-97414447D01*
X113893745Y-97272069D01*
X113962132Y-97243742D01*
X114130513Y-97173996D01*
X114381861Y-97124000D01*
X114638139Y-97124000D01*
X114889487Y-97173996D01*
G37*
G36*
X155053512Y-96258927D02*
G01*
X155202812Y-96288624D01*
X155366784Y-96356544D01*
X155514354Y-96455147D01*
X155639853Y-96580646D01*
X155738456Y-96728216D01*
X155806376Y-96892188D01*
X155841000Y-97066259D01*
X155841000Y-97243741D01*
X155806376Y-97417812D01*
X155738456Y-97581784D01*
X155639853Y-97729354D01*
X155514354Y-97854853D01*
X155366784Y-97953456D01*
X155202812Y-98021376D01*
X155053512Y-98051073D01*
X155028742Y-98056000D01*
X154851258Y-98056000D01*
X154826488Y-98051073D01*
X154677188Y-98021376D01*
X154513216Y-97953456D01*
X154365646Y-97854853D01*
X154240147Y-97729354D01*
X154141544Y-97581784D01*
X154073624Y-97417812D01*
X154039000Y-97243741D01*
X154039000Y-97066259D01*
X154073624Y-96892188D01*
X154141544Y-96728216D01*
X154240147Y-96580646D01*
X154365646Y-96455147D01*
X154513216Y-96356544D01*
X154677188Y-96288624D01*
X154826488Y-96258927D01*
X154851258Y-96254000D01*
X155028742Y-96254000D01*
X155053512Y-96258927D01*
G37*
G36*
X157593512Y-96258927D02*
G01*
X157742812Y-96288624D01*
X157906784Y-96356544D01*
X158054354Y-96455147D01*
X158179853Y-96580646D01*
X158278456Y-96728216D01*
X158346376Y-96892188D01*
X158381000Y-97066259D01*
X158381000Y-97243741D01*
X158346376Y-97417812D01*
X158278456Y-97581784D01*
X158179853Y-97729354D01*
X158054354Y-97854853D01*
X157906784Y-97953456D01*
X157742812Y-98021376D01*
X157593512Y-98051073D01*
X157568742Y-98056000D01*
X157391258Y-98056000D01*
X157366488Y-98051073D01*
X157217188Y-98021376D01*
X157053216Y-97953456D01*
X156905646Y-97854853D01*
X156780147Y-97729354D01*
X156681544Y-97581784D01*
X156613624Y-97417812D01*
X156579000Y-97243741D01*
X156579000Y-97066259D01*
X156613624Y-96892188D01*
X156681544Y-96728216D01*
X156780147Y-96580646D01*
X156905646Y-96455147D01*
X157053216Y-96356544D01*
X157217188Y-96288624D01*
X157366488Y-96258927D01*
X157391258Y-96254000D01*
X157568742Y-96254000D01*
X157593512Y-96258927D01*
G37*
G36*
X144893512Y-96258927D02*
G01*
X145042812Y-96288624D01*
X145206784Y-96356544D01*
X145354354Y-96455147D01*
X145479853Y-96580646D01*
X145578456Y-96728216D01*
X145646376Y-96892188D01*
X145681000Y-97066259D01*
X145681000Y-97243741D01*
X145646376Y-97417812D01*
X145578456Y-97581784D01*
X145479853Y-97729354D01*
X145354354Y-97854853D01*
X145206784Y-97953456D01*
X145042812Y-98021376D01*
X144893512Y-98051073D01*
X144868742Y-98056000D01*
X144691258Y-98056000D01*
X144666488Y-98051073D01*
X144517188Y-98021376D01*
X144353216Y-97953456D01*
X144205646Y-97854853D01*
X144080147Y-97729354D01*
X143981544Y-97581784D01*
X143913624Y-97417812D01*
X143879000Y-97243741D01*
X143879000Y-97066259D01*
X143913624Y-96892188D01*
X143981544Y-96728216D01*
X144080147Y-96580646D01*
X144205646Y-96455147D01*
X144353216Y-96356544D01*
X144517188Y-96288624D01*
X144666488Y-96258927D01*
X144691258Y-96254000D01*
X144868742Y-96254000D01*
X144893512Y-96258927D01*
G37*
G36*
X142353512Y-96258927D02*
G01*
X142502812Y-96288624D01*
X142666784Y-96356544D01*
X142814354Y-96455147D01*
X142939853Y-96580646D01*
X143038456Y-96728216D01*
X143106376Y-96892188D01*
X143141000Y-97066259D01*
X143141000Y-97243741D01*
X143106376Y-97417812D01*
X143038456Y-97581784D01*
X142939853Y-97729354D01*
X142814354Y-97854853D01*
X142666784Y-97953456D01*
X142502812Y-98021376D01*
X142353512Y-98051073D01*
X142328742Y-98056000D01*
X142151258Y-98056000D01*
X142126488Y-98051073D01*
X141977188Y-98021376D01*
X141813216Y-97953456D01*
X141665646Y-97854853D01*
X141540147Y-97729354D01*
X141441544Y-97581784D01*
X141373624Y-97417812D01*
X141339000Y-97243741D01*
X141339000Y-97066259D01*
X141373624Y-96892188D01*
X141441544Y-96728216D01*
X141540147Y-96580646D01*
X141665646Y-96455147D01*
X141813216Y-96356544D01*
X141977188Y-96288624D01*
X142126488Y-96258927D01*
X142151258Y-96254000D01*
X142328742Y-96254000D01*
X142353512Y-96258927D01*
G37*
G36*
X139813512Y-96258927D02*
G01*
X139962812Y-96288624D01*
X140126784Y-96356544D01*
X140274354Y-96455147D01*
X140399853Y-96580646D01*
X140498456Y-96728216D01*
X140566376Y-96892188D01*
X140601000Y-97066259D01*
X140601000Y-97243741D01*
X140566376Y-97417812D01*
X140498456Y-97581784D01*
X140399853Y-97729354D01*
X140274354Y-97854853D01*
X140126784Y-97953456D01*
X139962812Y-98021376D01*
X139813512Y-98051073D01*
X139788742Y-98056000D01*
X139611258Y-98056000D01*
X139586488Y-98051073D01*
X139437188Y-98021376D01*
X139273216Y-97953456D01*
X139125646Y-97854853D01*
X139000147Y-97729354D01*
X138901544Y-97581784D01*
X138833624Y-97417812D01*
X138799000Y-97243741D01*
X138799000Y-97066259D01*
X138833624Y-96892188D01*
X138901544Y-96728216D01*
X139000147Y-96580646D01*
X139125646Y-96455147D01*
X139273216Y-96356544D01*
X139437188Y-96288624D01*
X139586488Y-96258927D01*
X139611258Y-96254000D01*
X139788742Y-96254000D01*
X139813512Y-96258927D01*
G37*
G36*
X137273512Y-96258927D02*
G01*
X137422812Y-96288624D01*
X137586784Y-96356544D01*
X137734354Y-96455147D01*
X137859853Y-96580646D01*
X137958456Y-96728216D01*
X138026376Y-96892188D01*
X138061000Y-97066259D01*
X138061000Y-97243741D01*
X138026376Y-97417812D01*
X137958456Y-97581784D01*
X137859853Y-97729354D01*
X137734354Y-97854853D01*
X137586784Y-97953456D01*
X137422812Y-98021376D01*
X137273512Y-98051073D01*
X137248742Y-98056000D01*
X137071258Y-98056000D01*
X137046488Y-98051073D01*
X136897188Y-98021376D01*
X136733216Y-97953456D01*
X136585646Y-97854853D01*
X136460147Y-97729354D01*
X136361544Y-97581784D01*
X136293624Y-97417812D01*
X136259000Y-97243741D01*
X136259000Y-97066259D01*
X136293624Y-96892188D01*
X136361544Y-96728216D01*
X136460147Y-96580646D01*
X136585646Y-96455147D01*
X136733216Y-96356544D01*
X136897188Y-96288624D01*
X137046488Y-96258927D01*
X137071258Y-96254000D01*
X137248742Y-96254000D01*
X137273512Y-96258927D01*
G37*
G36*
X134733512Y-96258927D02*
G01*
X134882812Y-96288624D01*
X135046784Y-96356544D01*
X135194354Y-96455147D01*
X135319853Y-96580646D01*
X135418456Y-96728216D01*
X135486376Y-96892188D01*
X135521000Y-97066259D01*
X135521000Y-97243741D01*
X135486376Y-97417812D01*
X135418456Y-97581784D01*
X135319853Y-97729354D01*
X135194354Y-97854853D01*
X135046784Y-97953456D01*
X134882812Y-98021376D01*
X134733512Y-98051073D01*
X134708742Y-98056000D01*
X134531258Y-98056000D01*
X134506488Y-98051073D01*
X134357188Y-98021376D01*
X134193216Y-97953456D01*
X134045646Y-97854853D01*
X133920147Y-97729354D01*
X133821544Y-97581784D01*
X133753624Y-97417812D01*
X133719000Y-97243741D01*
X133719000Y-97066259D01*
X133753624Y-96892188D01*
X133821544Y-96728216D01*
X133920147Y-96580646D01*
X134045646Y-96455147D01*
X134193216Y-96356544D01*
X134357188Y-96288624D01*
X134506488Y-96258927D01*
X134531258Y-96254000D01*
X134708742Y-96254000D01*
X134733512Y-96258927D01*
G37*
G36*
X132193512Y-96258927D02*
G01*
X132342812Y-96288624D01*
X132506784Y-96356544D01*
X132654354Y-96455147D01*
X132779853Y-96580646D01*
X132878456Y-96728216D01*
X132946376Y-96892188D01*
X132981000Y-97066259D01*
X132981000Y-97243741D01*
X132946376Y-97417812D01*
X132878456Y-97581784D01*
X132779853Y-97729354D01*
X132654354Y-97854853D01*
X132506784Y-97953456D01*
X132342812Y-98021376D01*
X132193512Y-98051073D01*
X132168742Y-98056000D01*
X131991258Y-98056000D01*
X131966488Y-98051073D01*
X131817188Y-98021376D01*
X131653216Y-97953456D01*
X131505646Y-97854853D01*
X131380147Y-97729354D01*
X131281544Y-97581784D01*
X131213624Y-97417812D01*
X131179000Y-97243741D01*
X131179000Y-97066259D01*
X131213624Y-96892188D01*
X131281544Y-96728216D01*
X131380147Y-96580646D01*
X131505646Y-96455147D01*
X131653216Y-96356544D01*
X131817188Y-96288624D01*
X131966488Y-96258927D01*
X131991258Y-96254000D01*
X132168742Y-96254000D01*
X132193512Y-96258927D01*
G37*
G36*
X129653512Y-96258927D02*
G01*
X129802812Y-96288624D01*
X129966784Y-96356544D01*
X130114354Y-96455147D01*
X130239853Y-96580646D01*
X130338456Y-96728216D01*
X130406376Y-96892188D01*
X130441000Y-97066259D01*
X130441000Y-97243741D01*
X130406376Y-97417812D01*
X130338456Y-97581784D01*
X130239853Y-97729354D01*
X130114354Y-97854853D01*
X129966784Y-97953456D01*
X129802812Y-98021376D01*
X129653512Y-98051073D01*
X129628742Y-98056000D01*
X129451258Y-98056000D01*
X129426488Y-98051073D01*
X129277188Y-98021376D01*
X129113216Y-97953456D01*
X128965646Y-97854853D01*
X128840147Y-97729354D01*
X128741544Y-97581784D01*
X128673624Y-97417812D01*
X128639000Y-97243741D01*
X128639000Y-97066259D01*
X128673624Y-96892188D01*
X128741544Y-96728216D01*
X128840147Y-96580646D01*
X128965646Y-96455147D01*
X129113216Y-96356544D01*
X129277188Y-96288624D01*
X129426488Y-96258927D01*
X129451258Y-96254000D01*
X129628742Y-96254000D01*
X129653512Y-96258927D01*
G37*
G36*
X127113512Y-96258927D02*
G01*
X127262812Y-96288624D01*
X127426784Y-96356544D01*
X127574354Y-96455147D01*
X127699853Y-96580646D01*
X127798456Y-96728216D01*
X127866376Y-96892188D01*
X127901000Y-97066259D01*
X127901000Y-97243741D01*
X127866376Y-97417812D01*
X127798456Y-97581784D01*
X127699853Y-97729354D01*
X127574354Y-97854853D01*
X127426784Y-97953456D01*
X127262812Y-98021376D01*
X127113512Y-98051073D01*
X127088742Y-98056000D01*
X126911258Y-98056000D01*
X126886488Y-98051073D01*
X126737188Y-98021376D01*
X126573216Y-97953456D01*
X126425646Y-97854853D01*
X126300147Y-97729354D01*
X126201544Y-97581784D01*
X126133624Y-97417812D01*
X126099000Y-97243741D01*
X126099000Y-97066259D01*
X126133624Y-96892188D01*
X126201544Y-96728216D01*
X126300147Y-96580646D01*
X126425646Y-96455147D01*
X126573216Y-96356544D01*
X126737188Y-96288624D01*
X126886488Y-96258927D01*
X126911258Y-96254000D01*
X127088742Y-96254000D01*
X127113512Y-96258927D01*
G37*
G36*
X124573512Y-96258927D02*
G01*
X124722812Y-96288624D01*
X124886784Y-96356544D01*
X125034354Y-96455147D01*
X125159853Y-96580646D01*
X125258456Y-96728216D01*
X125326376Y-96892188D01*
X125361000Y-97066259D01*
X125361000Y-97243741D01*
X125326376Y-97417812D01*
X125258456Y-97581784D01*
X125159853Y-97729354D01*
X125034354Y-97854853D01*
X124886784Y-97953456D01*
X124722812Y-98021376D01*
X124573512Y-98051073D01*
X124548742Y-98056000D01*
X124371258Y-98056000D01*
X124346488Y-98051073D01*
X124197188Y-98021376D01*
X124033216Y-97953456D01*
X123885646Y-97854853D01*
X123760147Y-97729354D01*
X123661544Y-97581784D01*
X123593624Y-97417812D01*
X123559000Y-97243741D01*
X123559000Y-97066259D01*
X123593624Y-96892188D01*
X123661544Y-96728216D01*
X123760147Y-96580646D01*
X123885646Y-96455147D01*
X124033216Y-96356544D01*
X124197188Y-96288624D01*
X124346488Y-96258927D01*
X124371258Y-96254000D01*
X124548742Y-96254000D01*
X124573512Y-96258927D01*
G37*
G36*
X147433512Y-96258927D02*
G01*
X147582812Y-96288624D01*
X147746784Y-96356544D01*
X147894354Y-96455147D01*
X148019853Y-96580646D01*
X148118456Y-96728216D01*
X148186376Y-96892188D01*
X148221000Y-97066259D01*
X148221000Y-97243741D01*
X148186376Y-97417812D01*
X148118456Y-97581784D01*
X148019853Y-97729354D01*
X147894354Y-97854853D01*
X147746784Y-97953456D01*
X147582812Y-98021376D01*
X147433512Y-98051073D01*
X147408742Y-98056000D01*
X147231258Y-98056000D01*
X147206488Y-98051073D01*
X147057188Y-98021376D01*
X146893216Y-97953456D01*
X146745646Y-97854853D01*
X146620147Y-97729354D01*
X146521544Y-97581784D01*
X146453624Y-97417812D01*
X146419000Y-97243741D01*
X146419000Y-97066259D01*
X146453624Y-96892188D01*
X146521544Y-96728216D01*
X146620147Y-96580646D01*
X146745646Y-96455147D01*
X146893216Y-96356544D01*
X147057188Y-96288624D01*
X147206488Y-96258927D01*
X147231258Y-96254000D01*
X147408742Y-96254000D01*
X147433512Y-96258927D01*
G37*
G36*
X167753512Y-96258927D02*
G01*
X167902812Y-96288624D01*
X168066784Y-96356544D01*
X168214354Y-96455147D01*
X168339853Y-96580646D01*
X168438456Y-96728216D01*
X168506376Y-96892188D01*
X168541000Y-97066259D01*
X168541000Y-97243741D01*
X168506376Y-97417812D01*
X168438456Y-97581784D01*
X168339853Y-97729354D01*
X168214354Y-97854853D01*
X168066784Y-97953456D01*
X167902812Y-98021376D01*
X167753512Y-98051073D01*
X167728742Y-98056000D01*
X167551258Y-98056000D01*
X167526488Y-98051073D01*
X167377188Y-98021376D01*
X167213216Y-97953456D01*
X167065646Y-97854853D01*
X166940147Y-97729354D01*
X166841544Y-97581784D01*
X166773624Y-97417812D01*
X166739000Y-97243741D01*
X166739000Y-97066259D01*
X166773624Y-96892188D01*
X166841544Y-96728216D01*
X166940147Y-96580646D01*
X167065646Y-96455147D01*
X167213216Y-96356544D01*
X167377188Y-96288624D01*
X167526488Y-96258927D01*
X167551258Y-96254000D01*
X167728742Y-96254000D01*
X167753512Y-96258927D01*
G37*
G36*
X149973512Y-96258927D02*
G01*
X150122812Y-96288624D01*
X150286784Y-96356544D01*
X150434354Y-96455147D01*
X150559853Y-96580646D01*
X150658456Y-96728216D01*
X150726376Y-96892188D01*
X150761000Y-97066259D01*
X150761000Y-97243741D01*
X150726376Y-97417812D01*
X150658456Y-97581784D01*
X150559853Y-97729354D01*
X150434354Y-97854853D01*
X150286784Y-97953456D01*
X150122812Y-98021376D01*
X149973512Y-98051073D01*
X149948742Y-98056000D01*
X149771258Y-98056000D01*
X149746488Y-98051073D01*
X149597188Y-98021376D01*
X149433216Y-97953456D01*
X149285646Y-97854853D01*
X149160147Y-97729354D01*
X149061544Y-97581784D01*
X148993624Y-97417812D01*
X148959000Y-97243741D01*
X148959000Y-97066259D01*
X148993624Y-96892188D01*
X149061544Y-96728216D01*
X149160147Y-96580646D01*
X149285646Y-96455147D01*
X149433216Y-96356544D01*
X149597188Y-96288624D01*
X149746488Y-96258927D01*
X149771258Y-96254000D01*
X149948742Y-96254000D01*
X149973512Y-96258927D01*
G37*
G36*
X165213512Y-96258927D02*
G01*
X165362812Y-96288624D01*
X165526784Y-96356544D01*
X165674354Y-96455147D01*
X165799853Y-96580646D01*
X165898456Y-96728216D01*
X165966376Y-96892188D01*
X166001000Y-97066259D01*
X166001000Y-97243741D01*
X165966376Y-97417812D01*
X165898456Y-97581784D01*
X165799853Y-97729354D01*
X165674354Y-97854853D01*
X165526784Y-97953456D01*
X165362812Y-98021376D01*
X165213512Y-98051073D01*
X165188742Y-98056000D01*
X165011258Y-98056000D01*
X164986488Y-98051073D01*
X164837188Y-98021376D01*
X164673216Y-97953456D01*
X164525646Y-97854853D01*
X164400147Y-97729354D01*
X164301544Y-97581784D01*
X164233624Y-97417812D01*
X164199000Y-97243741D01*
X164199000Y-97066259D01*
X164233624Y-96892188D01*
X164301544Y-96728216D01*
X164400147Y-96580646D01*
X164525646Y-96455147D01*
X164673216Y-96356544D01*
X164837188Y-96288624D01*
X164986488Y-96258927D01*
X165011258Y-96254000D01*
X165188742Y-96254000D01*
X165213512Y-96258927D01*
G37*
G36*
X122033512Y-96258927D02*
G01*
X122182812Y-96288624D01*
X122346784Y-96356544D01*
X122494354Y-96455147D01*
X122619853Y-96580646D01*
X122718456Y-96728216D01*
X122786376Y-96892188D01*
X122821000Y-97066259D01*
X122821000Y-97243741D01*
X122786376Y-97417812D01*
X122718456Y-97581784D01*
X122619853Y-97729354D01*
X122494354Y-97854853D01*
X122346784Y-97953456D01*
X122182812Y-98021376D01*
X122033512Y-98051073D01*
X122008742Y-98056000D01*
X121831258Y-98056000D01*
X121806488Y-98051073D01*
X121657188Y-98021376D01*
X121493216Y-97953456D01*
X121345646Y-97854853D01*
X121220147Y-97729354D01*
X121121544Y-97581784D01*
X121053624Y-97417812D01*
X121019000Y-97243741D01*
X121019000Y-97066259D01*
X121053624Y-96892188D01*
X121121544Y-96728216D01*
X121220147Y-96580646D01*
X121345646Y-96455147D01*
X121493216Y-96356544D01*
X121657188Y-96288624D01*
X121806488Y-96258927D01*
X121831258Y-96254000D01*
X122008742Y-96254000D01*
X122033512Y-96258927D01*
G37*
G36*
X162673512Y-96258927D02*
G01*
X162822812Y-96288624D01*
X162986784Y-96356544D01*
X163134354Y-96455147D01*
X163259853Y-96580646D01*
X163358456Y-96728216D01*
X163426376Y-96892188D01*
X163461000Y-97066259D01*
X163461000Y-97243741D01*
X163426376Y-97417812D01*
X163358456Y-97581784D01*
X163259853Y-97729354D01*
X163134354Y-97854853D01*
X162986784Y-97953456D01*
X162822812Y-98021376D01*
X162673512Y-98051073D01*
X162648742Y-98056000D01*
X162471258Y-98056000D01*
X162446488Y-98051073D01*
X162297188Y-98021376D01*
X162133216Y-97953456D01*
X161985646Y-97854853D01*
X161860147Y-97729354D01*
X161761544Y-97581784D01*
X161693624Y-97417812D01*
X161659000Y-97243741D01*
X161659000Y-97066259D01*
X161693624Y-96892188D01*
X161761544Y-96728216D01*
X161860147Y-96580646D01*
X161985646Y-96455147D01*
X162133216Y-96356544D01*
X162297188Y-96288624D01*
X162446488Y-96258927D01*
X162471258Y-96254000D01*
X162648742Y-96254000D01*
X162673512Y-96258927D01*
G37*
G36*
X152513512Y-96258927D02*
G01*
X152662812Y-96288624D01*
X152826784Y-96356544D01*
X152974354Y-96455147D01*
X153099853Y-96580646D01*
X153198456Y-96728216D01*
X153266376Y-96892188D01*
X153301000Y-97066259D01*
X153301000Y-97243741D01*
X153266376Y-97417812D01*
X153198456Y-97581784D01*
X153099853Y-97729354D01*
X152974354Y-97854853D01*
X152826784Y-97953456D01*
X152662812Y-98021376D01*
X152513512Y-98051073D01*
X152488742Y-98056000D01*
X152311258Y-98056000D01*
X152286488Y-98051073D01*
X152137188Y-98021376D01*
X151973216Y-97953456D01*
X151825646Y-97854853D01*
X151700147Y-97729354D01*
X151601544Y-97581784D01*
X151533624Y-97417812D01*
X151499000Y-97243741D01*
X151499000Y-97066259D01*
X151533624Y-96892188D01*
X151601544Y-96728216D01*
X151700147Y-96580646D01*
X151825646Y-96455147D01*
X151973216Y-96356544D01*
X152137188Y-96288624D01*
X152286488Y-96258927D01*
X152311258Y-96254000D01*
X152488742Y-96254000D01*
X152513512Y-96258927D01*
G37*
G36*
X160133512Y-96258927D02*
G01*
X160282812Y-96288624D01*
X160446784Y-96356544D01*
X160594354Y-96455147D01*
X160719853Y-96580646D01*
X160818456Y-96728216D01*
X160886376Y-96892188D01*
X160921000Y-97066259D01*
X160921000Y-97243741D01*
X160886376Y-97417812D01*
X160818456Y-97581784D01*
X160719853Y-97729354D01*
X160594354Y-97854853D01*
X160446784Y-97953456D01*
X160282812Y-98021376D01*
X160133512Y-98051073D01*
X160108742Y-98056000D01*
X159931258Y-98056000D01*
X159906488Y-98051073D01*
X159757188Y-98021376D01*
X159593216Y-97953456D01*
X159445646Y-97854853D01*
X159320147Y-97729354D01*
X159221544Y-97581784D01*
X159153624Y-97417812D01*
X159119000Y-97243741D01*
X159119000Y-97066259D01*
X159153624Y-96892188D01*
X159221544Y-96728216D01*
X159320147Y-96580646D01*
X159445646Y-96455147D01*
X159593216Y-96356544D01*
X159757188Y-96288624D01*
X159906488Y-96258927D01*
X159931258Y-96254000D01*
X160108742Y-96254000D01*
X160133512Y-96258927D01*
G37*
G36*
X119493512Y-96258927D02*
G01*
X119642812Y-96288624D01*
X119806784Y-96356544D01*
X119954354Y-96455147D01*
X120079853Y-96580646D01*
X120178456Y-96728216D01*
X120246376Y-96892188D01*
X120281000Y-97066259D01*
X120281000Y-97243741D01*
X120246376Y-97417812D01*
X120178456Y-97581784D01*
X120079853Y-97729354D01*
X119954354Y-97854853D01*
X119806784Y-97953456D01*
X119642812Y-98021376D01*
X119493512Y-98051073D01*
X119468742Y-98056000D01*
X119291258Y-98056000D01*
X119266488Y-98051073D01*
X119117188Y-98021376D01*
X118953216Y-97953456D01*
X118805646Y-97854853D01*
X118680147Y-97729354D01*
X118581544Y-97581784D01*
X118513624Y-97417812D01*
X118479000Y-97243741D01*
X118479000Y-97066259D01*
X118513624Y-96892188D01*
X118581544Y-96728216D01*
X118680147Y-96580646D01*
X118805646Y-96455147D01*
X118953216Y-96356544D01*
X119117188Y-96288624D01*
X119266488Y-96258927D01*
X119291258Y-96254000D01*
X119468742Y-96254000D01*
X119493512Y-96258927D01*
G37*
M02*
