%TF.GenerationSoftware,KiCad,Pcbnew,5.1.5+dfsg1-2build2*%
%TF.CreationDate,2021-11-27T13:08:24+01:00*%
%TF.ProjectId,rpi-han-interface,7270692d-6861-46e2-9d69-6e7465726661,rev?*%
%TF.SameCoordinates,Original*%
%TF.FileFunction,Soldermask,Top*%
%TF.FilePolarity,Negative*%
%FSLAX46Y46*%
G04 Gerber Fmt 4.6, Leading zero omitted, Abs format (unit mm)*
G04 Created by KiCad (PCBNEW 5.1.5+dfsg1-2build2) date 2021-11-27 13:08:24*
%MOMM*%
%LPD*%
G04 APERTURE LIST*
%ADD10C,0.100000*%
G04 APERTURE END LIST*
D10*
G36*
X172889487Y-120173996D02*
G01*
X173126253Y-120272068D01*
X173126255Y-120272069D01*
X173339339Y-120414447D01*
X173520553Y-120595661D01*
X173662932Y-120808747D01*
X173761004Y-121045513D01*
X173811000Y-121296861D01*
X173811000Y-121553139D01*
X173761004Y-121804487D01*
X173662932Y-122041253D01*
X173662931Y-122041255D01*
X173520553Y-122254339D01*
X173339339Y-122435553D01*
X173126255Y-122577931D01*
X173126254Y-122577932D01*
X173126253Y-122577932D01*
X172889487Y-122676004D01*
X172638139Y-122726000D01*
X172381861Y-122726000D01*
X172130513Y-122676004D01*
X171893747Y-122577932D01*
X171893746Y-122577932D01*
X171893745Y-122577931D01*
X171680661Y-122435553D01*
X171499447Y-122254339D01*
X171357069Y-122041255D01*
X171357068Y-122041253D01*
X171258996Y-121804487D01*
X171209000Y-121553139D01*
X171209000Y-121296861D01*
X171258996Y-121045513D01*
X171357068Y-120808747D01*
X171499447Y-120595661D01*
X171680661Y-120414447D01*
X171893745Y-120272069D01*
X171893747Y-120272068D01*
X172130513Y-120173996D01*
X172381861Y-120124000D01*
X172638139Y-120124000D01*
X172889487Y-120173996D01*
G37*
G36*
X114889487Y-120173996D02*
G01*
X115126253Y-120272068D01*
X115126255Y-120272069D01*
X115339339Y-120414447D01*
X115520553Y-120595661D01*
X115662932Y-120808747D01*
X115761004Y-121045513D01*
X115811000Y-121296861D01*
X115811000Y-121553139D01*
X115761004Y-121804487D01*
X115662932Y-122041253D01*
X115662931Y-122041255D01*
X115520553Y-122254339D01*
X115339339Y-122435553D01*
X115126255Y-122577931D01*
X115126254Y-122577932D01*
X115126253Y-122577932D01*
X114889487Y-122676004D01*
X114638139Y-122726000D01*
X114381861Y-122726000D01*
X114130513Y-122676004D01*
X113893747Y-122577932D01*
X113893746Y-122577932D01*
X113893745Y-122577931D01*
X113680661Y-122435553D01*
X113499447Y-122254339D01*
X113357069Y-122041255D01*
X113357068Y-122041253D01*
X113258996Y-121804487D01*
X113209000Y-121553139D01*
X113209000Y-121296861D01*
X113258996Y-121045513D01*
X113357068Y-120808747D01*
X113499447Y-120595661D01*
X113680661Y-120414447D01*
X113893745Y-120272069D01*
X113893747Y-120272068D01*
X114130513Y-120173996D01*
X114381861Y-120124000D01*
X114638139Y-120124000D01*
X114889487Y-120173996D01*
G37*
G36*
X119233871Y-113323408D02*
G01*
X119538883Y-113449748D01*
X119813387Y-113633166D01*
X120046834Y-113866613D01*
X120230252Y-114141117D01*
X120356592Y-114446129D01*
X120421000Y-114769928D01*
X120421000Y-115100072D01*
X120356592Y-115423871D01*
X120230252Y-115728883D01*
X120046834Y-116003387D01*
X119813387Y-116236834D01*
X119538883Y-116420252D01*
X119233871Y-116546592D01*
X118910073Y-116611000D01*
X118579927Y-116611000D01*
X118256129Y-116546592D01*
X117951117Y-116420252D01*
X117676613Y-116236834D01*
X117443166Y-116003387D01*
X117259748Y-115728883D01*
X117133408Y-115423871D01*
X117069000Y-115100072D01*
X117069000Y-114769928D01*
X117133408Y-114446129D01*
X117259748Y-114141117D01*
X117443166Y-113866613D01*
X117676613Y-113633166D01*
X117951117Y-113449748D01*
X118256129Y-113323408D01*
X118579927Y-113259000D01*
X118910073Y-113259000D01*
X119233871Y-113323408D01*
G37*
G36*
X168041968Y-112918565D02*
G01*
X168080638Y-112930296D01*
X168116277Y-112949346D01*
X168147517Y-112974983D01*
X168173154Y-113006223D01*
X168192204Y-113041862D01*
X168203935Y-113080532D01*
X168208500Y-113126888D01*
X168208500Y-114203112D01*
X168203935Y-114249468D01*
X168192204Y-114288138D01*
X168173154Y-114323777D01*
X168147517Y-114355017D01*
X168116277Y-114380654D01*
X168080638Y-114399704D01*
X168041968Y-114411435D01*
X167995612Y-114416000D01*
X167344388Y-114416000D01*
X167298032Y-114411435D01*
X167259362Y-114399704D01*
X167223723Y-114380654D01*
X167192483Y-114355017D01*
X167166846Y-114323777D01*
X167147796Y-114288138D01*
X167136065Y-114249468D01*
X167131500Y-114203112D01*
X167131500Y-113126888D01*
X167136065Y-113080532D01*
X167147796Y-113041862D01*
X167166846Y-113006223D01*
X167192483Y-112974983D01*
X167223723Y-112949346D01*
X167259362Y-112930296D01*
X167298032Y-112918565D01*
X167344388Y-112914000D01*
X167995612Y-112914000D01*
X168041968Y-112918565D01*
G37*
G36*
X173726968Y-112918565D02*
G01*
X173765638Y-112930296D01*
X173801277Y-112949346D01*
X173832517Y-112974983D01*
X173858154Y-113006223D01*
X173877204Y-113041862D01*
X173888935Y-113080532D01*
X173893500Y-113126888D01*
X173893500Y-114203112D01*
X173888935Y-114249468D01*
X173877204Y-114288138D01*
X173858154Y-114323777D01*
X173832517Y-114355017D01*
X173801277Y-114380654D01*
X173765638Y-114399704D01*
X173726968Y-114411435D01*
X173680612Y-114416000D01*
X173029388Y-114416000D01*
X172983032Y-114411435D01*
X172944362Y-114399704D01*
X172908723Y-114380654D01*
X172877483Y-114355017D01*
X172851846Y-114323777D01*
X172832796Y-114288138D01*
X172821065Y-114249468D01*
X172816500Y-114203112D01*
X172816500Y-113126888D01*
X172821065Y-113080532D01*
X172832796Y-113041862D01*
X172851846Y-113006223D01*
X172877483Y-112974983D01*
X172908723Y-112949346D01*
X172944362Y-112930296D01*
X172983032Y-112918565D01*
X173029388Y-112914000D01*
X173680612Y-112914000D01*
X173726968Y-112918565D01*
G37*
G36*
X171851968Y-112918565D02*
G01*
X171890638Y-112930296D01*
X171926277Y-112949346D01*
X171957517Y-112974983D01*
X171983154Y-113006223D01*
X172002204Y-113041862D01*
X172013935Y-113080532D01*
X172018500Y-113126888D01*
X172018500Y-114203112D01*
X172013935Y-114249468D01*
X172002204Y-114288138D01*
X171983154Y-114323777D01*
X171957517Y-114355017D01*
X171926277Y-114380654D01*
X171890638Y-114399704D01*
X171851968Y-114411435D01*
X171805612Y-114416000D01*
X171154388Y-114416000D01*
X171108032Y-114411435D01*
X171069362Y-114399704D01*
X171033723Y-114380654D01*
X171002483Y-114355017D01*
X170976846Y-114323777D01*
X170957796Y-114288138D01*
X170946065Y-114249468D01*
X170941500Y-114203112D01*
X170941500Y-113126888D01*
X170946065Y-113080532D01*
X170957796Y-113041862D01*
X170976846Y-113006223D01*
X171002483Y-112974983D01*
X171033723Y-112949346D01*
X171069362Y-112930296D01*
X171108032Y-112918565D01*
X171154388Y-112914000D01*
X171805612Y-112914000D01*
X171851968Y-112918565D01*
G37*
G36*
X137531968Y-112918565D02*
G01*
X137570638Y-112930296D01*
X137606277Y-112949346D01*
X137637517Y-112974983D01*
X137663154Y-113006223D01*
X137682204Y-113041862D01*
X137693935Y-113080532D01*
X137698500Y-113126888D01*
X137698500Y-114203112D01*
X137693935Y-114249468D01*
X137682204Y-114288138D01*
X137663154Y-114323777D01*
X137637517Y-114355017D01*
X137606277Y-114380654D01*
X137570638Y-114399704D01*
X137531968Y-114411435D01*
X137485612Y-114416000D01*
X136834388Y-114416000D01*
X136788032Y-114411435D01*
X136749362Y-114399704D01*
X136713723Y-114380654D01*
X136682483Y-114355017D01*
X136656846Y-114323777D01*
X136637796Y-114288138D01*
X136626065Y-114249468D01*
X136621500Y-114203112D01*
X136621500Y-113126888D01*
X136626065Y-113080532D01*
X136637796Y-113041862D01*
X136656846Y-113006223D01*
X136682483Y-112974983D01*
X136713723Y-112949346D01*
X136749362Y-112930296D01*
X136788032Y-112918565D01*
X136834388Y-112914000D01*
X137485612Y-112914000D01*
X137531968Y-112918565D01*
G37*
G36*
X135656968Y-112918565D02*
G01*
X135695638Y-112930296D01*
X135731277Y-112949346D01*
X135762517Y-112974983D01*
X135788154Y-113006223D01*
X135807204Y-113041862D01*
X135818935Y-113080532D01*
X135823500Y-113126888D01*
X135823500Y-114203112D01*
X135818935Y-114249468D01*
X135807204Y-114288138D01*
X135788154Y-114323777D01*
X135762517Y-114355017D01*
X135731277Y-114380654D01*
X135695638Y-114399704D01*
X135656968Y-114411435D01*
X135610612Y-114416000D01*
X134959388Y-114416000D01*
X134913032Y-114411435D01*
X134874362Y-114399704D01*
X134838723Y-114380654D01*
X134807483Y-114355017D01*
X134781846Y-114323777D01*
X134762796Y-114288138D01*
X134751065Y-114249468D01*
X134746500Y-114203112D01*
X134746500Y-113126888D01*
X134751065Y-113080532D01*
X134762796Y-113041862D01*
X134781846Y-113006223D01*
X134807483Y-112974983D01*
X134838723Y-112949346D01*
X134874362Y-112930296D01*
X134913032Y-112918565D01*
X134959388Y-112914000D01*
X135610612Y-112914000D01*
X135656968Y-112918565D01*
G37*
G36*
X169916968Y-112918565D02*
G01*
X169955638Y-112930296D01*
X169991277Y-112949346D01*
X170022517Y-112974983D01*
X170048154Y-113006223D01*
X170067204Y-113041862D01*
X170078935Y-113080532D01*
X170083500Y-113126888D01*
X170083500Y-114203112D01*
X170078935Y-114249468D01*
X170067204Y-114288138D01*
X170048154Y-114323777D01*
X170022517Y-114355017D01*
X169991277Y-114380654D01*
X169955638Y-114399704D01*
X169916968Y-114411435D01*
X169870612Y-114416000D01*
X169219388Y-114416000D01*
X169173032Y-114411435D01*
X169134362Y-114399704D01*
X169098723Y-114380654D01*
X169067483Y-114355017D01*
X169041846Y-114323777D01*
X169022796Y-114288138D01*
X169011065Y-114249468D01*
X169006500Y-114203112D01*
X169006500Y-113126888D01*
X169011065Y-113080532D01*
X169022796Y-113041862D01*
X169041846Y-113006223D01*
X169067483Y-112974983D01*
X169098723Y-112949346D01*
X169134362Y-112930296D01*
X169173032Y-112918565D01*
X169219388Y-112914000D01*
X169870612Y-112914000D01*
X169916968Y-112918565D01*
G37*
G36*
X141741000Y-114261000D02*
G01*
X140839000Y-114261000D01*
X140839000Y-113259000D01*
X141741000Y-113259000D01*
X141741000Y-114261000D01*
G37*
G36*
X143641000Y-114261000D02*
G01*
X142739000Y-114261000D01*
X142739000Y-113259000D01*
X143641000Y-113259000D01*
X143641000Y-114261000D01*
G37*
G36*
X139649468Y-113101065D02*
G01*
X139688138Y-113112796D01*
X139723777Y-113131846D01*
X139755017Y-113157483D01*
X139780654Y-113188723D01*
X139799704Y-113224362D01*
X139811435Y-113263032D01*
X139816000Y-113309388D01*
X139816000Y-113960612D01*
X139811435Y-114006968D01*
X139799704Y-114045638D01*
X139780654Y-114081277D01*
X139755017Y-114112517D01*
X139723777Y-114138154D01*
X139688138Y-114157204D01*
X139649468Y-114168935D01*
X139603112Y-114173500D01*
X138526888Y-114173500D01*
X138480532Y-114168935D01*
X138441862Y-114157204D01*
X138406223Y-114138154D01*
X138374983Y-114112517D01*
X138349346Y-114081277D01*
X138330296Y-114045638D01*
X138318565Y-114006968D01*
X138314000Y-113960612D01*
X138314000Y-113309388D01*
X138318565Y-113263032D01*
X138330296Y-113224362D01*
X138349346Y-113188723D01*
X138374983Y-113157483D01*
X138406223Y-113131846D01*
X138441862Y-113112796D01*
X138480532Y-113101065D01*
X138526888Y-113096500D01*
X139603112Y-113096500D01*
X139649468Y-113101065D01*
G37*
G36*
X131946000Y-114111000D02*
G01*
X130944000Y-114111000D01*
X130944000Y-113209000D01*
X131946000Y-113209000D01*
X131946000Y-114111000D01*
G37*
G36*
X125331560Y-112255166D02*
G01*
X125423687Y-112293326D01*
X125479153Y-112316301D01*
X125611982Y-112405055D01*
X125724945Y-112518018D01*
X125763688Y-112576000D01*
X125813700Y-112650849D01*
X125874834Y-112798440D01*
X125906000Y-112955122D01*
X125906000Y-113114878D01*
X125897525Y-113157483D01*
X125874834Y-113271560D01*
X125813699Y-113419153D01*
X125724945Y-113551982D01*
X125611982Y-113664945D01*
X125479153Y-113753699D01*
X125479152Y-113753700D01*
X125479151Y-113753700D01*
X125331560Y-113814834D01*
X125174878Y-113846000D01*
X125015122Y-113846000D01*
X124858440Y-113814834D01*
X124710849Y-113753700D01*
X124710848Y-113753700D01*
X124710847Y-113753699D01*
X124578018Y-113664945D01*
X124465055Y-113551982D01*
X124376301Y-113419153D01*
X124315166Y-113271560D01*
X124292475Y-113157483D01*
X124284000Y-113114878D01*
X124284000Y-112955122D01*
X124315166Y-112798440D01*
X124376300Y-112650849D01*
X124426313Y-112576000D01*
X124465055Y-112518018D01*
X124578018Y-112405055D01*
X124710847Y-112316301D01*
X124766314Y-112293326D01*
X124858440Y-112255166D01*
X125015122Y-112224000D01*
X125174878Y-112224000D01*
X125331560Y-112255166D01*
G37*
G36*
X133946000Y-113161000D02*
G01*
X132944000Y-113161000D01*
X132944000Y-112259000D01*
X133946000Y-112259000D01*
X133946000Y-113161000D01*
G37*
G36*
X127871560Y-110985166D02*
G01*
X128014434Y-111044346D01*
X128019153Y-111046301D01*
X128151982Y-111135055D01*
X128264945Y-111248018D01*
X128303688Y-111306000D01*
X128353700Y-111380849D01*
X128399222Y-111490750D01*
X128414834Y-111528440D01*
X128446000Y-111685123D01*
X128446000Y-111844877D01*
X128414834Y-112001560D01*
X128353699Y-112149153D01*
X128264945Y-112281982D01*
X128151982Y-112394945D01*
X128019153Y-112483699D01*
X128019152Y-112483700D01*
X128019151Y-112483700D01*
X127871560Y-112544834D01*
X127714878Y-112576000D01*
X127555122Y-112576000D01*
X127398440Y-112544834D01*
X127250849Y-112483700D01*
X127250848Y-112483700D01*
X127250847Y-112483699D01*
X127118018Y-112394945D01*
X127005055Y-112281982D01*
X126916301Y-112149153D01*
X126855166Y-112001560D01*
X126824000Y-111844877D01*
X126824000Y-111685123D01*
X126855166Y-111528440D01*
X126870778Y-111490750D01*
X126916300Y-111380849D01*
X126966313Y-111306000D01*
X127005055Y-111248018D01*
X127118018Y-111135055D01*
X127250847Y-111046301D01*
X127255567Y-111044346D01*
X127398440Y-110985166D01*
X127555122Y-110954000D01*
X127714878Y-110954000D01*
X127871560Y-110985166D01*
G37*
G36*
X135656968Y-111013565D02*
G01*
X135695638Y-111025296D01*
X135731277Y-111044346D01*
X135762517Y-111069983D01*
X135788154Y-111101223D01*
X135807204Y-111136862D01*
X135818935Y-111175532D01*
X135823500Y-111221888D01*
X135823500Y-112298112D01*
X135818935Y-112344468D01*
X135807204Y-112383138D01*
X135788154Y-112418777D01*
X135762517Y-112450017D01*
X135731277Y-112475654D01*
X135695638Y-112494704D01*
X135656968Y-112506435D01*
X135610612Y-112511000D01*
X134959388Y-112511000D01*
X134913032Y-112506435D01*
X134874362Y-112494704D01*
X134838723Y-112475654D01*
X134807483Y-112450017D01*
X134781846Y-112418777D01*
X134762796Y-112383138D01*
X134751065Y-112344468D01*
X134746500Y-112298112D01*
X134746500Y-111221888D01*
X134751065Y-111175532D01*
X134762796Y-111136862D01*
X134781846Y-111101223D01*
X134807483Y-111069983D01*
X134838723Y-111044346D01*
X134874362Y-111025296D01*
X134913032Y-111013565D01*
X134959388Y-111009000D01*
X135610612Y-111009000D01*
X135656968Y-111013565D01*
G37*
G36*
X137531968Y-111013565D02*
G01*
X137570638Y-111025296D01*
X137606277Y-111044346D01*
X137637517Y-111069983D01*
X137663154Y-111101223D01*
X137682204Y-111136862D01*
X137693935Y-111175532D01*
X137698500Y-111221888D01*
X137698500Y-112298112D01*
X137693935Y-112344468D01*
X137682204Y-112383138D01*
X137663154Y-112418777D01*
X137637517Y-112450017D01*
X137606277Y-112475654D01*
X137570638Y-112494704D01*
X137531968Y-112506435D01*
X137485612Y-112511000D01*
X136834388Y-112511000D01*
X136788032Y-112506435D01*
X136749362Y-112494704D01*
X136713723Y-112475654D01*
X136682483Y-112450017D01*
X136656846Y-112418777D01*
X136637796Y-112383138D01*
X136626065Y-112344468D01*
X136621500Y-112298112D01*
X136621500Y-111221888D01*
X136626065Y-111175532D01*
X136637796Y-111136862D01*
X136656846Y-111101223D01*
X136682483Y-111069983D01*
X136713723Y-111044346D01*
X136749362Y-111025296D01*
X136788032Y-111013565D01*
X136834388Y-111009000D01*
X137485612Y-111009000D01*
X137531968Y-111013565D01*
G37*
G36*
X139649468Y-111226065D02*
G01*
X139688138Y-111237796D01*
X139723777Y-111256846D01*
X139755017Y-111282483D01*
X139780654Y-111313723D01*
X139799704Y-111349362D01*
X139811435Y-111388032D01*
X139816000Y-111434388D01*
X139816000Y-112085612D01*
X139811435Y-112131968D01*
X139799704Y-112170638D01*
X139780654Y-112206277D01*
X139755017Y-112237517D01*
X139723777Y-112263154D01*
X139688138Y-112282204D01*
X139649468Y-112293935D01*
X139603112Y-112298500D01*
X138526888Y-112298500D01*
X138480532Y-112293935D01*
X138441862Y-112282204D01*
X138406223Y-112263154D01*
X138374983Y-112237517D01*
X138349346Y-112206277D01*
X138330296Y-112170638D01*
X138318565Y-112131968D01*
X138314000Y-112085612D01*
X138314000Y-111434388D01*
X138318565Y-111388032D01*
X138330296Y-111349362D01*
X138349346Y-111313723D01*
X138374983Y-111282483D01*
X138406223Y-111256846D01*
X138441862Y-111237796D01*
X138480532Y-111226065D01*
X138526888Y-111221500D01*
X139603112Y-111221500D01*
X139649468Y-111226065D01*
G37*
G36*
X142691000Y-112261000D02*
G01*
X141789000Y-112261000D01*
X141789000Y-111259000D01*
X142691000Y-111259000D01*
X142691000Y-112261000D01*
G37*
G36*
X131946000Y-112211000D02*
G01*
X130944000Y-112211000D01*
X130944000Y-111309000D01*
X131946000Y-111309000D01*
X131946000Y-112211000D01*
G37*
G36*
X125331560Y-109715166D02*
G01*
X125479153Y-109776301D01*
X125611982Y-109865055D01*
X125724945Y-109978018D01*
X125763688Y-110036000D01*
X125813700Y-110110849D01*
X125874834Y-110258440D01*
X125906000Y-110415122D01*
X125906000Y-110574878D01*
X125900717Y-110601435D01*
X125874834Y-110731560D01*
X125813699Y-110879153D01*
X125724945Y-111011982D01*
X125611982Y-111124945D01*
X125479153Y-111213699D01*
X125479152Y-111213700D01*
X125479151Y-111213700D01*
X125331560Y-111274834D01*
X125174878Y-111306000D01*
X125015122Y-111306000D01*
X124858440Y-111274834D01*
X124710849Y-111213700D01*
X124710848Y-111213700D01*
X124710847Y-111213699D01*
X124578018Y-111124945D01*
X124465055Y-111011982D01*
X124376301Y-110879153D01*
X124315166Y-110731560D01*
X124289283Y-110601435D01*
X124284000Y-110574878D01*
X124284000Y-110415122D01*
X124315166Y-110258440D01*
X124376300Y-110110849D01*
X124426313Y-110036000D01*
X124465055Y-109978018D01*
X124578018Y-109865055D01*
X124710847Y-109776301D01*
X124858440Y-109715166D01*
X125015122Y-109684000D01*
X125174878Y-109684000D01*
X125331560Y-109715166D01*
G37*
G36*
X156915997Y-107423051D02*
G01*
X156949652Y-107433261D01*
X156980665Y-107449838D01*
X157007851Y-107472149D01*
X157030162Y-107499335D01*
X157046739Y-107530348D01*
X157056949Y-107564003D01*
X157061000Y-107605138D01*
X157061000Y-110834862D01*
X157056949Y-110875997D01*
X157046739Y-110909652D01*
X157030162Y-110940665D01*
X157007851Y-110967851D01*
X156980665Y-110990162D01*
X156949652Y-111006739D01*
X156915997Y-111016949D01*
X156874862Y-111021000D01*
X155545138Y-111021000D01*
X155504003Y-111016949D01*
X155470348Y-111006739D01*
X155439335Y-110990162D01*
X155412149Y-110967851D01*
X155389838Y-110940665D01*
X155373261Y-110909652D01*
X155363051Y-110875997D01*
X155359000Y-110834862D01*
X155359000Y-107605138D01*
X155363051Y-107564003D01*
X155373261Y-107530348D01*
X155389838Y-107499335D01*
X155412149Y-107472149D01*
X155439335Y-107449838D01*
X155470348Y-107433261D01*
X155504003Y-107423051D01*
X155545138Y-107419000D01*
X156874862Y-107419000D01*
X156915997Y-107423051D01*
G37*
G36*
X149168997Y-107423051D02*
G01*
X149202652Y-107433261D01*
X149233665Y-107449838D01*
X149260851Y-107472149D01*
X149283162Y-107499335D01*
X149299739Y-107530348D01*
X149309949Y-107564003D01*
X149314000Y-107605138D01*
X149314000Y-110834862D01*
X149309949Y-110875997D01*
X149299739Y-110909652D01*
X149283162Y-110940665D01*
X149260851Y-110967851D01*
X149233665Y-110990162D01*
X149202652Y-111006739D01*
X149168997Y-111016949D01*
X149127862Y-111021000D01*
X147798138Y-111021000D01*
X147757003Y-111016949D01*
X147723348Y-111006739D01*
X147692335Y-110990162D01*
X147665149Y-110967851D01*
X147642838Y-110940665D01*
X147626261Y-110909652D01*
X147616051Y-110875997D01*
X147612000Y-110834862D01*
X147612000Y-107605138D01*
X147616051Y-107564003D01*
X147626261Y-107530348D01*
X147642838Y-107499335D01*
X147665149Y-107472149D01*
X147692335Y-107449838D01*
X147723348Y-107433261D01*
X147757003Y-107423051D01*
X147798138Y-107419000D01*
X149127862Y-107419000D01*
X149168997Y-107423051D01*
G37*
G36*
X171821968Y-109108565D02*
G01*
X171860638Y-109120296D01*
X171896277Y-109139346D01*
X171927517Y-109164983D01*
X171953154Y-109196223D01*
X171972204Y-109231862D01*
X171983935Y-109270532D01*
X171988500Y-109316888D01*
X171988500Y-110393112D01*
X171983935Y-110439468D01*
X171972204Y-110478138D01*
X171953154Y-110513777D01*
X171927517Y-110545017D01*
X171896277Y-110570654D01*
X171860638Y-110589704D01*
X171821968Y-110601435D01*
X171775612Y-110606000D01*
X171124388Y-110606000D01*
X171078032Y-110601435D01*
X171039362Y-110589704D01*
X171003723Y-110570654D01*
X170972483Y-110545017D01*
X170946846Y-110513777D01*
X170927796Y-110478138D01*
X170916065Y-110439468D01*
X170911500Y-110393112D01*
X170911500Y-109316888D01*
X170916065Y-109270532D01*
X170927796Y-109231862D01*
X170946846Y-109196223D01*
X170972483Y-109164983D01*
X171003723Y-109139346D01*
X171039362Y-109120296D01*
X171078032Y-109108565D01*
X171124388Y-109104000D01*
X171775612Y-109104000D01*
X171821968Y-109108565D01*
G37*
G36*
X168011968Y-109108565D02*
G01*
X168050638Y-109120296D01*
X168086277Y-109139346D01*
X168117517Y-109164983D01*
X168143154Y-109196223D01*
X168162204Y-109231862D01*
X168173935Y-109270532D01*
X168178500Y-109316888D01*
X168178500Y-110393112D01*
X168173935Y-110439468D01*
X168162204Y-110478138D01*
X168143154Y-110513777D01*
X168117517Y-110545017D01*
X168086277Y-110570654D01*
X168050638Y-110589704D01*
X168011968Y-110601435D01*
X167965612Y-110606000D01*
X167314388Y-110606000D01*
X167268032Y-110601435D01*
X167229362Y-110589704D01*
X167193723Y-110570654D01*
X167162483Y-110545017D01*
X167136846Y-110513777D01*
X167117796Y-110478138D01*
X167106065Y-110439468D01*
X167101500Y-110393112D01*
X167101500Y-109316888D01*
X167106065Y-109270532D01*
X167117796Y-109231862D01*
X167136846Y-109196223D01*
X167162483Y-109164983D01*
X167193723Y-109139346D01*
X167229362Y-109120296D01*
X167268032Y-109108565D01*
X167314388Y-109104000D01*
X167965612Y-109104000D01*
X168011968Y-109108565D01*
G37*
G36*
X173696968Y-109108565D02*
G01*
X173735638Y-109120296D01*
X173771277Y-109139346D01*
X173802517Y-109164983D01*
X173828154Y-109196223D01*
X173847204Y-109231862D01*
X173858935Y-109270532D01*
X173863500Y-109316888D01*
X173863500Y-110393112D01*
X173858935Y-110439468D01*
X173847204Y-110478138D01*
X173828154Y-110513777D01*
X173802517Y-110545017D01*
X173771277Y-110570654D01*
X173735638Y-110589704D01*
X173696968Y-110601435D01*
X173650612Y-110606000D01*
X172999388Y-110606000D01*
X172953032Y-110601435D01*
X172914362Y-110589704D01*
X172878723Y-110570654D01*
X172847483Y-110545017D01*
X172821846Y-110513777D01*
X172802796Y-110478138D01*
X172791065Y-110439468D01*
X172786500Y-110393112D01*
X172786500Y-109316888D01*
X172791065Y-109270532D01*
X172802796Y-109231862D01*
X172821846Y-109196223D01*
X172847483Y-109164983D01*
X172878723Y-109139346D01*
X172914362Y-109120296D01*
X172953032Y-109108565D01*
X172999388Y-109104000D01*
X173650612Y-109104000D01*
X173696968Y-109108565D01*
G37*
G36*
X169886968Y-109108565D02*
G01*
X169925638Y-109120296D01*
X169961277Y-109139346D01*
X169992517Y-109164983D01*
X170018154Y-109196223D01*
X170037204Y-109231862D01*
X170048935Y-109270532D01*
X170053500Y-109316888D01*
X170053500Y-110393112D01*
X170048935Y-110439468D01*
X170037204Y-110478138D01*
X170018154Y-110513777D01*
X169992517Y-110545017D01*
X169961277Y-110570654D01*
X169925638Y-110589704D01*
X169886968Y-110601435D01*
X169840612Y-110606000D01*
X169189388Y-110606000D01*
X169143032Y-110601435D01*
X169104362Y-110589704D01*
X169068723Y-110570654D01*
X169037483Y-110545017D01*
X169011846Y-110513777D01*
X168992796Y-110478138D01*
X168981065Y-110439468D01*
X168976500Y-110393112D01*
X168976500Y-109316888D01*
X168981065Y-109270532D01*
X168992796Y-109231862D01*
X169011846Y-109196223D01*
X169037483Y-109164983D01*
X169068723Y-109139346D01*
X169104362Y-109120296D01*
X169143032Y-109108565D01*
X169189388Y-109104000D01*
X169840612Y-109104000D01*
X169886968Y-109108565D01*
G37*
G36*
X136656000Y-110451000D02*
G01*
X135754000Y-110451000D01*
X135754000Y-109449000D01*
X136656000Y-109449000D01*
X136656000Y-110451000D01*
G37*
G36*
X127804113Y-108431750D02*
G01*
X127871560Y-108445166D01*
X128019153Y-108506301D01*
X128151982Y-108595055D01*
X128264945Y-108708018D01*
X128353699Y-108840847D01*
X128414834Y-108988440D01*
X128446000Y-109145123D01*
X128446000Y-109304877D01*
X128414834Y-109461560D01*
X128353699Y-109609153D01*
X128264945Y-109741982D01*
X128151982Y-109854945D01*
X128019153Y-109943699D01*
X128019152Y-109943700D01*
X128019151Y-109943700D01*
X127871560Y-110004834D01*
X127714878Y-110036000D01*
X127555122Y-110036000D01*
X127398440Y-110004834D01*
X127250849Y-109943700D01*
X127250848Y-109943700D01*
X127250847Y-109943699D01*
X127118018Y-109854945D01*
X127005055Y-109741982D01*
X126916301Y-109609153D01*
X126855166Y-109461560D01*
X126824000Y-109304877D01*
X126824000Y-109145123D01*
X126855166Y-108988440D01*
X126916301Y-108840847D01*
X127005055Y-108708018D01*
X127118018Y-108595055D01*
X127250847Y-108506301D01*
X127398440Y-108445166D01*
X127465887Y-108431750D01*
X127555122Y-108414000D01*
X127714878Y-108414000D01*
X127804113Y-108431750D01*
G37*
G36*
X125331560Y-107175166D02*
G01*
X125474434Y-107234346D01*
X125479153Y-107236301D01*
X125611982Y-107325055D01*
X125724945Y-107438018D01*
X125813699Y-107570847D01*
X125874834Y-107718440D01*
X125906000Y-107875123D01*
X125906000Y-108034877D01*
X125874834Y-108191560D01*
X125813699Y-108339153D01*
X125724945Y-108471982D01*
X125611982Y-108584945D01*
X125479153Y-108673699D01*
X125479152Y-108673700D01*
X125479151Y-108673700D01*
X125331560Y-108734834D01*
X125174878Y-108766000D01*
X125015122Y-108766000D01*
X124858440Y-108734834D01*
X124710849Y-108673700D01*
X124710848Y-108673700D01*
X124710847Y-108673699D01*
X124578018Y-108584945D01*
X124465055Y-108471982D01*
X124376301Y-108339153D01*
X124315166Y-108191560D01*
X124284000Y-108034877D01*
X124284000Y-107875123D01*
X124315166Y-107718440D01*
X124376301Y-107570847D01*
X124465055Y-107438018D01*
X124578018Y-107325055D01*
X124710847Y-107236301D01*
X124715567Y-107234346D01*
X124858440Y-107175166D01*
X125015122Y-107144000D01*
X125174878Y-107144000D01*
X125331560Y-107175166D01*
G37*
G36*
X133691968Y-107203565D02*
G01*
X133730638Y-107215296D01*
X133766277Y-107234346D01*
X133797517Y-107259983D01*
X133823154Y-107291223D01*
X133842204Y-107326862D01*
X133853935Y-107365532D01*
X133858500Y-107411888D01*
X133858500Y-108488112D01*
X133853935Y-108534468D01*
X133842204Y-108573138D01*
X133823154Y-108608777D01*
X133797517Y-108640017D01*
X133766277Y-108665654D01*
X133730638Y-108684704D01*
X133691968Y-108696435D01*
X133645612Y-108701000D01*
X132994388Y-108701000D01*
X132948032Y-108696435D01*
X132909362Y-108684704D01*
X132873723Y-108665654D01*
X132842483Y-108640017D01*
X132816846Y-108608777D01*
X132797796Y-108573138D01*
X132786065Y-108534468D01*
X132781500Y-108488112D01*
X132781500Y-107411888D01*
X132786065Y-107365532D01*
X132797796Y-107326862D01*
X132816846Y-107291223D01*
X132842483Y-107259983D01*
X132873723Y-107234346D01*
X132909362Y-107215296D01*
X132948032Y-107203565D01*
X132994388Y-107199000D01*
X133645612Y-107199000D01*
X133691968Y-107203565D01*
G37*
G36*
X141311968Y-107203565D02*
G01*
X141350638Y-107215296D01*
X141386277Y-107234346D01*
X141417517Y-107259983D01*
X141443154Y-107291223D01*
X141462204Y-107326862D01*
X141473935Y-107365532D01*
X141478500Y-107411888D01*
X141478500Y-108488112D01*
X141473935Y-108534468D01*
X141462204Y-108573138D01*
X141443154Y-108608777D01*
X141417517Y-108640017D01*
X141386277Y-108665654D01*
X141350638Y-108684704D01*
X141311968Y-108696435D01*
X141265612Y-108701000D01*
X140614388Y-108701000D01*
X140568032Y-108696435D01*
X140529362Y-108684704D01*
X140493723Y-108665654D01*
X140462483Y-108640017D01*
X140436846Y-108608777D01*
X140417796Y-108573138D01*
X140406065Y-108534468D01*
X140401500Y-108488112D01*
X140401500Y-107411888D01*
X140406065Y-107365532D01*
X140417796Y-107326862D01*
X140436846Y-107291223D01*
X140462483Y-107259983D01*
X140493723Y-107234346D01*
X140529362Y-107215296D01*
X140568032Y-107203565D01*
X140614388Y-107199000D01*
X141265612Y-107199000D01*
X141311968Y-107203565D01*
G37*
G36*
X139436968Y-107203565D02*
G01*
X139475638Y-107215296D01*
X139511277Y-107234346D01*
X139542517Y-107259983D01*
X139568154Y-107291223D01*
X139587204Y-107326862D01*
X139598935Y-107365532D01*
X139603500Y-107411888D01*
X139603500Y-108488112D01*
X139598935Y-108534468D01*
X139587204Y-108573138D01*
X139568154Y-108608777D01*
X139542517Y-108640017D01*
X139511277Y-108665654D01*
X139475638Y-108684704D01*
X139436968Y-108696435D01*
X139390612Y-108701000D01*
X138739388Y-108701000D01*
X138693032Y-108696435D01*
X138654362Y-108684704D01*
X138618723Y-108665654D01*
X138587483Y-108640017D01*
X138561846Y-108608777D01*
X138542796Y-108573138D01*
X138531065Y-108534468D01*
X138526500Y-108488112D01*
X138526500Y-107411888D01*
X138531065Y-107365532D01*
X138542796Y-107326862D01*
X138561846Y-107291223D01*
X138587483Y-107259983D01*
X138618723Y-107234346D01*
X138654362Y-107215296D01*
X138693032Y-107203565D01*
X138739388Y-107199000D01*
X139390612Y-107199000D01*
X139436968Y-107203565D01*
G37*
G36*
X131816968Y-107203565D02*
G01*
X131855638Y-107215296D01*
X131891277Y-107234346D01*
X131922517Y-107259983D01*
X131948154Y-107291223D01*
X131967204Y-107326862D01*
X131978935Y-107365532D01*
X131983500Y-107411888D01*
X131983500Y-108488112D01*
X131978935Y-108534468D01*
X131967204Y-108573138D01*
X131948154Y-108608777D01*
X131922517Y-108640017D01*
X131891277Y-108665654D01*
X131855638Y-108684704D01*
X131816968Y-108696435D01*
X131770612Y-108701000D01*
X131119388Y-108701000D01*
X131073032Y-108696435D01*
X131034362Y-108684704D01*
X130998723Y-108665654D01*
X130967483Y-108640017D01*
X130941846Y-108608777D01*
X130922796Y-108573138D01*
X130911065Y-108534468D01*
X130906500Y-108488112D01*
X130906500Y-107411888D01*
X130911065Y-107365532D01*
X130922796Y-107326862D01*
X130941846Y-107291223D01*
X130967483Y-107259983D01*
X130998723Y-107234346D01*
X131034362Y-107215296D01*
X131073032Y-107203565D01*
X131119388Y-107199000D01*
X131770612Y-107199000D01*
X131816968Y-107203565D01*
G37*
G36*
X135706000Y-108451000D02*
G01*
X134804000Y-108451000D01*
X134804000Y-107449000D01*
X135706000Y-107449000D01*
X135706000Y-108451000D01*
G37*
G36*
X137606000Y-108451000D02*
G01*
X136704000Y-108451000D01*
X136704000Y-107449000D01*
X137606000Y-107449000D01*
X137606000Y-108451000D01*
G37*
G36*
X128446000Y-107496000D02*
G01*
X126824000Y-107496000D01*
X126824000Y-105874000D01*
X128446000Y-105874000D01*
X128446000Y-107496000D01*
G37*
G36*
X173726968Y-105298565D02*
G01*
X173765638Y-105310296D01*
X173801277Y-105329346D01*
X173832517Y-105354983D01*
X173858154Y-105386223D01*
X173877204Y-105421862D01*
X173888935Y-105460532D01*
X173893500Y-105506888D01*
X173893500Y-106583112D01*
X173888935Y-106629468D01*
X173877204Y-106668138D01*
X173858154Y-106703777D01*
X173832517Y-106735017D01*
X173801277Y-106760654D01*
X173765638Y-106779704D01*
X173726968Y-106791435D01*
X173680612Y-106796000D01*
X173029388Y-106796000D01*
X172983032Y-106791435D01*
X172944362Y-106779704D01*
X172908723Y-106760654D01*
X172877483Y-106735017D01*
X172851846Y-106703777D01*
X172832796Y-106668138D01*
X172821065Y-106629468D01*
X172816500Y-106583112D01*
X172816500Y-105506888D01*
X172821065Y-105460532D01*
X172832796Y-105421862D01*
X172851846Y-105386223D01*
X172877483Y-105354983D01*
X172908723Y-105329346D01*
X172944362Y-105310296D01*
X172983032Y-105298565D01*
X173029388Y-105294000D01*
X173680612Y-105294000D01*
X173726968Y-105298565D01*
G37*
G36*
X171851968Y-105298565D02*
G01*
X171890638Y-105310296D01*
X171926277Y-105329346D01*
X171957517Y-105354983D01*
X171983154Y-105386223D01*
X172002204Y-105421862D01*
X172013935Y-105460532D01*
X172018500Y-105506888D01*
X172018500Y-106583112D01*
X172013935Y-106629468D01*
X172002204Y-106668138D01*
X171983154Y-106703777D01*
X171957517Y-106735017D01*
X171926277Y-106760654D01*
X171890638Y-106779704D01*
X171851968Y-106791435D01*
X171805612Y-106796000D01*
X171154388Y-106796000D01*
X171108032Y-106791435D01*
X171069362Y-106779704D01*
X171033723Y-106760654D01*
X171002483Y-106735017D01*
X170976846Y-106703777D01*
X170957796Y-106668138D01*
X170946065Y-106629468D01*
X170941500Y-106583112D01*
X170941500Y-105506888D01*
X170946065Y-105460532D01*
X170957796Y-105421862D01*
X170976846Y-105386223D01*
X171002483Y-105354983D01*
X171033723Y-105329346D01*
X171069362Y-105310296D01*
X171108032Y-105298565D01*
X171154388Y-105294000D01*
X171805612Y-105294000D01*
X171851968Y-105298565D01*
G37*
G36*
X168011968Y-105298565D02*
G01*
X168050638Y-105310296D01*
X168086277Y-105329346D01*
X168117517Y-105354983D01*
X168143154Y-105386223D01*
X168162204Y-105421862D01*
X168173935Y-105460532D01*
X168178500Y-105506888D01*
X168178500Y-106583112D01*
X168173935Y-106629468D01*
X168162204Y-106668138D01*
X168143154Y-106703777D01*
X168117517Y-106735017D01*
X168086277Y-106760654D01*
X168050638Y-106779704D01*
X168011968Y-106791435D01*
X167965612Y-106796000D01*
X167314388Y-106796000D01*
X167268032Y-106791435D01*
X167229362Y-106779704D01*
X167193723Y-106760654D01*
X167162483Y-106735017D01*
X167136846Y-106703777D01*
X167117796Y-106668138D01*
X167106065Y-106629468D01*
X167101500Y-106583112D01*
X167101500Y-105506888D01*
X167106065Y-105460532D01*
X167117796Y-105421862D01*
X167136846Y-105386223D01*
X167162483Y-105354983D01*
X167193723Y-105329346D01*
X167229362Y-105310296D01*
X167268032Y-105298565D01*
X167314388Y-105294000D01*
X167965612Y-105294000D01*
X168011968Y-105298565D01*
G37*
G36*
X169886968Y-105298565D02*
G01*
X169925638Y-105310296D01*
X169961277Y-105329346D01*
X169992517Y-105354983D01*
X170018154Y-105386223D01*
X170037204Y-105421862D01*
X170048935Y-105460532D01*
X170053500Y-105506888D01*
X170053500Y-106583112D01*
X170048935Y-106629468D01*
X170037204Y-106668138D01*
X170018154Y-106703777D01*
X169992517Y-106735017D01*
X169961277Y-106760654D01*
X169925638Y-106779704D01*
X169886968Y-106791435D01*
X169840612Y-106796000D01*
X169189388Y-106796000D01*
X169143032Y-106791435D01*
X169104362Y-106779704D01*
X169068723Y-106760654D01*
X169037483Y-106735017D01*
X169011846Y-106703777D01*
X168992796Y-106668138D01*
X168981065Y-106629468D01*
X168976500Y-106583112D01*
X168976500Y-105506888D01*
X168981065Y-105460532D01*
X168992796Y-105421862D01*
X169011846Y-105386223D01*
X169037483Y-105354983D01*
X169068723Y-105329346D01*
X169104362Y-105310296D01*
X169143032Y-105298565D01*
X169189388Y-105294000D01*
X169840612Y-105294000D01*
X169886968Y-105298565D01*
G37*
G36*
X137109468Y-105511065D02*
G01*
X137148138Y-105522796D01*
X137183777Y-105541846D01*
X137215017Y-105567483D01*
X137240654Y-105598723D01*
X137259704Y-105634362D01*
X137271435Y-105673032D01*
X137276000Y-105719388D01*
X137276000Y-106370612D01*
X137271435Y-106416968D01*
X137259704Y-106455638D01*
X137240654Y-106491277D01*
X137215017Y-106522517D01*
X137183777Y-106548154D01*
X137148138Y-106567204D01*
X137109468Y-106578935D01*
X137063112Y-106583500D01*
X135986888Y-106583500D01*
X135940532Y-106578935D01*
X135901862Y-106567204D01*
X135866223Y-106548154D01*
X135834983Y-106522517D01*
X135809346Y-106491277D01*
X135790296Y-106455638D01*
X135778565Y-106416968D01*
X135774000Y-106370612D01*
X135774000Y-105719388D01*
X135778565Y-105673032D01*
X135790296Y-105634362D01*
X135809346Y-105598723D01*
X135834983Y-105567483D01*
X135866223Y-105541846D01*
X135901862Y-105522796D01*
X135940532Y-105511065D01*
X135986888Y-105506500D01*
X137063112Y-105506500D01*
X137109468Y-105511065D01*
G37*
G36*
X134569468Y-105511065D02*
G01*
X134608138Y-105522796D01*
X134643777Y-105541846D01*
X134675017Y-105567483D01*
X134700654Y-105598723D01*
X134719704Y-105634362D01*
X134731435Y-105673032D01*
X134736000Y-105719388D01*
X134736000Y-106370612D01*
X134731435Y-106416968D01*
X134719704Y-106455638D01*
X134700654Y-106491277D01*
X134675017Y-106522517D01*
X134643777Y-106548154D01*
X134608138Y-106567204D01*
X134569468Y-106578935D01*
X134523112Y-106583500D01*
X133446888Y-106583500D01*
X133400532Y-106578935D01*
X133361862Y-106567204D01*
X133326223Y-106548154D01*
X133294983Y-106522517D01*
X133269346Y-106491277D01*
X133250296Y-106455638D01*
X133238565Y-106416968D01*
X133234000Y-106370612D01*
X133234000Y-105719388D01*
X133238565Y-105673032D01*
X133250296Y-105634362D01*
X133269346Y-105598723D01*
X133294983Y-105567483D01*
X133326223Y-105541846D01*
X133361862Y-105522796D01*
X133400532Y-105511065D01*
X133446888Y-105506500D01*
X134523112Y-105506500D01*
X134569468Y-105511065D01*
G37*
G36*
X132029468Y-105481065D02*
G01*
X132068138Y-105492796D01*
X132103777Y-105511846D01*
X132135017Y-105537483D01*
X132160654Y-105568723D01*
X132179704Y-105604362D01*
X132191435Y-105643032D01*
X132196000Y-105689388D01*
X132196000Y-106340612D01*
X132191435Y-106386968D01*
X132179704Y-106425638D01*
X132160654Y-106461277D01*
X132135017Y-106492517D01*
X132103777Y-106518154D01*
X132068138Y-106537204D01*
X132029468Y-106548935D01*
X131983112Y-106553500D01*
X130906888Y-106553500D01*
X130860532Y-106548935D01*
X130821862Y-106537204D01*
X130786223Y-106518154D01*
X130754983Y-106492517D01*
X130729346Y-106461277D01*
X130710296Y-106425638D01*
X130698565Y-106386968D01*
X130694000Y-106340612D01*
X130694000Y-105689388D01*
X130698565Y-105643032D01*
X130710296Y-105604362D01*
X130729346Y-105568723D01*
X130754983Y-105537483D01*
X130786223Y-105511846D01*
X130821862Y-105492796D01*
X130860532Y-105481065D01*
X130906888Y-105476500D01*
X131983112Y-105476500D01*
X132029468Y-105481065D01*
G37*
G36*
X119071971Y-103131204D02*
G01*
X119233871Y-103163408D01*
X119538883Y-103289748D01*
X119813387Y-103473166D01*
X120046834Y-103706613D01*
X120230252Y-103981117D01*
X120230252Y-103981118D01*
X120356592Y-104286130D01*
X120418954Y-104599639D01*
X120421000Y-104609928D01*
X120421000Y-104940072D01*
X120356592Y-105263871D01*
X120230252Y-105568883D01*
X120046834Y-105843387D01*
X119813387Y-106076834D01*
X119538883Y-106260252D01*
X119233871Y-106386592D01*
X119081161Y-106416968D01*
X118910073Y-106451000D01*
X118579927Y-106451000D01*
X118408839Y-106416968D01*
X118256129Y-106386592D01*
X117951117Y-106260252D01*
X117676613Y-106076834D01*
X117443166Y-105843387D01*
X117259748Y-105568883D01*
X117133408Y-105263871D01*
X117069000Y-104940072D01*
X117069000Y-104609928D01*
X117071047Y-104599639D01*
X117133408Y-104286130D01*
X117259748Y-103981118D01*
X117259748Y-103981117D01*
X117443166Y-103706613D01*
X117676613Y-103473166D01*
X117951117Y-103289748D01*
X118256129Y-103163408D01*
X118418029Y-103131204D01*
X118579927Y-103099000D01*
X118910073Y-103099000D01*
X119071971Y-103131204D01*
G37*
G36*
X156915997Y-101823051D02*
G01*
X156949652Y-101833261D01*
X156980665Y-101849838D01*
X157007851Y-101872149D01*
X157030162Y-101899335D01*
X157046739Y-101930348D01*
X157056949Y-101964003D01*
X157061000Y-102005138D01*
X157061000Y-105234862D01*
X157056949Y-105275997D01*
X157046739Y-105309652D01*
X157030162Y-105340665D01*
X157007851Y-105367851D01*
X156980665Y-105390162D01*
X156949652Y-105406739D01*
X156915997Y-105416949D01*
X156874862Y-105421000D01*
X155545138Y-105421000D01*
X155504003Y-105416949D01*
X155470348Y-105406739D01*
X155439335Y-105390162D01*
X155412149Y-105367851D01*
X155389838Y-105340665D01*
X155373261Y-105309652D01*
X155363051Y-105275997D01*
X155359000Y-105234862D01*
X155359000Y-102005138D01*
X155363051Y-101964003D01*
X155373261Y-101930348D01*
X155389838Y-101899335D01*
X155412149Y-101872149D01*
X155439335Y-101849838D01*
X155470348Y-101833261D01*
X155504003Y-101823051D01*
X155545138Y-101819000D01*
X156874862Y-101819000D01*
X156915997Y-101823051D01*
G37*
G36*
X149168997Y-101823051D02*
G01*
X149202652Y-101833261D01*
X149233665Y-101849838D01*
X149260851Y-101872149D01*
X149283162Y-101899335D01*
X149299739Y-101930348D01*
X149309949Y-101964003D01*
X149314000Y-102005138D01*
X149314000Y-105234862D01*
X149309949Y-105275997D01*
X149299739Y-105309652D01*
X149283162Y-105340665D01*
X149260851Y-105367851D01*
X149233665Y-105390162D01*
X149202652Y-105406739D01*
X149168997Y-105416949D01*
X149127862Y-105421000D01*
X147798138Y-105421000D01*
X147757003Y-105416949D01*
X147723348Y-105406739D01*
X147692335Y-105390162D01*
X147665149Y-105367851D01*
X147642838Y-105340665D01*
X147626261Y-105309652D01*
X147616051Y-105275997D01*
X147612000Y-105234862D01*
X147612000Y-102005138D01*
X147616051Y-101964003D01*
X147626261Y-101930348D01*
X147642838Y-101899335D01*
X147665149Y-101872149D01*
X147692335Y-101849838D01*
X147723348Y-101833261D01*
X147757003Y-101823051D01*
X147798138Y-101819000D01*
X149127862Y-101819000D01*
X149168997Y-101823051D01*
G37*
G36*
X134569468Y-103636065D02*
G01*
X134608138Y-103647796D01*
X134643777Y-103666846D01*
X134675017Y-103692483D01*
X134700654Y-103723723D01*
X134719704Y-103759362D01*
X134731435Y-103798032D01*
X134736000Y-103844388D01*
X134736000Y-104495612D01*
X134731435Y-104541968D01*
X134719704Y-104580638D01*
X134700654Y-104616277D01*
X134675017Y-104647517D01*
X134643777Y-104673154D01*
X134608138Y-104692204D01*
X134569468Y-104703935D01*
X134523112Y-104708500D01*
X133446888Y-104708500D01*
X133400532Y-104703935D01*
X133361862Y-104692204D01*
X133326223Y-104673154D01*
X133294983Y-104647517D01*
X133269346Y-104616277D01*
X133250296Y-104580638D01*
X133238565Y-104541968D01*
X133234000Y-104495612D01*
X133234000Y-103844388D01*
X133238565Y-103798032D01*
X133250296Y-103759362D01*
X133269346Y-103723723D01*
X133294983Y-103692483D01*
X133326223Y-103666846D01*
X133361862Y-103647796D01*
X133400532Y-103636065D01*
X133446888Y-103631500D01*
X134523112Y-103631500D01*
X134569468Y-103636065D01*
G37*
G36*
X137109468Y-103636065D02*
G01*
X137148138Y-103647796D01*
X137183777Y-103666846D01*
X137215017Y-103692483D01*
X137240654Y-103723723D01*
X137259704Y-103759362D01*
X137271435Y-103798032D01*
X137276000Y-103844388D01*
X137276000Y-104495612D01*
X137271435Y-104541968D01*
X137259704Y-104580638D01*
X137240654Y-104616277D01*
X137215017Y-104647517D01*
X137183777Y-104673154D01*
X137148138Y-104692204D01*
X137109468Y-104703935D01*
X137063112Y-104708500D01*
X135986888Y-104708500D01*
X135940532Y-104703935D01*
X135901862Y-104692204D01*
X135866223Y-104673154D01*
X135834983Y-104647517D01*
X135809346Y-104616277D01*
X135790296Y-104580638D01*
X135778565Y-104541968D01*
X135774000Y-104495612D01*
X135774000Y-103844388D01*
X135778565Y-103798032D01*
X135790296Y-103759362D01*
X135809346Y-103723723D01*
X135834983Y-103692483D01*
X135866223Y-103666846D01*
X135901862Y-103647796D01*
X135940532Y-103636065D01*
X135986888Y-103631500D01*
X137063112Y-103631500D01*
X137109468Y-103636065D01*
G37*
G36*
X132029468Y-103606065D02*
G01*
X132068138Y-103617796D01*
X132103777Y-103636846D01*
X132135017Y-103662483D01*
X132160654Y-103693723D01*
X132179704Y-103729362D01*
X132191435Y-103768032D01*
X132196000Y-103814388D01*
X132196000Y-104465612D01*
X132191435Y-104511968D01*
X132179704Y-104550638D01*
X132160654Y-104586277D01*
X132135017Y-104617517D01*
X132103777Y-104643154D01*
X132068138Y-104662204D01*
X132029468Y-104673935D01*
X131983112Y-104678500D01*
X130906888Y-104678500D01*
X130860532Y-104673935D01*
X130821862Y-104662204D01*
X130786223Y-104643154D01*
X130754983Y-104617517D01*
X130729346Y-104586277D01*
X130710296Y-104550638D01*
X130698565Y-104511968D01*
X130694000Y-104465612D01*
X130694000Y-103814388D01*
X130698565Y-103768032D01*
X130710296Y-103729362D01*
X130729346Y-103693723D01*
X130754983Y-103662483D01*
X130786223Y-103636846D01*
X130821862Y-103617796D01*
X130860532Y-103606065D01*
X130906888Y-103601500D01*
X131983112Y-103601500D01*
X132029468Y-103606065D01*
G37*
G36*
X149973512Y-98798927D02*
G01*
X150122812Y-98828624D01*
X150286784Y-98896544D01*
X150434354Y-98995147D01*
X150559853Y-99120646D01*
X150658456Y-99268216D01*
X150726376Y-99432188D01*
X150761000Y-99606259D01*
X150761000Y-99783741D01*
X150726376Y-99957812D01*
X150658456Y-100121784D01*
X150559853Y-100269354D01*
X150434354Y-100394853D01*
X150286784Y-100493456D01*
X150122812Y-100561376D01*
X149973512Y-100591073D01*
X149948742Y-100596000D01*
X149771258Y-100596000D01*
X149746488Y-100591073D01*
X149597188Y-100561376D01*
X149433216Y-100493456D01*
X149285646Y-100394853D01*
X149160147Y-100269354D01*
X149061544Y-100121784D01*
X148993624Y-99957812D01*
X148959000Y-99783741D01*
X148959000Y-99606259D01*
X148993624Y-99432188D01*
X149061544Y-99268216D01*
X149160147Y-99120646D01*
X149285646Y-98995147D01*
X149433216Y-98896544D01*
X149597188Y-98828624D01*
X149746488Y-98798927D01*
X149771258Y-98794000D01*
X149948742Y-98794000D01*
X149973512Y-98798927D01*
G37*
G36*
X147433512Y-98798927D02*
G01*
X147582812Y-98828624D01*
X147746784Y-98896544D01*
X147894354Y-98995147D01*
X148019853Y-99120646D01*
X148118456Y-99268216D01*
X148186376Y-99432188D01*
X148221000Y-99606259D01*
X148221000Y-99783741D01*
X148186376Y-99957812D01*
X148118456Y-100121784D01*
X148019853Y-100269354D01*
X147894354Y-100394853D01*
X147746784Y-100493456D01*
X147582812Y-100561376D01*
X147433512Y-100591073D01*
X147408742Y-100596000D01*
X147231258Y-100596000D01*
X147206488Y-100591073D01*
X147057188Y-100561376D01*
X146893216Y-100493456D01*
X146745646Y-100394853D01*
X146620147Y-100269354D01*
X146521544Y-100121784D01*
X146453624Y-99957812D01*
X146419000Y-99783741D01*
X146419000Y-99606259D01*
X146453624Y-99432188D01*
X146521544Y-99268216D01*
X146620147Y-99120646D01*
X146745646Y-98995147D01*
X146893216Y-98896544D01*
X147057188Y-98828624D01*
X147206488Y-98798927D01*
X147231258Y-98794000D01*
X147408742Y-98794000D01*
X147433512Y-98798927D01*
G37*
G36*
X144893512Y-98798927D02*
G01*
X145042812Y-98828624D01*
X145206784Y-98896544D01*
X145354354Y-98995147D01*
X145479853Y-99120646D01*
X145578456Y-99268216D01*
X145646376Y-99432188D01*
X145681000Y-99606259D01*
X145681000Y-99783741D01*
X145646376Y-99957812D01*
X145578456Y-100121784D01*
X145479853Y-100269354D01*
X145354354Y-100394853D01*
X145206784Y-100493456D01*
X145042812Y-100561376D01*
X144893512Y-100591073D01*
X144868742Y-100596000D01*
X144691258Y-100596000D01*
X144666488Y-100591073D01*
X144517188Y-100561376D01*
X144353216Y-100493456D01*
X144205646Y-100394853D01*
X144080147Y-100269354D01*
X143981544Y-100121784D01*
X143913624Y-99957812D01*
X143879000Y-99783741D01*
X143879000Y-99606259D01*
X143913624Y-99432188D01*
X143981544Y-99268216D01*
X144080147Y-99120646D01*
X144205646Y-98995147D01*
X144353216Y-98896544D01*
X144517188Y-98828624D01*
X144666488Y-98798927D01*
X144691258Y-98794000D01*
X144868742Y-98794000D01*
X144893512Y-98798927D01*
G37*
G36*
X142353512Y-98798927D02*
G01*
X142502812Y-98828624D01*
X142666784Y-98896544D01*
X142814354Y-98995147D01*
X142939853Y-99120646D01*
X143038456Y-99268216D01*
X143106376Y-99432188D01*
X143141000Y-99606259D01*
X143141000Y-99783741D01*
X143106376Y-99957812D01*
X143038456Y-100121784D01*
X142939853Y-100269354D01*
X142814354Y-100394853D01*
X142666784Y-100493456D01*
X142502812Y-100561376D01*
X142353512Y-100591073D01*
X142328742Y-100596000D01*
X142151258Y-100596000D01*
X142126488Y-100591073D01*
X141977188Y-100561376D01*
X141813216Y-100493456D01*
X141665646Y-100394853D01*
X141540147Y-100269354D01*
X141441544Y-100121784D01*
X141373624Y-99957812D01*
X141339000Y-99783741D01*
X141339000Y-99606259D01*
X141373624Y-99432188D01*
X141441544Y-99268216D01*
X141540147Y-99120646D01*
X141665646Y-98995147D01*
X141813216Y-98896544D01*
X141977188Y-98828624D01*
X142126488Y-98798927D01*
X142151258Y-98794000D01*
X142328742Y-98794000D01*
X142353512Y-98798927D01*
G37*
G36*
X139813512Y-98798927D02*
G01*
X139962812Y-98828624D01*
X140126784Y-98896544D01*
X140274354Y-98995147D01*
X140399853Y-99120646D01*
X140498456Y-99268216D01*
X140566376Y-99432188D01*
X140601000Y-99606259D01*
X140601000Y-99783741D01*
X140566376Y-99957812D01*
X140498456Y-100121784D01*
X140399853Y-100269354D01*
X140274354Y-100394853D01*
X140126784Y-100493456D01*
X139962812Y-100561376D01*
X139813512Y-100591073D01*
X139788742Y-100596000D01*
X139611258Y-100596000D01*
X139586488Y-100591073D01*
X139437188Y-100561376D01*
X139273216Y-100493456D01*
X139125646Y-100394853D01*
X139000147Y-100269354D01*
X138901544Y-100121784D01*
X138833624Y-99957812D01*
X138799000Y-99783741D01*
X138799000Y-99606259D01*
X138833624Y-99432188D01*
X138901544Y-99268216D01*
X139000147Y-99120646D01*
X139125646Y-98995147D01*
X139273216Y-98896544D01*
X139437188Y-98828624D01*
X139586488Y-98798927D01*
X139611258Y-98794000D01*
X139788742Y-98794000D01*
X139813512Y-98798927D01*
G37*
G36*
X137273512Y-98798927D02*
G01*
X137422812Y-98828624D01*
X137586784Y-98896544D01*
X137734354Y-98995147D01*
X137859853Y-99120646D01*
X137958456Y-99268216D01*
X138026376Y-99432188D01*
X138061000Y-99606259D01*
X138061000Y-99783741D01*
X138026376Y-99957812D01*
X137958456Y-100121784D01*
X137859853Y-100269354D01*
X137734354Y-100394853D01*
X137586784Y-100493456D01*
X137422812Y-100561376D01*
X137273512Y-100591073D01*
X137248742Y-100596000D01*
X137071258Y-100596000D01*
X137046488Y-100591073D01*
X136897188Y-100561376D01*
X136733216Y-100493456D01*
X136585646Y-100394853D01*
X136460147Y-100269354D01*
X136361544Y-100121784D01*
X136293624Y-99957812D01*
X136259000Y-99783741D01*
X136259000Y-99606259D01*
X136293624Y-99432188D01*
X136361544Y-99268216D01*
X136460147Y-99120646D01*
X136585646Y-98995147D01*
X136733216Y-98896544D01*
X136897188Y-98828624D01*
X137046488Y-98798927D01*
X137071258Y-98794000D01*
X137248742Y-98794000D01*
X137273512Y-98798927D01*
G37*
G36*
X134733512Y-98798927D02*
G01*
X134882812Y-98828624D01*
X135046784Y-98896544D01*
X135194354Y-98995147D01*
X135319853Y-99120646D01*
X135418456Y-99268216D01*
X135486376Y-99432188D01*
X135521000Y-99606259D01*
X135521000Y-99783741D01*
X135486376Y-99957812D01*
X135418456Y-100121784D01*
X135319853Y-100269354D01*
X135194354Y-100394853D01*
X135046784Y-100493456D01*
X134882812Y-100561376D01*
X134733512Y-100591073D01*
X134708742Y-100596000D01*
X134531258Y-100596000D01*
X134506488Y-100591073D01*
X134357188Y-100561376D01*
X134193216Y-100493456D01*
X134045646Y-100394853D01*
X133920147Y-100269354D01*
X133821544Y-100121784D01*
X133753624Y-99957812D01*
X133719000Y-99783741D01*
X133719000Y-99606259D01*
X133753624Y-99432188D01*
X133821544Y-99268216D01*
X133920147Y-99120646D01*
X134045646Y-98995147D01*
X134193216Y-98896544D01*
X134357188Y-98828624D01*
X134506488Y-98798927D01*
X134531258Y-98794000D01*
X134708742Y-98794000D01*
X134733512Y-98798927D01*
G37*
G36*
X132193512Y-98798927D02*
G01*
X132342812Y-98828624D01*
X132506784Y-98896544D01*
X132654354Y-98995147D01*
X132779853Y-99120646D01*
X132878456Y-99268216D01*
X132946376Y-99432188D01*
X132981000Y-99606259D01*
X132981000Y-99783741D01*
X132946376Y-99957812D01*
X132878456Y-100121784D01*
X132779853Y-100269354D01*
X132654354Y-100394853D01*
X132506784Y-100493456D01*
X132342812Y-100561376D01*
X132193512Y-100591073D01*
X132168742Y-100596000D01*
X131991258Y-100596000D01*
X131966488Y-100591073D01*
X131817188Y-100561376D01*
X131653216Y-100493456D01*
X131505646Y-100394853D01*
X131380147Y-100269354D01*
X131281544Y-100121784D01*
X131213624Y-99957812D01*
X131179000Y-99783741D01*
X131179000Y-99606259D01*
X131213624Y-99432188D01*
X131281544Y-99268216D01*
X131380147Y-99120646D01*
X131505646Y-98995147D01*
X131653216Y-98896544D01*
X131817188Y-98828624D01*
X131966488Y-98798927D01*
X131991258Y-98794000D01*
X132168742Y-98794000D01*
X132193512Y-98798927D01*
G37*
G36*
X129653512Y-98798927D02*
G01*
X129802812Y-98828624D01*
X129966784Y-98896544D01*
X130114354Y-98995147D01*
X130239853Y-99120646D01*
X130338456Y-99268216D01*
X130406376Y-99432188D01*
X130441000Y-99606259D01*
X130441000Y-99783741D01*
X130406376Y-99957812D01*
X130338456Y-100121784D01*
X130239853Y-100269354D01*
X130114354Y-100394853D01*
X129966784Y-100493456D01*
X129802812Y-100561376D01*
X129653512Y-100591073D01*
X129628742Y-100596000D01*
X129451258Y-100596000D01*
X129426488Y-100591073D01*
X129277188Y-100561376D01*
X129113216Y-100493456D01*
X128965646Y-100394853D01*
X128840147Y-100269354D01*
X128741544Y-100121784D01*
X128673624Y-99957812D01*
X128639000Y-99783741D01*
X128639000Y-99606259D01*
X128673624Y-99432188D01*
X128741544Y-99268216D01*
X128840147Y-99120646D01*
X128965646Y-98995147D01*
X129113216Y-98896544D01*
X129277188Y-98828624D01*
X129426488Y-98798927D01*
X129451258Y-98794000D01*
X129628742Y-98794000D01*
X129653512Y-98798927D01*
G37*
G36*
X127113512Y-98798927D02*
G01*
X127262812Y-98828624D01*
X127426784Y-98896544D01*
X127574354Y-98995147D01*
X127699853Y-99120646D01*
X127798456Y-99268216D01*
X127866376Y-99432188D01*
X127901000Y-99606259D01*
X127901000Y-99783741D01*
X127866376Y-99957812D01*
X127798456Y-100121784D01*
X127699853Y-100269354D01*
X127574354Y-100394853D01*
X127426784Y-100493456D01*
X127262812Y-100561376D01*
X127113512Y-100591073D01*
X127088742Y-100596000D01*
X126911258Y-100596000D01*
X126886488Y-100591073D01*
X126737188Y-100561376D01*
X126573216Y-100493456D01*
X126425646Y-100394853D01*
X126300147Y-100269354D01*
X126201544Y-100121784D01*
X126133624Y-99957812D01*
X126099000Y-99783741D01*
X126099000Y-99606259D01*
X126133624Y-99432188D01*
X126201544Y-99268216D01*
X126300147Y-99120646D01*
X126425646Y-98995147D01*
X126573216Y-98896544D01*
X126737188Y-98828624D01*
X126886488Y-98798927D01*
X126911258Y-98794000D01*
X127088742Y-98794000D01*
X127113512Y-98798927D01*
G37*
G36*
X122033512Y-98798927D02*
G01*
X122182812Y-98828624D01*
X122346784Y-98896544D01*
X122494354Y-98995147D01*
X122619853Y-99120646D01*
X122718456Y-99268216D01*
X122786376Y-99432188D01*
X122821000Y-99606259D01*
X122821000Y-99783741D01*
X122786376Y-99957812D01*
X122718456Y-100121784D01*
X122619853Y-100269354D01*
X122494354Y-100394853D01*
X122346784Y-100493456D01*
X122182812Y-100561376D01*
X122033512Y-100591073D01*
X122008742Y-100596000D01*
X121831258Y-100596000D01*
X121806488Y-100591073D01*
X121657188Y-100561376D01*
X121493216Y-100493456D01*
X121345646Y-100394853D01*
X121220147Y-100269354D01*
X121121544Y-100121784D01*
X121053624Y-99957812D01*
X121019000Y-99783741D01*
X121019000Y-99606259D01*
X121053624Y-99432188D01*
X121121544Y-99268216D01*
X121220147Y-99120646D01*
X121345646Y-98995147D01*
X121493216Y-98896544D01*
X121657188Y-98828624D01*
X121806488Y-98798927D01*
X121831258Y-98794000D01*
X122008742Y-98794000D01*
X122033512Y-98798927D01*
G37*
G36*
X120281000Y-100596000D02*
G01*
X118479000Y-100596000D01*
X118479000Y-98794000D01*
X120281000Y-98794000D01*
X120281000Y-100596000D01*
G37*
G36*
X167753512Y-98798927D02*
G01*
X167902812Y-98828624D01*
X168066784Y-98896544D01*
X168214354Y-98995147D01*
X168339853Y-99120646D01*
X168438456Y-99268216D01*
X168506376Y-99432188D01*
X168541000Y-99606259D01*
X168541000Y-99783741D01*
X168506376Y-99957812D01*
X168438456Y-100121784D01*
X168339853Y-100269354D01*
X168214354Y-100394853D01*
X168066784Y-100493456D01*
X167902812Y-100561376D01*
X167753512Y-100591073D01*
X167728742Y-100596000D01*
X167551258Y-100596000D01*
X167526488Y-100591073D01*
X167377188Y-100561376D01*
X167213216Y-100493456D01*
X167065646Y-100394853D01*
X166940147Y-100269354D01*
X166841544Y-100121784D01*
X166773624Y-99957812D01*
X166739000Y-99783741D01*
X166739000Y-99606259D01*
X166773624Y-99432188D01*
X166841544Y-99268216D01*
X166940147Y-99120646D01*
X167065646Y-98995147D01*
X167213216Y-98896544D01*
X167377188Y-98828624D01*
X167526488Y-98798927D01*
X167551258Y-98794000D01*
X167728742Y-98794000D01*
X167753512Y-98798927D01*
G37*
G36*
X165213512Y-98798927D02*
G01*
X165362812Y-98828624D01*
X165526784Y-98896544D01*
X165674354Y-98995147D01*
X165799853Y-99120646D01*
X165898456Y-99268216D01*
X165966376Y-99432188D01*
X166001000Y-99606259D01*
X166001000Y-99783741D01*
X165966376Y-99957812D01*
X165898456Y-100121784D01*
X165799853Y-100269354D01*
X165674354Y-100394853D01*
X165526784Y-100493456D01*
X165362812Y-100561376D01*
X165213512Y-100591073D01*
X165188742Y-100596000D01*
X165011258Y-100596000D01*
X164986488Y-100591073D01*
X164837188Y-100561376D01*
X164673216Y-100493456D01*
X164525646Y-100394853D01*
X164400147Y-100269354D01*
X164301544Y-100121784D01*
X164233624Y-99957812D01*
X164199000Y-99783741D01*
X164199000Y-99606259D01*
X164233624Y-99432188D01*
X164301544Y-99268216D01*
X164400147Y-99120646D01*
X164525646Y-98995147D01*
X164673216Y-98896544D01*
X164837188Y-98828624D01*
X164986488Y-98798927D01*
X165011258Y-98794000D01*
X165188742Y-98794000D01*
X165213512Y-98798927D01*
G37*
G36*
X162673512Y-98798927D02*
G01*
X162822812Y-98828624D01*
X162986784Y-98896544D01*
X163134354Y-98995147D01*
X163259853Y-99120646D01*
X163358456Y-99268216D01*
X163426376Y-99432188D01*
X163461000Y-99606259D01*
X163461000Y-99783741D01*
X163426376Y-99957812D01*
X163358456Y-100121784D01*
X163259853Y-100269354D01*
X163134354Y-100394853D01*
X162986784Y-100493456D01*
X162822812Y-100561376D01*
X162673512Y-100591073D01*
X162648742Y-100596000D01*
X162471258Y-100596000D01*
X162446488Y-100591073D01*
X162297188Y-100561376D01*
X162133216Y-100493456D01*
X161985646Y-100394853D01*
X161860147Y-100269354D01*
X161761544Y-100121784D01*
X161693624Y-99957812D01*
X161659000Y-99783741D01*
X161659000Y-99606259D01*
X161693624Y-99432188D01*
X161761544Y-99268216D01*
X161860147Y-99120646D01*
X161985646Y-98995147D01*
X162133216Y-98896544D01*
X162297188Y-98828624D01*
X162446488Y-98798927D01*
X162471258Y-98794000D01*
X162648742Y-98794000D01*
X162673512Y-98798927D01*
G37*
G36*
X160133512Y-98798927D02*
G01*
X160282812Y-98828624D01*
X160446784Y-98896544D01*
X160594354Y-98995147D01*
X160719853Y-99120646D01*
X160818456Y-99268216D01*
X160886376Y-99432188D01*
X160921000Y-99606259D01*
X160921000Y-99783741D01*
X160886376Y-99957812D01*
X160818456Y-100121784D01*
X160719853Y-100269354D01*
X160594354Y-100394853D01*
X160446784Y-100493456D01*
X160282812Y-100561376D01*
X160133512Y-100591073D01*
X160108742Y-100596000D01*
X159931258Y-100596000D01*
X159906488Y-100591073D01*
X159757188Y-100561376D01*
X159593216Y-100493456D01*
X159445646Y-100394853D01*
X159320147Y-100269354D01*
X159221544Y-100121784D01*
X159153624Y-99957812D01*
X159119000Y-99783741D01*
X159119000Y-99606259D01*
X159153624Y-99432188D01*
X159221544Y-99268216D01*
X159320147Y-99120646D01*
X159445646Y-98995147D01*
X159593216Y-98896544D01*
X159757188Y-98828624D01*
X159906488Y-98798927D01*
X159931258Y-98794000D01*
X160108742Y-98794000D01*
X160133512Y-98798927D01*
G37*
G36*
X155053512Y-98798927D02*
G01*
X155202812Y-98828624D01*
X155366784Y-98896544D01*
X155514354Y-98995147D01*
X155639853Y-99120646D01*
X155738456Y-99268216D01*
X155806376Y-99432188D01*
X155841000Y-99606259D01*
X155841000Y-99783741D01*
X155806376Y-99957812D01*
X155738456Y-100121784D01*
X155639853Y-100269354D01*
X155514354Y-100394853D01*
X155366784Y-100493456D01*
X155202812Y-100561376D01*
X155053512Y-100591073D01*
X155028742Y-100596000D01*
X154851258Y-100596000D01*
X154826488Y-100591073D01*
X154677188Y-100561376D01*
X154513216Y-100493456D01*
X154365646Y-100394853D01*
X154240147Y-100269354D01*
X154141544Y-100121784D01*
X154073624Y-99957812D01*
X154039000Y-99783741D01*
X154039000Y-99606259D01*
X154073624Y-99432188D01*
X154141544Y-99268216D01*
X154240147Y-99120646D01*
X154365646Y-98995147D01*
X154513216Y-98896544D01*
X154677188Y-98828624D01*
X154826488Y-98798927D01*
X154851258Y-98794000D01*
X155028742Y-98794000D01*
X155053512Y-98798927D01*
G37*
G36*
X157593512Y-98798927D02*
G01*
X157742812Y-98828624D01*
X157906784Y-98896544D01*
X158054354Y-98995147D01*
X158179853Y-99120646D01*
X158278456Y-99268216D01*
X158346376Y-99432188D01*
X158381000Y-99606259D01*
X158381000Y-99783741D01*
X158346376Y-99957812D01*
X158278456Y-100121784D01*
X158179853Y-100269354D01*
X158054354Y-100394853D01*
X157906784Y-100493456D01*
X157742812Y-100561376D01*
X157593512Y-100591073D01*
X157568742Y-100596000D01*
X157391258Y-100596000D01*
X157366488Y-100591073D01*
X157217188Y-100561376D01*
X157053216Y-100493456D01*
X156905646Y-100394853D01*
X156780147Y-100269354D01*
X156681544Y-100121784D01*
X156613624Y-99957812D01*
X156579000Y-99783741D01*
X156579000Y-99606259D01*
X156613624Y-99432188D01*
X156681544Y-99268216D01*
X156780147Y-99120646D01*
X156905646Y-98995147D01*
X157053216Y-98896544D01*
X157217188Y-98828624D01*
X157366488Y-98798927D01*
X157391258Y-98794000D01*
X157568742Y-98794000D01*
X157593512Y-98798927D01*
G37*
G36*
X152513512Y-98798927D02*
G01*
X152662812Y-98828624D01*
X152826784Y-98896544D01*
X152974354Y-98995147D01*
X153099853Y-99120646D01*
X153198456Y-99268216D01*
X153266376Y-99432188D01*
X153301000Y-99606259D01*
X153301000Y-99783741D01*
X153266376Y-99957812D01*
X153198456Y-100121784D01*
X153099853Y-100269354D01*
X152974354Y-100394853D01*
X152826784Y-100493456D01*
X152662812Y-100561376D01*
X152513512Y-100591073D01*
X152488742Y-100596000D01*
X152311258Y-100596000D01*
X152286488Y-100591073D01*
X152137188Y-100561376D01*
X151973216Y-100493456D01*
X151825646Y-100394853D01*
X151700147Y-100269354D01*
X151601544Y-100121784D01*
X151533624Y-99957812D01*
X151499000Y-99783741D01*
X151499000Y-99606259D01*
X151533624Y-99432188D01*
X151601544Y-99268216D01*
X151700147Y-99120646D01*
X151825646Y-98995147D01*
X151973216Y-98896544D01*
X152137188Y-98828624D01*
X152286488Y-98798927D01*
X152311258Y-98794000D01*
X152488742Y-98794000D01*
X152513512Y-98798927D01*
G37*
G36*
X124573512Y-98798927D02*
G01*
X124722812Y-98828624D01*
X124886784Y-98896544D01*
X125034354Y-98995147D01*
X125159853Y-99120646D01*
X125258456Y-99268216D01*
X125326376Y-99432188D01*
X125361000Y-99606259D01*
X125361000Y-99783741D01*
X125326376Y-99957812D01*
X125258456Y-100121784D01*
X125159853Y-100269354D01*
X125034354Y-100394853D01*
X124886784Y-100493456D01*
X124722812Y-100561376D01*
X124573512Y-100591073D01*
X124548742Y-100596000D01*
X124371258Y-100596000D01*
X124346488Y-100591073D01*
X124197188Y-100561376D01*
X124033216Y-100493456D01*
X123885646Y-100394853D01*
X123760147Y-100269354D01*
X123661544Y-100121784D01*
X123593624Y-99957812D01*
X123559000Y-99783741D01*
X123559000Y-99606259D01*
X123593624Y-99432188D01*
X123661544Y-99268216D01*
X123760147Y-99120646D01*
X123885646Y-98995147D01*
X124033216Y-98896544D01*
X124197188Y-98828624D01*
X124346488Y-98798927D01*
X124371258Y-98794000D01*
X124548742Y-98794000D01*
X124573512Y-98798927D01*
G37*
G36*
X172889487Y-97173996D02*
G01*
X173057868Y-97243742D01*
X173126255Y-97272069D01*
X173339339Y-97414447D01*
X173520553Y-97595661D01*
X173609884Y-97729354D01*
X173662932Y-97808747D01*
X173761004Y-98045513D01*
X173811000Y-98296861D01*
X173811000Y-98553139D01*
X173761004Y-98804487D01*
X173682030Y-98995147D01*
X173662931Y-99041255D01*
X173520553Y-99254339D01*
X173339339Y-99435553D01*
X173126255Y-99577931D01*
X173126254Y-99577932D01*
X173126253Y-99577932D01*
X172889487Y-99676004D01*
X172638139Y-99726000D01*
X172381861Y-99726000D01*
X172130513Y-99676004D01*
X171893747Y-99577932D01*
X171893746Y-99577932D01*
X171893745Y-99577931D01*
X171680661Y-99435553D01*
X171499447Y-99254339D01*
X171357069Y-99041255D01*
X171337970Y-98995147D01*
X171258996Y-98804487D01*
X171209000Y-98553139D01*
X171209000Y-98296861D01*
X171258996Y-98045513D01*
X171357068Y-97808747D01*
X171410117Y-97729354D01*
X171499447Y-97595661D01*
X171680661Y-97414447D01*
X171893745Y-97272069D01*
X171962132Y-97243742D01*
X172130513Y-97173996D01*
X172381861Y-97124000D01*
X172638139Y-97124000D01*
X172889487Y-97173996D01*
G37*
G36*
X114889487Y-97173996D02*
G01*
X115057868Y-97243742D01*
X115126255Y-97272069D01*
X115339339Y-97414447D01*
X115520553Y-97595661D01*
X115609884Y-97729354D01*
X115662932Y-97808747D01*
X115761004Y-98045513D01*
X115811000Y-98296861D01*
X115811000Y-98553139D01*
X115761004Y-98804487D01*
X115682030Y-98995147D01*
X115662931Y-99041255D01*
X115520553Y-99254339D01*
X115339339Y-99435553D01*
X115126255Y-99577931D01*
X115126254Y-99577932D01*
X115126253Y-99577932D01*
X114889487Y-99676004D01*
X114638139Y-99726000D01*
X114381861Y-99726000D01*
X114130513Y-99676004D01*
X113893747Y-99577932D01*
X113893746Y-99577932D01*
X113893745Y-99577931D01*
X113680661Y-99435553D01*
X113499447Y-99254339D01*
X113357069Y-99041255D01*
X113337970Y-98995147D01*
X113258996Y-98804487D01*
X113209000Y-98553139D01*
X113209000Y-98296861D01*
X113258996Y-98045513D01*
X113357068Y-97808747D01*
X113410117Y-97729354D01*
X113499447Y-97595661D01*
X113680661Y-97414447D01*
X113893745Y-97272069D01*
X113962132Y-97243742D01*
X114130513Y-97173996D01*
X114381861Y-97124000D01*
X114638139Y-97124000D01*
X114889487Y-97173996D01*
G37*
G36*
X167753512Y-96258927D02*
G01*
X167902812Y-96288624D01*
X168066784Y-96356544D01*
X168214354Y-96455147D01*
X168339853Y-96580646D01*
X168438456Y-96728216D01*
X168506376Y-96892188D01*
X168541000Y-97066259D01*
X168541000Y-97243741D01*
X168506376Y-97417812D01*
X168438456Y-97581784D01*
X168339853Y-97729354D01*
X168214354Y-97854853D01*
X168066784Y-97953456D01*
X167902812Y-98021376D01*
X167753512Y-98051073D01*
X167728742Y-98056000D01*
X167551258Y-98056000D01*
X167526488Y-98051073D01*
X167377188Y-98021376D01*
X167213216Y-97953456D01*
X167065646Y-97854853D01*
X166940147Y-97729354D01*
X166841544Y-97581784D01*
X166773624Y-97417812D01*
X166739000Y-97243741D01*
X166739000Y-97066259D01*
X166773624Y-96892188D01*
X166841544Y-96728216D01*
X166940147Y-96580646D01*
X167065646Y-96455147D01*
X167213216Y-96356544D01*
X167377188Y-96288624D01*
X167526488Y-96258927D01*
X167551258Y-96254000D01*
X167728742Y-96254000D01*
X167753512Y-96258927D01*
G37*
G36*
X165213512Y-96258927D02*
G01*
X165362812Y-96288624D01*
X165526784Y-96356544D01*
X165674354Y-96455147D01*
X165799853Y-96580646D01*
X165898456Y-96728216D01*
X165966376Y-96892188D01*
X166001000Y-97066259D01*
X166001000Y-97243741D01*
X165966376Y-97417812D01*
X165898456Y-97581784D01*
X165799853Y-97729354D01*
X165674354Y-97854853D01*
X165526784Y-97953456D01*
X165362812Y-98021376D01*
X165213512Y-98051073D01*
X165188742Y-98056000D01*
X165011258Y-98056000D01*
X164986488Y-98051073D01*
X164837188Y-98021376D01*
X164673216Y-97953456D01*
X164525646Y-97854853D01*
X164400147Y-97729354D01*
X164301544Y-97581784D01*
X164233624Y-97417812D01*
X164199000Y-97243741D01*
X164199000Y-97066259D01*
X164233624Y-96892188D01*
X164301544Y-96728216D01*
X164400147Y-96580646D01*
X164525646Y-96455147D01*
X164673216Y-96356544D01*
X164837188Y-96288624D01*
X164986488Y-96258927D01*
X165011258Y-96254000D01*
X165188742Y-96254000D01*
X165213512Y-96258927D01*
G37*
G36*
X162673512Y-96258927D02*
G01*
X162822812Y-96288624D01*
X162986784Y-96356544D01*
X163134354Y-96455147D01*
X163259853Y-96580646D01*
X163358456Y-96728216D01*
X163426376Y-96892188D01*
X163461000Y-97066259D01*
X163461000Y-97243741D01*
X163426376Y-97417812D01*
X163358456Y-97581784D01*
X163259853Y-97729354D01*
X163134354Y-97854853D01*
X162986784Y-97953456D01*
X162822812Y-98021376D01*
X162673512Y-98051073D01*
X162648742Y-98056000D01*
X162471258Y-98056000D01*
X162446488Y-98051073D01*
X162297188Y-98021376D01*
X162133216Y-97953456D01*
X161985646Y-97854853D01*
X161860147Y-97729354D01*
X161761544Y-97581784D01*
X161693624Y-97417812D01*
X161659000Y-97243741D01*
X161659000Y-97066259D01*
X161693624Y-96892188D01*
X161761544Y-96728216D01*
X161860147Y-96580646D01*
X161985646Y-96455147D01*
X162133216Y-96356544D01*
X162297188Y-96288624D01*
X162446488Y-96258927D01*
X162471258Y-96254000D01*
X162648742Y-96254000D01*
X162673512Y-96258927D01*
G37*
G36*
X152513512Y-96258927D02*
G01*
X152662812Y-96288624D01*
X152826784Y-96356544D01*
X152974354Y-96455147D01*
X153099853Y-96580646D01*
X153198456Y-96728216D01*
X153266376Y-96892188D01*
X153301000Y-97066259D01*
X153301000Y-97243741D01*
X153266376Y-97417812D01*
X153198456Y-97581784D01*
X153099853Y-97729354D01*
X152974354Y-97854853D01*
X152826784Y-97953456D01*
X152662812Y-98021376D01*
X152513512Y-98051073D01*
X152488742Y-98056000D01*
X152311258Y-98056000D01*
X152286488Y-98051073D01*
X152137188Y-98021376D01*
X151973216Y-97953456D01*
X151825646Y-97854853D01*
X151700147Y-97729354D01*
X151601544Y-97581784D01*
X151533624Y-97417812D01*
X151499000Y-97243741D01*
X151499000Y-97066259D01*
X151533624Y-96892188D01*
X151601544Y-96728216D01*
X151700147Y-96580646D01*
X151825646Y-96455147D01*
X151973216Y-96356544D01*
X152137188Y-96288624D01*
X152286488Y-96258927D01*
X152311258Y-96254000D01*
X152488742Y-96254000D01*
X152513512Y-96258927D01*
G37*
G36*
X155053512Y-96258927D02*
G01*
X155202812Y-96288624D01*
X155366784Y-96356544D01*
X155514354Y-96455147D01*
X155639853Y-96580646D01*
X155738456Y-96728216D01*
X155806376Y-96892188D01*
X155841000Y-97066259D01*
X155841000Y-97243741D01*
X155806376Y-97417812D01*
X155738456Y-97581784D01*
X155639853Y-97729354D01*
X155514354Y-97854853D01*
X155366784Y-97953456D01*
X155202812Y-98021376D01*
X155053512Y-98051073D01*
X155028742Y-98056000D01*
X154851258Y-98056000D01*
X154826488Y-98051073D01*
X154677188Y-98021376D01*
X154513216Y-97953456D01*
X154365646Y-97854853D01*
X154240147Y-97729354D01*
X154141544Y-97581784D01*
X154073624Y-97417812D01*
X154039000Y-97243741D01*
X154039000Y-97066259D01*
X154073624Y-96892188D01*
X154141544Y-96728216D01*
X154240147Y-96580646D01*
X154365646Y-96455147D01*
X154513216Y-96356544D01*
X154677188Y-96288624D01*
X154826488Y-96258927D01*
X154851258Y-96254000D01*
X155028742Y-96254000D01*
X155053512Y-96258927D01*
G37*
G36*
X157593512Y-96258927D02*
G01*
X157742812Y-96288624D01*
X157906784Y-96356544D01*
X158054354Y-96455147D01*
X158179853Y-96580646D01*
X158278456Y-96728216D01*
X158346376Y-96892188D01*
X158381000Y-97066259D01*
X158381000Y-97243741D01*
X158346376Y-97417812D01*
X158278456Y-97581784D01*
X158179853Y-97729354D01*
X158054354Y-97854853D01*
X157906784Y-97953456D01*
X157742812Y-98021376D01*
X157593512Y-98051073D01*
X157568742Y-98056000D01*
X157391258Y-98056000D01*
X157366488Y-98051073D01*
X157217188Y-98021376D01*
X157053216Y-97953456D01*
X156905646Y-97854853D01*
X156780147Y-97729354D01*
X156681544Y-97581784D01*
X156613624Y-97417812D01*
X156579000Y-97243741D01*
X156579000Y-97066259D01*
X156613624Y-96892188D01*
X156681544Y-96728216D01*
X156780147Y-96580646D01*
X156905646Y-96455147D01*
X157053216Y-96356544D01*
X157217188Y-96288624D01*
X157366488Y-96258927D01*
X157391258Y-96254000D01*
X157568742Y-96254000D01*
X157593512Y-96258927D01*
G37*
G36*
X122033512Y-96258927D02*
G01*
X122182812Y-96288624D01*
X122346784Y-96356544D01*
X122494354Y-96455147D01*
X122619853Y-96580646D01*
X122718456Y-96728216D01*
X122786376Y-96892188D01*
X122821000Y-97066259D01*
X122821000Y-97243741D01*
X122786376Y-97417812D01*
X122718456Y-97581784D01*
X122619853Y-97729354D01*
X122494354Y-97854853D01*
X122346784Y-97953456D01*
X122182812Y-98021376D01*
X122033512Y-98051073D01*
X122008742Y-98056000D01*
X121831258Y-98056000D01*
X121806488Y-98051073D01*
X121657188Y-98021376D01*
X121493216Y-97953456D01*
X121345646Y-97854853D01*
X121220147Y-97729354D01*
X121121544Y-97581784D01*
X121053624Y-97417812D01*
X121019000Y-97243741D01*
X121019000Y-97066259D01*
X121053624Y-96892188D01*
X121121544Y-96728216D01*
X121220147Y-96580646D01*
X121345646Y-96455147D01*
X121493216Y-96356544D01*
X121657188Y-96288624D01*
X121806488Y-96258927D01*
X121831258Y-96254000D01*
X122008742Y-96254000D01*
X122033512Y-96258927D01*
G37*
G36*
X124573512Y-96258927D02*
G01*
X124722812Y-96288624D01*
X124886784Y-96356544D01*
X125034354Y-96455147D01*
X125159853Y-96580646D01*
X125258456Y-96728216D01*
X125326376Y-96892188D01*
X125361000Y-97066259D01*
X125361000Y-97243741D01*
X125326376Y-97417812D01*
X125258456Y-97581784D01*
X125159853Y-97729354D01*
X125034354Y-97854853D01*
X124886784Y-97953456D01*
X124722812Y-98021376D01*
X124573512Y-98051073D01*
X124548742Y-98056000D01*
X124371258Y-98056000D01*
X124346488Y-98051073D01*
X124197188Y-98021376D01*
X124033216Y-97953456D01*
X123885646Y-97854853D01*
X123760147Y-97729354D01*
X123661544Y-97581784D01*
X123593624Y-97417812D01*
X123559000Y-97243741D01*
X123559000Y-97066259D01*
X123593624Y-96892188D01*
X123661544Y-96728216D01*
X123760147Y-96580646D01*
X123885646Y-96455147D01*
X124033216Y-96356544D01*
X124197188Y-96288624D01*
X124346488Y-96258927D01*
X124371258Y-96254000D01*
X124548742Y-96254000D01*
X124573512Y-96258927D01*
G37*
G36*
X127113512Y-96258927D02*
G01*
X127262812Y-96288624D01*
X127426784Y-96356544D01*
X127574354Y-96455147D01*
X127699853Y-96580646D01*
X127798456Y-96728216D01*
X127866376Y-96892188D01*
X127901000Y-97066259D01*
X127901000Y-97243741D01*
X127866376Y-97417812D01*
X127798456Y-97581784D01*
X127699853Y-97729354D01*
X127574354Y-97854853D01*
X127426784Y-97953456D01*
X127262812Y-98021376D01*
X127113512Y-98051073D01*
X127088742Y-98056000D01*
X126911258Y-98056000D01*
X126886488Y-98051073D01*
X126737188Y-98021376D01*
X126573216Y-97953456D01*
X126425646Y-97854853D01*
X126300147Y-97729354D01*
X126201544Y-97581784D01*
X126133624Y-97417812D01*
X126099000Y-97243741D01*
X126099000Y-97066259D01*
X126133624Y-96892188D01*
X126201544Y-96728216D01*
X126300147Y-96580646D01*
X126425646Y-96455147D01*
X126573216Y-96356544D01*
X126737188Y-96288624D01*
X126886488Y-96258927D01*
X126911258Y-96254000D01*
X127088742Y-96254000D01*
X127113512Y-96258927D01*
G37*
G36*
X129653512Y-96258927D02*
G01*
X129802812Y-96288624D01*
X129966784Y-96356544D01*
X130114354Y-96455147D01*
X130239853Y-96580646D01*
X130338456Y-96728216D01*
X130406376Y-96892188D01*
X130441000Y-97066259D01*
X130441000Y-97243741D01*
X130406376Y-97417812D01*
X130338456Y-97581784D01*
X130239853Y-97729354D01*
X130114354Y-97854853D01*
X129966784Y-97953456D01*
X129802812Y-98021376D01*
X129653512Y-98051073D01*
X129628742Y-98056000D01*
X129451258Y-98056000D01*
X129426488Y-98051073D01*
X129277188Y-98021376D01*
X129113216Y-97953456D01*
X128965646Y-97854853D01*
X128840147Y-97729354D01*
X128741544Y-97581784D01*
X128673624Y-97417812D01*
X128639000Y-97243741D01*
X128639000Y-97066259D01*
X128673624Y-96892188D01*
X128741544Y-96728216D01*
X128840147Y-96580646D01*
X128965646Y-96455147D01*
X129113216Y-96356544D01*
X129277188Y-96288624D01*
X129426488Y-96258927D01*
X129451258Y-96254000D01*
X129628742Y-96254000D01*
X129653512Y-96258927D01*
G37*
G36*
X147433512Y-96258927D02*
G01*
X147582812Y-96288624D01*
X147746784Y-96356544D01*
X147894354Y-96455147D01*
X148019853Y-96580646D01*
X148118456Y-96728216D01*
X148186376Y-96892188D01*
X148221000Y-97066259D01*
X148221000Y-97243741D01*
X148186376Y-97417812D01*
X148118456Y-97581784D01*
X148019853Y-97729354D01*
X147894354Y-97854853D01*
X147746784Y-97953456D01*
X147582812Y-98021376D01*
X147433512Y-98051073D01*
X147408742Y-98056000D01*
X147231258Y-98056000D01*
X147206488Y-98051073D01*
X147057188Y-98021376D01*
X146893216Y-97953456D01*
X146745646Y-97854853D01*
X146620147Y-97729354D01*
X146521544Y-97581784D01*
X146453624Y-97417812D01*
X146419000Y-97243741D01*
X146419000Y-97066259D01*
X146453624Y-96892188D01*
X146521544Y-96728216D01*
X146620147Y-96580646D01*
X146745646Y-96455147D01*
X146893216Y-96356544D01*
X147057188Y-96288624D01*
X147206488Y-96258927D01*
X147231258Y-96254000D01*
X147408742Y-96254000D01*
X147433512Y-96258927D01*
G37*
G36*
X160133512Y-96258927D02*
G01*
X160282812Y-96288624D01*
X160446784Y-96356544D01*
X160594354Y-96455147D01*
X160719853Y-96580646D01*
X160818456Y-96728216D01*
X160886376Y-96892188D01*
X160921000Y-97066259D01*
X160921000Y-97243741D01*
X160886376Y-97417812D01*
X160818456Y-97581784D01*
X160719853Y-97729354D01*
X160594354Y-97854853D01*
X160446784Y-97953456D01*
X160282812Y-98021376D01*
X160133512Y-98051073D01*
X160108742Y-98056000D01*
X159931258Y-98056000D01*
X159906488Y-98051073D01*
X159757188Y-98021376D01*
X159593216Y-97953456D01*
X159445646Y-97854853D01*
X159320147Y-97729354D01*
X159221544Y-97581784D01*
X159153624Y-97417812D01*
X159119000Y-97243741D01*
X159119000Y-97066259D01*
X159153624Y-96892188D01*
X159221544Y-96728216D01*
X159320147Y-96580646D01*
X159445646Y-96455147D01*
X159593216Y-96356544D01*
X159757188Y-96288624D01*
X159906488Y-96258927D01*
X159931258Y-96254000D01*
X160108742Y-96254000D01*
X160133512Y-96258927D01*
G37*
G36*
X134733512Y-96258927D02*
G01*
X134882812Y-96288624D01*
X135046784Y-96356544D01*
X135194354Y-96455147D01*
X135319853Y-96580646D01*
X135418456Y-96728216D01*
X135486376Y-96892188D01*
X135521000Y-97066259D01*
X135521000Y-97243741D01*
X135486376Y-97417812D01*
X135418456Y-97581784D01*
X135319853Y-97729354D01*
X135194354Y-97854853D01*
X135046784Y-97953456D01*
X134882812Y-98021376D01*
X134733512Y-98051073D01*
X134708742Y-98056000D01*
X134531258Y-98056000D01*
X134506488Y-98051073D01*
X134357188Y-98021376D01*
X134193216Y-97953456D01*
X134045646Y-97854853D01*
X133920147Y-97729354D01*
X133821544Y-97581784D01*
X133753624Y-97417812D01*
X133719000Y-97243741D01*
X133719000Y-97066259D01*
X133753624Y-96892188D01*
X133821544Y-96728216D01*
X133920147Y-96580646D01*
X134045646Y-96455147D01*
X134193216Y-96356544D01*
X134357188Y-96288624D01*
X134506488Y-96258927D01*
X134531258Y-96254000D01*
X134708742Y-96254000D01*
X134733512Y-96258927D01*
G37*
G36*
X137273512Y-96258927D02*
G01*
X137422812Y-96288624D01*
X137586784Y-96356544D01*
X137734354Y-96455147D01*
X137859853Y-96580646D01*
X137958456Y-96728216D01*
X138026376Y-96892188D01*
X138061000Y-97066259D01*
X138061000Y-97243741D01*
X138026376Y-97417812D01*
X137958456Y-97581784D01*
X137859853Y-97729354D01*
X137734354Y-97854853D01*
X137586784Y-97953456D01*
X137422812Y-98021376D01*
X137273512Y-98051073D01*
X137248742Y-98056000D01*
X137071258Y-98056000D01*
X137046488Y-98051073D01*
X136897188Y-98021376D01*
X136733216Y-97953456D01*
X136585646Y-97854853D01*
X136460147Y-97729354D01*
X136361544Y-97581784D01*
X136293624Y-97417812D01*
X136259000Y-97243741D01*
X136259000Y-97066259D01*
X136293624Y-96892188D01*
X136361544Y-96728216D01*
X136460147Y-96580646D01*
X136585646Y-96455147D01*
X136733216Y-96356544D01*
X136897188Y-96288624D01*
X137046488Y-96258927D01*
X137071258Y-96254000D01*
X137248742Y-96254000D01*
X137273512Y-96258927D01*
G37*
G36*
X139813512Y-96258927D02*
G01*
X139962812Y-96288624D01*
X140126784Y-96356544D01*
X140274354Y-96455147D01*
X140399853Y-96580646D01*
X140498456Y-96728216D01*
X140566376Y-96892188D01*
X140601000Y-97066259D01*
X140601000Y-97243741D01*
X140566376Y-97417812D01*
X140498456Y-97581784D01*
X140399853Y-97729354D01*
X140274354Y-97854853D01*
X140126784Y-97953456D01*
X139962812Y-98021376D01*
X139813512Y-98051073D01*
X139788742Y-98056000D01*
X139611258Y-98056000D01*
X139586488Y-98051073D01*
X139437188Y-98021376D01*
X139273216Y-97953456D01*
X139125646Y-97854853D01*
X139000147Y-97729354D01*
X138901544Y-97581784D01*
X138833624Y-97417812D01*
X138799000Y-97243741D01*
X138799000Y-97066259D01*
X138833624Y-96892188D01*
X138901544Y-96728216D01*
X139000147Y-96580646D01*
X139125646Y-96455147D01*
X139273216Y-96356544D01*
X139437188Y-96288624D01*
X139586488Y-96258927D01*
X139611258Y-96254000D01*
X139788742Y-96254000D01*
X139813512Y-96258927D01*
G37*
G36*
X119493512Y-96258927D02*
G01*
X119642812Y-96288624D01*
X119806784Y-96356544D01*
X119954354Y-96455147D01*
X120079853Y-96580646D01*
X120178456Y-96728216D01*
X120246376Y-96892188D01*
X120281000Y-97066259D01*
X120281000Y-97243741D01*
X120246376Y-97417812D01*
X120178456Y-97581784D01*
X120079853Y-97729354D01*
X119954354Y-97854853D01*
X119806784Y-97953456D01*
X119642812Y-98021376D01*
X119493512Y-98051073D01*
X119468742Y-98056000D01*
X119291258Y-98056000D01*
X119266488Y-98051073D01*
X119117188Y-98021376D01*
X118953216Y-97953456D01*
X118805646Y-97854853D01*
X118680147Y-97729354D01*
X118581544Y-97581784D01*
X118513624Y-97417812D01*
X118479000Y-97243741D01*
X118479000Y-97066259D01*
X118513624Y-96892188D01*
X118581544Y-96728216D01*
X118680147Y-96580646D01*
X118805646Y-96455147D01*
X118953216Y-96356544D01*
X119117188Y-96288624D01*
X119266488Y-96258927D01*
X119291258Y-96254000D01*
X119468742Y-96254000D01*
X119493512Y-96258927D01*
G37*
G36*
X142353512Y-96258927D02*
G01*
X142502812Y-96288624D01*
X142666784Y-96356544D01*
X142814354Y-96455147D01*
X142939853Y-96580646D01*
X143038456Y-96728216D01*
X143106376Y-96892188D01*
X143141000Y-97066259D01*
X143141000Y-97243741D01*
X143106376Y-97417812D01*
X143038456Y-97581784D01*
X142939853Y-97729354D01*
X142814354Y-97854853D01*
X142666784Y-97953456D01*
X142502812Y-98021376D01*
X142353512Y-98051073D01*
X142328742Y-98056000D01*
X142151258Y-98056000D01*
X142126488Y-98051073D01*
X141977188Y-98021376D01*
X141813216Y-97953456D01*
X141665646Y-97854853D01*
X141540147Y-97729354D01*
X141441544Y-97581784D01*
X141373624Y-97417812D01*
X141339000Y-97243741D01*
X141339000Y-97066259D01*
X141373624Y-96892188D01*
X141441544Y-96728216D01*
X141540147Y-96580646D01*
X141665646Y-96455147D01*
X141813216Y-96356544D01*
X141977188Y-96288624D01*
X142126488Y-96258927D01*
X142151258Y-96254000D01*
X142328742Y-96254000D01*
X142353512Y-96258927D01*
G37*
G36*
X144893512Y-96258927D02*
G01*
X145042812Y-96288624D01*
X145206784Y-96356544D01*
X145354354Y-96455147D01*
X145479853Y-96580646D01*
X145578456Y-96728216D01*
X145646376Y-96892188D01*
X145681000Y-97066259D01*
X145681000Y-97243741D01*
X145646376Y-97417812D01*
X145578456Y-97581784D01*
X145479853Y-97729354D01*
X145354354Y-97854853D01*
X145206784Y-97953456D01*
X145042812Y-98021376D01*
X144893512Y-98051073D01*
X144868742Y-98056000D01*
X144691258Y-98056000D01*
X144666488Y-98051073D01*
X144517188Y-98021376D01*
X144353216Y-97953456D01*
X144205646Y-97854853D01*
X144080147Y-97729354D01*
X143981544Y-97581784D01*
X143913624Y-97417812D01*
X143879000Y-97243741D01*
X143879000Y-97066259D01*
X143913624Y-96892188D01*
X143981544Y-96728216D01*
X144080147Y-96580646D01*
X144205646Y-96455147D01*
X144353216Y-96356544D01*
X144517188Y-96288624D01*
X144666488Y-96258927D01*
X144691258Y-96254000D01*
X144868742Y-96254000D01*
X144893512Y-96258927D01*
G37*
G36*
X149973512Y-96258927D02*
G01*
X150122812Y-96288624D01*
X150286784Y-96356544D01*
X150434354Y-96455147D01*
X150559853Y-96580646D01*
X150658456Y-96728216D01*
X150726376Y-96892188D01*
X150761000Y-97066259D01*
X150761000Y-97243741D01*
X150726376Y-97417812D01*
X150658456Y-97581784D01*
X150559853Y-97729354D01*
X150434354Y-97854853D01*
X150286784Y-97953456D01*
X150122812Y-98021376D01*
X149973512Y-98051073D01*
X149948742Y-98056000D01*
X149771258Y-98056000D01*
X149746488Y-98051073D01*
X149597188Y-98021376D01*
X149433216Y-97953456D01*
X149285646Y-97854853D01*
X149160147Y-97729354D01*
X149061544Y-97581784D01*
X148993624Y-97417812D01*
X148959000Y-97243741D01*
X148959000Y-97066259D01*
X148993624Y-96892188D01*
X149061544Y-96728216D01*
X149160147Y-96580646D01*
X149285646Y-96455147D01*
X149433216Y-96356544D01*
X149597188Y-96288624D01*
X149746488Y-96258927D01*
X149771258Y-96254000D01*
X149948742Y-96254000D01*
X149973512Y-96258927D01*
G37*
G36*
X132193512Y-96258927D02*
G01*
X132342812Y-96288624D01*
X132506784Y-96356544D01*
X132654354Y-96455147D01*
X132779853Y-96580646D01*
X132878456Y-96728216D01*
X132946376Y-96892188D01*
X132981000Y-97066259D01*
X132981000Y-97243741D01*
X132946376Y-97417812D01*
X132878456Y-97581784D01*
X132779853Y-97729354D01*
X132654354Y-97854853D01*
X132506784Y-97953456D01*
X132342812Y-98021376D01*
X132193512Y-98051073D01*
X132168742Y-98056000D01*
X131991258Y-98056000D01*
X131966488Y-98051073D01*
X131817188Y-98021376D01*
X131653216Y-97953456D01*
X131505646Y-97854853D01*
X131380147Y-97729354D01*
X131281544Y-97581784D01*
X131213624Y-97417812D01*
X131179000Y-97243741D01*
X131179000Y-97066259D01*
X131213624Y-96892188D01*
X131281544Y-96728216D01*
X131380147Y-96580646D01*
X131505646Y-96455147D01*
X131653216Y-96356544D01*
X131817188Y-96288624D01*
X131966488Y-96258927D01*
X131991258Y-96254000D01*
X132168742Y-96254000D01*
X132193512Y-96258927D01*
G37*
M02*
