%TF.GenerationSoftware,KiCad,Pcbnew,5.1.5+dfsg1-2build2*%
%TF.CreationDate,2021-11-27T13:08:24+01:00*%
%TF.ProjectId,rpi-han-interface,7270692d-6861-46e2-9d69-6e7465726661,rev?*%
%TF.SameCoordinates,Original*%
%TF.FileFunction,Profile,NP*%
%FSLAX46Y46*%
G04 Gerber Fmt 4.6, Leading zero omitted, Abs format (unit mm)*
G04 Created by KiCad (PCBNEW 5.1.5+dfsg1-2build2) date 2021-11-27 13:08:24*
%MOMM*%
%LPD*%
G04 APERTURE LIST*
%ADD10C,0.200000*%
G04 APERTURE END LIST*
D10*
X110960880Y-97830680D02*
X110960880Y-97830680D01*
X110960880Y-121830680D02*
X110960880Y-121830680D01*
X175960880Y-97830680D02*
X175960880Y-97830680D01*
X175960880Y-97830680D02*
X175960880Y-97830680D01*
X110960880Y-121830680D02*
X110960880Y-121830680D01*
X110960880Y-121830680D02*
X110960880Y-121830680D01*
X175960880Y-121830680D02*
X175960880Y-121830680D01*
X110960880Y-97830680D02*
X110960880Y-97830680D01*
X110960880Y-121830680D02*
X110960880Y-97830680D01*
X113960880Y-124830680D02*
X113766421Y-124824475D01*
X113766421Y-124824475D02*
X113582306Y-124807018D01*
X113582306Y-124807018D02*
X113407922Y-124779822D01*
X113407922Y-124779822D02*
X113237573Y-124742903D01*
X113237573Y-124742903D02*
X113080888Y-124699544D01*
X113080888Y-124699544D02*
X112930453Y-124649032D01*
X112930453Y-124649032D02*
X112779488Y-124589107D01*
X112779488Y-124589107D02*
X112640822Y-124525392D01*
X112640822Y-124525392D02*
X112508043Y-124456047D01*
X112508043Y-124456047D02*
X112381658Y-124381862D01*
X112381658Y-124381862D02*
X112260245Y-124302422D01*
X112260245Y-124302422D02*
X112142104Y-124216681D01*
X112142104Y-124216681D02*
X112030546Y-124127247D01*
X112030546Y-124127247D02*
X111923020Y-124032318D01*
X111923020Y-124032318D02*
X111820949Y-123933226D01*
X111820949Y-123933226D02*
X111722901Y-123828587D01*
X111722901Y-123828587D02*
X111628472Y-123717602D01*
X111628472Y-123717602D02*
X111537437Y-123599343D01*
X111537437Y-123599343D02*
X111453809Y-123478895D01*
X111453809Y-123478895D02*
X111376873Y-123355723D01*
X111376873Y-123355723D02*
X111304505Y-123226146D01*
X111304505Y-123226146D02*
X111237742Y-123091176D01*
X111237742Y-123091176D02*
X111174456Y-122944522D01*
X111174456Y-122944522D02*
X111120348Y-122798306D01*
X111120348Y-122798306D02*
X111072481Y-122644173D01*
X111072481Y-122644173D02*
X111031789Y-122482061D01*
X111031789Y-122482061D02*
X110999368Y-122312533D01*
X110999368Y-122312533D02*
X110975536Y-122129132D01*
X110975536Y-122129132D02*
X110962523Y-121931001D01*
X110962523Y-121931001D02*
X110960880Y-121830680D01*
X113960880Y-94830680D02*
X113960880Y-94830680D01*
X113960880Y-94830680D02*
X113960880Y-94830680D01*
X175960880Y-97830680D02*
X175960880Y-97830680D01*
X175960880Y-97830680D02*
X175960880Y-97830680D01*
X110960880Y-97830680D02*
X110960880Y-97830680D01*
X172960880Y-94830680D02*
X172960880Y-94830680D01*
X172960880Y-124830680D02*
X172960880Y-124830680D01*
X113960880Y-124830680D02*
X113960880Y-124830680D01*
X172960880Y-94830680D02*
X172960880Y-94830680D01*
X113960880Y-124830680D02*
X113960880Y-124830680D01*
X113960880Y-124830680D02*
X113960880Y-124830680D01*
X113960880Y-124830680D02*
X113960880Y-124830680D01*
X113960880Y-94830680D02*
X113766421Y-94836879D01*
X113766421Y-94836879D02*
X113582306Y-94854334D01*
X113582306Y-94854334D02*
X113407922Y-94881528D01*
X113407922Y-94881528D02*
X113241520Y-94917473D01*
X113241520Y-94917473D02*
X113083093Y-94961133D01*
X113083093Y-94961133D02*
X112930453Y-95012322D01*
X112930453Y-95012322D02*
X112785787Y-95069556D01*
X112785787Y-95069556D02*
X112640822Y-95135958D01*
X112640822Y-95135958D02*
X112508538Y-95205028D01*
X112508538Y-95205028D02*
X112381178Y-95279786D01*
X112381178Y-95279786D02*
X112258388Y-95360210D01*
X112258388Y-95360210D02*
X112141657Y-95445010D01*
X112141657Y-95445010D02*
X112030546Y-95534102D01*
X112030546Y-95534102D02*
X111921370Y-95630562D01*
X111921370Y-95630562D02*
X111819767Y-95729330D01*
X111819767Y-95729330D02*
X111722526Y-95833185D01*
X111722526Y-95833185D02*
X111629535Y-95942435D01*
X111629535Y-95942435D02*
X111541434Y-96056551D01*
X111541434Y-96056551D02*
X111459100Y-96174450D01*
X111459100Y-96174450D02*
X111379467Y-96301246D01*
X111379467Y-96301246D02*
X111303185Y-96437715D01*
X111303185Y-96437715D02*
X111236785Y-96572241D01*
X111236785Y-96572241D02*
X111176159Y-96712586D01*
X111176159Y-96712586D02*
X111119609Y-96865221D01*
X111119609Y-96865221D02*
X111072012Y-97018848D01*
X111072012Y-97018848D02*
X111030785Y-97183841D01*
X111030785Y-97183841D02*
X110998160Y-97356365D01*
X110998160Y-97356365D02*
X110975072Y-97536952D01*
X110975072Y-97536952D02*
X110962603Y-97727941D01*
X110962603Y-97727941D02*
X110960880Y-97830680D01*
X175960880Y-121830680D02*
X175960880Y-121830680D01*
X172960880Y-124830680D02*
X172960880Y-124830680D01*
X172960880Y-124830680D02*
X173154773Y-124824409D01*
X173154773Y-124824409D02*
X173338818Y-124806785D01*
X173338818Y-124806785D02*
X173514197Y-124779220D01*
X173514197Y-124779220D02*
X173679891Y-124743248D01*
X173679891Y-124743248D02*
X173838854Y-124699331D01*
X173838854Y-124699331D02*
X173990677Y-124648391D01*
X173990677Y-124648391D02*
X174135281Y-124591251D01*
X174135281Y-124591251D02*
X174273147Y-124528443D01*
X174273147Y-124528443D02*
X174406762Y-124459259D01*
X174406762Y-124459259D02*
X174533491Y-124385464D01*
X174533491Y-124385464D02*
X174656213Y-124305732D01*
X174656213Y-124305732D02*
X174774270Y-124220587D01*
X174774270Y-124220587D02*
X174885962Y-124131563D01*
X174885962Y-124131563D02*
X174994103Y-124036577D01*
X174994103Y-124036577D02*
X175082200Y-123952000D01*
X175082200Y-95709360D02*
X174976977Y-95609111D01*
X174976977Y-95609111D02*
X174866615Y-95513736D01*
X174866615Y-95513736D02*
X174754013Y-95425529D01*
X174754013Y-95425529D02*
X174633868Y-95340462D01*
X174633868Y-95340462D02*
X174511461Y-95262458D01*
X174511461Y-95262458D02*
X174382627Y-95188962D01*
X174382627Y-95188962D02*
X174247893Y-95120769D01*
X174247893Y-95120769D02*
X174105758Y-95057728D01*
X174105758Y-95057728D02*
X173960543Y-95002130D01*
X173960543Y-95002130D02*
X173808157Y-94952803D01*
X173808157Y-94952803D02*
X173641980Y-94909006D01*
X173641980Y-94909006D02*
X173473186Y-94874730D01*
X173473186Y-94874730D02*
X173297580Y-94849621D01*
X173297580Y-94849621D02*
X173108480Y-94834308D01*
X173108480Y-94834308D02*
X172960880Y-94830680D01*
X175960880Y-97830680D02*
X175954572Y-97636200D01*
X175954572Y-97636200D02*
X175937093Y-97453590D01*
X175937093Y-97453590D02*
X175908621Y-97273119D01*
X175908621Y-97273119D02*
X175872691Y-97108600D01*
X175872691Y-97108600D02*
X175828860Y-96950508D01*
X175828860Y-96950508D02*
X175777805Y-96798726D01*
X175777805Y-96798726D02*
X175720555Y-96654167D01*
X175720555Y-96654167D02*
X175656890Y-96514804D01*
X175656890Y-96514804D02*
X175587247Y-96380778D01*
X175587247Y-96380778D02*
X175513256Y-96254156D01*
X175513256Y-96254156D02*
X175434307Y-96132970D01*
X175434307Y-96132970D02*
X175349393Y-96015448D01*
X175349393Y-96015448D02*
X175260465Y-95904037D01*
X175260465Y-95904037D02*
X175165203Y-95795742D01*
X175165203Y-95795742D02*
X175082200Y-95709360D01*
X172960880Y-124830680D02*
X172960880Y-124830680D01*
X113960880Y-94830680D02*
X113960880Y-94830680D01*
X113960880Y-94830680D02*
X113960880Y-94830680D01*
X172960880Y-94830680D02*
X113960880Y-94830680D01*
X172960880Y-124830680D02*
X113960880Y-124830680D01*
X175960880Y-97830680D02*
X175960880Y-121830680D01*
X172960880Y-124830680D02*
X172960880Y-124830680D01*
X175082200Y-123952000D02*
X175180883Y-123848495D01*
X175180883Y-123848495D02*
X175276348Y-123738198D01*
X175276348Y-123738198D02*
X175364300Y-123626121D01*
X175364300Y-123626121D02*
X175449486Y-123506051D01*
X175449486Y-123506051D02*
X175527905Y-123383225D01*
X175527905Y-123383225D02*
X175600824Y-123255701D01*
X175600824Y-123255701D02*
X175668817Y-123121824D01*
X175668817Y-123121824D02*
X175730542Y-122983478D01*
X175730542Y-122983478D02*
X175786840Y-122837618D01*
X175786840Y-122837618D02*
X175836149Y-122686739D01*
X175836149Y-122686739D02*
X175879391Y-122525178D01*
X175879391Y-122525178D02*
X175914433Y-122356577D01*
X175914433Y-122356577D02*
X175940245Y-122181999D01*
X175940245Y-122181999D02*
X175956278Y-121996810D01*
X175956278Y-121996810D02*
X175960880Y-121830680D01*
M02*
