%TF.GenerationSoftware,KiCad,Pcbnew,5.1.5+dfsg1-2build2*%
%TF.CreationDate,2021-11-27T13:08:24+01:00*%
%TF.ProjectId,rpi-han-interface,7270692d-6861-46e2-9d69-6e7465726661,rev?*%
%TF.SameCoordinates,Original*%
%TF.FileFunction,Paste,Top*%
%TF.FilePolarity,Positive*%
%FSLAX46Y46*%
G04 Gerber Fmt 4.6, Leading zero omitted, Abs format (unit mm)*
G04 Created by KiCad (PCBNEW 5.1.5+dfsg1-2build2) date 2021-11-27 13:08:24*
%MOMM*%
%LPD*%
G04 APERTURE LIST*
%ADD10C,0.100000*%
%ADD11R,0.900000X0.800000*%
%ADD12R,0.800000X0.900000*%
G04 APERTURE END LIST*
D10*
G36*
X156784504Y-101871204D02*
G01*
X156808773Y-101874804D01*
X156832571Y-101880765D01*
X156855671Y-101889030D01*
X156877849Y-101899520D01*
X156898893Y-101912133D01*
X156918598Y-101926747D01*
X156936777Y-101943223D01*
X156953253Y-101961402D01*
X156967867Y-101981107D01*
X156980480Y-102002151D01*
X156990970Y-102024329D01*
X156999235Y-102047429D01*
X157005196Y-102071227D01*
X157008796Y-102095496D01*
X157010000Y-102120000D01*
X157010000Y-105120000D01*
X157008796Y-105144504D01*
X157005196Y-105168773D01*
X156999235Y-105192571D01*
X156990970Y-105215671D01*
X156980480Y-105237849D01*
X156967867Y-105258893D01*
X156953253Y-105278598D01*
X156936777Y-105296777D01*
X156918598Y-105313253D01*
X156898893Y-105327867D01*
X156877849Y-105340480D01*
X156855671Y-105350970D01*
X156832571Y-105359235D01*
X156808773Y-105365196D01*
X156784504Y-105368796D01*
X156760000Y-105370000D01*
X155660000Y-105370000D01*
X155635496Y-105368796D01*
X155611227Y-105365196D01*
X155587429Y-105359235D01*
X155564329Y-105350970D01*
X155542151Y-105340480D01*
X155521107Y-105327867D01*
X155501402Y-105313253D01*
X155483223Y-105296777D01*
X155466747Y-105278598D01*
X155452133Y-105258893D01*
X155439520Y-105237849D01*
X155429030Y-105215671D01*
X155420765Y-105192571D01*
X155414804Y-105168773D01*
X155411204Y-105144504D01*
X155410000Y-105120000D01*
X155410000Y-102120000D01*
X155411204Y-102095496D01*
X155414804Y-102071227D01*
X155420765Y-102047429D01*
X155429030Y-102024329D01*
X155439520Y-102002151D01*
X155452133Y-101981107D01*
X155466747Y-101961402D01*
X155483223Y-101943223D01*
X155501402Y-101926747D01*
X155521107Y-101912133D01*
X155542151Y-101899520D01*
X155564329Y-101889030D01*
X155587429Y-101880765D01*
X155611227Y-101874804D01*
X155635496Y-101871204D01*
X155660000Y-101870000D01*
X156760000Y-101870000D01*
X156784504Y-101871204D01*
G37*
G36*
X156784504Y-107471204D02*
G01*
X156808773Y-107474804D01*
X156832571Y-107480765D01*
X156855671Y-107489030D01*
X156877849Y-107499520D01*
X156898893Y-107512133D01*
X156918598Y-107526747D01*
X156936777Y-107543223D01*
X156953253Y-107561402D01*
X156967867Y-107581107D01*
X156980480Y-107602151D01*
X156990970Y-107624329D01*
X156999235Y-107647429D01*
X157005196Y-107671227D01*
X157008796Y-107695496D01*
X157010000Y-107720000D01*
X157010000Y-110720000D01*
X157008796Y-110744504D01*
X157005196Y-110768773D01*
X156999235Y-110792571D01*
X156990970Y-110815671D01*
X156980480Y-110837849D01*
X156967867Y-110858893D01*
X156953253Y-110878598D01*
X156936777Y-110896777D01*
X156918598Y-110913253D01*
X156898893Y-110927867D01*
X156877849Y-110940480D01*
X156855671Y-110950970D01*
X156832571Y-110959235D01*
X156808773Y-110965196D01*
X156784504Y-110968796D01*
X156760000Y-110970000D01*
X155660000Y-110970000D01*
X155635496Y-110968796D01*
X155611227Y-110965196D01*
X155587429Y-110959235D01*
X155564329Y-110950970D01*
X155542151Y-110940480D01*
X155521107Y-110927867D01*
X155501402Y-110913253D01*
X155483223Y-110896777D01*
X155466747Y-110878598D01*
X155452133Y-110858893D01*
X155439520Y-110837849D01*
X155429030Y-110815671D01*
X155420765Y-110792571D01*
X155414804Y-110768773D01*
X155411204Y-110744504D01*
X155410000Y-110720000D01*
X155410000Y-107720000D01*
X155411204Y-107695496D01*
X155414804Y-107671227D01*
X155420765Y-107647429D01*
X155429030Y-107624329D01*
X155439520Y-107602151D01*
X155452133Y-107581107D01*
X155466747Y-107561402D01*
X155483223Y-107543223D01*
X155501402Y-107526747D01*
X155521107Y-107512133D01*
X155542151Y-107499520D01*
X155564329Y-107489030D01*
X155587429Y-107480765D01*
X155611227Y-107474804D01*
X155635496Y-107471204D01*
X155660000Y-107470000D01*
X156760000Y-107470000D01*
X156784504Y-107471204D01*
G37*
G36*
X149037504Y-101871204D02*
G01*
X149061773Y-101874804D01*
X149085571Y-101880765D01*
X149108671Y-101889030D01*
X149130849Y-101899520D01*
X149151893Y-101912133D01*
X149171598Y-101926747D01*
X149189777Y-101943223D01*
X149206253Y-101961402D01*
X149220867Y-101981107D01*
X149233480Y-102002151D01*
X149243970Y-102024329D01*
X149252235Y-102047429D01*
X149258196Y-102071227D01*
X149261796Y-102095496D01*
X149263000Y-102120000D01*
X149263000Y-105120000D01*
X149261796Y-105144504D01*
X149258196Y-105168773D01*
X149252235Y-105192571D01*
X149243970Y-105215671D01*
X149233480Y-105237849D01*
X149220867Y-105258893D01*
X149206253Y-105278598D01*
X149189777Y-105296777D01*
X149171598Y-105313253D01*
X149151893Y-105327867D01*
X149130849Y-105340480D01*
X149108671Y-105350970D01*
X149085571Y-105359235D01*
X149061773Y-105365196D01*
X149037504Y-105368796D01*
X149013000Y-105370000D01*
X147913000Y-105370000D01*
X147888496Y-105368796D01*
X147864227Y-105365196D01*
X147840429Y-105359235D01*
X147817329Y-105350970D01*
X147795151Y-105340480D01*
X147774107Y-105327867D01*
X147754402Y-105313253D01*
X147736223Y-105296777D01*
X147719747Y-105278598D01*
X147705133Y-105258893D01*
X147692520Y-105237849D01*
X147682030Y-105215671D01*
X147673765Y-105192571D01*
X147667804Y-105168773D01*
X147664204Y-105144504D01*
X147663000Y-105120000D01*
X147663000Y-102120000D01*
X147664204Y-102095496D01*
X147667804Y-102071227D01*
X147673765Y-102047429D01*
X147682030Y-102024329D01*
X147692520Y-102002151D01*
X147705133Y-101981107D01*
X147719747Y-101961402D01*
X147736223Y-101943223D01*
X147754402Y-101926747D01*
X147774107Y-101912133D01*
X147795151Y-101899520D01*
X147817329Y-101889030D01*
X147840429Y-101880765D01*
X147864227Y-101874804D01*
X147888496Y-101871204D01*
X147913000Y-101870000D01*
X149013000Y-101870000D01*
X149037504Y-101871204D01*
G37*
G36*
X149037504Y-107471204D02*
G01*
X149061773Y-107474804D01*
X149085571Y-107480765D01*
X149108671Y-107489030D01*
X149130849Y-107499520D01*
X149151893Y-107512133D01*
X149171598Y-107526747D01*
X149189777Y-107543223D01*
X149206253Y-107561402D01*
X149220867Y-107581107D01*
X149233480Y-107602151D01*
X149243970Y-107624329D01*
X149252235Y-107647429D01*
X149258196Y-107671227D01*
X149261796Y-107695496D01*
X149263000Y-107720000D01*
X149263000Y-110720000D01*
X149261796Y-110744504D01*
X149258196Y-110768773D01*
X149252235Y-110792571D01*
X149243970Y-110815671D01*
X149233480Y-110837849D01*
X149220867Y-110858893D01*
X149206253Y-110878598D01*
X149189777Y-110896777D01*
X149171598Y-110913253D01*
X149151893Y-110927867D01*
X149130849Y-110940480D01*
X149108671Y-110950970D01*
X149085571Y-110959235D01*
X149061773Y-110965196D01*
X149037504Y-110968796D01*
X149013000Y-110970000D01*
X147913000Y-110970000D01*
X147888496Y-110968796D01*
X147864227Y-110965196D01*
X147840429Y-110959235D01*
X147817329Y-110950970D01*
X147795151Y-110940480D01*
X147774107Y-110927867D01*
X147754402Y-110913253D01*
X147736223Y-110896777D01*
X147719747Y-110878598D01*
X147705133Y-110858893D01*
X147692520Y-110837849D01*
X147682030Y-110815671D01*
X147673765Y-110792571D01*
X147667804Y-110768773D01*
X147664204Y-110744504D01*
X147663000Y-110720000D01*
X147663000Y-107720000D01*
X147664204Y-107695496D01*
X147667804Y-107671227D01*
X147673765Y-107647429D01*
X147682030Y-107624329D01*
X147692520Y-107602151D01*
X147705133Y-107581107D01*
X147719747Y-107561402D01*
X147736223Y-107543223D01*
X147754402Y-107526747D01*
X147774107Y-107512133D01*
X147795151Y-107499520D01*
X147817329Y-107489030D01*
X147840429Y-107480765D01*
X147864227Y-107474804D01*
X147888496Y-107471204D01*
X147913000Y-107470000D01*
X149013000Y-107470000D01*
X149037504Y-107471204D01*
G37*
G36*
X137005142Y-103683674D02*
G01*
X137028803Y-103687184D01*
X137052007Y-103692996D01*
X137074529Y-103701054D01*
X137096153Y-103711282D01*
X137116670Y-103723579D01*
X137135883Y-103737829D01*
X137153607Y-103753893D01*
X137169671Y-103771617D01*
X137183921Y-103790830D01*
X137196218Y-103811347D01*
X137206446Y-103832971D01*
X137214504Y-103855493D01*
X137220316Y-103878697D01*
X137223826Y-103902358D01*
X137225000Y-103926250D01*
X137225000Y-104413750D01*
X137223826Y-104437642D01*
X137220316Y-104461303D01*
X137214504Y-104484507D01*
X137206446Y-104507029D01*
X137196218Y-104528653D01*
X137183921Y-104549170D01*
X137169671Y-104568383D01*
X137153607Y-104586107D01*
X137135883Y-104602171D01*
X137116670Y-104616421D01*
X137096153Y-104628718D01*
X137074529Y-104638946D01*
X137052007Y-104647004D01*
X137028803Y-104652816D01*
X137005142Y-104656326D01*
X136981250Y-104657500D01*
X136068750Y-104657500D01*
X136044858Y-104656326D01*
X136021197Y-104652816D01*
X135997993Y-104647004D01*
X135975471Y-104638946D01*
X135953847Y-104628718D01*
X135933330Y-104616421D01*
X135914117Y-104602171D01*
X135896393Y-104586107D01*
X135880329Y-104568383D01*
X135866079Y-104549170D01*
X135853782Y-104528653D01*
X135843554Y-104507029D01*
X135835496Y-104484507D01*
X135829684Y-104461303D01*
X135826174Y-104437642D01*
X135825000Y-104413750D01*
X135825000Y-103926250D01*
X135826174Y-103902358D01*
X135829684Y-103878697D01*
X135835496Y-103855493D01*
X135843554Y-103832971D01*
X135853782Y-103811347D01*
X135866079Y-103790830D01*
X135880329Y-103771617D01*
X135896393Y-103753893D01*
X135914117Y-103737829D01*
X135933330Y-103723579D01*
X135953847Y-103711282D01*
X135975471Y-103701054D01*
X135997993Y-103692996D01*
X136021197Y-103687184D01*
X136044858Y-103683674D01*
X136068750Y-103682500D01*
X136981250Y-103682500D01*
X137005142Y-103683674D01*
G37*
G36*
X137005142Y-105558674D02*
G01*
X137028803Y-105562184D01*
X137052007Y-105567996D01*
X137074529Y-105576054D01*
X137096153Y-105586282D01*
X137116670Y-105598579D01*
X137135883Y-105612829D01*
X137153607Y-105628893D01*
X137169671Y-105646617D01*
X137183921Y-105665830D01*
X137196218Y-105686347D01*
X137206446Y-105707971D01*
X137214504Y-105730493D01*
X137220316Y-105753697D01*
X137223826Y-105777358D01*
X137225000Y-105801250D01*
X137225000Y-106288750D01*
X137223826Y-106312642D01*
X137220316Y-106336303D01*
X137214504Y-106359507D01*
X137206446Y-106382029D01*
X137196218Y-106403653D01*
X137183921Y-106424170D01*
X137169671Y-106443383D01*
X137153607Y-106461107D01*
X137135883Y-106477171D01*
X137116670Y-106491421D01*
X137096153Y-106503718D01*
X137074529Y-106513946D01*
X137052007Y-106522004D01*
X137028803Y-106527816D01*
X137005142Y-106531326D01*
X136981250Y-106532500D01*
X136068750Y-106532500D01*
X136044858Y-106531326D01*
X136021197Y-106527816D01*
X135997993Y-106522004D01*
X135975471Y-106513946D01*
X135953847Y-106503718D01*
X135933330Y-106491421D01*
X135914117Y-106477171D01*
X135896393Y-106461107D01*
X135880329Y-106443383D01*
X135866079Y-106424170D01*
X135853782Y-106403653D01*
X135843554Y-106382029D01*
X135835496Y-106359507D01*
X135829684Y-106336303D01*
X135826174Y-106312642D01*
X135825000Y-106288750D01*
X135825000Y-105801250D01*
X135826174Y-105777358D01*
X135829684Y-105753697D01*
X135835496Y-105730493D01*
X135843554Y-105707971D01*
X135853782Y-105686347D01*
X135866079Y-105665830D01*
X135880329Y-105646617D01*
X135896393Y-105628893D01*
X135914117Y-105612829D01*
X135933330Y-105598579D01*
X135953847Y-105586282D01*
X135975471Y-105576054D01*
X135997993Y-105567996D01*
X136021197Y-105562184D01*
X136044858Y-105558674D01*
X136068750Y-105557500D01*
X136981250Y-105557500D01*
X137005142Y-105558674D01*
G37*
G36*
X131925142Y-105528674D02*
G01*
X131948803Y-105532184D01*
X131972007Y-105537996D01*
X131994529Y-105546054D01*
X132016153Y-105556282D01*
X132036670Y-105568579D01*
X132055883Y-105582829D01*
X132073607Y-105598893D01*
X132089671Y-105616617D01*
X132103921Y-105635830D01*
X132116218Y-105656347D01*
X132126446Y-105677971D01*
X132134504Y-105700493D01*
X132140316Y-105723697D01*
X132143826Y-105747358D01*
X132145000Y-105771250D01*
X132145000Y-106258750D01*
X132143826Y-106282642D01*
X132140316Y-106306303D01*
X132134504Y-106329507D01*
X132126446Y-106352029D01*
X132116218Y-106373653D01*
X132103921Y-106394170D01*
X132089671Y-106413383D01*
X132073607Y-106431107D01*
X132055883Y-106447171D01*
X132036670Y-106461421D01*
X132016153Y-106473718D01*
X131994529Y-106483946D01*
X131972007Y-106492004D01*
X131948803Y-106497816D01*
X131925142Y-106501326D01*
X131901250Y-106502500D01*
X130988750Y-106502500D01*
X130964858Y-106501326D01*
X130941197Y-106497816D01*
X130917993Y-106492004D01*
X130895471Y-106483946D01*
X130873847Y-106473718D01*
X130853330Y-106461421D01*
X130834117Y-106447171D01*
X130816393Y-106431107D01*
X130800329Y-106413383D01*
X130786079Y-106394170D01*
X130773782Y-106373653D01*
X130763554Y-106352029D01*
X130755496Y-106329507D01*
X130749684Y-106306303D01*
X130746174Y-106282642D01*
X130745000Y-106258750D01*
X130745000Y-105771250D01*
X130746174Y-105747358D01*
X130749684Y-105723697D01*
X130755496Y-105700493D01*
X130763554Y-105677971D01*
X130773782Y-105656347D01*
X130786079Y-105635830D01*
X130800329Y-105616617D01*
X130816393Y-105598893D01*
X130834117Y-105582829D01*
X130853330Y-105568579D01*
X130873847Y-105556282D01*
X130895471Y-105546054D01*
X130917993Y-105537996D01*
X130941197Y-105532184D01*
X130964858Y-105528674D01*
X130988750Y-105527500D01*
X131901250Y-105527500D01*
X131925142Y-105528674D01*
G37*
G36*
X131925142Y-103653674D02*
G01*
X131948803Y-103657184D01*
X131972007Y-103662996D01*
X131994529Y-103671054D01*
X132016153Y-103681282D01*
X132036670Y-103693579D01*
X132055883Y-103707829D01*
X132073607Y-103723893D01*
X132089671Y-103741617D01*
X132103921Y-103760830D01*
X132116218Y-103781347D01*
X132126446Y-103802971D01*
X132134504Y-103825493D01*
X132140316Y-103848697D01*
X132143826Y-103872358D01*
X132145000Y-103896250D01*
X132145000Y-104383750D01*
X132143826Y-104407642D01*
X132140316Y-104431303D01*
X132134504Y-104454507D01*
X132126446Y-104477029D01*
X132116218Y-104498653D01*
X132103921Y-104519170D01*
X132089671Y-104538383D01*
X132073607Y-104556107D01*
X132055883Y-104572171D01*
X132036670Y-104586421D01*
X132016153Y-104598718D01*
X131994529Y-104608946D01*
X131972007Y-104617004D01*
X131948803Y-104622816D01*
X131925142Y-104626326D01*
X131901250Y-104627500D01*
X130988750Y-104627500D01*
X130964858Y-104626326D01*
X130941197Y-104622816D01*
X130917993Y-104617004D01*
X130895471Y-104608946D01*
X130873847Y-104598718D01*
X130853330Y-104586421D01*
X130834117Y-104572171D01*
X130816393Y-104556107D01*
X130800329Y-104538383D01*
X130786079Y-104519170D01*
X130773782Y-104498653D01*
X130763554Y-104477029D01*
X130755496Y-104454507D01*
X130749684Y-104431303D01*
X130746174Y-104407642D01*
X130745000Y-104383750D01*
X130745000Y-103896250D01*
X130746174Y-103872358D01*
X130749684Y-103848697D01*
X130755496Y-103825493D01*
X130763554Y-103802971D01*
X130773782Y-103781347D01*
X130786079Y-103760830D01*
X130800329Y-103741617D01*
X130816393Y-103723893D01*
X130834117Y-103707829D01*
X130853330Y-103693579D01*
X130873847Y-103681282D01*
X130895471Y-103671054D01*
X130917993Y-103662996D01*
X130941197Y-103657184D01*
X130964858Y-103653674D01*
X130988750Y-103652500D01*
X131901250Y-103652500D01*
X131925142Y-103653674D01*
G37*
G36*
X173592642Y-109156174D02*
G01*
X173616303Y-109159684D01*
X173639507Y-109165496D01*
X173662029Y-109173554D01*
X173683653Y-109183782D01*
X173704170Y-109196079D01*
X173723383Y-109210329D01*
X173741107Y-109226393D01*
X173757171Y-109244117D01*
X173771421Y-109263330D01*
X173783718Y-109283847D01*
X173793946Y-109305471D01*
X173802004Y-109327993D01*
X173807816Y-109351197D01*
X173811326Y-109374858D01*
X173812500Y-109398750D01*
X173812500Y-110311250D01*
X173811326Y-110335142D01*
X173807816Y-110358803D01*
X173802004Y-110382007D01*
X173793946Y-110404529D01*
X173783718Y-110426153D01*
X173771421Y-110446670D01*
X173757171Y-110465883D01*
X173741107Y-110483607D01*
X173723383Y-110499671D01*
X173704170Y-110513921D01*
X173683653Y-110526218D01*
X173662029Y-110536446D01*
X173639507Y-110544504D01*
X173616303Y-110550316D01*
X173592642Y-110553826D01*
X173568750Y-110555000D01*
X173081250Y-110555000D01*
X173057358Y-110553826D01*
X173033697Y-110550316D01*
X173010493Y-110544504D01*
X172987971Y-110536446D01*
X172966347Y-110526218D01*
X172945830Y-110513921D01*
X172926617Y-110499671D01*
X172908893Y-110483607D01*
X172892829Y-110465883D01*
X172878579Y-110446670D01*
X172866282Y-110426153D01*
X172856054Y-110404529D01*
X172847996Y-110382007D01*
X172842184Y-110358803D01*
X172838674Y-110335142D01*
X172837500Y-110311250D01*
X172837500Y-109398750D01*
X172838674Y-109374858D01*
X172842184Y-109351197D01*
X172847996Y-109327993D01*
X172856054Y-109305471D01*
X172866282Y-109283847D01*
X172878579Y-109263330D01*
X172892829Y-109244117D01*
X172908893Y-109226393D01*
X172926617Y-109210329D01*
X172945830Y-109196079D01*
X172966347Y-109183782D01*
X172987971Y-109173554D01*
X173010493Y-109165496D01*
X173033697Y-109159684D01*
X173057358Y-109156174D01*
X173081250Y-109155000D01*
X173568750Y-109155000D01*
X173592642Y-109156174D01*
G37*
G36*
X171717642Y-109156174D02*
G01*
X171741303Y-109159684D01*
X171764507Y-109165496D01*
X171787029Y-109173554D01*
X171808653Y-109183782D01*
X171829170Y-109196079D01*
X171848383Y-109210329D01*
X171866107Y-109226393D01*
X171882171Y-109244117D01*
X171896421Y-109263330D01*
X171908718Y-109283847D01*
X171918946Y-109305471D01*
X171927004Y-109327993D01*
X171932816Y-109351197D01*
X171936326Y-109374858D01*
X171937500Y-109398750D01*
X171937500Y-110311250D01*
X171936326Y-110335142D01*
X171932816Y-110358803D01*
X171927004Y-110382007D01*
X171918946Y-110404529D01*
X171908718Y-110426153D01*
X171896421Y-110446670D01*
X171882171Y-110465883D01*
X171866107Y-110483607D01*
X171848383Y-110499671D01*
X171829170Y-110513921D01*
X171808653Y-110526218D01*
X171787029Y-110536446D01*
X171764507Y-110544504D01*
X171741303Y-110550316D01*
X171717642Y-110553826D01*
X171693750Y-110555000D01*
X171206250Y-110555000D01*
X171182358Y-110553826D01*
X171158697Y-110550316D01*
X171135493Y-110544504D01*
X171112971Y-110536446D01*
X171091347Y-110526218D01*
X171070830Y-110513921D01*
X171051617Y-110499671D01*
X171033893Y-110483607D01*
X171017829Y-110465883D01*
X171003579Y-110446670D01*
X170991282Y-110426153D01*
X170981054Y-110404529D01*
X170972996Y-110382007D01*
X170967184Y-110358803D01*
X170963674Y-110335142D01*
X170962500Y-110311250D01*
X170962500Y-109398750D01*
X170963674Y-109374858D01*
X170967184Y-109351197D01*
X170972996Y-109327993D01*
X170981054Y-109305471D01*
X170991282Y-109283847D01*
X171003579Y-109263330D01*
X171017829Y-109244117D01*
X171033893Y-109226393D01*
X171051617Y-109210329D01*
X171070830Y-109196079D01*
X171091347Y-109183782D01*
X171112971Y-109173554D01*
X171135493Y-109165496D01*
X171158697Y-109159684D01*
X171182358Y-109156174D01*
X171206250Y-109155000D01*
X171693750Y-109155000D01*
X171717642Y-109156174D01*
G37*
G36*
X134465142Y-103683674D02*
G01*
X134488803Y-103687184D01*
X134512007Y-103692996D01*
X134534529Y-103701054D01*
X134556153Y-103711282D01*
X134576670Y-103723579D01*
X134595883Y-103737829D01*
X134613607Y-103753893D01*
X134629671Y-103771617D01*
X134643921Y-103790830D01*
X134656218Y-103811347D01*
X134666446Y-103832971D01*
X134674504Y-103855493D01*
X134680316Y-103878697D01*
X134683826Y-103902358D01*
X134685000Y-103926250D01*
X134685000Y-104413750D01*
X134683826Y-104437642D01*
X134680316Y-104461303D01*
X134674504Y-104484507D01*
X134666446Y-104507029D01*
X134656218Y-104528653D01*
X134643921Y-104549170D01*
X134629671Y-104568383D01*
X134613607Y-104586107D01*
X134595883Y-104602171D01*
X134576670Y-104616421D01*
X134556153Y-104628718D01*
X134534529Y-104638946D01*
X134512007Y-104647004D01*
X134488803Y-104652816D01*
X134465142Y-104656326D01*
X134441250Y-104657500D01*
X133528750Y-104657500D01*
X133504858Y-104656326D01*
X133481197Y-104652816D01*
X133457993Y-104647004D01*
X133435471Y-104638946D01*
X133413847Y-104628718D01*
X133393330Y-104616421D01*
X133374117Y-104602171D01*
X133356393Y-104586107D01*
X133340329Y-104568383D01*
X133326079Y-104549170D01*
X133313782Y-104528653D01*
X133303554Y-104507029D01*
X133295496Y-104484507D01*
X133289684Y-104461303D01*
X133286174Y-104437642D01*
X133285000Y-104413750D01*
X133285000Y-103926250D01*
X133286174Y-103902358D01*
X133289684Y-103878697D01*
X133295496Y-103855493D01*
X133303554Y-103832971D01*
X133313782Y-103811347D01*
X133326079Y-103790830D01*
X133340329Y-103771617D01*
X133356393Y-103753893D01*
X133374117Y-103737829D01*
X133393330Y-103723579D01*
X133413847Y-103711282D01*
X133435471Y-103701054D01*
X133457993Y-103692996D01*
X133481197Y-103687184D01*
X133504858Y-103683674D01*
X133528750Y-103682500D01*
X134441250Y-103682500D01*
X134465142Y-103683674D01*
G37*
G36*
X134465142Y-105558674D02*
G01*
X134488803Y-105562184D01*
X134512007Y-105567996D01*
X134534529Y-105576054D01*
X134556153Y-105586282D01*
X134576670Y-105598579D01*
X134595883Y-105612829D01*
X134613607Y-105628893D01*
X134629671Y-105646617D01*
X134643921Y-105665830D01*
X134656218Y-105686347D01*
X134666446Y-105707971D01*
X134674504Y-105730493D01*
X134680316Y-105753697D01*
X134683826Y-105777358D01*
X134685000Y-105801250D01*
X134685000Y-106288750D01*
X134683826Y-106312642D01*
X134680316Y-106336303D01*
X134674504Y-106359507D01*
X134666446Y-106382029D01*
X134656218Y-106403653D01*
X134643921Y-106424170D01*
X134629671Y-106443383D01*
X134613607Y-106461107D01*
X134595883Y-106477171D01*
X134576670Y-106491421D01*
X134556153Y-106503718D01*
X134534529Y-106513946D01*
X134512007Y-106522004D01*
X134488803Y-106527816D01*
X134465142Y-106531326D01*
X134441250Y-106532500D01*
X133528750Y-106532500D01*
X133504858Y-106531326D01*
X133481197Y-106527816D01*
X133457993Y-106522004D01*
X133435471Y-106513946D01*
X133413847Y-106503718D01*
X133393330Y-106491421D01*
X133374117Y-106477171D01*
X133356393Y-106461107D01*
X133340329Y-106443383D01*
X133326079Y-106424170D01*
X133313782Y-106403653D01*
X133303554Y-106382029D01*
X133295496Y-106359507D01*
X133289684Y-106336303D01*
X133286174Y-106312642D01*
X133285000Y-106288750D01*
X133285000Y-105801250D01*
X133286174Y-105777358D01*
X133289684Y-105753697D01*
X133295496Y-105730493D01*
X133303554Y-105707971D01*
X133313782Y-105686347D01*
X133326079Y-105665830D01*
X133340329Y-105646617D01*
X133356393Y-105628893D01*
X133374117Y-105612829D01*
X133393330Y-105598579D01*
X133413847Y-105586282D01*
X133435471Y-105576054D01*
X133457993Y-105567996D01*
X133481197Y-105562184D01*
X133504858Y-105558674D01*
X133528750Y-105557500D01*
X134441250Y-105557500D01*
X134465142Y-105558674D01*
G37*
D11*
X131445000Y-111760000D03*
X131445000Y-113660000D03*
X133445000Y-112710000D03*
D12*
X136205000Y-109950000D03*
X135255000Y-107950000D03*
X137155000Y-107950000D03*
D10*
G36*
X135552642Y-112966174D02*
G01*
X135576303Y-112969684D01*
X135599507Y-112975496D01*
X135622029Y-112983554D01*
X135643653Y-112993782D01*
X135664170Y-113006079D01*
X135683383Y-113020329D01*
X135701107Y-113036393D01*
X135717171Y-113054117D01*
X135731421Y-113073330D01*
X135743718Y-113093847D01*
X135753946Y-113115471D01*
X135762004Y-113137993D01*
X135767816Y-113161197D01*
X135771326Y-113184858D01*
X135772500Y-113208750D01*
X135772500Y-114121250D01*
X135771326Y-114145142D01*
X135767816Y-114168803D01*
X135762004Y-114192007D01*
X135753946Y-114214529D01*
X135743718Y-114236153D01*
X135731421Y-114256670D01*
X135717171Y-114275883D01*
X135701107Y-114293607D01*
X135683383Y-114309671D01*
X135664170Y-114323921D01*
X135643653Y-114336218D01*
X135622029Y-114346446D01*
X135599507Y-114354504D01*
X135576303Y-114360316D01*
X135552642Y-114363826D01*
X135528750Y-114365000D01*
X135041250Y-114365000D01*
X135017358Y-114363826D01*
X134993697Y-114360316D01*
X134970493Y-114354504D01*
X134947971Y-114346446D01*
X134926347Y-114336218D01*
X134905830Y-114323921D01*
X134886617Y-114309671D01*
X134868893Y-114293607D01*
X134852829Y-114275883D01*
X134838579Y-114256670D01*
X134826282Y-114236153D01*
X134816054Y-114214529D01*
X134807996Y-114192007D01*
X134802184Y-114168803D01*
X134798674Y-114145142D01*
X134797500Y-114121250D01*
X134797500Y-113208750D01*
X134798674Y-113184858D01*
X134802184Y-113161197D01*
X134807996Y-113137993D01*
X134816054Y-113115471D01*
X134826282Y-113093847D01*
X134838579Y-113073330D01*
X134852829Y-113054117D01*
X134868893Y-113036393D01*
X134886617Y-113020329D01*
X134905830Y-113006079D01*
X134926347Y-112993782D01*
X134947971Y-112983554D01*
X134970493Y-112975496D01*
X134993697Y-112969684D01*
X135017358Y-112966174D01*
X135041250Y-112965000D01*
X135528750Y-112965000D01*
X135552642Y-112966174D01*
G37*
G36*
X137427642Y-112966174D02*
G01*
X137451303Y-112969684D01*
X137474507Y-112975496D01*
X137497029Y-112983554D01*
X137518653Y-112993782D01*
X137539170Y-113006079D01*
X137558383Y-113020329D01*
X137576107Y-113036393D01*
X137592171Y-113054117D01*
X137606421Y-113073330D01*
X137618718Y-113093847D01*
X137628946Y-113115471D01*
X137637004Y-113137993D01*
X137642816Y-113161197D01*
X137646326Y-113184858D01*
X137647500Y-113208750D01*
X137647500Y-114121250D01*
X137646326Y-114145142D01*
X137642816Y-114168803D01*
X137637004Y-114192007D01*
X137628946Y-114214529D01*
X137618718Y-114236153D01*
X137606421Y-114256670D01*
X137592171Y-114275883D01*
X137576107Y-114293607D01*
X137558383Y-114309671D01*
X137539170Y-114323921D01*
X137518653Y-114336218D01*
X137497029Y-114346446D01*
X137474507Y-114354504D01*
X137451303Y-114360316D01*
X137427642Y-114363826D01*
X137403750Y-114365000D01*
X136916250Y-114365000D01*
X136892358Y-114363826D01*
X136868697Y-114360316D01*
X136845493Y-114354504D01*
X136822971Y-114346446D01*
X136801347Y-114336218D01*
X136780830Y-114323921D01*
X136761617Y-114309671D01*
X136743893Y-114293607D01*
X136727829Y-114275883D01*
X136713579Y-114256670D01*
X136701282Y-114236153D01*
X136691054Y-114214529D01*
X136682996Y-114192007D01*
X136677184Y-114168803D01*
X136673674Y-114145142D01*
X136672500Y-114121250D01*
X136672500Y-113208750D01*
X136673674Y-113184858D01*
X136677184Y-113161197D01*
X136682996Y-113137993D01*
X136691054Y-113115471D01*
X136701282Y-113093847D01*
X136713579Y-113073330D01*
X136727829Y-113054117D01*
X136743893Y-113036393D01*
X136761617Y-113020329D01*
X136780830Y-113006079D01*
X136801347Y-112993782D01*
X136822971Y-112983554D01*
X136845493Y-112975496D01*
X136868697Y-112969684D01*
X136892358Y-112966174D01*
X136916250Y-112965000D01*
X137403750Y-112965000D01*
X137427642Y-112966174D01*
G37*
G36*
X139332642Y-107251174D02*
G01*
X139356303Y-107254684D01*
X139379507Y-107260496D01*
X139402029Y-107268554D01*
X139423653Y-107278782D01*
X139444170Y-107291079D01*
X139463383Y-107305329D01*
X139481107Y-107321393D01*
X139497171Y-107339117D01*
X139511421Y-107358330D01*
X139523718Y-107378847D01*
X139533946Y-107400471D01*
X139542004Y-107422993D01*
X139547816Y-107446197D01*
X139551326Y-107469858D01*
X139552500Y-107493750D01*
X139552500Y-108406250D01*
X139551326Y-108430142D01*
X139547816Y-108453803D01*
X139542004Y-108477007D01*
X139533946Y-108499529D01*
X139523718Y-108521153D01*
X139511421Y-108541670D01*
X139497171Y-108560883D01*
X139481107Y-108578607D01*
X139463383Y-108594671D01*
X139444170Y-108608921D01*
X139423653Y-108621218D01*
X139402029Y-108631446D01*
X139379507Y-108639504D01*
X139356303Y-108645316D01*
X139332642Y-108648826D01*
X139308750Y-108650000D01*
X138821250Y-108650000D01*
X138797358Y-108648826D01*
X138773697Y-108645316D01*
X138750493Y-108639504D01*
X138727971Y-108631446D01*
X138706347Y-108621218D01*
X138685830Y-108608921D01*
X138666617Y-108594671D01*
X138648893Y-108578607D01*
X138632829Y-108560883D01*
X138618579Y-108541670D01*
X138606282Y-108521153D01*
X138596054Y-108499529D01*
X138587996Y-108477007D01*
X138582184Y-108453803D01*
X138578674Y-108430142D01*
X138577500Y-108406250D01*
X138577500Y-107493750D01*
X138578674Y-107469858D01*
X138582184Y-107446197D01*
X138587996Y-107422993D01*
X138596054Y-107400471D01*
X138606282Y-107378847D01*
X138618579Y-107358330D01*
X138632829Y-107339117D01*
X138648893Y-107321393D01*
X138666617Y-107305329D01*
X138685830Y-107291079D01*
X138706347Y-107278782D01*
X138727971Y-107268554D01*
X138750493Y-107260496D01*
X138773697Y-107254684D01*
X138797358Y-107251174D01*
X138821250Y-107250000D01*
X139308750Y-107250000D01*
X139332642Y-107251174D01*
G37*
G36*
X141207642Y-107251174D02*
G01*
X141231303Y-107254684D01*
X141254507Y-107260496D01*
X141277029Y-107268554D01*
X141298653Y-107278782D01*
X141319170Y-107291079D01*
X141338383Y-107305329D01*
X141356107Y-107321393D01*
X141372171Y-107339117D01*
X141386421Y-107358330D01*
X141398718Y-107378847D01*
X141408946Y-107400471D01*
X141417004Y-107422993D01*
X141422816Y-107446197D01*
X141426326Y-107469858D01*
X141427500Y-107493750D01*
X141427500Y-108406250D01*
X141426326Y-108430142D01*
X141422816Y-108453803D01*
X141417004Y-108477007D01*
X141408946Y-108499529D01*
X141398718Y-108521153D01*
X141386421Y-108541670D01*
X141372171Y-108560883D01*
X141356107Y-108578607D01*
X141338383Y-108594671D01*
X141319170Y-108608921D01*
X141298653Y-108621218D01*
X141277029Y-108631446D01*
X141254507Y-108639504D01*
X141231303Y-108645316D01*
X141207642Y-108648826D01*
X141183750Y-108650000D01*
X140696250Y-108650000D01*
X140672358Y-108648826D01*
X140648697Y-108645316D01*
X140625493Y-108639504D01*
X140602971Y-108631446D01*
X140581347Y-108621218D01*
X140560830Y-108608921D01*
X140541617Y-108594671D01*
X140523893Y-108578607D01*
X140507829Y-108560883D01*
X140493579Y-108541670D01*
X140481282Y-108521153D01*
X140471054Y-108499529D01*
X140462996Y-108477007D01*
X140457184Y-108453803D01*
X140453674Y-108430142D01*
X140452500Y-108406250D01*
X140452500Y-107493750D01*
X140453674Y-107469858D01*
X140457184Y-107446197D01*
X140462996Y-107422993D01*
X140471054Y-107400471D01*
X140481282Y-107378847D01*
X140493579Y-107358330D01*
X140507829Y-107339117D01*
X140523893Y-107321393D01*
X140541617Y-107305329D01*
X140560830Y-107291079D01*
X140581347Y-107278782D01*
X140602971Y-107268554D01*
X140625493Y-107260496D01*
X140648697Y-107254684D01*
X140672358Y-107251174D01*
X140696250Y-107250000D01*
X141183750Y-107250000D01*
X141207642Y-107251174D01*
G37*
G36*
X137427642Y-111061174D02*
G01*
X137451303Y-111064684D01*
X137474507Y-111070496D01*
X137497029Y-111078554D01*
X137518653Y-111088782D01*
X137539170Y-111101079D01*
X137558383Y-111115329D01*
X137576107Y-111131393D01*
X137592171Y-111149117D01*
X137606421Y-111168330D01*
X137618718Y-111188847D01*
X137628946Y-111210471D01*
X137637004Y-111232993D01*
X137642816Y-111256197D01*
X137646326Y-111279858D01*
X137647500Y-111303750D01*
X137647500Y-112216250D01*
X137646326Y-112240142D01*
X137642816Y-112263803D01*
X137637004Y-112287007D01*
X137628946Y-112309529D01*
X137618718Y-112331153D01*
X137606421Y-112351670D01*
X137592171Y-112370883D01*
X137576107Y-112388607D01*
X137558383Y-112404671D01*
X137539170Y-112418921D01*
X137518653Y-112431218D01*
X137497029Y-112441446D01*
X137474507Y-112449504D01*
X137451303Y-112455316D01*
X137427642Y-112458826D01*
X137403750Y-112460000D01*
X136916250Y-112460000D01*
X136892358Y-112458826D01*
X136868697Y-112455316D01*
X136845493Y-112449504D01*
X136822971Y-112441446D01*
X136801347Y-112431218D01*
X136780830Y-112418921D01*
X136761617Y-112404671D01*
X136743893Y-112388607D01*
X136727829Y-112370883D01*
X136713579Y-112351670D01*
X136701282Y-112331153D01*
X136691054Y-112309529D01*
X136682996Y-112287007D01*
X136677184Y-112263803D01*
X136673674Y-112240142D01*
X136672500Y-112216250D01*
X136672500Y-111303750D01*
X136673674Y-111279858D01*
X136677184Y-111256197D01*
X136682996Y-111232993D01*
X136691054Y-111210471D01*
X136701282Y-111188847D01*
X136713579Y-111168330D01*
X136727829Y-111149117D01*
X136743893Y-111131393D01*
X136761617Y-111115329D01*
X136780830Y-111101079D01*
X136801347Y-111088782D01*
X136822971Y-111078554D01*
X136845493Y-111070496D01*
X136868697Y-111064684D01*
X136892358Y-111061174D01*
X136916250Y-111060000D01*
X137403750Y-111060000D01*
X137427642Y-111061174D01*
G37*
G36*
X135552642Y-111061174D02*
G01*
X135576303Y-111064684D01*
X135599507Y-111070496D01*
X135622029Y-111078554D01*
X135643653Y-111088782D01*
X135664170Y-111101079D01*
X135683383Y-111115329D01*
X135701107Y-111131393D01*
X135717171Y-111149117D01*
X135731421Y-111168330D01*
X135743718Y-111188847D01*
X135753946Y-111210471D01*
X135762004Y-111232993D01*
X135767816Y-111256197D01*
X135771326Y-111279858D01*
X135772500Y-111303750D01*
X135772500Y-112216250D01*
X135771326Y-112240142D01*
X135767816Y-112263803D01*
X135762004Y-112287007D01*
X135753946Y-112309529D01*
X135743718Y-112331153D01*
X135731421Y-112351670D01*
X135717171Y-112370883D01*
X135701107Y-112388607D01*
X135683383Y-112404671D01*
X135664170Y-112418921D01*
X135643653Y-112431218D01*
X135622029Y-112441446D01*
X135599507Y-112449504D01*
X135576303Y-112455316D01*
X135552642Y-112458826D01*
X135528750Y-112460000D01*
X135041250Y-112460000D01*
X135017358Y-112458826D01*
X134993697Y-112455316D01*
X134970493Y-112449504D01*
X134947971Y-112441446D01*
X134926347Y-112431218D01*
X134905830Y-112418921D01*
X134886617Y-112404671D01*
X134868893Y-112388607D01*
X134852829Y-112370883D01*
X134838579Y-112351670D01*
X134826282Y-112331153D01*
X134816054Y-112309529D01*
X134807996Y-112287007D01*
X134802184Y-112263803D01*
X134798674Y-112240142D01*
X134797500Y-112216250D01*
X134797500Y-111303750D01*
X134798674Y-111279858D01*
X134802184Y-111256197D01*
X134807996Y-111232993D01*
X134816054Y-111210471D01*
X134826282Y-111188847D01*
X134838579Y-111168330D01*
X134852829Y-111149117D01*
X134868893Y-111131393D01*
X134886617Y-111115329D01*
X134905830Y-111101079D01*
X134926347Y-111088782D01*
X134947971Y-111078554D01*
X134970493Y-111070496D01*
X134993697Y-111064684D01*
X135017358Y-111061174D01*
X135041250Y-111060000D01*
X135528750Y-111060000D01*
X135552642Y-111061174D01*
G37*
G36*
X167907642Y-109156174D02*
G01*
X167931303Y-109159684D01*
X167954507Y-109165496D01*
X167977029Y-109173554D01*
X167998653Y-109183782D01*
X168019170Y-109196079D01*
X168038383Y-109210329D01*
X168056107Y-109226393D01*
X168072171Y-109244117D01*
X168086421Y-109263330D01*
X168098718Y-109283847D01*
X168108946Y-109305471D01*
X168117004Y-109327993D01*
X168122816Y-109351197D01*
X168126326Y-109374858D01*
X168127500Y-109398750D01*
X168127500Y-110311250D01*
X168126326Y-110335142D01*
X168122816Y-110358803D01*
X168117004Y-110382007D01*
X168108946Y-110404529D01*
X168098718Y-110426153D01*
X168086421Y-110446670D01*
X168072171Y-110465883D01*
X168056107Y-110483607D01*
X168038383Y-110499671D01*
X168019170Y-110513921D01*
X167998653Y-110526218D01*
X167977029Y-110536446D01*
X167954507Y-110544504D01*
X167931303Y-110550316D01*
X167907642Y-110553826D01*
X167883750Y-110555000D01*
X167396250Y-110555000D01*
X167372358Y-110553826D01*
X167348697Y-110550316D01*
X167325493Y-110544504D01*
X167302971Y-110536446D01*
X167281347Y-110526218D01*
X167260830Y-110513921D01*
X167241617Y-110499671D01*
X167223893Y-110483607D01*
X167207829Y-110465883D01*
X167193579Y-110446670D01*
X167181282Y-110426153D01*
X167171054Y-110404529D01*
X167162996Y-110382007D01*
X167157184Y-110358803D01*
X167153674Y-110335142D01*
X167152500Y-110311250D01*
X167152500Y-109398750D01*
X167153674Y-109374858D01*
X167157184Y-109351197D01*
X167162996Y-109327993D01*
X167171054Y-109305471D01*
X167181282Y-109283847D01*
X167193579Y-109263330D01*
X167207829Y-109244117D01*
X167223893Y-109226393D01*
X167241617Y-109210329D01*
X167260830Y-109196079D01*
X167281347Y-109183782D01*
X167302971Y-109173554D01*
X167325493Y-109165496D01*
X167348697Y-109159684D01*
X167372358Y-109156174D01*
X167396250Y-109155000D01*
X167883750Y-109155000D01*
X167907642Y-109156174D01*
G37*
G36*
X169782642Y-109156174D02*
G01*
X169806303Y-109159684D01*
X169829507Y-109165496D01*
X169852029Y-109173554D01*
X169873653Y-109183782D01*
X169894170Y-109196079D01*
X169913383Y-109210329D01*
X169931107Y-109226393D01*
X169947171Y-109244117D01*
X169961421Y-109263330D01*
X169973718Y-109283847D01*
X169983946Y-109305471D01*
X169992004Y-109327993D01*
X169997816Y-109351197D01*
X170001326Y-109374858D01*
X170002500Y-109398750D01*
X170002500Y-110311250D01*
X170001326Y-110335142D01*
X169997816Y-110358803D01*
X169992004Y-110382007D01*
X169983946Y-110404529D01*
X169973718Y-110426153D01*
X169961421Y-110446670D01*
X169947171Y-110465883D01*
X169931107Y-110483607D01*
X169913383Y-110499671D01*
X169894170Y-110513921D01*
X169873653Y-110526218D01*
X169852029Y-110536446D01*
X169829507Y-110544504D01*
X169806303Y-110550316D01*
X169782642Y-110553826D01*
X169758750Y-110555000D01*
X169271250Y-110555000D01*
X169247358Y-110553826D01*
X169223697Y-110550316D01*
X169200493Y-110544504D01*
X169177971Y-110536446D01*
X169156347Y-110526218D01*
X169135830Y-110513921D01*
X169116617Y-110499671D01*
X169098893Y-110483607D01*
X169082829Y-110465883D01*
X169068579Y-110446670D01*
X169056282Y-110426153D01*
X169046054Y-110404529D01*
X169037996Y-110382007D01*
X169032184Y-110358803D01*
X169028674Y-110335142D01*
X169027500Y-110311250D01*
X169027500Y-109398750D01*
X169028674Y-109374858D01*
X169032184Y-109351197D01*
X169037996Y-109327993D01*
X169046054Y-109305471D01*
X169056282Y-109283847D01*
X169068579Y-109263330D01*
X169082829Y-109244117D01*
X169098893Y-109226393D01*
X169116617Y-109210329D01*
X169135830Y-109196079D01*
X169156347Y-109183782D01*
X169177971Y-109173554D01*
X169200493Y-109165496D01*
X169223697Y-109159684D01*
X169247358Y-109156174D01*
X169271250Y-109155000D01*
X169758750Y-109155000D01*
X169782642Y-109156174D01*
G37*
G36*
X131712642Y-107251174D02*
G01*
X131736303Y-107254684D01*
X131759507Y-107260496D01*
X131782029Y-107268554D01*
X131803653Y-107278782D01*
X131824170Y-107291079D01*
X131843383Y-107305329D01*
X131861107Y-107321393D01*
X131877171Y-107339117D01*
X131891421Y-107358330D01*
X131903718Y-107378847D01*
X131913946Y-107400471D01*
X131922004Y-107422993D01*
X131927816Y-107446197D01*
X131931326Y-107469858D01*
X131932500Y-107493750D01*
X131932500Y-108406250D01*
X131931326Y-108430142D01*
X131927816Y-108453803D01*
X131922004Y-108477007D01*
X131913946Y-108499529D01*
X131903718Y-108521153D01*
X131891421Y-108541670D01*
X131877171Y-108560883D01*
X131861107Y-108578607D01*
X131843383Y-108594671D01*
X131824170Y-108608921D01*
X131803653Y-108621218D01*
X131782029Y-108631446D01*
X131759507Y-108639504D01*
X131736303Y-108645316D01*
X131712642Y-108648826D01*
X131688750Y-108650000D01*
X131201250Y-108650000D01*
X131177358Y-108648826D01*
X131153697Y-108645316D01*
X131130493Y-108639504D01*
X131107971Y-108631446D01*
X131086347Y-108621218D01*
X131065830Y-108608921D01*
X131046617Y-108594671D01*
X131028893Y-108578607D01*
X131012829Y-108560883D01*
X130998579Y-108541670D01*
X130986282Y-108521153D01*
X130976054Y-108499529D01*
X130967996Y-108477007D01*
X130962184Y-108453803D01*
X130958674Y-108430142D01*
X130957500Y-108406250D01*
X130957500Y-107493750D01*
X130958674Y-107469858D01*
X130962184Y-107446197D01*
X130967996Y-107422993D01*
X130976054Y-107400471D01*
X130986282Y-107378847D01*
X130998579Y-107358330D01*
X131012829Y-107339117D01*
X131028893Y-107321393D01*
X131046617Y-107305329D01*
X131065830Y-107291079D01*
X131086347Y-107278782D01*
X131107971Y-107268554D01*
X131130493Y-107260496D01*
X131153697Y-107254684D01*
X131177358Y-107251174D01*
X131201250Y-107250000D01*
X131688750Y-107250000D01*
X131712642Y-107251174D01*
G37*
G36*
X133587642Y-107251174D02*
G01*
X133611303Y-107254684D01*
X133634507Y-107260496D01*
X133657029Y-107268554D01*
X133678653Y-107278782D01*
X133699170Y-107291079D01*
X133718383Y-107305329D01*
X133736107Y-107321393D01*
X133752171Y-107339117D01*
X133766421Y-107358330D01*
X133778718Y-107378847D01*
X133788946Y-107400471D01*
X133797004Y-107422993D01*
X133802816Y-107446197D01*
X133806326Y-107469858D01*
X133807500Y-107493750D01*
X133807500Y-108406250D01*
X133806326Y-108430142D01*
X133802816Y-108453803D01*
X133797004Y-108477007D01*
X133788946Y-108499529D01*
X133778718Y-108521153D01*
X133766421Y-108541670D01*
X133752171Y-108560883D01*
X133736107Y-108578607D01*
X133718383Y-108594671D01*
X133699170Y-108608921D01*
X133678653Y-108621218D01*
X133657029Y-108631446D01*
X133634507Y-108639504D01*
X133611303Y-108645316D01*
X133587642Y-108648826D01*
X133563750Y-108650000D01*
X133076250Y-108650000D01*
X133052358Y-108648826D01*
X133028697Y-108645316D01*
X133005493Y-108639504D01*
X132982971Y-108631446D01*
X132961347Y-108621218D01*
X132940830Y-108608921D01*
X132921617Y-108594671D01*
X132903893Y-108578607D01*
X132887829Y-108560883D01*
X132873579Y-108541670D01*
X132861282Y-108521153D01*
X132851054Y-108499529D01*
X132842996Y-108477007D01*
X132837184Y-108453803D01*
X132833674Y-108430142D01*
X132832500Y-108406250D01*
X132832500Y-107493750D01*
X132833674Y-107469858D01*
X132837184Y-107446197D01*
X132842996Y-107422993D01*
X132851054Y-107400471D01*
X132861282Y-107378847D01*
X132873579Y-107358330D01*
X132887829Y-107339117D01*
X132903893Y-107321393D01*
X132921617Y-107305329D01*
X132940830Y-107291079D01*
X132961347Y-107278782D01*
X132982971Y-107268554D01*
X133005493Y-107260496D01*
X133028697Y-107254684D01*
X133052358Y-107251174D01*
X133076250Y-107250000D01*
X133563750Y-107250000D01*
X133587642Y-107251174D01*
G37*
G36*
X171747642Y-112966174D02*
G01*
X171771303Y-112969684D01*
X171794507Y-112975496D01*
X171817029Y-112983554D01*
X171838653Y-112993782D01*
X171859170Y-113006079D01*
X171878383Y-113020329D01*
X171896107Y-113036393D01*
X171912171Y-113054117D01*
X171926421Y-113073330D01*
X171938718Y-113093847D01*
X171948946Y-113115471D01*
X171957004Y-113137993D01*
X171962816Y-113161197D01*
X171966326Y-113184858D01*
X171967500Y-113208750D01*
X171967500Y-114121250D01*
X171966326Y-114145142D01*
X171962816Y-114168803D01*
X171957004Y-114192007D01*
X171948946Y-114214529D01*
X171938718Y-114236153D01*
X171926421Y-114256670D01*
X171912171Y-114275883D01*
X171896107Y-114293607D01*
X171878383Y-114309671D01*
X171859170Y-114323921D01*
X171838653Y-114336218D01*
X171817029Y-114346446D01*
X171794507Y-114354504D01*
X171771303Y-114360316D01*
X171747642Y-114363826D01*
X171723750Y-114365000D01*
X171236250Y-114365000D01*
X171212358Y-114363826D01*
X171188697Y-114360316D01*
X171165493Y-114354504D01*
X171142971Y-114346446D01*
X171121347Y-114336218D01*
X171100830Y-114323921D01*
X171081617Y-114309671D01*
X171063893Y-114293607D01*
X171047829Y-114275883D01*
X171033579Y-114256670D01*
X171021282Y-114236153D01*
X171011054Y-114214529D01*
X171002996Y-114192007D01*
X170997184Y-114168803D01*
X170993674Y-114145142D01*
X170992500Y-114121250D01*
X170992500Y-113208750D01*
X170993674Y-113184858D01*
X170997184Y-113161197D01*
X171002996Y-113137993D01*
X171011054Y-113115471D01*
X171021282Y-113093847D01*
X171033579Y-113073330D01*
X171047829Y-113054117D01*
X171063893Y-113036393D01*
X171081617Y-113020329D01*
X171100830Y-113006079D01*
X171121347Y-112993782D01*
X171142971Y-112983554D01*
X171165493Y-112975496D01*
X171188697Y-112969684D01*
X171212358Y-112966174D01*
X171236250Y-112965000D01*
X171723750Y-112965000D01*
X171747642Y-112966174D01*
G37*
G36*
X173622642Y-112966174D02*
G01*
X173646303Y-112969684D01*
X173669507Y-112975496D01*
X173692029Y-112983554D01*
X173713653Y-112993782D01*
X173734170Y-113006079D01*
X173753383Y-113020329D01*
X173771107Y-113036393D01*
X173787171Y-113054117D01*
X173801421Y-113073330D01*
X173813718Y-113093847D01*
X173823946Y-113115471D01*
X173832004Y-113137993D01*
X173837816Y-113161197D01*
X173841326Y-113184858D01*
X173842500Y-113208750D01*
X173842500Y-114121250D01*
X173841326Y-114145142D01*
X173837816Y-114168803D01*
X173832004Y-114192007D01*
X173823946Y-114214529D01*
X173813718Y-114236153D01*
X173801421Y-114256670D01*
X173787171Y-114275883D01*
X173771107Y-114293607D01*
X173753383Y-114309671D01*
X173734170Y-114323921D01*
X173713653Y-114336218D01*
X173692029Y-114346446D01*
X173669507Y-114354504D01*
X173646303Y-114360316D01*
X173622642Y-114363826D01*
X173598750Y-114365000D01*
X173111250Y-114365000D01*
X173087358Y-114363826D01*
X173063697Y-114360316D01*
X173040493Y-114354504D01*
X173017971Y-114346446D01*
X172996347Y-114336218D01*
X172975830Y-114323921D01*
X172956617Y-114309671D01*
X172938893Y-114293607D01*
X172922829Y-114275883D01*
X172908579Y-114256670D01*
X172896282Y-114236153D01*
X172886054Y-114214529D01*
X172877996Y-114192007D01*
X172872184Y-114168803D01*
X172868674Y-114145142D01*
X172867500Y-114121250D01*
X172867500Y-113208750D01*
X172868674Y-113184858D01*
X172872184Y-113161197D01*
X172877996Y-113137993D01*
X172886054Y-113115471D01*
X172896282Y-113093847D01*
X172908579Y-113073330D01*
X172922829Y-113054117D01*
X172938893Y-113036393D01*
X172956617Y-113020329D01*
X172975830Y-113006079D01*
X172996347Y-112993782D01*
X173017971Y-112983554D01*
X173040493Y-112975496D01*
X173063697Y-112969684D01*
X173087358Y-112966174D01*
X173111250Y-112965000D01*
X173598750Y-112965000D01*
X173622642Y-112966174D01*
G37*
G36*
X171747642Y-105346174D02*
G01*
X171771303Y-105349684D01*
X171794507Y-105355496D01*
X171817029Y-105363554D01*
X171838653Y-105373782D01*
X171859170Y-105386079D01*
X171878383Y-105400329D01*
X171896107Y-105416393D01*
X171912171Y-105434117D01*
X171926421Y-105453330D01*
X171938718Y-105473847D01*
X171948946Y-105495471D01*
X171957004Y-105517993D01*
X171962816Y-105541197D01*
X171966326Y-105564858D01*
X171967500Y-105588750D01*
X171967500Y-106501250D01*
X171966326Y-106525142D01*
X171962816Y-106548803D01*
X171957004Y-106572007D01*
X171948946Y-106594529D01*
X171938718Y-106616153D01*
X171926421Y-106636670D01*
X171912171Y-106655883D01*
X171896107Y-106673607D01*
X171878383Y-106689671D01*
X171859170Y-106703921D01*
X171838653Y-106716218D01*
X171817029Y-106726446D01*
X171794507Y-106734504D01*
X171771303Y-106740316D01*
X171747642Y-106743826D01*
X171723750Y-106745000D01*
X171236250Y-106745000D01*
X171212358Y-106743826D01*
X171188697Y-106740316D01*
X171165493Y-106734504D01*
X171142971Y-106726446D01*
X171121347Y-106716218D01*
X171100830Y-106703921D01*
X171081617Y-106689671D01*
X171063893Y-106673607D01*
X171047829Y-106655883D01*
X171033579Y-106636670D01*
X171021282Y-106616153D01*
X171011054Y-106594529D01*
X171002996Y-106572007D01*
X170997184Y-106548803D01*
X170993674Y-106525142D01*
X170992500Y-106501250D01*
X170992500Y-105588750D01*
X170993674Y-105564858D01*
X170997184Y-105541197D01*
X171002996Y-105517993D01*
X171011054Y-105495471D01*
X171021282Y-105473847D01*
X171033579Y-105453330D01*
X171047829Y-105434117D01*
X171063893Y-105416393D01*
X171081617Y-105400329D01*
X171100830Y-105386079D01*
X171121347Y-105373782D01*
X171142971Y-105363554D01*
X171165493Y-105355496D01*
X171188697Y-105349684D01*
X171212358Y-105346174D01*
X171236250Y-105345000D01*
X171723750Y-105345000D01*
X171747642Y-105346174D01*
G37*
G36*
X173622642Y-105346174D02*
G01*
X173646303Y-105349684D01*
X173669507Y-105355496D01*
X173692029Y-105363554D01*
X173713653Y-105373782D01*
X173734170Y-105386079D01*
X173753383Y-105400329D01*
X173771107Y-105416393D01*
X173787171Y-105434117D01*
X173801421Y-105453330D01*
X173813718Y-105473847D01*
X173823946Y-105495471D01*
X173832004Y-105517993D01*
X173837816Y-105541197D01*
X173841326Y-105564858D01*
X173842500Y-105588750D01*
X173842500Y-106501250D01*
X173841326Y-106525142D01*
X173837816Y-106548803D01*
X173832004Y-106572007D01*
X173823946Y-106594529D01*
X173813718Y-106616153D01*
X173801421Y-106636670D01*
X173787171Y-106655883D01*
X173771107Y-106673607D01*
X173753383Y-106689671D01*
X173734170Y-106703921D01*
X173713653Y-106716218D01*
X173692029Y-106726446D01*
X173669507Y-106734504D01*
X173646303Y-106740316D01*
X173622642Y-106743826D01*
X173598750Y-106745000D01*
X173111250Y-106745000D01*
X173087358Y-106743826D01*
X173063697Y-106740316D01*
X173040493Y-106734504D01*
X173017971Y-106726446D01*
X172996347Y-106716218D01*
X172975830Y-106703921D01*
X172956617Y-106689671D01*
X172938893Y-106673607D01*
X172922829Y-106655883D01*
X172908579Y-106636670D01*
X172896282Y-106616153D01*
X172886054Y-106594529D01*
X172877996Y-106572007D01*
X172872184Y-106548803D01*
X172868674Y-106525142D01*
X172867500Y-106501250D01*
X172867500Y-105588750D01*
X172868674Y-105564858D01*
X172872184Y-105541197D01*
X172877996Y-105517993D01*
X172886054Y-105495471D01*
X172896282Y-105473847D01*
X172908579Y-105453330D01*
X172922829Y-105434117D01*
X172938893Y-105416393D01*
X172956617Y-105400329D01*
X172975830Y-105386079D01*
X172996347Y-105373782D01*
X173017971Y-105363554D01*
X173040493Y-105355496D01*
X173063697Y-105349684D01*
X173087358Y-105346174D01*
X173111250Y-105345000D01*
X173598750Y-105345000D01*
X173622642Y-105346174D01*
G37*
D12*
X141290000Y-113760000D03*
X143190000Y-113760000D03*
X142240000Y-111760000D03*
D10*
G36*
X167937642Y-112966174D02*
G01*
X167961303Y-112969684D01*
X167984507Y-112975496D01*
X168007029Y-112983554D01*
X168028653Y-112993782D01*
X168049170Y-113006079D01*
X168068383Y-113020329D01*
X168086107Y-113036393D01*
X168102171Y-113054117D01*
X168116421Y-113073330D01*
X168128718Y-113093847D01*
X168138946Y-113115471D01*
X168147004Y-113137993D01*
X168152816Y-113161197D01*
X168156326Y-113184858D01*
X168157500Y-113208750D01*
X168157500Y-114121250D01*
X168156326Y-114145142D01*
X168152816Y-114168803D01*
X168147004Y-114192007D01*
X168138946Y-114214529D01*
X168128718Y-114236153D01*
X168116421Y-114256670D01*
X168102171Y-114275883D01*
X168086107Y-114293607D01*
X168068383Y-114309671D01*
X168049170Y-114323921D01*
X168028653Y-114336218D01*
X168007029Y-114346446D01*
X167984507Y-114354504D01*
X167961303Y-114360316D01*
X167937642Y-114363826D01*
X167913750Y-114365000D01*
X167426250Y-114365000D01*
X167402358Y-114363826D01*
X167378697Y-114360316D01*
X167355493Y-114354504D01*
X167332971Y-114346446D01*
X167311347Y-114336218D01*
X167290830Y-114323921D01*
X167271617Y-114309671D01*
X167253893Y-114293607D01*
X167237829Y-114275883D01*
X167223579Y-114256670D01*
X167211282Y-114236153D01*
X167201054Y-114214529D01*
X167192996Y-114192007D01*
X167187184Y-114168803D01*
X167183674Y-114145142D01*
X167182500Y-114121250D01*
X167182500Y-113208750D01*
X167183674Y-113184858D01*
X167187184Y-113161197D01*
X167192996Y-113137993D01*
X167201054Y-113115471D01*
X167211282Y-113093847D01*
X167223579Y-113073330D01*
X167237829Y-113054117D01*
X167253893Y-113036393D01*
X167271617Y-113020329D01*
X167290830Y-113006079D01*
X167311347Y-112993782D01*
X167332971Y-112983554D01*
X167355493Y-112975496D01*
X167378697Y-112969684D01*
X167402358Y-112966174D01*
X167426250Y-112965000D01*
X167913750Y-112965000D01*
X167937642Y-112966174D01*
G37*
G36*
X169812642Y-112966174D02*
G01*
X169836303Y-112969684D01*
X169859507Y-112975496D01*
X169882029Y-112983554D01*
X169903653Y-112993782D01*
X169924170Y-113006079D01*
X169943383Y-113020329D01*
X169961107Y-113036393D01*
X169977171Y-113054117D01*
X169991421Y-113073330D01*
X170003718Y-113093847D01*
X170013946Y-113115471D01*
X170022004Y-113137993D01*
X170027816Y-113161197D01*
X170031326Y-113184858D01*
X170032500Y-113208750D01*
X170032500Y-114121250D01*
X170031326Y-114145142D01*
X170027816Y-114168803D01*
X170022004Y-114192007D01*
X170013946Y-114214529D01*
X170003718Y-114236153D01*
X169991421Y-114256670D01*
X169977171Y-114275883D01*
X169961107Y-114293607D01*
X169943383Y-114309671D01*
X169924170Y-114323921D01*
X169903653Y-114336218D01*
X169882029Y-114346446D01*
X169859507Y-114354504D01*
X169836303Y-114360316D01*
X169812642Y-114363826D01*
X169788750Y-114365000D01*
X169301250Y-114365000D01*
X169277358Y-114363826D01*
X169253697Y-114360316D01*
X169230493Y-114354504D01*
X169207971Y-114346446D01*
X169186347Y-114336218D01*
X169165830Y-114323921D01*
X169146617Y-114309671D01*
X169128893Y-114293607D01*
X169112829Y-114275883D01*
X169098579Y-114256670D01*
X169086282Y-114236153D01*
X169076054Y-114214529D01*
X169067996Y-114192007D01*
X169062184Y-114168803D01*
X169058674Y-114145142D01*
X169057500Y-114121250D01*
X169057500Y-113208750D01*
X169058674Y-113184858D01*
X169062184Y-113161197D01*
X169067996Y-113137993D01*
X169076054Y-113115471D01*
X169086282Y-113093847D01*
X169098579Y-113073330D01*
X169112829Y-113054117D01*
X169128893Y-113036393D01*
X169146617Y-113020329D01*
X169165830Y-113006079D01*
X169186347Y-112993782D01*
X169207971Y-112983554D01*
X169230493Y-112975496D01*
X169253697Y-112969684D01*
X169277358Y-112966174D01*
X169301250Y-112965000D01*
X169788750Y-112965000D01*
X169812642Y-112966174D01*
G37*
G36*
X139545142Y-113148674D02*
G01*
X139568803Y-113152184D01*
X139592007Y-113157996D01*
X139614529Y-113166054D01*
X139636153Y-113176282D01*
X139656670Y-113188579D01*
X139675883Y-113202829D01*
X139693607Y-113218893D01*
X139709671Y-113236617D01*
X139723921Y-113255830D01*
X139736218Y-113276347D01*
X139746446Y-113297971D01*
X139754504Y-113320493D01*
X139760316Y-113343697D01*
X139763826Y-113367358D01*
X139765000Y-113391250D01*
X139765000Y-113878750D01*
X139763826Y-113902642D01*
X139760316Y-113926303D01*
X139754504Y-113949507D01*
X139746446Y-113972029D01*
X139736218Y-113993653D01*
X139723921Y-114014170D01*
X139709671Y-114033383D01*
X139693607Y-114051107D01*
X139675883Y-114067171D01*
X139656670Y-114081421D01*
X139636153Y-114093718D01*
X139614529Y-114103946D01*
X139592007Y-114112004D01*
X139568803Y-114117816D01*
X139545142Y-114121326D01*
X139521250Y-114122500D01*
X138608750Y-114122500D01*
X138584858Y-114121326D01*
X138561197Y-114117816D01*
X138537993Y-114112004D01*
X138515471Y-114103946D01*
X138493847Y-114093718D01*
X138473330Y-114081421D01*
X138454117Y-114067171D01*
X138436393Y-114051107D01*
X138420329Y-114033383D01*
X138406079Y-114014170D01*
X138393782Y-113993653D01*
X138383554Y-113972029D01*
X138375496Y-113949507D01*
X138369684Y-113926303D01*
X138366174Y-113902642D01*
X138365000Y-113878750D01*
X138365000Y-113391250D01*
X138366174Y-113367358D01*
X138369684Y-113343697D01*
X138375496Y-113320493D01*
X138383554Y-113297971D01*
X138393782Y-113276347D01*
X138406079Y-113255830D01*
X138420329Y-113236617D01*
X138436393Y-113218893D01*
X138454117Y-113202829D01*
X138473330Y-113188579D01*
X138493847Y-113176282D01*
X138515471Y-113166054D01*
X138537993Y-113157996D01*
X138561197Y-113152184D01*
X138584858Y-113148674D01*
X138608750Y-113147500D01*
X139521250Y-113147500D01*
X139545142Y-113148674D01*
G37*
G36*
X139545142Y-111273674D02*
G01*
X139568803Y-111277184D01*
X139592007Y-111282996D01*
X139614529Y-111291054D01*
X139636153Y-111301282D01*
X139656670Y-111313579D01*
X139675883Y-111327829D01*
X139693607Y-111343893D01*
X139709671Y-111361617D01*
X139723921Y-111380830D01*
X139736218Y-111401347D01*
X139746446Y-111422971D01*
X139754504Y-111445493D01*
X139760316Y-111468697D01*
X139763826Y-111492358D01*
X139765000Y-111516250D01*
X139765000Y-112003750D01*
X139763826Y-112027642D01*
X139760316Y-112051303D01*
X139754504Y-112074507D01*
X139746446Y-112097029D01*
X139736218Y-112118653D01*
X139723921Y-112139170D01*
X139709671Y-112158383D01*
X139693607Y-112176107D01*
X139675883Y-112192171D01*
X139656670Y-112206421D01*
X139636153Y-112218718D01*
X139614529Y-112228946D01*
X139592007Y-112237004D01*
X139568803Y-112242816D01*
X139545142Y-112246326D01*
X139521250Y-112247500D01*
X138608750Y-112247500D01*
X138584858Y-112246326D01*
X138561197Y-112242816D01*
X138537993Y-112237004D01*
X138515471Y-112228946D01*
X138493847Y-112218718D01*
X138473330Y-112206421D01*
X138454117Y-112192171D01*
X138436393Y-112176107D01*
X138420329Y-112158383D01*
X138406079Y-112139170D01*
X138393782Y-112118653D01*
X138383554Y-112097029D01*
X138375496Y-112074507D01*
X138369684Y-112051303D01*
X138366174Y-112027642D01*
X138365000Y-112003750D01*
X138365000Y-111516250D01*
X138366174Y-111492358D01*
X138369684Y-111468697D01*
X138375496Y-111445493D01*
X138383554Y-111422971D01*
X138393782Y-111401347D01*
X138406079Y-111380830D01*
X138420329Y-111361617D01*
X138436393Y-111343893D01*
X138454117Y-111327829D01*
X138473330Y-111313579D01*
X138493847Y-111301282D01*
X138515471Y-111291054D01*
X138537993Y-111282996D01*
X138561197Y-111277184D01*
X138584858Y-111273674D01*
X138608750Y-111272500D01*
X139521250Y-111272500D01*
X139545142Y-111273674D01*
G37*
G36*
X169782642Y-105346174D02*
G01*
X169806303Y-105349684D01*
X169829507Y-105355496D01*
X169852029Y-105363554D01*
X169873653Y-105373782D01*
X169894170Y-105386079D01*
X169913383Y-105400329D01*
X169931107Y-105416393D01*
X169947171Y-105434117D01*
X169961421Y-105453330D01*
X169973718Y-105473847D01*
X169983946Y-105495471D01*
X169992004Y-105517993D01*
X169997816Y-105541197D01*
X170001326Y-105564858D01*
X170002500Y-105588750D01*
X170002500Y-106501250D01*
X170001326Y-106525142D01*
X169997816Y-106548803D01*
X169992004Y-106572007D01*
X169983946Y-106594529D01*
X169973718Y-106616153D01*
X169961421Y-106636670D01*
X169947171Y-106655883D01*
X169931107Y-106673607D01*
X169913383Y-106689671D01*
X169894170Y-106703921D01*
X169873653Y-106716218D01*
X169852029Y-106726446D01*
X169829507Y-106734504D01*
X169806303Y-106740316D01*
X169782642Y-106743826D01*
X169758750Y-106745000D01*
X169271250Y-106745000D01*
X169247358Y-106743826D01*
X169223697Y-106740316D01*
X169200493Y-106734504D01*
X169177971Y-106726446D01*
X169156347Y-106716218D01*
X169135830Y-106703921D01*
X169116617Y-106689671D01*
X169098893Y-106673607D01*
X169082829Y-106655883D01*
X169068579Y-106636670D01*
X169056282Y-106616153D01*
X169046054Y-106594529D01*
X169037996Y-106572007D01*
X169032184Y-106548803D01*
X169028674Y-106525142D01*
X169027500Y-106501250D01*
X169027500Y-105588750D01*
X169028674Y-105564858D01*
X169032184Y-105541197D01*
X169037996Y-105517993D01*
X169046054Y-105495471D01*
X169056282Y-105473847D01*
X169068579Y-105453330D01*
X169082829Y-105434117D01*
X169098893Y-105416393D01*
X169116617Y-105400329D01*
X169135830Y-105386079D01*
X169156347Y-105373782D01*
X169177971Y-105363554D01*
X169200493Y-105355496D01*
X169223697Y-105349684D01*
X169247358Y-105346174D01*
X169271250Y-105345000D01*
X169758750Y-105345000D01*
X169782642Y-105346174D01*
G37*
G36*
X167907642Y-105346174D02*
G01*
X167931303Y-105349684D01*
X167954507Y-105355496D01*
X167977029Y-105363554D01*
X167998653Y-105373782D01*
X168019170Y-105386079D01*
X168038383Y-105400329D01*
X168056107Y-105416393D01*
X168072171Y-105434117D01*
X168086421Y-105453330D01*
X168098718Y-105473847D01*
X168108946Y-105495471D01*
X168117004Y-105517993D01*
X168122816Y-105541197D01*
X168126326Y-105564858D01*
X168127500Y-105588750D01*
X168127500Y-106501250D01*
X168126326Y-106525142D01*
X168122816Y-106548803D01*
X168117004Y-106572007D01*
X168108946Y-106594529D01*
X168098718Y-106616153D01*
X168086421Y-106636670D01*
X168072171Y-106655883D01*
X168056107Y-106673607D01*
X168038383Y-106689671D01*
X168019170Y-106703921D01*
X167998653Y-106716218D01*
X167977029Y-106726446D01*
X167954507Y-106734504D01*
X167931303Y-106740316D01*
X167907642Y-106743826D01*
X167883750Y-106745000D01*
X167396250Y-106745000D01*
X167372358Y-106743826D01*
X167348697Y-106740316D01*
X167325493Y-106734504D01*
X167302971Y-106726446D01*
X167281347Y-106716218D01*
X167260830Y-106703921D01*
X167241617Y-106689671D01*
X167223893Y-106673607D01*
X167207829Y-106655883D01*
X167193579Y-106636670D01*
X167181282Y-106616153D01*
X167171054Y-106594529D01*
X167162996Y-106572007D01*
X167157184Y-106548803D01*
X167153674Y-106525142D01*
X167152500Y-106501250D01*
X167152500Y-105588750D01*
X167153674Y-105564858D01*
X167157184Y-105541197D01*
X167162996Y-105517993D01*
X167171054Y-105495471D01*
X167181282Y-105473847D01*
X167193579Y-105453330D01*
X167207829Y-105434117D01*
X167223893Y-105416393D01*
X167241617Y-105400329D01*
X167260830Y-105386079D01*
X167281347Y-105373782D01*
X167302971Y-105363554D01*
X167325493Y-105355496D01*
X167348697Y-105349684D01*
X167372358Y-105346174D01*
X167396250Y-105345000D01*
X167883750Y-105345000D01*
X167907642Y-105346174D01*
G37*
M02*
