%TF.GenerationSoftware,KiCad,Pcbnew,5.1.5+dfsg1-2build2*%
%TF.CreationDate,2021-11-27T13:08:24+01:00*%
%TF.ProjectId,rpi-han-interface,7270692d-6861-46e2-9d69-6e7465726661,rev?*%
%TF.SameCoordinates,Original*%
%TF.FileFunction,Legend,Top*%
%TF.FilePolarity,Positive*%
%FSLAX46Y46*%
G04 Gerber Fmt 4.6, Leading zero omitted, Abs format (unit mm)*
G04 Created by KiCad (PCBNEW 5.1.5+dfsg1-2build2) date 2021-11-27 13:08:24*
%MOMM*%
%LPD*%
G04 APERTURE LIST*
%ADD10C,0.200000*%
%ADD11C,0.010000*%
%ADD12C,0.120000*%
%ADD13C,0.100000*%
%ADD14C,0.150000*%
%ADD15R,1.802000X1.802000*%
%ADD16O,1.802000X1.802000*%
%ADD17C,3.352000*%
%ADD18C,1.622000*%
%ADD19R,1.622000X1.622000*%
%ADD20R,1.002000X0.902000*%
%ADD21R,0.902000X1.002000*%
%ADD22C,2.602000*%
G04 APERTURE END LIST*
D10*
X160316000Y-114298333D02*
X160316000Y-112898333D01*
X160649333Y-112898333D01*
X160849333Y-112965000D01*
X160982666Y-113098333D01*
X161049333Y-113231666D01*
X161116000Y-113498333D01*
X161116000Y-113698333D01*
X161049333Y-113965000D01*
X160982666Y-114098333D01*
X160849333Y-114231666D01*
X160649333Y-114298333D01*
X160316000Y-114298333D01*
X162316000Y-114298333D02*
X162316000Y-113565000D01*
X162249333Y-113431666D01*
X162116000Y-113365000D01*
X161849333Y-113365000D01*
X161716000Y-113431666D01*
X162316000Y-114231666D02*
X162182666Y-114298333D01*
X161849333Y-114298333D01*
X161716000Y-114231666D01*
X161649333Y-114098333D01*
X161649333Y-113965000D01*
X161716000Y-113831666D01*
X161849333Y-113765000D01*
X162182666Y-113765000D01*
X162316000Y-113698333D01*
X162782666Y-113365000D02*
X163316000Y-113365000D01*
X162982666Y-112898333D02*
X162982666Y-114098333D01*
X163049333Y-114231666D01*
X163182666Y-114298333D01*
X163316000Y-114298333D01*
X164382666Y-114298333D02*
X164382666Y-113565000D01*
X164316000Y-113431666D01*
X164182666Y-113365000D01*
X163916000Y-113365000D01*
X163782666Y-113431666D01*
X164382666Y-114231666D02*
X164249333Y-114298333D01*
X163916000Y-114298333D01*
X163782666Y-114231666D01*
X163716000Y-114098333D01*
X163716000Y-113965000D01*
X163782666Y-113831666D01*
X163916000Y-113765000D01*
X164249333Y-113765000D01*
X164382666Y-113698333D01*
X160208333Y-109628000D02*
X160675000Y-109628000D01*
X160875000Y-110361333D02*
X160208333Y-110361333D01*
X160208333Y-108961333D01*
X160875000Y-108961333D01*
X161475000Y-109428000D02*
X161475000Y-110361333D01*
X161475000Y-109561333D02*
X161541666Y-109494666D01*
X161675000Y-109428000D01*
X161875000Y-109428000D01*
X162008333Y-109494666D01*
X162075000Y-109628000D01*
X162075000Y-110361333D01*
X163341666Y-110361333D02*
X163341666Y-109628000D01*
X163275000Y-109494666D01*
X163141666Y-109428000D01*
X162875000Y-109428000D01*
X162741666Y-109494666D01*
X163341666Y-110294666D02*
X163208333Y-110361333D01*
X162875000Y-110361333D01*
X162741666Y-110294666D01*
X162675000Y-110161333D01*
X162675000Y-110028000D01*
X162741666Y-109894666D01*
X162875000Y-109828000D01*
X163208333Y-109828000D01*
X163341666Y-109761333D01*
X164008333Y-110361333D02*
X164008333Y-108961333D01*
X164008333Y-109494666D02*
X164141666Y-109428000D01*
X164408333Y-109428000D01*
X164541666Y-109494666D01*
X164608333Y-109561333D01*
X164675000Y-109694666D01*
X164675000Y-110094666D01*
X164608333Y-110228000D01*
X164541666Y-110294666D01*
X164408333Y-110361333D01*
X164141666Y-110361333D01*
X164008333Y-110294666D01*
X165475000Y-110361333D02*
X165341666Y-110294666D01*
X165275000Y-110161333D01*
X165275000Y-108961333D01*
X166541666Y-110294666D02*
X166408333Y-110361333D01*
X166141666Y-110361333D01*
X166008333Y-110294666D01*
X165941666Y-110161333D01*
X165941666Y-109628000D01*
X166008333Y-109494666D01*
X166141666Y-109428000D01*
X166408333Y-109428000D01*
X166541666Y-109494666D01*
X166608333Y-109628000D01*
X166608333Y-109761333D01*
X165941666Y-109894666D01*
X160246333Y-106678333D02*
X160246333Y-105278333D01*
X160779666Y-105278333D01*
X160913000Y-105345000D01*
X160979666Y-105411666D01*
X161046333Y-105545000D01*
X161046333Y-105745000D01*
X160979666Y-105878333D01*
X160913000Y-105945000D01*
X160779666Y-106011666D01*
X160246333Y-106011666D01*
X161846333Y-106678333D02*
X161713000Y-106611666D01*
X161646333Y-106545000D01*
X161579666Y-106411666D01*
X161579666Y-106011666D01*
X161646333Y-105878333D01*
X161713000Y-105811666D01*
X161846333Y-105745000D01*
X162046333Y-105745000D01*
X162179666Y-105811666D01*
X162246333Y-105878333D01*
X162313000Y-106011666D01*
X162313000Y-106411666D01*
X162246333Y-106545000D01*
X162179666Y-106611666D01*
X162046333Y-106678333D01*
X161846333Y-106678333D01*
X162779666Y-105745000D02*
X163046333Y-106678333D01*
X163313000Y-106011666D01*
X163579666Y-106678333D01*
X163846333Y-105745000D01*
X164913000Y-106611666D02*
X164779666Y-106678333D01*
X164513000Y-106678333D01*
X164379666Y-106611666D01*
X164313000Y-106478333D01*
X164313000Y-105945000D01*
X164379666Y-105811666D01*
X164513000Y-105745000D01*
X164779666Y-105745000D01*
X164913000Y-105811666D01*
X164979666Y-105945000D01*
X164979666Y-106078333D01*
X164313000Y-106211666D01*
X165579666Y-106678333D02*
X165579666Y-105745000D01*
X165579666Y-106011666D02*
X165646333Y-105878333D01*
X165713000Y-105811666D01*
X165846333Y-105745000D01*
X165979666Y-105745000D01*
X118859095Y-121848571D02*
X119192428Y-121848571D01*
X119335285Y-122372380D02*
X118859095Y-122372380D01*
X118859095Y-121372380D01*
X119335285Y-121372380D01*
X119763857Y-122372380D02*
X119763857Y-121705714D01*
X119763857Y-121896190D02*
X119811476Y-121800952D01*
X119859095Y-121753333D01*
X119954333Y-121705714D01*
X120049571Y-121705714D01*
X120811476Y-122372380D02*
X120811476Y-121372380D01*
X120811476Y-122324761D02*
X120716238Y-122372380D01*
X120525761Y-122372380D01*
X120430523Y-122324761D01*
X120382904Y-122277142D01*
X120335285Y-122181904D01*
X120335285Y-121896190D01*
X120382904Y-121800952D01*
X120430523Y-121753333D01*
X120525761Y-121705714D01*
X120716238Y-121705714D01*
X120811476Y-121753333D01*
X121668619Y-122324761D02*
X121573380Y-122372380D01*
X121382904Y-122372380D01*
X121287666Y-122324761D01*
X121240047Y-122229523D01*
X121240047Y-121848571D01*
X121287666Y-121753333D01*
X121382904Y-121705714D01*
X121573380Y-121705714D01*
X121668619Y-121753333D01*
X121716238Y-121848571D01*
X121716238Y-121943809D01*
X121240047Y-122039047D01*
X122097190Y-122324761D02*
X122192428Y-122372380D01*
X122382904Y-122372380D01*
X122478142Y-122324761D01*
X122525761Y-122229523D01*
X122525761Y-122181904D01*
X122478142Y-122086666D01*
X122382904Y-122039047D01*
X122240047Y-122039047D01*
X122144809Y-121991428D01*
X122097190Y-121896190D01*
X122097190Y-121848571D01*
X122144809Y-121753333D01*
X122240047Y-121705714D01*
X122382904Y-121705714D01*
X122478142Y-121753333D01*
X123668619Y-121467619D02*
X123716238Y-121420000D01*
X123811476Y-121372380D01*
X124049571Y-121372380D01*
X124144809Y-121420000D01*
X124192428Y-121467619D01*
X124240047Y-121562857D01*
X124240047Y-121658095D01*
X124192428Y-121800952D01*
X123621000Y-122372380D01*
X124240047Y-122372380D01*
X124859095Y-121372380D02*
X124954333Y-121372380D01*
X125049571Y-121420000D01*
X125097190Y-121467619D01*
X125144809Y-121562857D01*
X125192428Y-121753333D01*
X125192428Y-121991428D01*
X125144809Y-122181904D01*
X125097190Y-122277142D01*
X125049571Y-122324761D01*
X124954333Y-122372380D01*
X124859095Y-122372380D01*
X124763857Y-122324761D01*
X124716238Y-122277142D01*
X124668619Y-122181904D01*
X124621000Y-121991428D01*
X124621000Y-121753333D01*
X124668619Y-121562857D01*
X124716238Y-121467619D01*
X124763857Y-121420000D01*
X124859095Y-121372380D01*
X125573380Y-121467619D02*
X125621000Y-121420000D01*
X125716238Y-121372380D01*
X125954333Y-121372380D01*
X126049571Y-121420000D01*
X126097190Y-121467619D01*
X126144809Y-121562857D01*
X126144809Y-121658095D01*
X126097190Y-121800952D01*
X125525761Y-122372380D01*
X126144809Y-122372380D01*
X127097190Y-122372380D02*
X126525761Y-122372380D01*
X126811476Y-122372380D02*
X126811476Y-121372380D01*
X126716238Y-121515238D01*
X126621000Y-121610476D01*
X126525761Y-121658095D01*
X127525761Y-121991428D02*
X128287666Y-121991428D01*
X129287666Y-122372380D02*
X128716238Y-122372380D01*
X129001952Y-122372380D02*
X129001952Y-121372380D01*
X128906714Y-121515238D01*
X128811476Y-121610476D01*
X128716238Y-121658095D01*
X130240047Y-122372380D02*
X129668619Y-122372380D01*
X129954333Y-122372380D02*
X129954333Y-121372380D01*
X129859095Y-121515238D01*
X129763857Y-121610476D01*
X129668619Y-121658095D01*
X131287666Y-121372380D02*
X131621000Y-122372380D01*
X131954333Y-121372380D01*
X132811476Y-122372380D02*
X132240047Y-122372380D01*
X132525761Y-122372380D02*
X132525761Y-121372380D01*
X132430523Y-121515238D01*
X132335285Y-121610476D01*
X132240047Y-121658095D01*
X133240047Y-122277142D02*
X133287666Y-122324761D01*
X133240047Y-122372380D01*
X133192428Y-122324761D01*
X133240047Y-122277142D01*
X133240047Y-122372380D01*
X133906714Y-121372380D02*
X134001952Y-121372380D01*
X134097190Y-121420000D01*
X134144809Y-121467619D01*
X134192428Y-121562857D01*
X134240047Y-121753333D01*
X134240047Y-121991428D01*
X134192428Y-122181904D01*
X134144809Y-122277142D01*
X134097190Y-122324761D01*
X134001952Y-122372380D01*
X133906714Y-122372380D01*
X133811476Y-122324761D01*
X133763857Y-122277142D01*
X133716238Y-122181904D01*
X133668619Y-121991428D01*
X133668619Y-121753333D01*
X133716238Y-121562857D01*
X133763857Y-121467619D01*
X133811476Y-121420000D01*
X133906714Y-121372380D01*
X119585000Y-119832380D02*
X119085000Y-119356190D01*
X118727857Y-119832380D02*
X118727857Y-118832380D01*
X119299285Y-118832380D01*
X119442142Y-118880000D01*
X119513571Y-118927619D01*
X119585000Y-119022857D01*
X119585000Y-119165714D01*
X119513571Y-119260952D01*
X119442142Y-119308571D01*
X119299285Y-119356190D01*
X118727857Y-119356190D01*
X120870714Y-119832380D02*
X120870714Y-119308571D01*
X120799285Y-119213333D01*
X120656428Y-119165714D01*
X120370714Y-119165714D01*
X120227857Y-119213333D01*
X120870714Y-119784761D02*
X120727857Y-119832380D01*
X120370714Y-119832380D01*
X120227857Y-119784761D01*
X120156428Y-119689523D01*
X120156428Y-119594285D01*
X120227857Y-119499047D01*
X120370714Y-119451428D01*
X120727857Y-119451428D01*
X120870714Y-119403809D01*
X121513571Y-119784761D02*
X121656428Y-119832380D01*
X121942142Y-119832380D01*
X122085000Y-119784761D01*
X122156428Y-119689523D01*
X122156428Y-119641904D01*
X122085000Y-119546666D01*
X121942142Y-119499047D01*
X121727857Y-119499047D01*
X121585000Y-119451428D01*
X121513571Y-119356190D01*
X121513571Y-119308571D01*
X121585000Y-119213333D01*
X121727857Y-119165714D01*
X121942142Y-119165714D01*
X122085000Y-119213333D01*
X122799285Y-119165714D02*
X122799285Y-120165714D01*
X122799285Y-119213333D02*
X122942142Y-119165714D01*
X123227857Y-119165714D01*
X123370714Y-119213333D01*
X123442142Y-119260952D01*
X123513571Y-119356190D01*
X123513571Y-119641904D01*
X123442142Y-119737142D01*
X123370714Y-119784761D01*
X123227857Y-119832380D01*
X122942142Y-119832380D01*
X122799285Y-119784761D01*
X124156428Y-119832380D02*
X124156428Y-118832380D01*
X124156428Y-119213333D02*
X124299285Y-119165714D01*
X124585000Y-119165714D01*
X124727857Y-119213333D01*
X124799285Y-119260952D01*
X124870714Y-119356190D01*
X124870714Y-119641904D01*
X124799285Y-119737142D01*
X124727857Y-119784761D01*
X124585000Y-119832380D01*
X124299285Y-119832380D01*
X124156428Y-119784761D01*
X126085000Y-119784761D02*
X125942142Y-119832380D01*
X125656428Y-119832380D01*
X125513571Y-119784761D01*
X125442142Y-119689523D01*
X125442142Y-119308571D01*
X125513571Y-119213333D01*
X125656428Y-119165714D01*
X125942142Y-119165714D01*
X126085000Y-119213333D01*
X126156428Y-119308571D01*
X126156428Y-119403809D01*
X125442142Y-119499047D01*
X126799285Y-119832380D02*
X126799285Y-119165714D01*
X126799285Y-119356190D02*
X126870714Y-119260952D01*
X126942142Y-119213333D01*
X127085000Y-119165714D01*
X127227857Y-119165714D01*
X127727857Y-119832380D02*
X127727857Y-119165714D01*
X127727857Y-119356190D02*
X127799285Y-119260952D01*
X127870714Y-119213333D01*
X128013571Y-119165714D01*
X128156428Y-119165714D01*
X128513571Y-119165714D02*
X128870714Y-119832380D01*
X129227857Y-119165714D02*
X128870714Y-119832380D01*
X128727857Y-120070476D01*
X128656428Y-120118095D01*
X128513571Y-120165714D01*
X130942142Y-119832380D02*
X130942142Y-118832380D01*
X131513571Y-118832380D01*
X131656428Y-118880000D01*
X131727857Y-118927619D01*
X131799285Y-119022857D01*
X131799285Y-119165714D01*
X131727857Y-119260952D01*
X131656428Y-119308571D01*
X131513571Y-119356190D01*
X130942142Y-119356190D01*
X132442142Y-119832380D02*
X132442142Y-119165714D01*
X132442142Y-118832380D02*
X132370714Y-118880000D01*
X132442142Y-118927619D01*
X132513571Y-118880000D01*
X132442142Y-118832380D01*
X132442142Y-118927619D01*
X134156428Y-118832380D02*
X135156428Y-118832380D01*
X134156428Y-119832380D01*
X135156428Y-119832380D01*
X136299285Y-119784761D02*
X136156428Y-119832380D01*
X135870714Y-119832380D01*
X135727857Y-119784761D01*
X135656428Y-119689523D01*
X135656428Y-119308571D01*
X135727857Y-119213333D01*
X135870714Y-119165714D01*
X136156428Y-119165714D01*
X136299285Y-119213333D01*
X136370714Y-119308571D01*
X136370714Y-119403809D01*
X135656428Y-119499047D01*
X137013571Y-119832380D02*
X137013571Y-119165714D01*
X137013571Y-119356190D02*
X137085000Y-119260952D01*
X137156428Y-119213333D01*
X137299285Y-119165714D01*
X137442142Y-119165714D01*
X138156428Y-119832380D02*
X138013571Y-119784761D01*
X137942142Y-119737142D01*
X137870714Y-119641904D01*
X137870714Y-119356190D01*
X137942142Y-119260952D01*
X138013571Y-119213333D01*
X138156428Y-119165714D01*
X138370714Y-119165714D01*
X138513571Y-119213333D01*
X138585000Y-119260952D01*
X138656428Y-119356190D01*
X138656428Y-119641904D01*
X138585000Y-119737142D01*
X138513571Y-119784761D01*
X138370714Y-119832380D01*
X138156428Y-119832380D01*
X140442142Y-119832380D02*
X140442142Y-118832380D01*
X141013571Y-118832380D01*
X141156428Y-118880000D01*
X141227857Y-118927619D01*
X141299285Y-119022857D01*
X141299285Y-119165714D01*
X141227857Y-119260952D01*
X141156428Y-119308571D01*
X141013571Y-119356190D01*
X140442142Y-119356190D01*
X142727857Y-119832380D02*
X141870714Y-119832380D01*
X142299285Y-119832380D02*
X142299285Y-118832380D01*
X142156428Y-118975238D01*
X142013571Y-119070476D01*
X141870714Y-119118095D01*
X143370714Y-119451428D02*
X144513571Y-119451428D01*
X145227857Y-119832380D02*
X145227857Y-119165714D01*
X145227857Y-118832380D02*
X145156428Y-118880000D01*
X145227857Y-118927619D01*
X145299285Y-118880000D01*
X145227857Y-118832380D01*
X145227857Y-118927619D01*
X145942142Y-119165714D02*
X145942142Y-119832380D01*
X145942142Y-119260952D02*
X146013571Y-119213333D01*
X146156428Y-119165714D01*
X146370714Y-119165714D01*
X146513571Y-119213333D01*
X146585000Y-119308571D01*
X146585000Y-119832380D01*
X147085000Y-119165714D02*
X147656428Y-119165714D01*
X147299285Y-118832380D02*
X147299285Y-119689523D01*
X147370714Y-119784761D01*
X147513571Y-119832380D01*
X147656428Y-119832380D01*
X148727857Y-119784761D02*
X148585000Y-119832380D01*
X148299285Y-119832380D01*
X148156428Y-119784761D01*
X148085000Y-119689523D01*
X148085000Y-119308571D01*
X148156428Y-119213333D01*
X148299285Y-119165714D01*
X148585000Y-119165714D01*
X148727857Y-119213333D01*
X148799285Y-119308571D01*
X148799285Y-119403809D01*
X148085000Y-119499047D01*
X149442142Y-119832380D02*
X149442142Y-119165714D01*
X149442142Y-119356190D02*
X149513571Y-119260952D01*
X149585000Y-119213333D01*
X149727857Y-119165714D01*
X149870714Y-119165714D01*
X150156428Y-119165714D02*
X150727857Y-119165714D01*
X150370714Y-119832380D02*
X150370714Y-118975238D01*
X150442142Y-118880000D01*
X150585000Y-118832380D01*
X150727857Y-118832380D01*
X151870714Y-119832380D02*
X151870714Y-119308571D01*
X151799285Y-119213333D01*
X151656428Y-119165714D01*
X151370714Y-119165714D01*
X151227857Y-119213333D01*
X151870714Y-119784761D02*
X151727857Y-119832380D01*
X151370714Y-119832380D01*
X151227857Y-119784761D01*
X151156428Y-119689523D01*
X151156428Y-119594285D01*
X151227857Y-119499047D01*
X151370714Y-119451428D01*
X151727857Y-119451428D01*
X151870714Y-119403809D01*
X153227857Y-119784761D02*
X153085000Y-119832380D01*
X152799285Y-119832380D01*
X152656428Y-119784761D01*
X152585000Y-119737142D01*
X152513571Y-119641904D01*
X152513571Y-119356190D01*
X152585000Y-119260952D01*
X152656428Y-119213333D01*
X152799285Y-119165714D01*
X153085000Y-119165714D01*
X153227857Y-119213333D01*
X154442142Y-119784761D02*
X154299285Y-119832380D01*
X154013571Y-119832380D01*
X153870714Y-119784761D01*
X153799285Y-119689523D01*
X153799285Y-119308571D01*
X153870714Y-119213333D01*
X154013571Y-119165714D01*
X154299285Y-119165714D01*
X154442142Y-119213333D01*
X154513571Y-119308571D01*
X154513571Y-119403809D01*
X153799285Y-119499047D01*
X156299285Y-119832380D02*
X156299285Y-118832380D01*
X156299285Y-119213333D02*
X156442142Y-119165714D01*
X156727857Y-119165714D01*
X156870714Y-119213333D01*
X156942142Y-119260952D01*
X157013571Y-119356190D01*
X157013571Y-119641904D01*
X156942142Y-119737142D01*
X156870714Y-119784761D01*
X156727857Y-119832380D01*
X156442142Y-119832380D01*
X156299285Y-119784761D01*
X157870714Y-119832380D02*
X157727857Y-119784761D01*
X157656428Y-119737142D01*
X157585000Y-119641904D01*
X157585000Y-119356190D01*
X157656428Y-119260952D01*
X157727857Y-119213333D01*
X157870714Y-119165714D01*
X158085000Y-119165714D01*
X158227857Y-119213333D01*
X158299285Y-119260952D01*
X158370714Y-119356190D01*
X158370714Y-119641904D01*
X158299285Y-119737142D01*
X158227857Y-119784761D01*
X158085000Y-119832380D01*
X157870714Y-119832380D01*
X159656428Y-119832380D02*
X159656428Y-119308571D01*
X159585000Y-119213333D01*
X159442142Y-119165714D01*
X159156428Y-119165714D01*
X159013571Y-119213333D01*
X159656428Y-119784761D02*
X159513571Y-119832380D01*
X159156428Y-119832380D01*
X159013571Y-119784761D01*
X158942142Y-119689523D01*
X158942142Y-119594285D01*
X159013571Y-119499047D01*
X159156428Y-119451428D01*
X159513571Y-119451428D01*
X159656428Y-119403809D01*
X160370714Y-119832380D02*
X160370714Y-119165714D01*
X160370714Y-119356190D02*
X160442142Y-119260952D01*
X160513571Y-119213333D01*
X160656428Y-119165714D01*
X160799285Y-119165714D01*
X161942142Y-119832380D02*
X161942142Y-118832380D01*
X161942142Y-119784761D02*
X161799285Y-119832380D01*
X161513571Y-119832380D01*
X161370714Y-119784761D01*
X161299285Y-119737142D01*
X161227857Y-119641904D01*
X161227857Y-119356190D01*
X161299285Y-119260952D01*
X161370714Y-119213333D01*
X161513571Y-119165714D01*
X161799285Y-119165714D01*
X161942142Y-119213333D01*
D11*
G36*
X166727910Y-117003348D02*
G01*
X166806454Y-117003778D01*
X166863298Y-117004942D01*
X166902105Y-117007207D01*
X166926538Y-117010940D01*
X166940262Y-117016506D01*
X166946940Y-117024273D01*
X166950236Y-117034605D01*
X166950556Y-117035943D01*
X166955562Y-117060079D01*
X166964829Y-117107701D01*
X166977392Y-117173741D01*
X166992287Y-117253128D01*
X167008551Y-117340796D01*
X167009119Y-117343875D01*
X167025410Y-117429789D01*
X167040652Y-117505696D01*
X167053861Y-117567045D01*
X167064054Y-117609282D01*
X167070248Y-117627855D01*
X167070543Y-117628184D01*
X167088788Y-117637253D01*
X167126405Y-117652367D01*
X167175271Y-117670262D01*
X167175543Y-117670358D01*
X167237093Y-117693493D01*
X167309657Y-117722965D01*
X167378057Y-117752597D01*
X167381294Y-117754062D01*
X167492702Y-117804626D01*
X167739399Y-117636160D01*
X167815077Y-117584803D01*
X167883631Y-117538889D01*
X167941088Y-117501030D01*
X167983476Y-117473837D01*
X168006825Y-117459921D01*
X168009042Y-117458889D01*
X168026010Y-117463484D01*
X168057701Y-117485655D01*
X168105352Y-117526447D01*
X168170198Y-117586905D01*
X168236397Y-117651227D01*
X168300214Y-117714612D01*
X168357329Y-117772451D01*
X168404305Y-117821175D01*
X168437703Y-117857210D01*
X168454085Y-117876984D01*
X168454694Y-117878002D01*
X168456505Y-117891572D01*
X168449683Y-117913733D01*
X168432540Y-117947478D01*
X168403393Y-117995800D01*
X168360555Y-118061692D01*
X168303448Y-118146517D01*
X168252766Y-118221177D01*
X168207461Y-118288140D01*
X168170150Y-118343516D01*
X168143452Y-118383420D01*
X168129985Y-118403962D01*
X168129137Y-118405356D01*
X168130781Y-118425038D01*
X168143245Y-118463293D01*
X168164048Y-118512889D01*
X168171462Y-118528728D01*
X168203814Y-118599290D01*
X168238328Y-118679353D01*
X168266365Y-118748629D01*
X168286568Y-118800045D01*
X168302615Y-118839119D01*
X168311888Y-118859541D01*
X168313041Y-118861114D01*
X168330096Y-118863721D01*
X168370298Y-118870863D01*
X168428302Y-118881523D01*
X168498763Y-118894685D01*
X168576335Y-118909333D01*
X168655672Y-118924449D01*
X168731431Y-118939018D01*
X168798264Y-118952022D01*
X168850828Y-118962445D01*
X168883776Y-118969270D01*
X168891857Y-118971199D01*
X168900205Y-118975962D01*
X168906506Y-118986718D01*
X168911045Y-119007098D01*
X168914104Y-119040734D01*
X168915967Y-119091255D01*
X168916918Y-119162292D01*
X168917240Y-119257476D01*
X168917257Y-119296492D01*
X168917257Y-119613799D01*
X168841057Y-119628839D01*
X168798663Y-119636995D01*
X168735400Y-119648899D01*
X168658962Y-119663116D01*
X168577043Y-119678210D01*
X168554400Y-119682355D01*
X168478806Y-119697053D01*
X168412953Y-119711505D01*
X168362366Y-119724375D01*
X168332574Y-119734322D01*
X168327612Y-119737287D01*
X168315426Y-119758283D01*
X168297953Y-119798967D01*
X168278577Y-119851322D01*
X168274734Y-119862600D01*
X168249339Y-119932523D01*
X168217817Y-120011418D01*
X168186969Y-120082266D01*
X168186817Y-120082595D01*
X168135447Y-120193733D01*
X168304399Y-120442253D01*
X168473352Y-120690772D01*
X168256429Y-120908058D01*
X168190819Y-120972726D01*
X168130979Y-121029733D01*
X168080267Y-121076033D01*
X168042046Y-121108584D01*
X168019675Y-121124343D01*
X168016466Y-121125343D01*
X167997626Y-121117469D01*
X167959180Y-121095578D01*
X167905330Y-121062267D01*
X167840276Y-121020131D01*
X167769940Y-120972943D01*
X167698555Y-120924810D01*
X167634908Y-120882928D01*
X167583041Y-120849871D01*
X167546995Y-120828218D01*
X167530867Y-120820543D01*
X167511189Y-120827037D01*
X167473875Y-120844150D01*
X167426621Y-120868326D01*
X167421612Y-120871013D01*
X167357977Y-120902927D01*
X167314341Y-120918579D01*
X167287202Y-120918745D01*
X167273057Y-120904204D01*
X167272975Y-120904000D01*
X167265905Y-120886779D01*
X167249042Y-120845899D01*
X167223695Y-120784525D01*
X167191171Y-120705819D01*
X167152778Y-120612947D01*
X167109822Y-120509072D01*
X167068222Y-120408502D01*
X167022504Y-120297516D01*
X166980526Y-120194703D01*
X166943548Y-120103215D01*
X166912827Y-120026201D01*
X166889622Y-119966815D01*
X166875190Y-119928209D01*
X166870743Y-119913800D01*
X166881896Y-119897272D01*
X166911069Y-119870930D01*
X166949971Y-119841887D01*
X167060757Y-119750039D01*
X167147351Y-119644759D01*
X167208716Y-119528266D01*
X167243815Y-119402776D01*
X167251608Y-119270507D01*
X167245943Y-119209457D01*
X167215078Y-119082795D01*
X167161920Y-118970941D01*
X167089767Y-118875001D01*
X167001917Y-118796076D01*
X166901665Y-118735270D01*
X166792310Y-118693687D01*
X166677147Y-118672428D01*
X166559475Y-118672599D01*
X166442590Y-118695301D01*
X166329789Y-118741638D01*
X166224369Y-118812713D01*
X166180368Y-118852911D01*
X166095979Y-118956129D01*
X166037222Y-119068925D01*
X166003704Y-119188010D01*
X165995035Y-119310095D01*
X166010823Y-119431893D01*
X166050678Y-119550116D01*
X166114207Y-119661475D01*
X166201021Y-119762684D01*
X166298029Y-119841887D01*
X166338437Y-119872162D01*
X166366982Y-119898219D01*
X166377257Y-119913825D01*
X166371877Y-119930843D01*
X166356575Y-119971500D01*
X166332612Y-120032642D01*
X166301244Y-120111119D01*
X166263732Y-120203780D01*
X166221333Y-120307472D01*
X166179663Y-120408526D01*
X166133690Y-120519607D01*
X166091107Y-120622541D01*
X166053221Y-120714165D01*
X166021340Y-120791316D01*
X165996771Y-120850831D01*
X165980820Y-120889544D01*
X165974910Y-120904000D01*
X165960948Y-120918685D01*
X165933940Y-120918642D01*
X165890413Y-120903099D01*
X165826890Y-120871284D01*
X165826388Y-120871013D01*
X165778560Y-120846323D01*
X165739897Y-120828338D01*
X165718095Y-120820614D01*
X165717133Y-120820543D01*
X165700721Y-120828378D01*
X165664487Y-120850165D01*
X165612474Y-120883328D01*
X165548725Y-120925291D01*
X165478060Y-120972943D01*
X165406116Y-121021191D01*
X165341274Y-121063151D01*
X165287735Y-121096227D01*
X165249697Y-121117821D01*
X165231533Y-121125343D01*
X165214808Y-121115457D01*
X165181180Y-121087826D01*
X165134010Y-121045495D01*
X165076658Y-120991505D01*
X165012484Y-120928899D01*
X164991497Y-120907983D01*
X164774499Y-120690623D01*
X164939668Y-120448220D01*
X164989864Y-120373781D01*
X165033919Y-120306972D01*
X165069362Y-120251665D01*
X165093719Y-120211729D01*
X165104522Y-120191036D01*
X165104838Y-120189563D01*
X165099143Y-120170058D01*
X165083826Y-120130822D01*
X165061537Y-120078430D01*
X165045893Y-120043355D01*
X165016641Y-119976201D01*
X164989094Y-119908358D01*
X164967737Y-119851034D01*
X164961935Y-119833572D01*
X164945452Y-119786938D01*
X164929340Y-119750905D01*
X164920490Y-119737287D01*
X164900960Y-119728952D01*
X164858334Y-119717137D01*
X164798145Y-119703181D01*
X164725922Y-119688422D01*
X164693600Y-119682355D01*
X164611522Y-119667273D01*
X164532795Y-119652669D01*
X164465109Y-119639980D01*
X164416160Y-119630642D01*
X164406943Y-119628839D01*
X164330743Y-119613799D01*
X164330743Y-119296492D01*
X164330914Y-119192154D01*
X164331616Y-119113213D01*
X164333134Y-119056038D01*
X164335749Y-119016999D01*
X164339746Y-118992465D01*
X164345409Y-118978805D01*
X164353020Y-118972389D01*
X164356143Y-118971199D01*
X164374978Y-118966980D01*
X164416588Y-118958562D01*
X164475630Y-118946961D01*
X164546757Y-118933195D01*
X164624625Y-118918280D01*
X164703887Y-118903232D01*
X164779198Y-118889069D01*
X164845213Y-118876806D01*
X164896587Y-118867461D01*
X164927975Y-118862050D01*
X164934959Y-118861114D01*
X164941285Y-118848596D01*
X164955290Y-118815246D01*
X164974355Y-118767377D01*
X164981634Y-118748629D01*
X165010996Y-118676195D01*
X165045571Y-118596170D01*
X165076537Y-118528728D01*
X165099323Y-118477159D01*
X165114482Y-118434785D01*
X165119542Y-118408834D01*
X165118736Y-118405356D01*
X165108041Y-118388936D01*
X165083620Y-118352417D01*
X165048095Y-118299687D01*
X165004087Y-118234635D01*
X164954217Y-118161151D01*
X164944356Y-118146645D01*
X164886492Y-118060704D01*
X164843956Y-117995261D01*
X164815054Y-117947304D01*
X164798090Y-117913820D01*
X164791367Y-117891795D01*
X164793190Y-117878217D01*
X164793236Y-117878131D01*
X164807586Y-117860297D01*
X164839323Y-117825817D01*
X164885010Y-117778268D01*
X164941204Y-117721222D01*
X165004468Y-117658255D01*
X165011602Y-117651227D01*
X165091330Y-117574020D01*
X165152857Y-117517330D01*
X165197421Y-117480110D01*
X165226257Y-117461315D01*
X165238958Y-117458889D01*
X165257494Y-117469471D01*
X165295961Y-117493916D01*
X165350386Y-117529612D01*
X165416798Y-117573947D01*
X165491225Y-117624311D01*
X165508601Y-117636160D01*
X165755297Y-117804626D01*
X165866706Y-117754062D01*
X165934457Y-117724595D01*
X166007183Y-117694959D01*
X166069703Y-117671330D01*
X166072457Y-117670358D01*
X166121360Y-117652457D01*
X166159057Y-117637320D01*
X166177425Y-117628210D01*
X166177456Y-117628184D01*
X166183285Y-117611717D01*
X166193192Y-117571219D01*
X166206195Y-117511242D01*
X166221309Y-117436340D01*
X166237552Y-117351064D01*
X166238881Y-117343875D01*
X166255175Y-117256014D01*
X166270133Y-117176260D01*
X166282791Y-117109681D01*
X166292186Y-117061347D01*
X166297354Y-117036325D01*
X166297444Y-117035943D01*
X166300589Y-117025299D01*
X166306704Y-117017262D01*
X166319453Y-117011467D01*
X166342500Y-117007547D01*
X166379509Y-117005135D01*
X166434144Y-117003865D01*
X166510067Y-117003371D01*
X166610944Y-117003286D01*
X166624000Y-117003286D01*
X166727910Y-117003348D01*
G37*
X166727910Y-117003348D02*
X166806454Y-117003778D01*
X166863298Y-117004942D01*
X166902105Y-117007207D01*
X166926538Y-117010940D01*
X166940262Y-117016506D01*
X166946940Y-117024273D01*
X166950236Y-117034605D01*
X166950556Y-117035943D01*
X166955562Y-117060079D01*
X166964829Y-117107701D01*
X166977392Y-117173741D01*
X166992287Y-117253128D01*
X167008551Y-117340796D01*
X167009119Y-117343875D01*
X167025410Y-117429789D01*
X167040652Y-117505696D01*
X167053861Y-117567045D01*
X167064054Y-117609282D01*
X167070248Y-117627855D01*
X167070543Y-117628184D01*
X167088788Y-117637253D01*
X167126405Y-117652367D01*
X167175271Y-117670262D01*
X167175543Y-117670358D01*
X167237093Y-117693493D01*
X167309657Y-117722965D01*
X167378057Y-117752597D01*
X167381294Y-117754062D01*
X167492702Y-117804626D01*
X167739399Y-117636160D01*
X167815077Y-117584803D01*
X167883631Y-117538889D01*
X167941088Y-117501030D01*
X167983476Y-117473837D01*
X168006825Y-117459921D01*
X168009042Y-117458889D01*
X168026010Y-117463484D01*
X168057701Y-117485655D01*
X168105352Y-117526447D01*
X168170198Y-117586905D01*
X168236397Y-117651227D01*
X168300214Y-117714612D01*
X168357329Y-117772451D01*
X168404305Y-117821175D01*
X168437703Y-117857210D01*
X168454085Y-117876984D01*
X168454694Y-117878002D01*
X168456505Y-117891572D01*
X168449683Y-117913733D01*
X168432540Y-117947478D01*
X168403393Y-117995800D01*
X168360555Y-118061692D01*
X168303448Y-118146517D01*
X168252766Y-118221177D01*
X168207461Y-118288140D01*
X168170150Y-118343516D01*
X168143452Y-118383420D01*
X168129985Y-118403962D01*
X168129137Y-118405356D01*
X168130781Y-118425038D01*
X168143245Y-118463293D01*
X168164048Y-118512889D01*
X168171462Y-118528728D01*
X168203814Y-118599290D01*
X168238328Y-118679353D01*
X168266365Y-118748629D01*
X168286568Y-118800045D01*
X168302615Y-118839119D01*
X168311888Y-118859541D01*
X168313041Y-118861114D01*
X168330096Y-118863721D01*
X168370298Y-118870863D01*
X168428302Y-118881523D01*
X168498763Y-118894685D01*
X168576335Y-118909333D01*
X168655672Y-118924449D01*
X168731431Y-118939018D01*
X168798264Y-118952022D01*
X168850828Y-118962445D01*
X168883776Y-118969270D01*
X168891857Y-118971199D01*
X168900205Y-118975962D01*
X168906506Y-118986718D01*
X168911045Y-119007098D01*
X168914104Y-119040734D01*
X168915967Y-119091255D01*
X168916918Y-119162292D01*
X168917240Y-119257476D01*
X168917257Y-119296492D01*
X168917257Y-119613799D01*
X168841057Y-119628839D01*
X168798663Y-119636995D01*
X168735400Y-119648899D01*
X168658962Y-119663116D01*
X168577043Y-119678210D01*
X168554400Y-119682355D01*
X168478806Y-119697053D01*
X168412953Y-119711505D01*
X168362366Y-119724375D01*
X168332574Y-119734322D01*
X168327612Y-119737287D01*
X168315426Y-119758283D01*
X168297953Y-119798967D01*
X168278577Y-119851322D01*
X168274734Y-119862600D01*
X168249339Y-119932523D01*
X168217817Y-120011418D01*
X168186969Y-120082266D01*
X168186817Y-120082595D01*
X168135447Y-120193733D01*
X168304399Y-120442253D01*
X168473352Y-120690772D01*
X168256429Y-120908058D01*
X168190819Y-120972726D01*
X168130979Y-121029733D01*
X168080267Y-121076033D01*
X168042046Y-121108584D01*
X168019675Y-121124343D01*
X168016466Y-121125343D01*
X167997626Y-121117469D01*
X167959180Y-121095578D01*
X167905330Y-121062267D01*
X167840276Y-121020131D01*
X167769940Y-120972943D01*
X167698555Y-120924810D01*
X167634908Y-120882928D01*
X167583041Y-120849871D01*
X167546995Y-120828218D01*
X167530867Y-120820543D01*
X167511189Y-120827037D01*
X167473875Y-120844150D01*
X167426621Y-120868326D01*
X167421612Y-120871013D01*
X167357977Y-120902927D01*
X167314341Y-120918579D01*
X167287202Y-120918745D01*
X167273057Y-120904204D01*
X167272975Y-120904000D01*
X167265905Y-120886779D01*
X167249042Y-120845899D01*
X167223695Y-120784525D01*
X167191171Y-120705819D01*
X167152778Y-120612947D01*
X167109822Y-120509072D01*
X167068222Y-120408502D01*
X167022504Y-120297516D01*
X166980526Y-120194703D01*
X166943548Y-120103215D01*
X166912827Y-120026201D01*
X166889622Y-119966815D01*
X166875190Y-119928209D01*
X166870743Y-119913800D01*
X166881896Y-119897272D01*
X166911069Y-119870930D01*
X166949971Y-119841887D01*
X167060757Y-119750039D01*
X167147351Y-119644759D01*
X167208716Y-119528266D01*
X167243815Y-119402776D01*
X167251608Y-119270507D01*
X167245943Y-119209457D01*
X167215078Y-119082795D01*
X167161920Y-118970941D01*
X167089767Y-118875001D01*
X167001917Y-118796076D01*
X166901665Y-118735270D01*
X166792310Y-118693687D01*
X166677147Y-118672428D01*
X166559475Y-118672599D01*
X166442590Y-118695301D01*
X166329789Y-118741638D01*
X166224369Y-118812713D01*
X166180368Y-118852911D01*
X166095979Y-118956129D01*
X166037222Y-119068925D01*
X166003704Y-119188010D01*
X165995035Y-119310095D01*
X166010823Y-119431893D01*
X166050678Y-119550116D01*
X166114207Y-119661475D01*
X166201021Y-119762684D01*
X166298029Y-119841887D01*
X166338437Y-119872162D01*
X166366982Y-119898219D01*
X166377257Y-119913825D01*
X166371877Y-119930843D01*
X166356575Y-119971500D01*
X166332612Y-120032642D01*
X166301244Y-120111119D01*
X166263732Y-120203780D01*
X166221333Y-120307472D01*
X166179663Y-120408526D01*
X166133690Y-120519607D01*
X166091107Y-120622541D01*
X166053221Y-120714165D01*
X166021340Y-120791316D01*
X165996771Y-120850831D01*
X165980820Y-120889544D01*
X165974910Y-120904000D01*
X165960948Y-120918685D01*
X165933940Y-120918642D01*
X165890413Y-120903099D01*
X165826890Y-120871284D01*
X165826388Y-120871013D01*
X165778560Y-120846323D01*
X165739897Y-120828338D01*
X165718095Y-120820614D01*
X165717133Y-120820543D01*
X165700721Y-120828378D01*
X165664487Y-120850165D01*
X165612474Y-120883328D01*
X165548725Y-120925291D01*
X165478060Y-120972943D01*
X165406116Y-121021191D01*
X165341274Y-121063151D01*
X165287735Y-121096227D01*
X165249697Y-121117821D01*
X165231533Y-121125343D01*
X165214808Y-121115457D01*
X165181180Y-121087826D01*
X165134010Y-121045495D01*
X165076658Y-120991505D01*
X165012484Y-120928899D01*
X164991497Y-120907983D01*
X164774499Y-120690623D01*
X164939668Y-120448220D01*
X164989864Y-120373781D01*
X165033919Y-120306972D01*
X165069362Y-120251665D01*
X165093719Y-120211729D01*
X165104522Y-120191036D01*
X165104838Y-120189563D01*
X165099143Y-120170058D01*
X165083826Y-120130822D01*
X165061537Y-120078430D01*
X165045893Y-120043355D01*
X165016641Y-119976201D01*
X164989094Y-119908358D01*
X164967737Y-119851034D01*
X164961935Y-119833572D01*
X164945452Y-119786938D01*
X164929340Y-119750905D01*
X164920490Y-119737287D01*
X164900960Y-119728952D01*
X164858334Y-119717137D01*
X164798145Y-119703181D01*
X164725922Y-119688422D01*
X164693600Y-119682355D01*
X164611522Y-119667273D01*
X164532795Y-119652669D01*
X164465109Y-119639980D01*
X164416160Y-119630642D01*
X164406943Y-119628839D01*
X164330743Y-119613799D01*
X164330743Y-119296492D01*
X164330914Y-119192154D01*
X164331616Y-119113213D01*
X164333134Y-119056038D01*
X164335749Y-119016999D01*
X164339746Y-118992465D01*
X164345409Y-118978805D01*
X164353020Y-118972389D01*
X164356143Y-118971199D01*
X164374978Y-118966980D01*
X164416588Y-118958562D01*
X164475630Y-118946961D01*
X164546757Y-118933195D01*
X164624625Y-118918280D01*
X164703887Y-118903232D01*
X164779198Y-118889069D01*
X164845213Y-118876806D01*
X164896587Y-118867461D01*
X164927975Y-118862050D01*
X164934959Y-118861114D01*
X164941285Y-118848596D01*
X164955290Y-118815246D01*
X164974355Y-118767377D01*
X164981634Y-118748629D01*
X165010996Y-118676195D01*
X165045571Y-118596170D01*
X165076537Y-118528728D01*
X165099323Y-118477159D01*
X165114482Y-118434785D01*
X165119542Y-118408834D01*
X165118736Y-118405356D01*
X165108041Y-118388936D01*
X165083620Y-118352417D01*
X165048095Y-118299687D01*
X165004087Y-118234635D01*
X164954217Y-118161151D01*
X164944356Y-118146645D01*
X164886492Y-118060704D01*
X164843956Y-117995261D01*
X164815054Y-117947304D01*
X164798090Y-117913820D01*
X164791367Y-117891795D01*
X164793190Y-117878217D01*
X164793236Y-117878131D01*
X164807586Y-117860297D01*
X164839323Y-117825817D01*
X164885010Y-117778268D01*
X164941204Y-117721222D01*
X165004468Y-117658255D01*
X165011602Y-117651227D01*
X165091330Y-117574020D01*
X165152857Y-117517330D01*
X165197421Y-117480110D01*
X165226257Y-117461315D01*
X165238958Y-117458889D01*
X165257494Y-117469471D01*
X165295961Y-117493916D01*
X165350386Y-117529612D01*
X165416798Y-117573947D01*
X165491225Y-117624311D01*
X165508601Y-117636160D01*
X165755297Y-117804626D01*
X165866706Y-117754062D01*
X165934457Y-117724595D01*
X166007183Y-117694959D01*
X166069703Y-117671330D01*
X166072457Y-117670358D01*
X166121360Y-117652457D01*
X166159057Y-117637320D01*
X166177425Y-117628210D01*
X166177456Y-117628184D01*
X166183285Y-117611717D01*
X166193192Y-117571219D01*
X166206195Y-117511242D01*
X166221309Y-117436340D01*
X166237552Y-117351064D01*
X166238881Y-117343875D01*
X166255175Y-117256014D01*
X166270133Y-117176260D01*
X166282791Y-117109681D01*
X166292186Y-117061347D01*
X166297354Y-117036325D01*
X166297444Y-117035943D01*
X166300589Y-117025299D01*
X166306704Y-117017262D01*
X166319453Y-117011467D01*
X166342500Y-117007547D01*
X166379509Y-117005135D01*
X166434144Y-117003865D01*
X166510067Y-117003371D01*
X166610944Y-117003286D01*
X166624000Y-117003286D01*
X166727910Y-117003348D01*
G36*
X169777595Y-121727966D02*
G01*
X169835021Y-121765497D01*
X169862719Y-121799096D01*
X169884662Y-121860064D01*
X169886405Y-121908308D01*
X169882457Y-121972816D01*
X169733686Y-122037934D01*
X169661349Y-122071202D01*
X169614084Y-122097964D01*
X169589507Y-122121144D01*
X169585237Y-122143667D01*
X169598889Y-122168455D01*
X169613943Y-122184886D01*
X169657746Y-122211235D01*
X169705389Y-122213081D01*
X169749145Y-122192546D01*
X169781289Y-122151752D01*
X169787038Y-122137347D01*
X169814576Y-122092356D01*
X169846258Y-122073182D01*
X169889714Y-122056779D01*
X169889714Y-122118966D01*
X169885872Y-122161283D01*
X169870823Y-122196969D01*
X169839280Y-122237943D01*
X169834592Y-122243267D01*
X169799506Y-122279720D01*
X169769347Y-122299283D01*
X169731615Y-122308283D01*
X169700335Y-122311230D01*
X169644385Y-122311965D01*
X169604555Y-122302660D01*
X169579708Y-122288846D01*
X169540656Y-122258467D01*
X169513625Y-122225613D01*
X169496517Y-122184294D01*
X169487238Y-122128521D01*
X169483693Y-122052305D01*
X169483410Y-122013622D01*
X169484372Y-121967247D01*
X169572007Y-121967247D01*
X169573023Y-121992126D01*
X169575556Y-121996200D01*
X169592274Y-121990665D01*
X169628249Y-121976017D01*
X169676331Y-121955190D01*
X169686386Y-121950714D01*
X169747152Y-121919814D01*
X169780632Y-121892657D01*
X169787990Y-121867220D01*
X169770391Y-121841481D01*
X169755856Y-121830109D01*
X169703410Y-121807364D01*
X169654322Y-121811122D01*
X169613227Y-121838884D01*
X169584758Y-121888152D01*
X169575631Y-121927257D01*
X169572007Y-121967247D01*
X169484372Y-121967247D01*
X169485285Y-121923249D01*
X169492196Y-121856384D01*
X169505884Y-121807695D01*
X169528096Y-121771849D01*
X169560574Y-121743513D01*
X169574733Y-121734355D01*
X169639053Y-121710507D01*
X169709473Y-121709006D01*
X169777595Y-121727966D01*
G37*
X169777595Y-121727966D02*
X169835021Y-121765497D01*
X169862719Y-121799096D01*
X169884662Y-121860064D01*
X169886405Y-121908308D01*
X169882457Y-121972816D01*
X169733686Y-122037934D01*
X169661349Y-122071202D01*
X169614084Y-122097964D01*
X169589507Y-122121144D01*
X169585237Y-122143667D01*
X169598889Y-122168455D01*
X169613943Y-122184886D01*
X169657746Y-122211235D01*
X169705389Y-122213081D01*
X169749145Y-122192546D01*
X169781289Y-122151752D01*
X169787038Y-122137347D01*
X169814576Y-122092356D01*
X169846258Y-122073182D01*
X169889714Y-122056779D01*
X169889714Y-122118966D01*
X169885872Y-122161283D01*
X169870823Y-122196969D01*
X169839280Y-122237943D01*
X169834592Y-122243267D01*
X169799506Y-122279720D01*
X169769347Y-122299283D01*
X169731615Y-122308283D01*
X169700335Y-122311230D01*
X169644385Y-122311965D01*
X169604555Y-122302660D01*
X169579708Y-122288846D01*
X169540656Y-122258467D01*
X169513625Y-122225613D01*
X169496517Y-122184294D01*
X169487238Y-122128521D01*
X169483693Y-122052305D01*
X169483410Y-122013622D01*
X169484372Y-121967247D01*
X169572007Y-121967247D01*
X169573023Y-121992126D01*
X169575556Y-121996200D01*
X169592274Y-121990665D01*
X169628249Y-121976017D01*
X169676331Y-121955190D01*
X169686386Y-121950714D01*
X169747152Y-121919814D01*
X169780632Y-121892657D01*
X169787990Y-121867220D01*
X169770391Y-121841481D01*
X169755856Y-121830109D01*
X169703410Y-121807364D01*
X169654322Y-121811122D01*
X169613227Y-121838884D01*
X169584758Y-121888152D01*
X169575631Y-121927257D01*
X169572007Y-121967247D01*
X169484372Y-121967247D01*
X169485285Y-121923249D01*
X169492196Y-121856384D01*
X169505884Y-121807695D01*
X169528096Y-121771849D01*
X169560574Y-121743513D01*
X169574733Y-121734355D01*
X169639053Y-121710507D01*
X169709473Y-121709006D01*
X169777595Y-121727966D01*
G36*
X169276600Y-121719752D02*
G01*
X169293948Y-121727334D01*
X169335356Y-121760128D01*
X169370765Y-121807547D01*
X169392664Y-121858151D01*
X169396229Y-121883098D01*
X169384279Y-121917927D01*
X169358067Y-121936357D01*
X169329964Y-121947516D01*
X169317095Y-121949572D01*
X169310829Y-121934649D01*
X169298456Y-121902175D01*
X169293028Y-121887502D01*
X169262590Y-121836744D01*
X169218520Y-121811427D01*
X169162010Y-121812206D01*
X169157825Y-121813203D01*
X169127655Y-121827507D01*
X169105476Y-121855393D01*
X169090327Y-121900287D01*
X169081250Y-121965615D01*
X169077286Y-122054804D01*
X169076914Y-122102261D01*
X169076730Y-122177071D01*
X169075522Y-122228069D01*
X169072309Y-122260471D01*
X169066109Y-122279495D01*
X169055940Y-122290356D01*
X169040819Y-122298272D01*
X169039946Y-122298670D01*
X169010828Y-122310981D01*
X168996403Y-122315514D01*
X168994186Y-122301809D01*
X168992289Y-122263925D01*
X168990847Y-122206715D01*
X168989998Y-122135027D01*
X168989829Y-122082565D01*
X168990692Y-121981047D01*
X168994070Y-121904032D01*
X169001142Y-121847023D01*
X169013088Y-121805526D01*
X169031090Y-121775043D01*
X169056327Y-121751080D01*
X169081247Y-121734355D01*
X169141171Y-121712097D01*
X169210911Y-121707076D01*
X169276600Y-121719752D01*
G37*
X169276600Y-121719752D02*
X169293948Y-121727334D01*
X169335356Y-121760128D01*
X169370765Y-121807547D01*
X169392664Y-121858151D01*
X169396229Y-121883098D01*
X169384279Y-121917927D01*
X169358067Y-121936357D01*
X169329964Y-121947516D01*
X169317095Y-121949572D01*
X169310829Y-121934649D01*
X169298456Y-121902175D01*
X169293028Y-121887502D01*
X169262590Y-121836744D01*
X169218520Y-121811427D01*
X169162010Y-121812206D01*
X169157825Y-121813203D01*
X169127655Y-121827507D01*
X169105476Y-121855393D01*
X169090327Y-121900287D01*
X169081250Y-121965615D01*
X169077286Y-122054804D01*
X169076914Y-122102261D01*
X169076730Y-122177071D01*
X169075522Y-122228069D01*
X169072309Y-122260471D01*
X169066109Y-122279495D01*
X169055940Y-122290356D01*
X169040819Y-122298272D01*
X169039946Y-122298670D01*
X169010828Y-122310981D01*
X168996403Y-122315514D01*
X168994186Y-122301809D01*
X168992289Y-122263925D01*
X168990847Y-122206715D01*
X168989998Y-122135027D01*
X168989829Y-122082565D01*
X168990692Y-121981047D01*
X168994070Y-121904032D01*
X169001142Y-121847023D01*
X169013088Y-121805526D01*
X169031090Y-121775043D01*
X169056327Y-121751080D01*
X169081247Y-121734355D01*
X169141171Y-121712097D01*
X169210911Y-121707076D01*
X169276600Y-121719752D01*
G36*
X168768876Y-121717335D02*
G01*
X168810667Y-121736344D01*
X168843469Y-121759378D01*
X168867503Y-121785133D01*
X168884097Y-121818358D01*
X168894577Y-121863800D01*
X168900271Y-121926207D01*
X168902507Y-122010327D01*
X168902743Y-122065721D01*
X168902743Y-122281826D01*
X168865774Y-122298670D01*
X168836656Y-122310981D01*
X168822231Y-122315514D01*
X168819472Y-122302025D01*
X168817282Y-122265653D01*
X168815942Y-122212542D01*
X168815657Y-122170372D01*
X168814434Y-122109447D01*
X168811136Y-122061115D01*
X168806321Y-122031518D01*
X168802496Y-122025229D01*
X168776783Y-122031652D01*
X168736418Y-122048125D01*
X168689679Y-122070458D01*
X168644845Y-122094457D01*
X168610193Y-122115930D01*
X168594002Y-122130685D01*
X168593938Y-122130845D01*
X168595330Y-122158152D01*
X168607818Y-122184219D01*
X168629743Y-122205392D01*
X168661743Y-122212474D01*
X168689092Y-122211649D01*
X168727826Y-122211042D01*
X168748158Y-122220116D01*
X168760369Y-122244092D01*
X168761909Y-122248613D01*
X168767203Y-122282806D01*
X168753047Y-122303568D01*
X168716148Y-122313462D01*
X168676289Y-122315292D01*
X168604562Y-122301727D01*
X168567432Y-122282355D01*
X168521576Y-122236845D01*
X168497256Y-122180983D01*
X168495073Y-122121957D01*
X168515629Y-122066953D01*
X168546549Y-122032486D01*
X168577420Y-122013189D01*
X168625942Y-121988759D01*
X168682485Y-121963985D01*
X168691910Y-121960199D01*
X168754019Y-121932791D01*
X168789822Y-121908634D01*
X168801337Y-121884619D01*
X168790580Y-121857635D01*
X168772114Y-121836543D01*
X168728469Y-121810572D01*
X168680446Y-121808624D01*
X168636406Y-121828637D01*
X168604709Y-121868551D01*
X168600549Y-121878848D01*
X168576327Y-121916724D01*
X168540965Y-121944842D01*
X168496343Y-121967917D01*
X168496343Y-121902485D01*
X168498969Y-121862506D01*
X168510230Y-121830997D01*
X168535199Y-121797378D01*
X168559169Y-121771484D01*
X168596441Y-121734817D01*
X168625401Y-121715121D01*
X168656505Y-121707220D01*
X168691713Y-121705914D01*
X168768876Y-121717335D01*
G37*
X168768876Y-121717335D02*
X168810667Y-121736344D01*
X168843469Y-121759378D01*
X168867503Y-121785133D01*
X168884097Y-121818358D01*
X168894577Y-121863800D01*
X168900271Y-121926207D01*
X168902507Y-122010327D01*
X168902743Y-122065721D01*
X168902743Y-122281826D01*
X168865774Y-122298670D01*
X168836656Y-122310981D01*
X168822231Y-122315514D01*
X168819472Y-122302025D01*
X168817282Y-122265653D01*
X168815942Y-122212542D01*
X168815657Y-122170372D01*
X168814434Y-122109447D01*
X168811136Y-122061115D01*
X168806321Y-122031518D01*
X168802496Y-122025229D01*
X168776783Y-122031652D01*
X168736418Y-122048125D01*
X168689679Y-122070458D01*
X168644845Y-122094457D01*
X168610193Y-122115930D01*
X168594002Y-122130685D01*
X168593938Y-122130845D01*
X168595330Y-122158152D01*
X168607818Y-122184219D01*
X168629743Y-122205392D01*
X168661743Y-122212474D01*
X168689092Y-122211649D01*
X168727826Y-122211042D01*
X168748158Y-122220116D01*
X168760369Y-122244092D01*
X168761909Y-122248613D01*
X168767203Y-122282806D01*
X168753047Y-122303568D01*
X168716148Y-122313462D01*
X168676289Y-122315292D01*
X168604562Y-122301727D01*
X168567432Y-122282355D01*
X168521576Y-122236845D01*
X168497256Y-122180983D01*
X168495073Y-122121957D01*
X168515629Y-122066953D01*
X168546549Y-122032486D01*
X168577420Y-122013189D01*
X168625942Y-121988759D01*
X168682485Y-121963985D01*
X168691910Y-121960199D01*
X168754019Y-121932791D01*
X168789822Y-121908634D01*
X168801337Y-121884619D01*
X168790580Y-121857635D01*
X168772114Y-121836543D01*
X168728469Y-121810572D01*
X168680446Y-121808624D01*
X168636406Y-121828637D01*
X168604709Y-121868551D01*
X168600549Y-121878848D01*
X168576327Y-121916724D01*
X168540965Y-121944842D01*
X168496343Y-121967917D01*
X168496343Y-121902485D01*
X168498969Y-121862506D01*
X168510230Y-121830997D01*
X168535199Y-121797378D01*
X168559169Y-121771484D01*
X168596441Y-121734817D01*
X168625401Y-121715121D01*
X168656505Y-121707220D01*
X168691713Y-121705914D01*
X168768876Y-121717335D01*
G36*
X168403833Y-121719663D02*
G01*
X168406048Y-121757850D01*
X168407784Y-121815886D01*
X168408899Y-121889180D01*
X168409257Y-121966055D01*
X168409257Y-122226196D01*
X168363326Y-122272127D01*
X168331675Y-122300429D01*
X168303890Y-122311893D01*
X168265915Y-122311168D01*
X168250840Y-122309321D01*
X168203726Y-122303948D01*
X168164756Y-122300869D01*
X168155257Y-122300585D01*
X168123233Y-122302445D01*
X168077432Y-122307114D01*
X168059674Y-122309321D01*
X168016057Y-122312735D01*
X167986745Y-122305320D01*
X167957680Y-122282427D01*
X167947188Y-122272127D01*
X167901257Y-122226196D01*
X167901257Y-121739602D01*
X167938226Y-121722758D01*
X167970059Y-121710282D01*
X167988683Y-121705914D01*
X167993458Y-121719718D01*
X167997921Y-121758286D01*
X168001775Y-121817356D01*
X168004722Y-121892663D01*
X168006143Y-121956286D01*
X168010114Y-122206657D01*
X168044759Y-122211556D01*
X168076268Y-122208131D01*
X168091708Y-122197041D01*
X168096023Y-122176308D01*
X168099708Y-122132145D01*
X168102469Y-122070146D01*
X168104012Y-121995909D01*
X168104235Y-121957706D01*
X168104457Y-121737783D01*
X168150166Y-121721849D01*
X168182518Y-121711015D01*
X168200115Y-121705962D01*
X168200623Y-121705914D01*
X168202388Y-121719648D01*
X168204329Y-121757730D01*
X168206282Y-121815482D01*
X168208084Y-121888227D01*
X168209343Y-121956286D01*
X168213314Y-122206657D01*
X168300400Y-122206657D01*
X168304396Y-121978240D01*
X168308392Y-121749822D01*
X168350847Y-121727868D01*
X168382192Y-121712793D01*
X168400744Y-121705951D01*
X168401279Y-121705914D01*
X168403833Y-121719663D01*
G37*
X168403833Y-121719663D02*
X168406048Y-121757850D01*
X168407784Y-121815886D01*
X168408899Y-121889180D01*
X168409257Y-121966055D01*
X168409257Y-122226196D01*
X168363326Y-122272127D01*
X168331675Y-122300429D01*
X168303890Y-122311893D01*
X168265915Y-122311168D01*
X168250840Y-122309321D01*
X168203726Y-122303948D01*
X168164756Y-122300869D01*
X168155257Y-122300585D01*
X168123233Y-122302445D01*
X168077432Y-122307114D01*
X168059674Y-122309321D01*
X168016057Y-122312735D01*
X167986745Y-122305320D01*
X167957680Y-122282427D01*
X167947188Y-122272127D01*
X167901257Y-122226196D01*
X167901257Y-121739602D01*
X167938226Y-121722758D01*
X167970059Y-121710282D01*
X167988683Y-121705914D01*
X167993458Y-121719718D01*
X167997921Y-121758286D01*
X168001775Y-121817356D01*
X168004722Y-121892663D01*
X168006143Y-121956286D01*
X168010114Y-122206657D01*
X168044759Y-122211556D01*
X168076268Y-122208131D01*
X168091708Y-122197041D01*
X168096023Y-122176308D01*
X168099708Y-122132145D01*
X168102469Y-122070146D01*
X168104012Y-121995909D01*
X168104235Y-121957706D01*
X168104457Y-121737783D01*
X168150166Y-121721849D01*
X168182518Y-121711015D01*
X168200115Y-121705962D01*
X168200623Y-121705914D01*
X168202388Y-121719648D01*
X168204329Y-121757730D01*
X168206282Y-121815482D01*
X168208084Y-121888227D01*
X168209343Y-121956286D01*
X168213314Y-122206657D01*
X168300400Y-122206657D01*
X168304396Y-121978240D01*
X168308392Y-121749822D01*
X168350847Y-121727868D01*
X168382192Y-121712793D01*
X168400744Y-121705951D01*
X168401279Y-121705914D01*
X168403833Y-121719663D01*
G36*
X167814117Y-121826358D02*
G01*
X167813933Y-121934837D01*
X167813219Y-122018287D01*
X167811675Y-122080704D01*
X167809001Y-122126085D01*
X167804894Y-122158429D01*
X167799055Y-122181733D01*
X167791182Y-122199995D01*
X167785221Y-122210418D01*
X167735855Y-122266945D01*
X167673264Y-122302377D01*
X167604013Y-122315090D01*
X167534668Y-122303463D01*
X167493375Y-122282568D01*
X167450025Y-122246422D01*
X167420481Y-122202276D01*
X167402655Y-122144462D01*
X167394463Y-122067313D01*
X167393302Y-122010714D01*
X167393458Y-122006647D01*
X167494857Y-122006647D01*
X167495476Y-122071550D01*
X167498314Y-122114514D01*
X167504840Y-122142622D01*
X167516523Y-122162953D01*
X167530483Y-122178288D01*
X167577365Y-122207890D01*
X167627701Y-122210419D01*
X167675276Y-122185705D01*
X167678979Y-122182356D01*
X167694783Y-122164935D01*
X167704693Y-122144209D01*
X167710058Y-122113362D01*
X167712228Y-122065577D01*
X167712571Y-122012748D01*
X167711827Y-121946381D01*
X167708748Y-121902106D01*
X167702061Y-121873009D01*
X167690496Y-121852173D01*
X167681013Y-121841107D01*
X167636960Y-121813198D01*
X167586224Y-121809843D01*
X167537796Y-121831159D01*
X167528450Y-121839073D01*
X167512540Y-121856647D01*
X167502610Y-121877587D01*
X167497278Y-121908782D01*
X167495163Y-121957122D01*
X167494857Y-122006647D01*
X167393458Y-122006647D01*
X167396810Y-121919568D01*
X167408726Y-121851086D01*
X167431135Y-121799600D01*
X167466124Y-121759443D01*
X167493375Y-121738861D01*
X167542907Y-121716625D01*
X167600316Y-121706304D01*
X167653682Y-121709067D01*
X167683543Y-121720212D01*
X167695261Y-121723383D01*
X167703037Y-121711557D01*
X167708465Y-121679866D01*
X167712571Y-121631593D01*
X167717067Y-121577829D01*
X167723313Y-121545482D01*
X167734676Y-121526985D01*
X167754528Y-121514770D01*
X167767000Y-121509362D01*
X167814171Y-121489601D01*
X167814117Y-121826358D01*
G37*
X167814117Y-121826358D02*
X167813933Y-121934837D01*
X167813219Y-122018287D01*
X167811675Y-122080704D01*
X167809001Y-122126085D01*
X167804894Y-122158429D01*
X167799055Y-122181733D01*
X167791182Y-122199995D01*
X167785221Y-122210418D01*
X167735855Y-122266945D01*
X167673264Y-122302377D01*
X167604013Y-122315090D01*
X167534668Y-122303463D01*
X167493375Y-122282568D01*
X167450025Y-122246422D01*
X167420481Y-122202276D01*
X167402655Y-122144462D01*
X167394463Y-122067313D01*
X167393302Y-122010714D01*
X167393458Y-122006647D01*
X167494857Y-122006647D01*
X167495476Y-122071550D01*
X167498314Y-122114514D01*
X167504840Y-122142622D01*
X167516523Y-122162953D01*
X167530483Y-122178288D01*
X167577365Y-122207890D01*
X167627701Y-122210419D01*
X167675276Y-122185705D01*
X167678979Y-122182356D01*
X167694783Y-122164935D01*
X167704693Y-122144209D01*
X167710058Y-122113362D01*
X167712228Y-122065577D01*
X167712571Y-122012748D01*
X167711827Y-121946381D01*
X167708748Y-121902106D01*
X167702061Y-121873009D01*
X167690496Y-121852173D01*
X167681013Y-121841107D01*
X167636960Y-121813198D01*
X167586224Y-121809843D01*
X167537796Y-121831159D01*
X167528450Y-121839073D01*
X167512540Y-121856647D01*
X167502610Y-121877587D01*
X167497278Y-121908782D01*
X167495163Y-121957122D01*
X167494857Y-122006647D01*
X167393458Y-122006647D01*
X167396810Y-121919568D01*
X167408726Y-121851086D01*
X167431135Y-121799600D01*
X167466124Y-121759443D01*
X167493375Y-121738861D01*
X167542907Y-121716625D01*
X167600316Y-121706304D01*
X167653682Y-121709067D01*
X167683543Y-121720212D01*
X167695261Y-121723383D01*
X167703037Y-121711557D01*
X167708465Y-121679866D01*
X167712571Y-121631593D01*
X167717067Y-121577829D01*
X167723313Y-121545482D01*
X167734676Y-121526985D01*
X167754528Y-121514770D01*
X167767000Y-121509362D01*
X167814171Y-121489601D01*
X167814117Y-121826358D01*
G36*
X167153926Y-121710755D02*
G01*
X167219858Y-121735084D01*
X167273273Y-121778117D01*
X167294164Y-121808409D01*
X167316939Y-121863994D01*
X167316466Y-121904186D01*
X167292562Y-121931217D01*
X167283717Y-121935813D01*
X167245530Y-121950144D01*
X167226028Y-121946472D01*
X167219422Y-121922407D01*
X167219086Y-121909114D01*
X167206992Y-121860210D01*
X167175471Y-121825999D01*
X167131659Y-121809476D01*
X167082695Y-121813634D01*
X167042894Y-121835227D01*
X167029450Y-121847544D01*
X167019921Y-121862487D01*
X167013485Y-121885075D01*
X167009317Y-121920328D01*
X167006597Y-121973266D01*
X167004502Y-122048907D01*
X167003960Y-122072857D01*
X167001981Y-122154790D01*
X166999731Y-122212455D01*
X166996357Y-122250608D01*
X166991006Y-122274004D01*
X166982824Y-122287398D01*
X166970959Y-122295545D01*
X166963362Y-122299144D01*
X166931102Y-122311452D01*
X166912111Y-122315514D01*
X166905836Y-122301948D01*
X166902006Y-122260934D01*
X166900600Y-122191999D01*
X166901598Y-122094669D01*
X166901908Y-122079657D01*
X166904101Y-121990859D01*
X166906693Y-121926019D01*
X166910382Y-121880067D01*
X166915864Y-121847935D01*
X166923835Y-121824553D01*
X166934993Y-121804852D01*
X166940830Y-121796410D01*
X166974296Y-121759057D01*
X167011727Y-121730003D01*
X167016309Y-121727467D01*
X167083426Y-121707443D01*
X167153926Y-121710755D01*
G37*
X167153926Y-121710755D02*
X167219858Y-121735084D01*
X167273273Y-121778117D01*
X167294164Y-121808409D01*
X167316939Y-121863994D01*
X167316466Y-121904186D01*
X167292562Y-121931217D01*
X167283717Y-121935813D01*
X167245530Y-121950144D01*
X167226028Y-121946472D01*
X167219422Y-121922407D01*
X167219086Y-121909114D01*
X167206992Y-121860210D01*
X167175471Y-121825999D01*
X167131659Y-121809476D01*
X167082695Y-121813634D01*
X167042894Y-121835227D01*
X167029450Y-121847544D01*
X167019921Y-121862487D01*
X167013485Y-121885075D01*
X167009317Y-121920328D01*
X167006597Y-121973266D01*
X167004502Y-122048907D01*
X167003960Y-122072857D01*
X167001981Y-122154790D01*
X166999731Y-122212455D01*
X166996357Y-122250608D01*
X166991006Y-122274004D01*
X166982824Y-122287398D01*
X166970959Y-122295545D01*
X166963362Y-122299144D01*
X166931102Y-122311452D01*
X166912111Y-122315514D01*
X166905836Y-122301948D01*
X166902006Y-122260934D01*
X166900600Y-122191999D01*
X166901598Y-122094669D01*
X166901908Y-122079657D01*
X166904101Y-121990859D01*
X166906693Y-121926019D01*
X166910382Y-121880067D01*
X166915864Y-121847935D01*
X166923835Y-121824553D01*
X166934993Y-121804852D01*
X166940830Y-121796410D01*
X166974296Y-121759057D01*
X167011727Y-121730003D01*
X167016309Y-121727467D01*
X167083426Y-121707443D01*
X167153926Y-121710755D01*
G36*
X166663744Y-121711968D02*
G01*
X166720616Y-121733087D01*
X166721267Y-121733493D01*
X166756440Y-121759380D01*
X166782407Y-121789633D01*
X166800670Y-121829058D01*
X166812732Y-121882462D01*
X166820096Y-121954651D01*
X166824264Y-122050432D01*
X166824629Y-122064078D01*
X166829876Y-122269842D01*
X166785716Y-122292678D01*
X166753763Y-122308110D01*
X166734470Y-122315423D01*
X166733578Y-122315514D01*
X166730239Y-122302022D01*
X166727587Y-122265626D01*
X166725956Y-122212452D01*
X166725600Y-122169393D01*
X166725592Y-122099641D01*
X166722403Y-122055837D01*
X166711288Y-122034944D01*
X166687501Y-122033925D01*
X166646296Y-122049741D01*
X166584086Y-122078815D01*
X166538341Y-122102963D01*
X166514813Y-122123913D01*
X166507896Y-122146747D01*
X166507886Y-122147877D01*
X166519299Y-122187212D01*
X166553092Y-122208462D01*
X166604809Y-122211539D01*
X166642061Y-122211006D01*
X166661703Y-122221735D01*
X166673952Y-122247505D01*
X166681002Y-122280337D01*
X166670842Y-122298966D01*
X166667017Y-122301632D01*
X166631001Y-122312340D01*
X166580566Y-122313856D01*
X166528626Y-122306759D01*
X166491822Y-122293788D01*
X166440938Y-122250585D01*
X166412014Y-122190446D01*
X166406286Y-122143462D01*
X166410657Y-122101082D01*
X166426475Y-122066488D01*
X166457797Y-122035763D01*
X166508678Y-122004990D01*
X166583176Y-121970252D01*
X166587714Y-121968288D01*
X166654821Y-121937287D01*
X166696232Y-121911862D01*
X166713981Y-121889014D01*
X166710107Y-121865745D01*
X166686643Y-121839056D01*
X166679627Y-121832914D01*
X166632630Y-121809100D01*
X166583933Y-121810103D01*
X166541522Y-121833451D01*
X166513384Y-121876675D01*
X166510769Y-121885160D01*
X166485308Y-121926308D01*
X166453001Y-121946128D01*
X166406286Y-121965770D01*
X166406286Y-121914950D01*
X166420496Y-121841082D01*
X166462675Y-121773327D01*
X166484624Y-121750661D01*
X166534517Y-121721569D01*
X166597967Y-121708400D01*
X166663744Y-121711968D01*
G37*
X166663744Y-121711968D02*
X166720616Y-121733087D01*
X166721267Y-121733493D01*
X166756440Y-121759380D01*
X166782407Y-121789633D01*
X166800670Y-121829058D01*
X166812732Y-121882462D01*
X166820096Y-121954651D01*
X166824264Y-122050432D01*
X166824629Y-122064078D01*
X166829876Y-122269842D01*
X166785716Y-122292678D01*
X166753763Y-122308110D01*
X166734470Y-122315423D01*
X166733578Y-122315514D01*
X166730239Y-122302022D01*
X166727587Y-122265626D01*
X166725956Y-122212452D01*
X166725600Y-122169393D01*
X166725592Y-122099641D01*
X166722403Y-122055837D01*
X166711288Y-122034944D01*
X166687501Y-122033925D01*
X166646296Y-122049741D01*
X166584086Y-122078815D01*
X166538341Y-122102963D01*
X166514813Y-122123913D01*
X166507896Y-122146747D01*
X166507886Y-122147877D01*
X166519299Y-122187212D01*
X166553092Y-122208462D01*
X166604809Y-122211539D01*
X166642061Y-122211006D01*
X166661703Y-122221735D01*
X166673952Y-122247505D01*
X166681002Y-122280337D01*
X166670842Y-122298966D01*
X166667017Y-122301632D01*
X166631001Y-122312340D01*
X166580566Y-122313856D01*
X166528626Y-122306759D01*
X166491822Y-122293788D01*
X166440938Y-122250585D01*
X166412014Y-122190446D01*
X166406286Y-122143462D01*
X166410657Y-122101082D01*
X166426475Y-122066488D01*
X166457797Y-122035763D01*
X166508678Y-122004990D01*
X166583176Y-121970252D01*
X166587714Y-121968288D01*
X166654821Y-121937287D01*
X166696232Y-121911862D01*
X166713981Y-121889014D01*
X166710107Y-121865745D01*
X166686643Y-121839056D01*
X166679627Y-121832914D01*
X166632630Y-121809100D01*
X166583933Y-121810103D01*
X166541522Y-121833451D01*
X166513384Y-121876675D01*
X166510769Y-121885160D01*
X166485308Y-121926308D01*
X166453001Y-121946128D01*
X166406286Y-121965770D01*
X166406286Y-121914950D01*
X166420496Y-121841082D01*
X166462675Y-121773327D01*
X166484624Y-121750661D01*
X166534517Y-121721569D01*
X166597967Y-121708400D01*
X166663744Y-121711968D01*
G36*
X165999886Y-121612289D02*
G01*
X166004139Y-121671613D01*
X166009025Y-121706572D01*
X166015795Y-121721820D01*
X166025702Y-121722015D01*
X166028914Y-121720195D01*
X166071644Y-121707015D01*
X166127227Y-121707785D01*
X166183737Y-121721333D01*
X166219082Y-121738861D01*
X166255321Y-121766861D01*
X166281813Y-121798549D01*
X166299999Y-121838813D01*
X166311322Y-121892543D01*
X166317222Y-121964626D01*
X166319143Y-122059951D01*
X166319177Y-122078237D01*
X166319200Y-122283646D01*
X166273491Y-122299580D01*
X166241027Y-122310420D01*
X166223215Y-122315468D01*
X166222691Y-122315514D01*
X166220937Y-122301828D01*
X166219444Y-122264076D01*
X166218326Y-122207224D01*
X166217697Y-122136234D01*
X166217600Y-122093073D01*
X166217398Y-122007973D01*
X166216358Y-121946981D01*
X166213831Y-121905177D01*
X166209164Y-121877642D01*
X166201707Y-121859456D01*
X166190811Y-121845698D01*
X166184007Y-121839073D01*
X166137272Y-121812375D01*
X166086272Y-121810375D01*
X166040001Y-121832955D01*
X166031444Y-121841107D01*
X166018893Y-121856436D01*
X166010188Y-121874618D01*
X166004631Y-121900909D01*
X166001526Y-121940562D01*
X166000176Y-121998832D01*
X165999886Y-122079173D01*
X165999886Y-122283646D01*
X165954177Y-122299580D01*
X165921713Y-122310420D01*
X165903901Y-122315468D01*
X165903377Y-122315514D01*
X165902037Y-122301623D01*
X165900828Y-122262439D01*
X165899801Y-122201700D01*
X165899002Y-122123141D01*
X165898481Y-122030498D01*
X165898286Y-121927509D01*
X165898286Y-121530342D01*
X165945457Y-121510444D01*
X165992629Y-121490547D01*
X165999886Y-121612289D01*
G37*
X165999886Y-121612289D02*
X166004139Y-121671613D01*
X166009025Y-121706572D01*
X166015795Y-121721820D01*
X166025702Y-121722015D01*
X166028914Y-121720195D01*
X166071644Y-121707015D01*
X166127227Y-121707785D01*
X166183737Y-121721333D01*
X166219082Y-121738861D01*
X166255321Y-121766861D01*
X166281813Y-121798549D01*
X166299999Y-121838813D01*
X166311322Y-121892543D01*
X166317222Y-121964626D01*
X166319143Y-122059951D01*
X166319177Y-122078237D01*
X166319200Y-122283646D01*
X166273491Y-122299580D01*
X166241027Y-122310420D01*
X166223215Y-122315468D01*
X166222691Y-122315514D01*
X166220937Y-122301828D01*
X166219444Y-122264076D01*
X166218326Y-122207224D01*
X166217697Y-122136234D01*
X166217600Y-122093073D01*
X166217398Y-122007973D01*
X166216358Y-121946981D01*
X166213831Y-121905177D01*
X166209164Y-121877642D01*
X166201707Y-121859456D01*
X166190811Y-121845698D01*
X166184007Y-121839073D01*
X166137272Y-121812375D01*
X166086272Y-121810375D01*
X166040001Y-121832955D01*
X166031444Y-121841107D01*
X166018893Y-121856436D01*
X166010188Y-121874618D01*
X166004631Y-121900909D01*
X166001526Y-121940562D01*
X166000176Y-121998832D01*
X165999886Y-122079173D01*
X165999886Y-122283646D01*
X165954177Y-122299580D01*
X165921713Y-122310420D01*
X165903901Y-122315468D01*
X165903377Y-122315514D01*
X165902037Y-122301623D01*
X165900828Y-122262439D01*
X165899801Y-122201700D01*
X165899002Y-122123141D01*
X165898481Y-122030498D01*
X165898286Y-121927509D01*
X165898286Y-121530342D01*
X165945457Y-121510444D01*
X165992629Y-121490547D01*
X165999886Y-121612289D01*
G36*
X164792303Y-121692239D02*
G01*
X164849527Y-121730735D01*
X164893749Y-121786335D01*
X164920167Y-121857086D01*
X164925510Y-121909162D01*
X164924903Y-121930893D01*
X164919822Y-121947531D01*
X164905855Y-121962437D01*
X164878589Y-121978973D01*
X164833612Y-122000498D01*
X164766511Y-122030374D01*
X164766171Y-122030524D01*
X164704407Y-122058813D01*
X164653759Y-122083933D01*
X164619404Y-122103179D01*
X164606518Y-122113848D01*
X164606514Y-122113934D01*
X164617872Y-122137166D01*
X164644431Y-122162774D01*
X164674923Y-122181221D01*
X164690370Y-122184886D01*
X164732515Y-122172212D01*
X164768808Y-122140471D01*
X164786517Y-122105572D01*
X164803552Y-122079845D01*
X164836922Y-122050546D01*
X164876149Y-122025235D01*
X164910756Y-122011471D01*
X164917993Y-122010714D01*
X164926139Y-122023160D01*
X164926630Y-122054972D01*
X164920643Y-122097866D01*
X164909357Y-122143558D01*
X164893950Y-122183761D01*
X164893171Y-122185322D01*
X164846804Y-122250062D01*
X164786711Y-122294097D01*
X164718465Y-122315711D01*
X164647638Y-122313185D01*
X164579804Y-122284804D01*
X164576788Y-122282808D01*
X164523427Y-122234448D01*
X164488340Y-122171352D01*
X164468922Y-122088387D01*
X164466316Y-122065078D01*
X164461701Y-121955055D01*
X164467233Y-121903748D01*
X164606514Y-121903748D01*
X164608324Y-121935753D01*
X164618222Y-121945093D01*
X164642898Y-121938105D01*
X164681795Y-121921587D01*
X164725275Y-121900881D01*
X164726356Y-121900333D01*
X164763209Y-121880949D01*
X164778000Y-121868013D01*
X164774353Y-121854451D01*
X164758995Y-121836632D01*
X164719923Y-121810845D01*
X164677846Y-121808950D01*
X164640103Y-121827717D01*
X164614034Y-121863915D01*
X164606514Y-121903748D01*
X164467233Y-121903748D01*
X164471194Y-121867027D01*
X164495550Y-121797212D01*
X164529456Y-121748302D01*
X164590653Y-121698878D01*
X164658063Y-121674359D01*
X164726880Y-121672797D01*
X164792303Y-121692239D01*
G37*
X164792303Y-121692239D02*
X164849527Y-121730735D01*
X164893749Y-121786335D01*
X164920167Y-121857086D01*
X164925510Y-121909162D01*
X164924903Y-121930893D01*
X164919822Y-121947531D01*
X164905855Y-121962437D01*
X164878589Y-121978973D01*
X164833612Y-122000498D01*
X164766511Y-122030374D01*
X164766171Y-122030524D01*
X164704407Y-122058813D01*
X164653759Y-122083933D01*
X164619404Y-122103179D01*
X164606518Y-122113848D01*
X164606514Y-122113934D01*
X164617872Y-122137166D01*
X164644431Y-122162774D01*
X164674923Y-122181221D01*
X164690370Y-122184886D01*
X164732515Y-122172212D01*
X164768808Y-122140471D01*
X164786517Y-122105572D01*
X164803552Y-122079845D01*
X164836922Y-122050546D01*
X164876149Y-122025235D01*
X164910756Y-122011471D01*
X164917993Y-122010714D01*
X164926139Y-122023160D01*
X164926630Y-122054972D01*
X164920643Y-122097866D01*
X164909357Y-122143558D01*
X164893950Y-122183761D01*
X164893171Y-122185322D01*
X164846804Y-122250062D01*
X164786711Y-122294097D01*
X164718465Y-122315711D01*
X164647638Y-122313185D01*
X164579804Y-122284804D01*
X164576788Y-122282808D01*
X164523427Y-122234448D01*
X164488340Y-122171352D01*
X164468922Y-122088387D01*
X164466316Y-122065078D01*
X164461701Y-121955055D01*
X164467233Y-121903748D01*
X164606514Y-121903748D01*
X164608324Y-121935753D01*
X164618222Y-121945093D01*
X164642898Y-121938105D01*
X164681795Y-121921587D01*
X164725275Y-121900881D01*
X164726356Y-121900333D01*
X164763209Y-121880949D01*
X164778000Y-121868013D01*
X164774353Y-121854451D01*
X164758995Y-121836632D01*
X164719923Y-121810845D01*
X164677846Y-121808950D01*
X164640103Y-121827717D01*
X164614034Y-121863915D01*
X164606514Y-121903748D01*
X164467233Y-121903748D01*
X164471194Y-121867027D01*
X164495550Y-121797212D01*
X164529456Y-121748302D01*
X164590653Y-121698878D01*
X164658063Y-121674359D01*
X164726880Y-121672797D01*
X164792303Y-121692239D01*
G36*
X163665115Y-121682962D02*
G01*
X163733145Y-121718733D01*
X163783351Y-121776301D01*
X163801185Y-121813312D01*
X163815063Y-121868882D01*
X163822167Y-121939096D01*
X163822840Y-122015727D01*
X163817427Y-122090552D01*
X163806270Y-122155342D01*
X163789714Y-122201873D01*
X163784626Y-122209887D01*
X163724355Y-122269707D01*
X163652769Y-122305535D01*
X163575092Y-122316020D01*
X163496548Y-122299810D01*
X163474689Y-122290092D01*
X163432122Y-122260143D01*
X163394763Y-122220433D01*
X163391232Y-122215397D01*
X163376881Y-122191124D01*
X163367394Y-122165178D01*
X163361790Y-122131022D01*
X163359086Y-122082119D01*
X163358299Y-122011935D01*
X163358286Y-121996200D01*
X163358322Y-121991192D01*
X163503429Y-121991192D01*
X163504273Y-122057430D01*
X163507596Y-122101386D01*
X163514583Y-122129779D01*
X163526416Y-122149325D01*
X163532457Y-122155857D01*
X163567186Y-122180680D01*
X163600903Y-122179548D01*
X163634995Y-122158016D01*
X163655329Y-122135029D01*
X163667371Y-122101478D01*
X163674134Y-122048569D01*
X163674598Y-122042399D01*
X163675752Y-121946513D01*
X163663688Y-121875299D01*
X163638570Y-121829194D01*
X163600560Y-121808635D01*
X163586992Y-121807514D01*
X163551364Y-121813152D01*
X163526994Y-121832686D01*
X163512093Y-121870042D01*
X163504875Y-121929150D01*
X163503429Y-121991192D01*
X163358322Y-121991192D01*
X163358826Y-121921413D01*
X163361096Y-121869159D01*
X163366068Y-121832949D01*
X163374713Y-121806299D01*
X163388005Y-121782722D01*
X163390943Y-121778338D01*
X163440313Y-121719249D01*
X163494109Y-121684947D01*
X163559602Y-121671331D01*
X163581842Y-121670665D01*
X163665115Y-121682962D01*
G37*
X163665115Y-121682962D02*
X163733145Y-121718733D01*
X163783351Y-121776301D01*
X163801185Y-121813312D01*
X163815063Y-121868882D01*
X163822167Y-121939096D01*
X163822840Y-122015727D01*
X163817427Y-122090552D01*
X163806270Y-122155342D01*
X163789714Y-122201873D01*
X163784626Y-122209887D01*
X163724355Y-122269707D01*
X163652769Y-122305535D01*
X163575092Y-122316020D01*
X163496548Y-122299810D01*
X163474689Y-122290092D01*
X163432122Y-122260143D01*
X163394763Y-122220433D01*
X163391232Y-122215397D01*
X163376881Y-122191124D01*
X163367394Y-122165178D01*
X163361790Y-122131022D01*
X163359086Y-122082119D01*
X163358299Y-122011935D01*
X163358286Y-121996200D01*
X163358322Y-121991192D01*
X163503429Y-121991192D01*
X163504273Y-122057430D01*
X163507596Y-122101386D01*
X163514583Y-122129779D01*
X163526416Y-122149325D01*
X163532457Y-122155857D01*
X163567186Y-122180680D01*
X163600903Y-122179548D01*
X163634995Y-122158016D01*
X163655329Y-122135029D01*
X163667371Y-122101478D01*
X163674134Y-122048569D01*
X163674598Y-122042399D01*
X163675752Y-121946513D01*
X163663688Y-121875299D01*
X163638570Y-121829194D01*
X163600560Y-121808635D01*
X163586992Y-121807514D01*
X163551364Y-121813152D01*
X163526994Y-121832686D01*
X163512093Y-121870042D01*
X163504875Y-121929150D01*
X163503429Y-121991192D01*
X163358322Y-121991192D01*
X163358826Y-121921413D01*
X163361096Y-121869159D01*
X163366068Y-121832949D01*
X163374713Y-121806299D01*
X163388005Y-121782722D01*
X163390943Y-121778338D01*
X163440313Y-121719249D01*
X163494109Y-121684947D01*
X163559602Y-121671331D01*
X163581842Y-121670665D01*
X163665115Y-121682962D01*
G36*
X165340093Y-121688780D02*
G01*
X165386672Y-121715723D01*
X165419057Y-121742466D01*
X165442742Y-121770484D01*
X165459059Y-121804748D01*
X165469339Y-121850227D01*
X165474914Y-121911892D01*
X165477116Y-121994711D01*
X165477371Y-122054246D01*
X165477371Y-122273391D01*
X165415686Y-122301044D01*
X165354000Y-122328697D01*
X165346743Y-122088670D01*
X165343744Y-121999028D01*
X165340598Y-121933962D01*
X165336701Y-121889026D01*
X165331447Y-121859770D01*
X165324231Y-121841748D01*
X165314450Y-121830511D01*
X165311312Y-121828079D01*
X165263761Y-121809083D01*
X165215697Y-121816600D01*
X165187086Y-121836543D01*
X165175447Y-121850675D01*
X165167391Y-121869220D01*
X165162271Y-121897334D01*
X165159441Y-121940173D01*
X165158256Y-122002895D01*
X165158057Y-122068261D01*
X165158018Y-122150268D01*
X165156614Y-122208316D01*
X165151914Y-122247465D01*
X165141987Y-122272780D01*
X165124903Y-122289323D01*
X165098732Y-122302156D01*
X165063775Y-122315491D01*
X165025596Y-122330007D01*
X165030141Y-122072389D01*
X165031971Y-121979519D01*
X165034112Y-121910889D01*
X165037181Y-121861711D01*
X165041794Y-121827198D01*
X165048568Y-121802562D01*
X165058119Y-121783016D01*
X165069634Y-121765770D01*
X165125190Y-121710680D01*
X165192980Y-121678822D01*
X165266713Y-121671191D01*
X165340093Y-121688780D01*
G37*
X165340093Y-121688780D02*
X165386672Y-121715723D01*
X165419057Y-121742466D01*
X165442742Y-121770484D01*
X165459059Y-121804748D01*
X165469339Y-121850227D01*
X165474914Y-121911892D01*
X165477116Y-121994711D01*
X165477371Y-122054246D01*
X165477371Y-122273391D01*
X165415686Y-122301044D01*
X165354000Y-122328697D01*
X165346743Y-122088670D01*
X165343744Y-121999028D01*
X165340598Y-121933962D01*
X165336701Y-121889026D01*
X165331447Y-121859770D01*
X165324231Y-121841748D01*
X165314450Y-121830511D01*
X165311312Y-121828079D01*
X165263761Y-121809083D01*
X165215697Y-121816600D01*
X165187086Y-121836543D01*
X165175447Y-121850675D01*
X165167391Y-121869220D01*
X165162271Y-121897334D01*
X165159441Y-121940173D01*
X165158256Y-122002895D01*
X165158057Y-122068261D01*
X165158018Y-122150268D01*
X165156614Y-122208316D01*
X165151914Y-122247465D01*
X165141987Y-122272780D01*
X165124903Y-122289323D01*
X165098732Y-122302156D01*
X165063775Y-122315491D01*
X165025596Y-122330007D01*
X165030141Y-122072389D01*
X165031971Y-121979519D01*
X165034112Y-121910889D01*
X165037181Y-121861711D01*
X165041794Y-121827198D01*
X165048568Y-121802562D01*
X165058119Y-121783016D01*
X165069634Y-121765770D01*
X165125190Y-121710680D01*
X165192980Y-121678822D01*
X165266713Y-121671191D01*
X165340093Y-121688780D01*
G36*
X164223744Y-121680918D02*
G01*
X164279201Y-121708568D01*
X164328148Y-121759480D01*
X164341629Y-121778338D01*
X164356314Y-121803015D01*
X164365842Y-121829816D01*
X164371293Y-121865587D01*
X164373747Y-121917169D01*
X164374286Y-121985267D01*
X164371852Y-122078588D01*
X164363394Y-122148657D01*
X164347174Y-122200931D01*
X164321454Y-122240869D01*
X164284497Y-122273929D01*
X164281782Y-122275886D01*
X164245360Y-122295908D01*
X164201502Y-122305815D01*
X164145724Y-122308257D01*
X164055048Y-122308257D01*
X164055010Y-122396283D01*
X164054166Y-122445308D01*
X164049024Y-122474065D01*
X164035587Y-122491311D01*
X164009858Y-122505808D01*
X164003679Y-122508769D01*
X163974764Y-122522648D01*
X163952376Y-122531414D01*
X163935729Y-122532171D01*
X163924036Y-122522023D01*
X163916510Y-122498073D01*
X163912366Y-122457426D01*
X163910815Y-122397186D01*
X163911071Y-122314455D01*
X163912349Y-122206339D01*
X163912748Y-122174000D01*
X163914185Y-122062524D01*
X163915472Y-121989603D01*
X164054971Y-121989603D01*
X164055755Y-122051499D01*
X164059240Y-122091997D01*
X164067124Y-122118708D01*
X164081105Y-122139244D01*
X164090597Y-122149260D01*
X164129404Y-122178567D01*
X164163763Y-122180952D01*
X164199216Y-122156750D01*
X164200114Y-122155857D01*
X164214539Y-122137153D01*
X164223313Y-122111732D01*
X164227739Y-122072584D01*
X164229118Y-122012697D01*
X164229143Y-121999430D01*
X164225812Y-121916901D01*
X164214969Y-121859691D01*
X164195340Y-121824766D01*
X164165650Y-121809094D01*
X164148491Y-121807514D01*
X164107766Y-121814926D01*
X164079832Y-121839330D01*
X164063017Y-121883980D01*
X164055650Y-121952130D01*
X164054971Y-121989603D01*
X163915472Y-121989603D01*
X163915708Y-121976245D01*
X163917677Y-121911333D01*
X163920450Y-121863958D01*
X163924388Y-121830290D01*
X163929849Y-121806498D01*
X163937192Y-121788753D01*
X163946777Y-121773224D01*
X163950887Y-121767381D01*
X164005405Y-121712185D01*
X164074336Y-121680890D01*
X164154072Y-121672165D01*
X164223744Y-121680918D01*
G37*
X164223744Y-121680918D02*
X164279201Y-121708568D01*
X164328148Y-121759480D01*
X164341629Y-121778338D01*
X164356314Y-121803015D01*
X164365842Y-121829816D01*
X164371293Y-121865587D01*
X164373747Y-121917169D01*
X164374286Y-121985267D01*
X164371852Y-122078588D01*
X164363394Y-122148657D01*
X164347174Y-122200931D01*
X164321454Y-122240869D01*
X164284497Y-122273929D01*
X164281782Y-122275886D01*
X164245360Y-122295908D01*
X164201502Y-122305815D01*
X164145724Y-122308257D01*
X164055048Y-122308257D01*
X164055010Y-122396283D01*
X164054166Y-122445308D01*
X164049024Y-122474065D01*
X164035587Y-122491311D01*
X164009858Y-122505808D01*
X164003679Y-122508769D01*
X163974764Y-122522648D01*
X163952376Y-122531414D01*
X163935729Y-122532171D01*
X163924036Y-122522023D01*
X163916510Y-122498073D01*
X163912366Y-122457426D01*
X163910815Y-122397186D01*
X163911071Y-122314455D01*
X163912349Y-122206339D01*
X163912748Y-122174000D01*
X163914185Y-122062524D01*
X163915472Y-121989603D01*
X164054971Y-121989603D01*
X164055755Y-122051499D01*
X164059240Y-122091997D01*
X164067124Y-122118708D01*
X164081105Y-122139244D01*
X164090597Y-122149260D01*
X164129404Y-122178567D01*
X164163763Y-122180952D01*
X164199216Y-122156750D01*
X164200114Y-122155857D01*
X164214539Y-122137153D01*
X164223313Y-122111732D01*
X164227739Y-122072584D01*
X164229118Y-122012697D01*
X164229143Y-121999430D01*
X164225812Y-121916901D01*
X164214969Y-121859691D01*
X164195340Y-121824766D01*
X164165650Y-121809094D01*
X164148491Y-121807514D01*
X164107766Y-121814926D01*
X164079832Y-121839330D01*
X164063017Y-121883980D01*
X164055650Y-121952130D01*
X164054971Y-121989603D01*
X163915472Y-121989603D01*
X163915708Y-121976245D01*
X163917677Y-121911333D01*
X163920450Y-121863958D01*
X163924388Y-121830290D01*
X163929849Y-121806498D01*
X163937192Y-121788753D01*
X163946777Y-121773224D01*
X163950887Y-121767381D01*
X164005405Y-121712185D01*
X164074336Y-121680890D01*
X164154072Y-121672165D01*
X164223744Y-121680918D01*
D12*
X153968750Y-110463750D02*
X154756250Y-110463750D01*
X154362500Y-110857500D02*
X154362500Y-110070000D01*
X158555563Y-109830000D02*
X159620000Y-108765563D01*
X153864437Y-109830000D02*
X152800000Y-108765563D01*
X153864437Y-109830000D02*
X155150000Y-109830000D01*
X158555563Y-109830000D02*
X157270000Y-109830000D01*
X159620000Y-108765563D02*
X159620000Y-103010000D01*
X152800000Y-108765563D02*
X152800000Y-103010000D01*
X152800000Y-103010000D02*
X155150000Y-103010000D01*
X159620000Y-103010000D02*
X157270000Y-103010000D01*
X146221750Y-110463750D02*
X147009250Y-110463750D01*
X146615500Y-110857500D02*
X146615500Y-110070000D01*
X150808563Y-109830000D02*
X151873000Y-108765563D01*
X146117437Y-109830000D02*
X145053000Y-108765563D01*
X146117437Y-109830000D02*
X147403000Y-109830000D01*
X150808563Y-109830000D02*
X149523000Y-109830000D01*
X151873000Y-108765563D02*
X151873000Y-103010000D01*
X145053000Y-108765563D02*
X145053000Y-103010000D01*
X145053000Y-103010000D02*
X147403000Y-103010000D01*
X151873000Y-103010000D02*
X149523000Y-103010000D01*
X137235000Y-104848922D02*
X137235000Y-105366078D01*
X135815000Y-104848922D02*
X135815000Y-105366078D01*
X130735000Y-105336078D02*
X130735000Y-104818922D01*
X132155000Y-105336078D02*
X132155000Y-104818922D01*
X171387500Y-110815000D02*
X174072500Y-110815000D01*
X174072500Y-110815000D02*
X174072500Y-108895000D01*
X174072500Y-108895000D02*
X171387500Y-108895000D01*
X168970000Y-101025000D02*
X168970000Y-95825000D01*
X120650000Y-101025000D02*
X168970000Y-101025000D01*
X118050000Y-95825000D02*
X168970000Y-95825000D01*
X120650000Y-101025000D02*
X120650000Y-98425000D01*
X120650000Y-98425000D02*
X118050000Y-98425000D01*
X118050000Y-98425000D02*
X118050000Y-95825000D01*
X119380000Y-101025000D02*
X118050000Y-101025000D01*
X118050000Y-101025000D02*
X118050000Y-99695000D01*
X126865000Y-102785000D02*
X128395000Y-102785000D01*
X119845000Y-103255000D02*
X128865000Y-103255000D01*
D13*
X119915000Y-103255000D02*
X119845000Y-103255000D01*
D12*
X110865000Y-103255000D02*
X117645000Y-103255000D01*
X110865000Y-116455000D02*
X110865000Y-103255000D01*
D13*
X110875000Y-116455000D02*
X110865000Y-116455000D01*
D12*
X110865000Y-116455000D02*
X117645000Y-116455000D01*
D13*
X110985000Y-116455000D02*
X110865000Y-116455000D01*
D12*
X128865000Y-116455000D02*
X119845000Y-116455000D01*
X128865000Y-103255000D02*
X128865000Y-116455000D01*
X134695000Y-104848922D02*
X134695000Y-105366078D01*
X133275000Y-104848922D02*
X133275000Y-105366078D01*
X133205000Y-114290000D02*
X133205000Y-113360000D01*
X133205000Y-111130000D02*
X133205000Y-112060000D01*
X133205000Y-111130000D02*
X131045000Y-111130000D01*
X133205000Y-114290000D02*
X131745000Y-114290000D01*
X134625000Y-109710000D02*
X134625000Y-108250000D01*
X137785000Y-109710000D02*
X137785000Y-107550000D01*
X137785000Y-109710000D02*
X136855000Y-109710000D01*
X134625000Y-109710000D02*
X135555000Y-109710000D01*
X135963922Y-112955000D02*
X136481078Y-112955000D01*
X135963922Y-114375000D02*
X136481078Y-114375000D01*
X139743922Y-107240000D02*
X140261078Y-107240000D01*
X139743922Y-108660000D02*
X140261078Y-108660000D01*
X135963922Y-112470000D02*
X136481078Y-112470000D01*
X135963922Y-111050000D02*
X136481078Y-111050000D01*
X168836078Y-109145000D02*
X168318922Y-109145000D01*
X168836078Y-110565000D02*
X168318922Y-110565000D01*
X132123922Y-107240000D02*
X132641078Y-107240000D01*
X132123922Y-108660000D02*
X132641078Y-108660000D01*
X173417500Y-112705000D02*
X170732500Y-112705000D01*
X170732500Y-112705000D02*
X170732500Y-114625000D01*
X170732500Y-114625000D02*
X173417500Y-114625000D01*
X174102500Y-105085000D02*
X171417500Y-105085000D01*
X174102500Y-107005000D02*
X174102500Y-105085000D01*
X171417500Y-107005000D02*
X174102500Y-107005000D01*
X143820000Y-112000000D02*
X142890000Y-112000000D01*
X140660000Y-112000000D02*
X141590000Y-112000000D01*
X140660000Y-112000000D02*
X140660000Y-114160000D01*
X143820000Y-112000000D02*
X143820000Y-113460000D01*
X168348922Y-112955000D02*
X168866078Y-112955000D01*
X168348922Y-114375000D02*
X168866078Y-114375000D01*
X138355000Y-112438922D02*
X138355000Y-112956078D01*
X139775000Y-112438922D02*
X139775000Y-112956078D01*
X168836078Y-106755000D02*
X168318922Y-106755000D01*
X168836078Y-105335000D02*
X168318922Y-105335000D01*
D14*
X108978866Y-126174380D02*
X108645533Y-125698190D01*
X108407438Y-126174380D02*
X108407438Y-125174380D01*
X108788390Y-125174380D01*
X108883628Y-125222000D01*
X108931247Y-125269619D01*
X108978866Y-125364857D01*
X108978866Y-125507714D01*
X108931247Y-125602952D01*
X108883628Y-125650571D01*
X108788390Y-125698190D01*
X108407438Y-125698190D01*
X109407438Y-125650571D02*
X109740771Y-125650571D01*
X109883628Y-126174380D02*
X109407438Y-126174380D01*
X109407438Y-125174380D01*
X109883628Y-125174380D01*
X110645533Y-125650571D02*
X110312200Y-125650571D01*
X110312200Y-126174380D02*
X110312200Y-125174380D01*
X110788390Y-125174380D01*
X111312200Y-125174380D02*
X111312200Y-125412476D01*
X111074104Y-125317238D02*
X111312200Y-125412476D01*
X111550295Y-125317238D01*
X111169342Y-125602952D02*
X111312200Y-125412476D01*
X111455057Y-125602952D01*
X112074104Y-125174380D02*
X112074104Y-125412476D01*
X111836009Y-125317238D02*
X112074104Y-125412476D01*
X112312200Y-125317238D01*
X111931247Y-125602952D02*
X112074104Y-125412476D01*
X112216961Y-125602952D01*
X153884333Y-102592142D02*
X153836714Y-102639761D01*
X153693857Y-102687380D01*
X153598619Y-102687380D01*
X153455761Y-102639761D01*
X153360523Y-102544523D01*
X153312904Y-102449285D01*
X153265285Y-102258809D01*
X153265285Y-102115952D01*
X153312904Y-101925476D01*
X153360523Y-101830238D01*
X153455761Y-101735000D01*
X153598619Y-101687380D01*
X153693857Y-101687380D01*
X153836714Y-101735000D01*
X153884333Y-101782619D01*
X154265285Y-101782619D02*
X154312904Y-101735000D01*
X154408142Y-101687380D01*
X154646238Y-101687380D01*
X154741476Y-101735000D01*
X154789095Y-101782619D01*
X154836714Y-101877857D01*
X154836714Y-101973095D01*
X154789095Y-102115952D01*
X154217666Y-102687380D01*
X154836714Y-102687380D01*
X146137333Y-102592142D02*
X146089714Y-102639761D01*
X145946857Y-102687380D01*
X145851619Y-102687380D01*
X145708761Y-102639761D01*
X145613523Y-102544523D01*
X145565904Y-102449285D01*
X145518285Y-102258809D01*
X145518285Y-102115952D01*
X145565904Y-101925476D01*
X145613523Y-101830238D01*
X145708761Y-101735000D01*
X145851619Y-101687380D01*
X145946857Y-101687380D01*
X146089714Y-101735000D01*
X146137333Y-101782619D01*
X146994476Y-102020714D02*
X146994476Y-102687380D01*
X146756380Y-101639761D02*
X146518285Y-102354047D01*
X147137333Y-102354047D01*
X136358333Y-102973142D02*
X136310714Y-103020761D01*
X136167857Y-103068380D01*
X136072619Y-103068380D01*
X135929761Y-103020761D01*
X135834523Y-102925523D01*
X135786904Y-102830285D01*
X135739285Y-102639809D01*
X135739285Y-102496952D01*
X135786904Y-102306476D01*
X135834523Y-102211238D01*
X135929761Y-102116000D01*
X136072619Y-102068380D01*
X136167857Y-102068380D01*
X136310714Y-102116000D01*
X136358333Y-102163619D01*
X137310714Y-103068380D02*
X136739285Y-103068380D01*
X137025000Y-103068380D02*
X137025000Y-102068380D01*
X136929761Y-102211238D01*
X136834523Y-102306476D01*
X136739285Y-102354095D01*
X131278333Y-102973142D02*
X131230714Y-103020761D01*
X131087857Y-103068380D01*
X130992619Y-103068380D01*
X130849761Y-103020761D01*
X130754523Y-102925523D01*
X130706904Y-102830285D01*
X130659285Y-102639809D01*
X130659285Y-102496952D01*
X130706904Y-102306476D01*
X130754523Y-102211238D01*
X130849761Y-102116000D01*
X130992619Y-102068380D01*
X131087857Y-102068380D01*
X131230714Y-102116000D01*
X131278333Y-102163619D01*
X131611666Y-102068380D02*
X132230714Y-102068380D01*
X131897380Y-102449333D01*
X132040238Y-102449333D01*
X132135476Y-102496952D01*
X132183095Y-102544571D01*
X132230714Y-102639809D01*
X132230714Y-102877904D01*
X132183095Y-102973142D01*
X132135476Y-103020761D01*
X132040238Y-103068380D01*
X131754523Y-103068380D01*
X131659285Y-103020761D01*
X131611666Y-102973142D01*
X171649404Y-108656380D02*
X171649404Y-107656380D01*
X171887500Y-107656380D01*
X172030357Y-107704000D01*
X172125595Y-107799238D01*
X172173214Y-107894476D01*
X172220833Y-108084952D01*
X172220833Y-108227809D01*
X172173214Y-108418285D01*
X172125595Y-108513523D01*
X172030357Y-108608761D01*
X171887500Y-108656380D01*
X171649404Y-108656380D01*
X173173214Y-108656380D02*
X172601785Y-108656380D01*
X172887500Y-108656380D02*
X172887500Y-107656380D01*
X172792261Y-107799238D01*
X172697023Y-107894476D01*
X172601785Y-107942095D01*
X116502380Y-98758333D02*
X117216666Y-98758333D01*
X117359523Y-98805952D01*
X117454761Y-98901190D01*
X117502380Y-99044047D01*
X117502380Y-99139285D01*
X117502380Y-97758333D02*
X117502380Y-98329761D01*
X117502380Y-98044047D02*
X116502380Y-98044047D01*
X116645238Y-98139285D01*
X116740476Y-98234523D01*
X116788095Y-98329761D01*
X118451380Y-110061333D02*
X119165666Y-110061333D01*
X119308523Y-110108952D01*
X119403761Y-110204190D01*
X119451380Y-110347047D01*
X119451380Y-110442285D01*
X118546619Y-109632761D02*
X118499000Y-109585142D01*
X118451380Y-109489904D01*
X118451380Y-109251809D01*
X118499000Y-109156571D01*
X118546619Y-109108952D01*
X118641857Y-109061333D01*
X118737095Y-109061333D01*
X118879952Y-109108952D01*
X119451380Y-109680380D01*
X119451380Y-109061333D01*
X133818333Y-103068380D02*
X133342142Y-103068380D01*
X133342142Y-102068380D01*
X134675476Y-103068380D02*
X134104047Y-103068380D01*
X134389761Y-103068380D02*
X134389761Y-102068380D01*
X134294523Y-102211238D01*
X134199285Y-102306476D01*
X134104047Y-102354095D01*
X132349761Y-115736619D02*
X132254523Y-115689000D01*
X132159285Y-115593761D01*
X132016428Y-115450904D01*
X131921190Y-115403285D01*
X131825952Y-115403285D01*
X131873571Y-115641380D02*
X131778333Y-115593761D01*
X131683095Y-115498523D01*
X131635476Y-115308047D01*
X131635476Y-114974714D01*
X131683095Y-114784238D01*
X131778333Y-114689000D01*
X131873571Y-114641380D01*
X132064047Y-114641380D01*
X132159285Y-114689000D01*
X132254523Y-114784238D01*
X132302142Y-114974714D01*
X132302142Y-115308047D01*
X132254523Y-115498523D01*
X132159285Y-115593761D01*
X132064047Y-115641380D01*
X131873571Y-115641380D01*
X133254523Y-115641380D02*
X132683095Y-115641380D01*
X132968809Y-115641380D02*
X132968809Y-114641380D01*
X132873571Y-114784238D01*
X132778333Y-114879476D01*
X132683095Y-114927095D01*
X138842761Y-110275619D02*
X138747523Y-110228000D01*
X138652285Y-110132761D01*
X138509428Y-109989904D01*
X138414190Y-109942285D01*
X138318952Y-109942285D01*
X138366571Y-110180380D02*
X138271333Y-110132761D01*
X138176095Y-110037523D01*
X138128476Y-109847047D01*
X138128476Y-109513714D01*
X138176095Y-109323238D01*
X138271333Y-109228000D01*
X138366571Y-109180380D01*
X138557047Y-109180380D01*
X138652285Y-109228000D01*
X138747523Y-109323238D01*
X138795142Y-109513714D01*
X138795142Y-109847047D01*
X138747523Y-110037523D01*
X138652285Y-110132761D01*
X138557047Y-110180380D01*
X138366571Y-110180380D01*
X139176095Y-109275619D02*
X139223714Y-109228000D01*
X139318952Y-109180380D01*
X139557047Y-109180380D01*
X139652285Y-109228000D01*
X139699904Y-109275619D01*
X139747523Y-109370857D01*
X139747523Y-109466095D01*
X139699904Y-109608952D01*
X139128476Y-110180380D01*
X139747523Y-110180380D01*
X136104333Y-117038380D02*
X135771000Y-116562190D01*
X135532904Y-117038380D02*
X135532904Y-116038380D01*
X135913857Y-116038380D01*
X136009095Y-116086000D01*
X136056714Y-116133619D01*
X136104333Y-116228857D01*
X136104333Y-116371714D01*
X136056714Y-116466952D01*
X136009095Y-116514571D01*
X135913857Y-116562190D01*
X135532904Y-116562190D01*
X137056714Y-117038380D02*
X136485285Y-117038380D01*
X136771000Y-117038380D02*
X136771000Y-116038380D01*
X136675761Y-116181238D01*
X136580523Y-116276476D01*
X136485285Y-116324095D01*
X139835833Y-106752380D02*
X139502500Y-106276190D01*
X139264404Y-106752380D02*
X139264404Y-105752380D01*
X139645357Y-105752380D01*
X139740595Y-105800000D01*
X139788214Y-105847619D01*
X139835833Y-105942857D01*
X139835833Y-106085714D01*
X139788214Y-106180952D01*
X139740595Y-106228571D01*
X139645357Y-106276190D01*
X139264404Y-106276190D01*
X140216785Y-105847619D02*
X140264404Y-105800000D01*
X140359642Y-105752380D01*
X140597738Y-105752380D01*
X140692976Y-105800000D01*
X140740595Y-105847619D01*
X140788214Y-105942857D01*
X140788214Y-106038095D01*
X140740595Y-106180952D01*
X140169166Y-106752380D01*
X140788214Y-106752380D01*
X136104333Y-115641380D02*
X135771000Y-115165190D01*
X135532904Y-115641380D02*
X135532904Y-114641380D01*
X135913857Y-114641380D01*
X136009095Y-114689000D01*
X136056714Y-114736619D01*
X136104333Y-114831857D01*
X136104333Y-114974714D01*
X136056714Y-115069952D01*
X136009095Y-115117571D01*
X135913857Y-115165190D01*
X135532904Y-115165190D01*
X136437666Y-114641380D02*
X137056714Y-114641380D01*
X136723380Y-115022333D01*
X136866238Y-115022333D01*
X136961476Y-115069952D01*
X137009095Y-115117571D01*
X137056714Y-115212809D01*
X137056714Y-115450904D01*
X137009095Y-115546142D01*
X136961476Y-115593761D01*
X136866238Y-115641380D01*
X136580523Y-115641380D01*
X136485285Y-115593761D01*
X136437666Y-115546142D01*
X168410833Y-108656380D02*
X168077500Y-108180190D01*
X167839404Y-108656380D02*
X167839404Y-107656380D01*
X168220357Y-107656380D01*
X168315595Y-107704000D01*
X168363214Y-107751619D01*
X168410833Y-107846857D01*
X168410833Y-107989714D01*
X168363214Y-108084952D01*
X168315595Y-108132571D01*
X168220357Y-108180190D01*
X167839404Y-108180190D01*
X169267976Y-107989714D02*
X169267976Y-108656380D01*
X169029880Y-107608761D02*
X168791785Y-108323047D01*
X169410833Y-108323047D01*
X130500380Y-108116666D02*
X130024190Y-108450000D01*
X130500380Y-108688095D02*
X129500380Y-108688095D01*
X129500380Y-108307142D01*
X129548000Y-108211904D01*
X129595619Y-108164285D01*
X129690857Y-108116666D01*
X129833714Y-108116666D01*
X129928952Y-108164285D01*
X129976571Y-108211904D01*
X130024190Y-108307142D01*
X130024190Y-108688095D01*
X129500380Y-107211904D02*
X129500380Y-107688095D01*
X129976571Y-107735714D01*
X129928952Y-107688095D01*
X129881333Y-107592857D01*
X129881333Y-107354761D01*
X129928952Y-107259523D01*
X129976571Y-107211904D01*
X130071809Y-107164285D01*
X130309904Y-107164285D01*
X130405142Y-107211904D01*
X130452761Y-107259523D01*
X130500380Y-107354761D01*
X130500380Y-107592857D01*
X130452761Y-107688095D01*
X130405142Y-107735714D01*
X113748095Y-93543380D02*
X113748095Y-92543380D01*
X113748095Y-93019571D02*
X114319523Y-93019571D01*
X114319523Y-93543380D02*
X114319523Y-92543380D01*
X115319523Y-93543380D02*
X114748095Y-93543380D01*
X115033809Y-93543380D02*
X115033809Y-92543380D01*
X114938571Y-92686238D01*
X114843333Y-92781476D01*
X114748095Y-92829095D01*
X171577095Y-92273380D02*
X171577095Y-91273380D01*
X171577095Y-91749571D02*
X172148523Y-91749571D01*
X172148523Y-92273380D02*
X172148523Y-91273380D01*
X172577095Y-91368619D02*
X172624714Y-91321000D01*
X172719952Y-91273380D01*
X172958047Y-91273380D01*
X173053285Y-91321000D01*
X173100904Y-91368619D01*
X173148523Y-91463857D01*
X173148523Y-91559095D01*
X173100904Y-91701952D01*
X172529476Y-92273380D01*
X173148523Y-92273380D01*
X113919095Y-126563380D02*
X113919095Y-125563380D01*
X113919095Y-126039571D02*
X114490523Y-126039571D01*
X114490523Y-126563380D02*
X114490523Y-125563380D01*
X114871476Y-125563380D02*
X115490523Y-125563380D01*
X115157190Y-125944333D01*
X115300047Y-125944333D01*
X115395285Y-125991952D01*
X115442904Y-126039571D01*
X115490523Y-126134809D01*
X115490523Y-126372904D01*
X115442904Y-126468142D01*
X115395285Y-126515761D01*
X115300047Y-126563380D01*
X115014333Y-126563380D01*
X114919095Y-126515761D01*
X114871476Y-126468142D01*
X171704095Y-127198380D02*
X171704095Y-126198380D01*
X171704095Y-126674571D02*
X172275523Y-126674571D01*
X172275523Y-127198380D02*
X172275523Y-126198380D01*
X173180285Y-126531714D02*
X173180285Y-127198380D01*
X172942190Y-126150761D02*
X172704095Y-126865047D01*
X173323142Y-126865047D01*
X171600904Y-112466380D02*
X171600904Y-111466380D01*
X171839000Y-111466380D01*
X171981857Y-111514000D01*
X172077095Y-111609238D01*
X172124714Y-111704476D01*
X172172333Y-111894952D01*
X172172333Y-112037809D01*
X172124714Y-112228285D01*
X172077095Y-112323523D01*
X171981857Y-112418761D01*
X171839000Y-112466380D01*
X171600904Y-112466380D01*
X172553285Y-111561619D02*
X172600904Y-111514000D01*
X172696142Y-111466380D01*
X172934238Y-111466380D01*
X173029476Y-111514000D01*
X173077095Y-111561619D01*
X173124714Y-111656857D01*
X173124714Y-111752095D01*
X173077095Y-111894952D01*
X172505666Y-112466380D01*
X173124714Y-112466380D01*
X171679404Y-104846380D02*
X171679404Y-103846380D01*
X171917500Y-103846380D01*
X172060357Y-103894000D01*
X172155595Y-103989238D01*
X172203214Y-104084476D01*
X172250833Y-104274952D01*
X172250833Y-104417809D01*
X172203214Y-104608285D01*
X172155595Y-104703523D01*
X172060357Y-104798761D01*
X171917500Y-104846380D01*
X171679404Y-104846380D01*
X172584166Y-103846380D02*
X173203214Y-103846380D01*
X172869880Y-104227333D01*
X173012738Y-104227333D01*
X173107976Y-104274952D01*
X173155595Y-104322571D01*
X173203214Y-104417809D01*
X173203214Y-104655904D01*
X173155595Y-104751142D01*
X173107976Y-104798761D01*
X173012738Y-104846380D01*
X172727023Y-104846380D01*
X172631785Y-104798761D01*
X172584166Y-104751142D01*
X142144761Y-115736619D02*
X142049523Y-115689000D01*
X141954285Y-115593761D01*
X141811428Y-115450904D01*
X141716190Y-115403285D01*
X141620952Y-115403285D01*
X141668571Y-115641380D02*
X141573333Y-115593761D01*
X141478095Y-115498523D01*
X141430476Y-115308047D01*
X141430476Y-114974714D01*
X141478095Y-114784238D01*
X141573333Y-114689000D01*
X141668571Y-114641380D01*
X141859047Y-114641380D01*
X141954285Y-114689000D01*
X142049523Y-114784238D01*
X142097142Y-114974714D01*
X142097142Y-115308047D01*
X142049523Y-115498523D01*
X141954285Y-115593761D01*
X141859047Y-115641380D01*
X141668571Y-115641380D01*
X142430476Y-114641380D02*
X143049523Y-114641380D01*
X142716190Y-115022333D01*
X142859047Y-115022333D01*
X142954285Y-115069952D01*
X143001904Y-115117571D01*
X143049523Y-115212809D01*
X143049523Y-115450904D01*
X143001904Y-115546142D01*
X142954285Y-115593761D01*
X142859047Y-115641380D01*
X142573333Y-115641380D01*
X142478095Y-115593761D01*
X142430476Y-115546142D01*
X168440833Y-112466380D02*
X168107500Y-111990190D01*
X167869404Y-112466380D02*
X167869404Y-111466380D01*
X168250357Y-111466380D01*
X168345595Y-111514000D01*
X168393214Y-111561619D01*
X168440833Y-111656857D01*
X168440833Y-111799714D01*
X168393214Y-111894952D01*
X168345595Y-111942571D01*
X168250357Y-111990190D01*
X167869404Y-111990190D01*
X169297976Y-111466380D02*
X169107500Y-111466380D01*
X169012261Y-111514000D01*
X168964642Y-111561619D01*
X168869404Y-111704476D01*
X168821785Y-111894952D01*
X168821785Y-112275904D01*
X168869404Y-112371142D01*
X168917023Y-112418761D01*
X169012261Y-112466380D01*
X169202738Y-112466380D01*
X169297976Y-112418761D01*
X169345595Y-112371142D01*
X169393214Y-112275904D01*
X169393214Y-112037809D01*
X169345595Y-111942571D01*
X169297976Y-111894952D01*
X169202738Y-111847333D01*
X169012261Y-111847333D01*
X168917023Y-111894952D01*
X168869404Y-111942571D01*
X168821785Y-112037809D01*
X138898333Y-115641380D02*
X138565000Y-115165190D01*
X138326904Y-115641380D02*
X138326904Y-114641380D01*
X138707857Y-114641380D01*
X138803095Y-114689000D01*
X138850714Y-114736619D01*
X138898333Y-114831857D01*
X138898333Y-114974714D01*
X138850714Y-115069952D01*
X138803095Y-115117571D01*
X138707857Y-115165190D01*
X138326904Y-115165190D01*
X139231666Y-114641380D02*
X139898333Y-114641380D01*
X139469761Y-115641380D01*
X168489333Y-104846380D02*
X168156000Y-104370190D01*
X167917904Y-104846380D02*
X167917904Y-103846380D01*
X168298857Y-103846380D01*
X168394095Y-103894000D01*
X168441714Y-103941619D01*
X168489333Y-104036857D01*
X168489333Y-104179714D01*
X168441714Y-104274952D01*
X168394095Y-104322571D01*
X168298857Y-104370190D01*
X167917904Y-104370190D01*
X169060761Y-104274952D02*
X168965523Y-104227333D01*
X168917904Y-104179714D01*
X168870285Y-104084476D01*
X168870285Y-104036857D01*
X168917904Y-103941619D01*
X168965523Y-103894000D01*
X169060761Y-103846380D01*
X169251238Y-103846380D01*
X169346476Y-103894000D01*
X169394095Y-103941619D01*
X169441714Y-104036857D01*
X169441714Y-104084476D01*
X169394095Y-104179714D01*
X169346476Y-104227333D01*
X169251238Y-104274952D01*
X169060761Y-104274952D01*
X168965523Y-104322571D01*
X168917904Y-104370190D01*
X168870285Y-104465428D01*
X168870285Y-104655904D01*
X168917904Y-104751142D01*
X168965523Y-104798761D01*
X169060761Y-104846380D01*
X169251238Y-104846380D01*
X169346476Y-104798761D01*
X169394095Y-104751142D01*
X169441714Y-104655904D01*
X169441714Y-104465428D01*
X169394095Y-104370190D01*
X169346476Y-104322571D01*
X169251238Y-104274952D01*
%LPC*%
D13*
G36*
X156821129Y-101820281D02*
G01*
X156846945Y-101824110D01*
X156872260Y-101830451D01*
X156896833Y-101839243D01*
X156920425Y-101850402D01*
X156942810Y-101863818D01*
X156963772Y-101879365D01*
X156983109Y-101896891D01*
X157000635Y-101916228D01*
X157016182Y-101937190D01*
X157029598Y-101959575D01*
X157040757Y-101983167D01*
X157049549Y-102007740D01*
X157055890Y-102033055D01*
X157059719Y-102058871D01*
X157061000Y-102084937D01*
X157061000Y-105155063D01*
X157059719Y-105181129D01*
X157055890Y-105206945D01*
X157049549Y-105232260D01*
X157040757Y-105256833D01*
X157029598Y-105280425D01*
X157016182Y-105302810D01*
X157000635Y-105323772D01*
X156983109Y-105343109D01*
X156963772Y-105360635D01*
X156942810Y-105376182D01*
X156920425Y-105389598D01*
X156896833Y-105400757D01*
X156872260Y-105409549D01*
X156846945Y-105415890D01*
X156821129Y-105419719D01*
X156795063Y-105421000D01*
X155624937Y-105421000D01*
X155598871Y-105419719D01*
X155573055Y-105415890D01*
X155547740Y-105409549D01*
X155523167Y-105400757D01*
X155499575Y-105389598D01*
X155477190Y-105376182D01*
X155456228Y-105360635D01*
X155436891Y-105343109D01*
X155419365Y-105323772D01*
X155403818Y-105302810D01*
X155390402Y-105280425D01*
X155379243Y-105256833D01*
X155370451Y-105232260D01*
X155364110Y-105206945D01*
X155360281Y-105181129D01*
X155359000Y-105155063D01*
X155359000Y-102084937D01*
X155360281Y-102058871D01*
X155364110Y-102033055D01*
X155370451Y-102007740D01*
X155379243Y-101983167D01*
X155390402Y-101959575D01*
X155403818Y-101937190D01*
X155419365Y-101916228D01*
X155436891Y-101896891D01*
X155456228Y-101879365D01*
X155477190Y-101863818D01*
X155499575Y-101850402D01*
X155523167Y-101839243D01*
X155547740Y-101830451D01*
X155573055Y-101824110D01*
X155598871Y-101820281D01*
X155624937Y-101819000D01*
X156795063Y-101819000D01*
X156821129Y-101820281D01*
G37*
G36*
X156821129Y-107420281D02*
G01*
X156846945Y-107424110D01*
X156872260Y-107430451D01*
X156896833Y-107439243D01*
X156920425Y-107450402D01*
X156942810Y-107463818D01*
X156963772Y-107479365D01*
X156983109Y-107496891D01*
X157000635Y-107516228D01*
X157016182Y-107537190D01*
X157029598Y-107559575D01*
X157040757Y-107583167D01*
X157049549Y-107607740D01*
X157055890Y-107633055D01*
X157059719Y-107658871D01*
X157061000Y-107684937D01*
X157061000Y-110755063D01*
X157059719Y-110781129D01*
X157055890Y-110806945D01*
X157049549Y-110832260D01*
X157040757Y-110856833D01*
X157029598Y-110880425D01*
X157016182Y-110902810D01*
X157000635Y-110923772D01*
X156983109Y-110943109D01*
X156963772Y-110960635D01*
X156942810Y-110976182D01*
X156920425Y-110989598D01*
X156896833Y-111000757D01*
X156872260Y-111009549D01*
X156846945Y-111015890D01*
X156821129Y-111019719D01*
X156795063Y-111021000D01*
X155624937Y-111021000D01*
X155598871Y-111019719D01*
X155573055Y-111015890D01*
X155547740Y-111009549D01*
X155523167Y-111000757D01*
X155499575Y-110989598D01*
X155477190Y-110976182D01*
X155456228Y-110960635D01*
X155436891Y-110943109D01*
X155419365Y-110923772D01*
X155403818Y-110902810D01*
X155390402Y-110880425D01*
X155379243Y-110856833D01*
X155370451Y-110832260D01*
X155364110Y-110806945D01*
X155360281Y-110781129D01*
X155359000Y-110755063D01*
X155359000Y-107684937D01*
X155360281Y-107658871D01*
X155364110Y-107633055D01*
X155370451Y-107607740D01*
X155379243Y-107583167D01*
X155390402Y-107559575D01*
X155403818Y-107537190D01*
X155419365Y-107516228D01*
X155436891Y-107496891D01*
X155456228Y-107479365D01*
X155477190Y-107463818D01*
X155499575Y-107450402D01*
X155523167Y-107439243D01*
X155547740Y-107430451D01*
X155573055Y-107424110D01*
X155598871Y-107420281D01*
X155624937Y-107419000D01*
X156795063Y-107419000D01*
X156821129Y-107420281D01*
G37*
G36*
X149074129Y-101820281D02*
G01*
X149099945Y-101824110D01*
X149125260Y-101830451D01*
X149149833Y-101839243D01*
X149173425Y-101850402D01*
X149195810Y-101863818D01*
X149216772Y-101879365D01*
X149236109Y-101896891D01*
X149253635Y-101916228D01*
X149269182Y-101937190D01*
X149282598Y-101959575D01*
X149293757Y-101983167D01*
X149302549Y-102007740D01*
X149308890Y-102033055D01*
X149312719Y-102058871D01*
X149314000Y-102084937D01*
X149314000Y-105155063D01*
X149312719Y-105181129D01*
X149308890Y-105206945D01*
X149302549Y-105232260D01*
X149293757Y-105256833D01*
X149282598Y-105280425D01*
X149269182Y-105302810D01*
X149253635Y-105323772D01*
X149236109Y-105343109D01*
X149216772Y-105360635D01*
X149195810Y-105376182D01*
X149173425Y-105389598D01*
X149149833Y-105400757D01*
X149125260Y-105409549D01*
X149099945Y-105415890D01*
X149074129Y-105419719D01*
X149048063Y-105421000D01*
X147877937Y-105421000D01*
X147851871Y-105419719D01*
X147826055Y-105415890D01*
X147800740Y-105409549D01*
X147776167Y-105400757D01*
X147752575Y-105389598D01*
X147730190Y-105376182D01*
X147709228Y-105360635D01*
X147689891Y-105343109D01*
X147672365Y-105323772D01*
X147656818Y-105302810D01*
X147643402Y-105280425D01*
X147632243Y-105256833D01*
X147623451Y-105232260D01*
X147617110Y-105206945D01*
X147613281Y-105181129D01*
X147612000Y-105155063D01*
X147612000Y-102084937D01*
X147613281Y-102058871D01*
X147617110Y-102033055D01*
X147623451Y-102007740D01*
X147632243Y-101983167D01*
X147643402Y-101959575D01*
X147656818Y-101937190D01*
X147672365Y-101916228D01*
X147689891Y-101896891D01*
X147709228Y-101879365D01*
X147730190Y-101863818D01*
X147752575Y-101850402D01*
X147776167Y-101839243D01*
X147800740Y-101830451D01*
X147826055Y-101824110D01*
X147851871Y-101820281D01*
X147877937Y-101819000D01*
X149048063Y-101819000D01*
X149074129Y-101820281D01*
G37*
G36*
X149074129Y-107420281D02*
G01*
X149099945Y-107424110D01*
X149125260Y-107430451D01*
X149149833Y-107439243D01*
X149173425Y-107450402D01*
X149195810Y-107463818D01*
X149216772Y-107479365D01*
X149236109Y-107496891D01*
X149253635Y-107516228D01*
X149269182Y-107537190D01*
X149282598Y-107559575D01*
X149293757Y-107583167D01*
X149302549Y-107607740D01*
X149308890Y-107633055D01*
X149312719Y-107658871D01*
X149314000Y-107684937D01*
X149314000Y-110755063D01*
X149312719Y-110781129D01*
X149308890Y-110806945D01*
X149302549Y-110832260D01*
X149293757Y-110856833D01*
X149282598Y-110880425D01*
X149269182Y-110902810D01*
X149253635Y-110923772D01*
X149236109Y-110943109D01*
X149216772Y-110960635D01*
X149195810Y-110976182D01*
X149173425Y-110989598D01*
X149149833Y-111000757D01*
X149125260Y-111009549D01*
X149099945Y-111015890D01*
X149074129Y-111019719D01*
X149048063Y-111021000D01*
X147877937Y-111021000D01*
X147851871Y-111019719D01*
X147826055Y-111015890D01*
X147800740Y-111009549D01*
X147776167Y-111000757D01*
X147752575Y-110989598D01*
X147730190Y-110976182D01*
X147709228Y-110960635D01*
X147689891Y-110943109D01*
X147672365Y-110923772D01*
X147656818Y-110902810D01*
X147643402Y-110880425D01*
X147632243Y-110856833D01*
X147623451Y-110832260D01*
X147617110Y-110806945D01*
X147613281Y-110781129D01*
X147612000Y-110755063D01*
X147612000Y-107684937D01*
X147613281Y-107658871D01*
X147617110Y-107633055D01*
X147623451Y-107607740D01*
X147632243Y-107583167D01*
X147643402Y-107559575D01*
X147656818Y-107537190D01*
X147672365Y-107516228D01*
X147689891Y-107496891D01*
X147709228Y-107479365D01*
X147730190Y-107463818D01*
X147752575Y-107450402D01*
X147776167Y-107439243D01*
X147800740Y-107430451D01*
X147826055Y-107424110D01*
X147851871Y-107420281D01*
X147877937Y-107419000D01*
X149048063Y-107419000D01*
X149074129Y-107420281D01*
G37*
G36*
X137033141Y-103632797D02*
G01*
X137059278Y-103636674D01*
X137084909Y-103643094D01*
X137109788Y-103651995D01*
X137133674Y-103663293D01*
X137156337Y-103676877D01*
X137177560Y-103692617D01*
X137197139Y-103710361D01*
X137214883Y-103729940D01*
X137230623Y-103751163D01*
X137244207Y-103773826D01*
X137255505Y-103797712D01*
X137264406Y-103822591D01*
X137270826Y-103848222D01*
X137274703Y-103874359D01*
X137276000Y-103900750D01*
X137276000Y-104439250D01*
X137274703Y-104465641D01*
X137270826Y-104491778D01*
X137264406Y-104517409D01*
X137255505Y-104542288D01*
X137244207Y-104566174D01*
X137230623Y-104588837D01*
X137214883Y-104610060D01*
X137197139Y-104629639D01*
X137177560Y-104647383D01*
X137156337Y-104663123D01*
X137133674Y-104676707D01*
X137109788Y-104688005D01*
X137084909Y-104696906D01*
X137059278Y-104703326D01*
X137033141Y-104707203D01*
X137006750Y-104708500D01*
X136043250Y-104708500D01*
X136016859Y-104707203D01*
X135990722Y-104703326D01*
X135965091Y-104696906D01*
X135940212Y-104688005D01*
X135916326Y-104676707D01*
X135893663Y-104663123D01*
X135872440Y-104647383D01*
X135852861Y-104629639D01*
X135835117Y-104610060D01*
X135819377Y-104588837D01*
X135805793Y-104566174D01*
X135794495Y-104542288D01*
X135785594Y-104517409D01*
X135779174Y-104491778D01*
X135775297Y-104465641D01*
X135774000Y-104439250D01*
X135774000Y-103900750D01*
X135775297Y-103874359D01*
X135779174Y-103848222D01*
X135785594Y-103822591D01*
X135794495Y-103797712D01*
X135805793Y-103773826D01*
X135819377Y-103751163D01*
X135835117Y-103729940D01*
X135852861Y-103710361D01*
X135872440Y-103692617D01*
X135893663Y-103676877D01*
X135916326Y-103663293D01*
X135940212Y-103651995D01*
X135965091Y-103643094D01*
X135990722Y-103636674D01*
X136016859Y-103632797D01*
X136043250Y-103631500D01*
X137006750Y-103631500D01*
X137033141Y-103632797D01*
G37*
G36*
X137033141Y-105507797D02*
G01*
X137059278Y-105511674D01*
X137084909Y-105518094D01*
X137109788Y-105526995D01*
X137133674Y-105538293D01*
X137156337Y-105551877D01*
X137177560Y-105567617D01*
X137197139Y-105585361D01*
X137214883Y-105604940D01*
X137230623Y-105626163D01*
X137244207Y-105648826D01*
X137255505Y-105672712D01*
X137264406Y-105697591D01*
X137270826Y-105723222D01*
X137274703Y-105749359D01*
X137276000Y-105775750D01*
X137276000Y-106314250D01*
X137274703Y-106340641D01*
X137270826Y-106366778D01*
X137264406Y-106392409D01*
X137255505Y-106417288D01*
X137244207Y-106441174D01*
X137230623Y-106463837D01*
X137214883Y-106485060D01*
X137197139Y-106504639D01*
X137177560Y-106522383D01*
X137156337Y-106538123D01*
X137133674Y-106551707D01*
X137109788Y-106563005D01*
X137084909Y-106571906D01*
X137059278Y-106578326D01*
X137033141Y-106582203D01*
X137006750Y-106583500D01*
X136043250Y-106583500D01*
X136016859Y-106582203D01*
X135990722Y-106578326D01*
X135965091Y-106571906D01*
X135940212Y-106563005D01*
X135916326Y-106551707D01*
X135893663Y-106538123D01*
X135872440Y-106522383D01*
X135852861Y-106504639D01*
X135835117Y-106485060D01*
X135819377Y-106463837D01*
X135805793Y-106441174D01*
X135794495Y-106417288D01*
X135785594Y-106392409D01*
X135779174Y-106366778D01*
X135775297Y-106340641D01*
X135774000Y-106314250D01*
X135774000Y-105775750D01*
X135775297Y-105749359D01*
X135779174Y-105723222D01*
X135785594Y-105697591D01*
X135794495Y-105672712D01*
X135805793Y-105648826D01*
X135819377Y-105626163D01*
X135835117Y-105604940D01*
X135852861Y-105585361D01*
X135872440Y-105567617D01*
X135893663Y-105551877D01*
X135916326Y-105538293D01*
X135940212Y-105526995D01*
X135965091Y-105518094D01*
X135990722Y-105511674D01*
X136016859Y-105507797D01*
X136043250Y-105506500D01*
X137006750Y-105506500D01*
X137033141Y-105507797D01*
G37*
G36*
X131953141Y-105477797D02*
G01*
X131979278Y-105481674D01*
X132004909Y-105488094D01*
X132029788Y-105496995D01*
X132053674Y-105508293D01*
X132076337Y-105521877D01*
X132097560Y-105537617D01*
X132117139Y-105555361D01*
X132134883Y-105574940D01*
X132150623Y-105596163D01*
X132164207Y-105618826D01*
X132175505Y-105642712D01*
X132184406Y-105667591D01*
X132190826Y-105693222D01*
X132194703Y-105719359D01*
X132196000Y-105745750D01*
X132196000Y-106284250D01*
X132194703Y-106310641D01*
X132190826Y-106336778D01*
X132184406Y-106362409D01*
X132175505Y-106387288D01*
X132164207Y-106411174D01*
X132150623Y-106433837D01*
X132134883Y-106455060D01*
X132117139Y-106474639D01*
X132097560Y-106492383D01*
X132076337Y-106508123D01*
X132053674Y-106521707D01*
X132029788Y-106533005D01*
X132004909Y-106541906D01*
X131979278Y-106548326D01*
X131953141Y-106552203D01*
X131926750Y-106553500D01*
X130963250Y-106553500D01*
X130936859Y-106552203D01*
X130910722Y-106548326D01*
X130885091Y-106541906D01*
X130860212Y-106533005D01*
X130836326Y-106521707D01*
X130813663Y-106508123D01*
X130792440Y-106492383D01*
X130772861Y-106474639D01*
X130755117Y-106455060D01*
X130739377Y-106433837D01*
X130725793Y-106411174D01*
X130714495Y-106387288D01*
X130705594Y-106362409D01*
X130699174Y-106336778D01*
X130695297Y-106310641D01*
X130694000Y-106284250D01*
X130694000Y-105745750D01*
X130695297Y-105719359D01*
X130699174Y-105693222D01*
X130705594Y-105667591D01*
X130714495Y-105642712D01*
X130725793Y-105618826D01*
X130739377Y-105596163D01*
X130755117Y-105574940D01*
X130772861Y-105555361D01*
X130792440Y-105537617D01*
X130813663Y-105521877D01*
X130836326Y-105508293D01*
X130860212Y-105496995D01*
X130885091Y-105488094D01*
X130910722Y-105481674D01*
X130936859Y-105477797D01*
X130963250Y-105476500D01*
X131926750Y-105476500D01*
X131953141Y-105477797D01*
G37*
G36*
X131953141Y-103602797D02*
G01*
X131979278Y-103606674D01*
X132004909Y-103613094D01*
X132029788Y-103621995D01*
X132053674Y-103633293D01*
X132076337Y-103646877D01*
X132097560Y-103662617D01*
X132117139Y-103680361D01*
X132134883Y-103699940D01*
X132150623Y-103721163D01*
X132164207Y-103743826D01*
X132175505Y-103767712D01*
X132184406Y-103792591D01*
X132190826Y-103818222D01*
X132194703Y-103844359D01*
X132196000Y-103870750D01*
X132196000Y-104409250D01*
X132194703Y-104435641D01*
X132190826Y-104461778D01*
X132184406Y-104487409D01*
X132175505Y-104512288D01*
X132164207Y-104536174D01*
X132150623Y-104558837D01*
X132134883Y-104580060D01*
X132117139Y-104599639D01*
X132097560Y-104617383D01*
X132076337Y-104633123D01*
X132053674Y-104646707D01*
X132029788Y-104658005D01*
X132004909Y-104666906D01*
X131979278Y-104673326D01*
X131953141Y-104677203D01*
X131926750Y-104678500D01*
X130963250Y-104678500D01*
X130936859Y-104677203D01*
X130910722Y-104673326D01*
X130885091Y-104666906D01*
X130860212Y-104658005D01*
X130836326Y-104646707D01*
X130813663Y-104633123D01*
X130792440Y-104617383D01*
X130772861Y-104599639D01*
X130755117Y-104580060D01*
X130739377Y-104558837D01*
X130725793Y-104536174D01*
X130714495Y-104512288D01*
X130705594Y-104487409D01*
X130699174Y-104461778D01*
X130695297Y-104435641D01*
X130694000Y-104409250D01*
X130694000Y-103870750D01*
X130695297Y-103844359D01*
X130699174Y-103818222D01*
X130705594Y-103792591D01*
X130714495Y-103767712D01*
X130725793Y-103743826D01*
X130739377Y-103721163D01*
X130755117Y-103699940D01*
X130772861Y-103680361D01*
X130792440Y-103662617D01*
X130813663Y-103646877D01*
X130836326Y-103633293D01*
X130860212Y-103621995D01*
X130885091Y-103613094D01*
X130910722Y-103606674D01*
X130936859Y-103602797D01*
X130963250Y-103601500D01*
X131926750Y-103601500D01*
X131953141Y-103602797D01*
G37*
G36*
X173620641Y-109105297D02*
G01*
X173646778Y-109109174D01*
X173672409Y-109115594D01*
X173697288Y-109124495D01*
X173721174Y-109135793D01*
X173743837Y-109149377D01*
X173765060Y-109165117D01*
X173784639Y-109182861D01*
X173802383Y-109202440D01*
X173818123Y-109223663D01*
X173831707Y-109246326D01*
X173843005Y-109270212D01*
X173851906Y-109295091D01*
X173858326Y-109320722D01*
X173862203Y-109346859D01*
X173863500Y-109373250D01*
X173863500Y-110336750D01*
X173862203Y-110363141D01*
X173858326Y-110389278D01*
X173851906Y-110414909D01*
X173843005Y-110439788D01*
X173831707Y-110463674D01*
X173818123Y-110486337D01*
X173802383Y-110507560D01*
X173784639Y-110527139D01*
X173765060Y-110544883D01*
X173743837Y-110560623D01*
X173721174Y-110574207D01*
X173697288Y-110585505D01*
X173672409Y-110594406D01*
X173646778Y-110600826D01*
X173620641Y-110604703D01*
X173594250Y-110606000D01*
X173055750Y-110606000D01*
X173029359Y-110604703D01*
X173003222Y-110600826D01*
X172977591Y-110594406D01*
X172952712Y-110585505D01*
X172928826Y-110574207D01*
X172906163Y-110560623D01*
X172884940Y-110544883D01*
X172865361Y-110527139D01*
X172847617Y-110507560D01*
X172831877Y-110486337D01*
X172818293Y-110463674D01*
X172806995Y-110439788D01*
X172798094Y-110414909D01*
X172791674Y-110389278D01*
X172787797Y-110363141D01*
X172786500Y-110336750D01*
X172786500Y-109373250D01*
X172787797Y-109346859D01*
X172791674Y-109320722D01*
X172798094Y-109295091D01*
X172806995Y-109270212D01*
X172818293Y-109246326D01*
X172831877Y-109223663D01*
X172847617Y-109202440D01*
X172865361Y-109182861D01*
X172884940Y-109165117D01*
X172906163Y-109149377D01*
X172928826Y-109135793D01*
X172952712Y-109124495D01*
X172977591Y-109115594D01*
X173003222Y-109109174D01*
X173029359Y-109105297D01*
X173055750Y-109104000D01*
X173594250Y-109104000D01*
X173620641Y-109105297D01*
G37*
G36*
X171745641Y-109105297D02*
G01*
X171771778Y-109109174D01*
X171797409Y-109115594D01*
X171822288Y-109124495D01*
X171846174Y-109135793D01*
X171868837Y-109149377D01*
X171890060Y-109165117D01*
X171909639Y-109182861D01*
X171927383Y-109202440D01*
X171943123Y-109223663D01*
X171956707Y-109246326D01*
X171968005Y-109270212D01*
X171976906Y-109295091D01*
X171983326Y-109320722D01*
X171987203Y-109346859D01*
X171988500Y-109373250D01*
X171988500Y-110336750D01*
X171987203Y-110363141D01*
X171983326Y-110389278D01*
X171976906Y-110414909D01*
X171968005Y-110439788D01*
X171956707Y-110463674D01*
X171943123Y-110486337D01*
X171927383Y-110507560D01*
X171909639Y-110527139D01*
X171890060Y-110544883D01*
X171868837Y-110560623D01*
X171846174Y-110574207D01*
X171822288Y-110585505D01*
X171797409Y-110594406D01*
X171771778Y-110600826D01*
X171745641Y-110604703D01*
X171719250Y-110606000D01*
X171180750Y-110606000D01*
X171154359Y-110604703D01*
X171128222Y-110600826D01*
X171102591Y-110594406D01*
X171077712Y-110585505D01*
X171053826Y-110574207D01*
X171031163Y-110560623D01*
X171009940Y-110544883D01*
X170990361Y-110527139D01*
X170972617Y-110507560D01*
X170956877Y-110486337D01*
X170943293Y-110463674D01*
X170931995Y-110439788D01*
X170923094Y-110414909D01*
X170916674Y-110389278D01*
X170912797Y-110363141D01*
X170911500Y-110336750D01*
X170911500Y-109373250D01*
X170912797Y-109346859D01*
X170916674Y-109320722D01*
X170923094Y-109295091D01*
X170931995Y-109270212D01*
X170943293Y-109246326D01*
X170956877Y-109223663D01*
X170972617Y-109202440D01*
X170990361Y-109182861D01*
X171009940Y-109165117D01*
X171031163Y-109149377D01*
X171053826Y-109135793D01*
X171077712Y-109124495D01*
X171102591Y-109115594D01*
X171128222Y-109109174D01*
X171154359Y-109105297D01*
X171180750Y-109104000D01*
X171719250Y-109104000D01*
X171745641Y-109105297D01*
G37*
D15*
X119380000Y-99695000D03*
D16*
X119380000Y-97155000D03*
X121920000Y-99695000D03*
X121920000Y-97155000D03*
X124460000Y-99695000D03*
X124460000Y-97155000D03*
X127000000Y-99695000D03*
X127000000Y-97155000D03*
X129540000Y-99695000D03*
X129540000Y-97155000D03*
X132080000Y-99695000D03*
X132080000Y-97155000D03*
X134620000Y-99695000D03*
X134620000Y-97155000D03*
X137160000Y-99695000D03*
X137160000Y-97155000D03*
X139700000Y-99695000D03*
X139700000Y-97155000D03*
X142240000Y-99695000D03*
X142240000Y-97155000D03*
X144780000Y-99695000D03*
X144780000Y-97155000D03*
X147320000Y-99695000D03*
X147320000Y-97155000D03*
X149860000Y-99695000D03*
X149860000Y-97155000D03*
X152400000Y-99695000D03*
X152400000Y-97155000D03*
X154940000Y-99695000D03*
X154940000Y-97155000D03*
X157480000Y-99695000D03*
X157480000Y-97155000D03*
X160020000Y-99695000D03*
X160020000Y-97155000D03*
X162560000Y-99695000D03*
X162560000Y-97155000D03*
X165100000Y-99695000D03*
X165100000Y-97155000D03*
X167640000Y-99695000D03*
X167640000Y-97155000D03*
D17*
X118745000Y-114935000D03*
D18*
X125095000Y-113035000D03*
X127635000Y-111765000D03*
X125095000Y-110495000D03*
X127635000Y-109225000D03*
X125095000Y-107955000D03*
D17*
X118745000Y-104775000D03*
D19*
X127635000Y-106685000D03*
D13*
G36*
X134493141Y-103632797D02*
G01*
X134519278Y-103636674D01*
X134544909Y-103643094D01*
X134569788Y-103651995D01*
X134593674Y-103663293D01*
X134616337Y-103676877D01*
X134637560Y-103692617D01*
X134657139Y-103710361D01*
X134674883Y-103729940D01*
X134690623Y-103751163D01*
X134704207Y-103773826D01*
X134715505Y-103797712D01*
X134724406Y-103822591D01*
X134730826Y-103848222D01*
X134734703Y-103874359D01*
X134736000Y-103900750D01*
X134736000Y-104439250D01*
X134734703Y-104465641D01*
X134730826Y-104491778D01*
X134724406Y-104517409D01*
X134715505Y-104542288D01*
X134704207Y-104566174D01*
X134690623Y-104588837D01*
X134674883Y-104610060D01*
X134657139Y-104629639D01*
X134637560Y-104647383D01*
X134616337Y-104663123D01*
X134593674Y-104676707D01*
X134569788Y-104688005D01*
X134544909Y-104696906D01*
X134519278Y-104703326D01*
X134493141Y-104707203D01*
X134466750Y-104708500D01*
X133503250Y-104708500D01*
X133476859Y-104707203D01*
X133450722Y-104703326D01*
X133425091Y-104696906D01*
X133400212Y-104688005D01*
X133376326Y-104676707D01*
X133353663Y-104663123D01*
X133332440Y-104647383D01*
X133312861Y-104629639D01*
X133295117Y-104610060D01*
X133279377Y-104588837D01*
X133265793Y-104566174D01*
X133254495Y-104542288D01*
X133245594Y-104517409D01*
X133239174Y-104491778D01*
X133235297Y-104465641D01*
X133234000Y-104439250D01*
X133234000Y-103900750D01*
X133235297Y-103874359D01*
X133239174Y-103848222D01*
X133245594Y-103822591D01*
X133254495Y-103797712D01*
X133265793Y-103773826D01*
X133279377Y-103751163D01*
X133295117Y-103729940D01*
X133312861Y-103710361D01*
X133332440Y-103692617D01*
X133353663Y-103676877D01*
X133376326Y-103663293D01*
X133400212Y-103651995D01*
X133425091Y-103643094D01*
X133450722Y-103636674D01*
X133476859Y-103632797D01*
X133503250Y-103631500D01*
X134466750Y-103631500D01*
X134493141Y-103632797D01*
G37*
G36*
X134493141Y-105507797D02*
G01*
X134519278Y-105511674D01*
X134544909Y-105518094D01*
X134569788Y-105526995D01*
X134593674Y-105538293D01*
X134616337Y-105551877D01*
X134637560Y-105567617D01*
X134657139Y-105585361D01*
X134674883Y-105604940D01*
X134690623Y-105626163D01*
X134704207Y-105648826D01*
X134715505Y-105672712D01*
X134724406Y-105697591D01*
X134730826Y-105723222D01*
X134734703Y-105749359D01*
X134736000Y-105775750D01*
X134736000Y-106314250D01*
X134734703Y-106340641D01*
X134730826Y-106366778D01*
X134724406Y-106392409D01*
X134715505Y-106417288D01*
X134704207Y-106441174D01*
X134690623Y-106463837D01*
X134674883Y-106485060D01*
X134657139Y-106504639D01*
X134637560Y-106522383D01*
X134616337Y-106538123D01*
X134593674Y-106551707D01*
X134569788Y-106563005D01*
X134544909Y-106571906D01*
X134519278Y-106578326D01*
X134493141Y-106582203D01*
X134466750Y-106583500D01*
X133503250Y-106583500D01*
X133476859Y-106582203D01*
X133450722Y-106578326D01*
X133425091Y-106571906D01*
X133400212Y-106563005D01*
X133376326Y-106551707D01*
X133353663Y-106538123D01*
X133332440Y-106522383D01*
X133312861Y-106504639D01*
X133295117Y-106485060D01*
X133279377Y-106463837D01*
X133265793Y-106441174D01*
X133254495Y-106417288D01*
X133245594Y-106392409D01*
X133239174Y-106366778D01*
X133235297Y-106340641D01*
X133234000Y-106314250D01*
X133234000Y-105775750D01*
X133235297Y-105749359D01*
X133239174Y-105723222D01*
X133245594Y-105697591D01*
X133254495Y-105672712D01*
X133265793Y-105648826D01*
X133279377Y-105626163D01*
X133295117Y-105604940D01*
X133312861Y-105585361D01*
X133332440Y-105567617D01*
X133353663Y-105551877D01*
X133376326Y-105538293D01*
X133400212Y-105526995D01*
X133425091Y-105518094D01*
X133450722Y-105511674D01*
X133476859Y-105507797D01*
X133503250Y-105506500D01*
X134466750Y-105506500D01*
X134493141Y-105507797D01*
G37*
D20*
X131445000Y-111760000D03*
X131445000Y-113660000D03*
X133445000Y-112710000D03*
D21*
X136205000Y-109950000D03*
X135255000Y-107950000D03*
X137155000Y-107950000D03*
D13*
G36*
X135580641Y-112915297D02*
G01*
X135606778Y-112919174D01*
X135632409Y-112925594D01*
X135657288Y-112934495D01*
X135681174Y-112945793D01*
X135703837Y-112959377D01*
X135725060Y-112975117D01*
X135744639Y-112992861D01*
X135762383Y-113012440D01*
X135778123Y-113033663D01*
X135791707Y-113056326D01*
X135803005Y-113080212D01*
X135811906Y-113105091D01*
X135818326Y-113130722D01*
X135822203Y-113156859D01*
X135823500Y-113183250D01*
X135823500Y-114146750D01*
X135822203Y-114173141D01*
X135818326Y-114199278D01*
X135811906Y-114224909D01*
X135803005Y-114249788D01*
X135791707Y-114273674D01*
X135778123Y-114296337D01*
X135762383Y-114317560D01*
X135744639Y-114337139D01*
X135725060Y-114354883D01*
X135703837Y-114370623D01*
X135681174Y-114384207D01*
X135657288Y-114395505D01*
X135632409Y-114404406D01*
X135606778Y-114410826D01*
X135580641Y-114414703D01*
X135554250Y-114416000D01*
X135015750Y-114416000D01*
X134989359Y-114414703D01*
X134963222Y-114410826D01*
X134937591Y-114404406D01*
X134912712Y-114395505D01*
X134888826Y-114384207D01*
X134866163Y-114370623D01*
X134844940Y-114354883D01*
X134825361Y-114337139D01*
X134807617Y-114317560D01*
X134791877Y-114296337D01*
X134778293Y-114273674D01*
X134766995Y-114249788D01*
X134758094Y-114224909D01*
X134751674Y-114199278D01*
X134747797Y-114173141D01*
X134746500Y-114146750D01*
X134746500Y-113183250D01*
X134747797Y-113156859D01*
X134751674Y-113130722D01*
X134758094Y-113105091D01*
X134766995Y-113080212D01*
X134778293Y-113056326D01*
X134791877Y-113033663D01*
X134807617Y-113012440D01*
X134825361Y-112992861D01*
X134844940Y-112975117D01*
X134866163Y-112959377D01*
X134888826Y-112945793D01*
X134912712Y-112934495D01*
X134937591Y-112925594D01*
X134963222Y-112919174D01*
X134989359Y-112915297D01*
X135015750Y-112914000D01*
X135554250Y-112914000D01*
X135580641Y-112915297D01*
G37*
G36*
X137455641Y-112915297D02*
G01*
X137481778Y-112919174D01*
X137507409Y-112925594D01*
X137532288Y-112934495D01*
X137556174Y-112945793D01*
X137578837Y-112959377D01*
X137600060Y-112975117D01*
X137619639Y-112992861D01*
X137637383Y-113012440D01*
X137653123Y-113033663D01*
X137666707Y-113056326D01*
X137678005Y-113080212D01*
X137686906Y-113105091D01*
X137693326Y-113130722D01*
X137697203Y-113156859D01*
X137698500Y-113183250D01*
X137698500Y-114146750D01*
X137697203Y-114173141D01*
X137693326Y-114199278D01*
X137686906Y-114224909D01*
X137678005Y-114249788D01*
X137666707Y-114273674D01*
X137653123Y-114296337D01*
X137637383Y-114317560D01*
X137619639Y-114337139D01*
X137600060Y-114354883D01*
X137578837Y-114370623D01*
X137556174Y-114384207D01*
X137532288Y-114395505D01*
X137507409Y-114404406D01*
X137481778Y-114410826D01*
X137455641Y-114414703D01*
X137429250Y-114416000D01*
X136890750Y-114416000D01*
X136864359Y-114414703D01*
X136838222Y-114410826D01*
X136812591Y-114404406D01*
X136787712Y-114395505D01*
X136763826Y-114384207D01*
X136741163Y-114370623D01*
X136719940Y-114354883D01*
X136700361Y-114337139D01*
X136682617Y-114317560D01*
X136666877Y-114296337D01*
X136653293Y-114273674D01*
X136641995Y-114249788D01*
X136633094Y-114224909D01*
X136626674Y-114199278D01*
X136622797Y-114173141D01*
X136621500Y-114146750D01*
X136621500Y-113183250D01*
X136622797Y-113156859D01*
X136626674Y-113130722D01*
X136633094Y-113105091D01*
X136641995Y-113080212D01*
X136653293Y-113056326D01*
X136666877Y-113033663D01*
X136682617Y-113012440D01*
X136700361Y-112992861D01*
X136719940Y-112975117D01*
X136741163Y-112959377D01*
X136763826Y-112945793D01*
X136787712Y-112934495D01*
X136812591Y-112925594D01*
X136838222Y-112919174D01*
X136864359Y-112915297D01*
X136890750Y-112914000D01*
X137429250Y-112914000D01*
X137455641Y-112915297D01*
G37*
G36*
X139360641Y-107200297D02*
G01*
X139386778Y-107204174D01*
X139412409Y-107210594D01*
X139437288Y-107219495D01*
X139461174Y-107230793D01*
X139483837Y-107244377D01*
X139505060Y-107260117D01*
X139524639Y-107277861D01*
X139542383Y-107297440D01*
X139558123Y-107318663D01*
X139571707Y-107341326D01*
X139583005Y-107365212D01*
X139591906Y-107390091D01*
X139598326Y-107415722D01*
X139602203Y-107441859D01*
X139603500Y-107468250D01*
X139603500Y-108431750D01*
X139602203Y-108458141D01*
X139598326Y-108484278D01*
X139591906Y-108509909D01*
X139583005Y-108534788D01*
X139571707Y-108558674D01*
X139558123Y-108581337D01*
X139542383Y-108602560D01*
X139524639Y-108622139D01*
X139505060Y-108639883D01*
X139483837Y-108655623D01*
X139461174Y-108669207D01*
X139437288Y-108680505D01*
X139412409Y-108689406D01*
X139386778Y-108695826D01*
X139360641Y-108699703D01*
X139334250Y-108701000D01*
X138795750Y-108701000D01*
X138769359Y-108699703D01*
X138743222Y-108695826D01*
X138717591Y-108689406D01*
X138692712Y-108680505D01*
X138668826Y-108669207D01*
X138646163Y-108655623D01*
X138624940Y-108639883D01*
X138605361Y-108622139D01*
X138587617Y-108602560D01*
X138571877Y-108581337D01*
X138558293Y-108558674D01*
X138546995Y-108534788D01*
X138538094Y-108509909D01*
X138531674Y-108484278D01*
X138527797Y-108458141D01*
X138526500Y-108431750D01*
X138526500Y-107468250D01*
X138527797Y-107441859D01*
X138531674Y-107415722D01*
X138538094Y-107390091D01*
X138546995Y-107365212D01*
X138558293Y-107341326D01*
X138571877Y-107318663D01*
X138587617Y-107297440D01*
X138605361Y-107277861D01*
X138624940Y-107260117D01*
X138646163Y-107244377D01*
X138668826Y-107230793D01*
X138692712Y-107219495D01*
X138717591Y-107210594D01*
X138743222Y-107204174D01*
X138769359Y-107200297D01*
X138795750Y-107199000D01*
X139334250Y-107199000D01*
X139360641Y-107200297D01*
G37*
G36*
X141235641Y-107200297D02*
G01*
X141261778Y-107204174D01*
X141287409Y-107210594D01*
X141312288Y-107219495D01*
X141336174Y-107230793D01*
X141358837Y-107244377D01*
X141380060Y-107260117D01*
X141399639Y-107277861D01*
X141417383Y-107297440D01*
X141433123Y-107318663D01*
X141446707Y-107341326D01*
X141458005Y-107365212D01*
X141466906Y-107390091D01*
X141473326Y-107415722D01*
X141477203Y-107441859D01*
X141478500Y-107468250D01*
X141478500Y-108431750D01*
X141477203Y-108458141D01*
X141473326Y-108484278D01*
X141466906Y-108509909D01*
X141458005Y-108534788D01*
X141446707Y-108558674D01*
X141433123Y-108581337D01*
X141417383Y-108602560D01*
X141399639Y-108622139D01*
X141380060Y-108639883D01*
X141358837Y-108655623D01*
X141336174Y-108669207D01*
X141312288Y-108680505D01*
X141287409Y-108689406D01*
X141261778Y-108695826D01*
X141235641Y-108699703D01*
X141209250Y-108701000D01*
X140670750Y-108701000D01*
X140644359Y-108699703D01*
X140618222Y-108695826D01*
X140592591Y-108689406D01*
X140567712Y-108680505D01*
X140543826Y-108669207D01*
X140521163Y-108655623D01*
X140499940Y-108639883D01*
X140480361Y-108622139D01*
X140462617Y-108602560D01*
X140446877Y-108581337D01*
X140433293Y-108558674D01*
X140421995Y-108534788D01*
X140413094Y-108509909D01*
X140406674Y-108484278D01*
X140402797Y-108458141D01*
X140401500Y-108431750D01*
X140401500Y-107468250D01*
X140402797Y-107441859D01*
X140406674Y-107415722D01*
X140413094Y-107390091D01*
X140421995Y-107365212D01*
X140433293Y-107341326D01*
X140446877Y-107318663D01*
X140462617Y-107297440D01*
X140480361Y-107277861D01*
X140499940Y-107260117D01*
X140521163Y-107244377D01*
X140543826Y-107230793D01*
X140567712Y-107219495D01*
X140592591Y-107210594D01*
X140618222Y-107204174D01*
X140644359Y-107200297D01*
X140670750Y-107199000D01*
X141209250Y-107199000D01*
X141235641Y-107200297D01*
G37*
G36*
X137455641Y-111010297D02*
G01*
X137481778Y-111014174D01*
X137507409Y-111020594D01*
X137532288Y-111029495D01*
X137556174Y-111040793D01*
X137578837Y-111054377D01*
X137600060Y-111070117D01*
X137619639Y-111087861D01*
X137637383Y-111107440D01*
X137653123Y-111128663D01*
X137666707Y-111151326D01*
X137678005Y-111175212D01*
X137686906Y-111200091D01*
X137693326Y-111225722D01*
X137697203Y-111251859D01*
X137698500Y-111278250D01*
X137698500Y-112241750D01*
X137697203Y-112268141D01*
X137693326Y-112294278D01*
X137686906Y-112319909D01*
X137678005Y-112344788D01*
X137666707Y-112368674D01*
X137653123Y-112391337D01*
X137637383Y-112412560D01*
X137619639Y-112432139D01*
X137600060Y-112449883D01*
X137578837Y-112465623D01*
X137556174Y-112479207D01*
X137532288Y-112490505D01*
X137507409Y-112499406D01*
X137481778Y-112505826D01*
X137455641Y-112509703D01*
X137429250Y-112511000D01*
X136890750Y-112511000D01*
X136864359Y-112509703D01*
X136838222Y-112505826D01*
X136812591Y-112499406D01*
X136787712Y-112490505D01*
X136763826Y-112479207D01*
X136741163Y-112465623D01*
X136719940Y-112449883D01*
X136700361Y-112432139D01*
X136682617Y-112412560D01*
X136666877Y-112391337D01*
X136653293Y-112368674D01*
X136641995Y-112344788D01*
X136633094Y-112319909D01*
X136626674Y-112294278D01*
X136622797Y-112268141D01*
X136621500Y-112241750D01*
X136621500Y-111278250D01*
X136622797Y-111251859D01*
X136626674Y-111225722D01*
X136633094Y-111200091D01*
X136641995Y-111175212D01*
X136653293Y-111151326D01*
X136666877Y-111128663D01*
X136682617Y-111107440D01*
X136700361Y-111087861D01*
X136719940Y-111070117D01*
X136741163Y-111054377D01*
X136763826Y-111040793D01*
X136787712Y-111029495D01*
X136812591Y-111020594D01*
X136838222Y-111014174D01*
X136864359Y-111010297D01*
X136890750Y-111009000D01*
X137429250Y-111009000D01*
X137455641Y-111010297D01*
G37*
G36*
X135580641Y-111010297D02*
G01*
X135606778Y-111014174D01*
X135632409Y-111020594D01*
X135657288Y-111029495D01*
X135681174Y-111040793D01*
X135703837Y-111054377D01*
X135725060Y-111070117D01*
X135744639Y-111087861D01*
X135762383Y-111107440D01*
X135778123Y-111128663D01*
X135791707Y-111151326D01*
X135803005Y-111175212D01*
X135811906Y-111200091D01*
X135818326Y-111225722D01*
X135822203Y-111251859D01*
X135823500Y-111278250D01*
X135823500Y-112241750D01*
X135822203Y-112268141D01*
X135818326Y-112294278D01*
X135811906Y-112319909D01*
X135803005Y-112344788D01*
X135791707Y-112368674D01*
X135778123Y-112391337D01*
X135762383Y-112412560D01*
X135744639Y-112432139D01*
X135725060Y-112449883D01*
X135703837Y-112465623D01*
X135681174Y-112479207D01*
X135657288Y-112490505D01*
X135632409Y-112499406D01*
X135606778Y-112505826D01*
X135580641Y-112509703D01*
X135554250Y-112511000D01*
X135015750Y-112511000D01*
X134989359Y-112509703D01*
X134963222Y-112505826D01*
X134937591Y-112499406D01*
X134912712Y-112490505D01*
X134888826Y-112479207D01*
X134866163Y-112465623D01*
X134844940Y-112449883D01*
X134825361Y-112432139D01*
X134807617Y-112412560D01*
X134791877Y-112391337D01*
X134778293Y-112368674D01*
X134766995Y-112344788D01*
X134758094Y-112319909D01*
X134751674Y-112294278D01*
X134747797Y-112268141D01*
X134746500Y-112241750D01*
X134746500Y-111278250D01*
X134747797Y-111251859D01*
X134751674Y-111225722D01*
X134758094Y-111200091D01*
X134766995Y-111175212D01*
X134778293Y-111151326D01*
X134791877Y-111128663D01*
X134807617Y-111107440D01*
X134825361Y-111087861D01*
X134844940Y-111070117D01*
X134866163Y-111054377D01*
X134888826Y-111040793D01*
X134912712Y-111029495D01*
X134937591Y-111020594D01*
X134963222Y-111014174D01*
X134989359Y-111010297D01*
X135015750Y-111009000D01*
X135554250Y-111009000D01*
X135580641Y-111010297D01*
G37*
G36*
X167935641Y-109105297D02*
G01*
X167961778Y-109109174D01*
X167987409Y-109115594D01*
X168012288Y-109124495D01*
X168036174Y-109135793D01*
X168058837Y-109149377D01*
X168080060Y-109165117D01*
X168099639Y-109182861D01*
X168117383Y-109202440D01*
X168133123Y-109223663D01*
X168146707Y-109246326D01*
X168158005Y-109270212D01*
X168166906Y-109295091D01*
X168173326Y-109320722D01*
X168177203Y-109346859D01*
X168178500Y-109373250D01*
X168178500Y-110336750D01*
X168177203Y-110363141D01*
X168173326Y-110389278D01*
X168166906Y-110414909D01*
X168158005Y-110439788D01*
X168146707Y-110463674D01*
X168133123Y-110486337D01*
X168117383Y-110507560D01*
X168099639Y-110527139D01*
X168080060Y-110544883D01*
X168058837Y-110560623D01*
X168036174Y-110574207D01*
X168012288Y-110585505D01*
X167987409Y-110594406D01*
X167961778Y-110600826D01*
X167935641Y-110604703D01*
X167909250Y-110606000D01*
X167370750Y-110606000D01*
X167344359Y-110604703D01*
X167318222Y-110600826D01*
X167292591Y-110594406D01*
X167267712Y-110585505D01*
X167243826Y-110574207D01*
X167221163Y-110560623D01*
X167199940Y-110544883D01*
X167180361Y-110527139D01*
X167162617Y-110507560D01*
X167146877Y-110486337D01*
X167133293Y-110463674D01*
X167121995Y-110439788D01*
X167113094Y-110414909D01*
X167106674Y-110389278D01*
X167102797Y-110363141D01*
X167101500Y-110336750D01*
X167101500Y-109373250D01*
X167102797Y-109346859D01*
X167106674Y-109320722D01*
X167113094Y-109295091D01*
X167121995Y-109270212D01*
X167133293Y-109246326D01*
X167146877Y-109223663D01*
X167162617Y-109202440D01*
X167180361Y-109182861D01*
X167199940Y-109165117D01*
X167221163Y-109149377D01*
X167243826Y-109135793D01*
X167267712Y-109124495D01*
X167292591Y-109115594D01*
X167318222Y-109109174D01*
X167344359Y-109105297D01*
X167370750Y-109104000D01*
X167909250Y-109104000D01*
X167935641Y-109105297D01*
G37*
G36*
X169810641Y-109105297D02*
G01*
X169836778Y-109109174D01*
X169862409Y-109115594D01*
X169887288Y-109124495D01*
X169911174Y-109135793D01*
X169933837Y-109149377D01*
X169955060Y-109165117D01*
X169974639Y-109182861D01*
X169992383Y-109202440D01*
X170008123Y-109223663D01*
X170021707Y-109246326D01*
X170033005Y-109270212D01*
X170041906Y-109295091D01*
X170048326Y-109320722D01*
X170052203Y-109346859D01*
X170053500Y-109373250D01*
X170053500Y-110336750D01*
X170052203Y-110363141D01*
X170048326Y-110389278D01*
X170041906Y-110414909D01*
X170033005Y-110439788D01*
X170021707Y-110463674D01*
X170008123Y-110486337D01*
X169992383Y-110507560D01*
X169974639Y-110527139D01*
X169955060Y-110544883D01*
X169933837Y-110560623D01*
X169911174Y-110574207D01*
X169887288Y-110585505D01*
X169862409Y-110594406D01*
X169836778Y-110600826D01*
X169810641Y-110604703D01*
X169784250Y-110606000D01*
X169245750Y-110606000D01*
X169219359Y-110604703D01*
X169193222Y-110600826D01*
X169167591Y-110594406D01*
X169142712Y-110585505D01*
X169118826Y-110574207D01*
X169096163Y-110560623D01*
X169074940Y-110544883D01*
X169055361Y-110527139D01*
X169037617Y-110507560D01*
X169021877Y-110486337D01*
X169008293Y-110463674D01*
X168996995Y-110439788D01*
X168988094Y-110414909D01*
X168981674Y-110389278D01*
X168977797Y-110363141D01*
X168976500Y-110336750D01*
X168976500Y-109373250D01*
X168977797Y-109346859D01*
X168981674Y-109320722D01*
X168988094Y-109295091D01*
X168996995Y-109270212D01*
X169008293Y-109246326D01*
X169021877Y-109223663D01*
X169037617Y-109202440D01*
X169055361Y-109182861D01*
X169074940Y-109165117D01*
X169096163Y-109149377D01*
X169118826Y-109135793D01*
X169142712Y-109124495D01*
X169167591Y-109115594D01*
X169193222Y-109109174D01*
X169219359Y-109105297D01*
X169245750Y-109104000D01*
X169784250Y-109104000D01*
X169810641Y-109105297D01*
G37*
G36*
X131740641Y-107200297D02*
G01*
X131766778Y-107204174D01*
X131792409Y-107210594D01*
X131817288Y-107219495D01*
X131841174Y-107230793D01*
X131863837Y-107244377D01*
X131885060Y-107260117D01*
X131904639Y-107277861D01*
X131922383Y-107297440D01*
X131938123Y-107318663D01*
X131951707Y-107341326D01*
X131963005Y-107365212D01*
X131971906Y-107390091D01*
X131978326Y-107415722D01*
X131982203Y-107441859D01*
X131983500Y-107468250D01*
X131983500Y-108431750D01*
X131982203Y-108458141D01*
X131978326Y-108484278D01*
X131971906Y-108509909D01*
X131963005Y-108534788D01*
X131951707Y-108558674D01*
X131938123Y-108581337D01*
X131922383Y-108602560D01*
X131904639Y-108622139D01*
X131885060Y-108639883D01*
X131863837Y-108655623D01*
X131841174Y-108669207D01*
X131817288Y-108680505D01*
X131792409Y-108689406D01*
X131766778Y-108695826D01*
X131740641Y-108699703D01*
X131714250Y-108701000D01*
X131175750Y-108701000D01*
X131149359Y-108699703D01*
X131123222Y-108695826D01*
X131097591Y-108689406D01*
X131072712Y-108680505D01*
X131048826Y-108669207D01*
X131026163Y-108655623D01*
X131004940Y-108639883D01*
X130985361Y-108622139D01*
X130967617Y-108602560D01*
X130951877Y-108581337D01*
X130938293Y-108558674D01*
X130926995Y-108534788D01*
X130918094Y-108509909D01*
X130911674Y-108484278D01*
X130907797Y-108458141D01*
X130906500Y-108431750D01*
X130906500Y-107468250D01*
X130907797Y-107441859D01*
X130911674Y-107415722D01*
X130918094Y-107390091D01*
X130926995Y-107365212D01*
X130938293Y-107341326D01*
X130951877Y-107318663D01*
X130967617Y-107297440D01*
X130985361Y-107277861D01*
X131004940Y-107260117D01*
X131026163Y-107244377D01*
X131048826Y-107230793D01*
X131072712Y-107219495D01*
X131097591Y-107210594D01*
X131123222Y-107204174D01*
X131149359Y-107200297D01*
X131175750Y-107199000D01*
X131714250Y-107199000D01*
X131740641Y-107200297D01*
G37*
G36*
X133615641Y-107200297D02*
G01*
X133641778Y-107204174D01*
X133667409Y-107210594D01*
X133692288Y-107219495D01*
X133716174Y-107230793D01*
X133738837Y-107244377D01*
X133760060Y-107260117D01*
X133779639Y-107277861D01*
X133797383Y-107297440D01*
X133813123Y-107318663D01*
X133826707Y-107341326D01*
X133838005Y-107365212D01*
X133846906Y-107390091D01*
X133853326Y-107415722D01*
X133857203Y-107441859D01*
X133858500Y-107468250D01*
X133858500Y-108431750D01*
X133857203Y-108458141D01*
X133853326Y-108484278D01*
X133846906Y-108509909D01*
X133838005Y-108534788D01*
X133826707Y-108558674D01*
X133813123Y-108581337D01*
X133797383Y-108602560D01*
X133779639Y-108622139D01*
X133760060Y-108639883D01*
X133738837Y-108655623D01*
X133716174Y-108669207D01*
X133692288Y-108680505D01*
X133667409Y-108689406D01*
X133641778Y-108695826D01*
X133615641Y-108699703D01*
X133589250Y-108701000D01*
X133050750Y-108701000D01*
X133024359Y-108699703D01*
X132998222Y-108695826D01*
X132972591Y-108689406D01*
X132947712Y-108680505D01*
X132923826Y-108669207D01*
X132901163Y-108655623D01*
X132879940Y-108639883D01*
X132860361Y-108622139D01*
X132842617Y-108602560D01*
X132826877Y-108581337D01*
X132813293Y-108558674D01*
X132801995Y-108534788D01*
X132793094Y-108509909D01*
X132786674Y-108484278D01*
X132782797Y-108458141D01*
X132781500Y-108431750D01*
X132781500Y-107468250D01*
X132782797Y-107441859D01*
X132786674Y-107415722D01*
X132793094Y-107390091D01*
X132801995Y-107365212D01*
X132813293Y-107341326D01*
X132826877Y-107318663D01*
X132842617Y-107297440D01*
X132860361Y-107277861D01*
X132879940Y-107260117D01*
X132901163Y-107244377D01*
X132923826Y-107230793D01*
X132947712Y-107219495D01*
X132972591Y-107210594D01*
X132998222Y-107204174D01*
X133024359Y-107200297D01*
X133050750Y-107199000D01*
X133589250Y-107199000D01*
X133615641Y-107200297D01*
G37*
D22*
X114510000Y-98425000D03*
X172510000Y-98425000D03*
X114510000Y-121425000D03*
X172510000Y-121425000D03*
D13*
G36*
X171775641Y-112915297D02*
G01*
X171801778Y-112919174D01*
X171827409Y-112925594D01*
X171852288Y-112934495D01*
X171876174Y-112945793D01*
X171898837Y-112959377D01*
X171920060Y-112975117D01*
X171939639Y-112992861D01*
X171957383Y-113012440D01*
X171973123Y-113033663D01*
X171986707Y-113056326D01*
X171998005Y-113080212D01*
X172006906Y-113105091D01*
X172013326Y-113130722D01*
X172017203Y-113156859D01*
X172018500Y-113183250D01*
X172018500Y-114146750D01*
X172017203Y-114173141D01*
X172013326Y-114199278D01*
X172006906Y-114224909D01*
X171998005Y-114249788D01*
X171986707Y-114273674D01*
X171973123Y-114296337D01*
X171957383Y-114317560D01*
X171939639Y-114337139D01*
X171920060Y-114354883D01*
X171898837Y-114370623D01*
X171876174Y-114384207D01*
X171852288Y-114395505D01*
X171827409Y-114404406D01*
X171801778Y-114410826D01*
X171775641Y-114414703D01*
X171749250Y-114416000D01*
X171210750Y-114416000D01*
X171184359Y-114414703D01*
X171158222Y-114410826D01*
X171132591Y-114404406D01*
X171107712Y-114395505D01*
X171083826Y-114384207D01*
X171061163Y-114370623D01*
X171039940Y-114354883D01*
X171020361Y-114337139D01*
X171002617Y-114317560D01*
X170986877Y-114296337D01*
X170973293Y-114273674D01*
X170961995Y-114249788D01*
X170953094Y-114224909D01*
X170946674Y-114199278D01*
X170942797Y-114173141D01*
X170941500Y-114146750D01*
X170941500Y-113183250D01*
X170942797Y-113156859D01*
X170946674Y-113130722D01*
X170953094Y-113105091D01*
X170961995Y-113080212D01*
X170973293Y-113056326D01*
X170986877Y-113033663D01*
X171002617Y-113012440D01*
X171020361Y-112992861D01*
X171039940Y-112975117D01*
X171061163Y-112959377D01*
X171083826Y-112945793D01*
X171107712Y-112934495D01*
X171132591Y-112925594D01*
X171158222Y-112919174D01*
X171184359Y-112915297D01*
X171210750Y-112914000D01*
X171749250Y-112914000D01*
X171775641Y-112915297D01*
G37*
G36*
X173650641Y-112915297D02*
G01*
X173676778Y-112919174D01*
X173702409Y-112925594D01*
X173727288Y-112934495D01*
X173751174Y-112945793D01*
X173773837Y-112959377D01*
X173795060Y-112975117D01*
X173814639Y-112992861D01*
X173832383Y-113012440D01*
X173848123Y-113033663D01*
X173861707Y-113056326D01*
X173873005Y-113080212D01*
X173881906Y-113105091D01*
X173888326Y-113130722D01*
X173892203Y-113156859D01*
X173893500Y-113183250D01*
X173893500Y-114146750D01*
X173892203Y-114173141D01*
X173888326Y-114199278D01*
X173881906Y-114224909D01*
X173873005Y-114249788D01*
X173861707Y-114273674D01*
X173848123Y-114296337D01*
X173832383Y-114317560D01*
X173814639Y-114337139D01*
X173795060Y-114354883D01*
X173773837Y-114370623D01*
X173751174Y-114384207D01*
X173727288Y-114395505D01*
X173702409Y-114404406D01*
X173676778Y-114410826D01*
X173650641Y-114414703D01*
X173624250Y-114416000D01*
X173085750Y-114416000D01*
X173059359Y-114414703D01*
X173033222Y-114410826D01*
X173007591Y-114404406D01*
X172982712Y-114395505D01*
X172958826Y-114384207D01*
X172936163Y-114370623D01*
X172914940Y-114354883D01*
X172895361Y-114337139D01*
X172877617Y-114317560D01*
X172861877Y-114296337D01*
X172848293Y-114273674D01*
X172836995Y-114249788D01*
X172828094Y-114224909D01*
X172821674Y-114199278D01*
X172817797Y-114173141D01*
X172816500Y-114146750D01*
X172816500Y-113183250D01*
X172817797Y-113156859D01*
X172821674Y-113130722D01*
X172828094Y-113105091D01*
X172836995Y-113080212D01*
X172848293Y-113056326D01*
X172861877Y-113033663D01*
X172877617Y-113012440D01*
X172895361Y-112992861D01*
X172914940Y-112975117D01*
X172936163Y-112959377D01*
X172958826Y-112945793D01*
X172982712Y-112934495D01*
X173007591Y-112925594D01*
X173033222Y-112919174D01*
X173059359Y-112915297D01*
X173085750Y-112914000D01*
X173624250Y-112914000D01*
X173650641Y-112915297D01*
G37*
G36*
X171775641Y-105295297D02*
G01*
X171801778Y-105299174D01*
X171827409Y-105305594D01*
X171852288Y-105314495D01*
X171876174Y-105325793D01*
X171898837Y-105339377D01*
X171920060Y-105355117D01*
X171939639Y-105372861D01*
X171957383Y-105392440D01*
X171973123Y-105413663D01*
X171986707Y-105436326D01*
X171998005Y-105460212D01*
X172006906Y-105485091D01*
X172013326Y-105510722D01*
X172017203Y-105536859D01*
X172018500Y-105563250D01*
X172018500Y-106526750D01*
X172017203Y-106553141D01*
X172013326Y-106579278D01*
X172006906Y-106604909D01*
X171998005Y-106629788D01*
X171986707Y-106653674D01*
X171973123Y-106676337D01*
X171957383Y-106697560D01*
X171939639Y-106717139D01*
X171920060Y-106734883D01*
X171898837Y-106750623D01*
X171876174Y-106764207D01*
X171852288Y-106775505D01*
X171827409Y-106784406D01*
X171801778Y-106790826D01*
X171775641Y-106794703D01*
X171749250Y-106796000D01*
X171210750Y-106796000D01*
X171184359Y-106794703D01*
X171158222Y-106790826D01*
X171132591Y-106784406D01*
X171107712Y-106775505D01*
X171083826Y-106764207D01*
X171061163Y-106750623D01*
X171039940Y-106734883D01*
X171020361Y-106717139D01*
X171002617Y-106697560D01*
X170986877Y-106676337D01*
X170973293Y-106653674D01*
X170961995Y-106629788D01*
X170953094Y-106604909D01*
X170946674Y-106579278D01*
X170942797Y-106553141D01*
X170941500Y-106526750D01*
X170941500Y-105563250D01*
X170942797Y-105536859D01*
X170946674Y-105510722D01*
X170953094Y-105485091D01*
X170961995Y-105460212D01*
X170973293Y-105436326D01*
X170986877Y-105413663D01*
X171002617Y-105392440D01*
X171020361Y-105372861D01*
X171039940Y-105355117D01*
X171061163Y-105339377D01*
X171083826Y-105325793D01*
X171107712Y-105314495D01*
X171132591Y-105305594D01*
X171158222Y-105299174D01*
X171184359Y-105295297D01*
X171210750Y-105294000D01*
X171749250Y-105294000D01*
X171775641Y-105295297D01*
G37*
G36*
X173650641Y-105295297D02*
G01*
X173676778Y-105299174D01*
X173702409Y-105305594D01*
X173727288Y-105314495D01*
X173751174Y-105325793D01*
X173773837Y-105339377D01*
X173795060Y-105355117D01*
X173814639Y-105372861D01*
X173832383Y-105392440D01*
X173848123Y-105413663D01*
X173861707Y-105436326D01*
X173873005Y-105460212D01*
X173881906Y-105485091D01*
X173888326Y-105510722D01*
X173892203Y-105536859D01*
X173893500Y-105563250D01*
X173893500Y-106526750D01*
X173892203Y-106553141D01*
X173888326Y-106579278D01*
X173881906Y-106604909D01*
X173873005Y-106629788D01*
X173861707Y-106653674D01*
X173848123Y-106676337D01*
X173832383Y-106697560D01*
X173814639Y-106717139D01*
X173795060Y-106734883D01*
X173773837Y-106750623D01*
X173751174Y-106764207D01*
X173727288Y-106775505D01*
X173702409Y-106784406D01*
X173676778Y-106790826D01*
X173650641Y-106794703D01*
X173624250Y-106796000D01*
X173085750Y-106796000D01*
X173059359Y-106794703D01*
X173033222Y-106790826D01*
X173007591Y-106784406D01*
X172982712Y-106775505D01*
X172958826Y-106764207D01*
X172936163Y-106750623D01*
X172914940Y-106734883D01*
X172895361Y-106717139D01*
X172877617Y-106697560D01*
X172861877Y-106676337D01*
X172848293Y-106653674D01*
X172836995Y-106629788D01*
X172828094Y-106604909D01*
X172821674Y-106579278D01*
X172817797Y-106553141D01*
X172816500Y-106526750D01*
X172816500Y-105563250D01*
X172817797Y-105536859D01*
X172821674Y-105510722D01*
X172828094Y-105485091D01*
X172836995Y-105460212D01*
X172848293Y-105436326D01*
X172861877Y-105413663D01*
X172877617Y-105392440D01*
X172895361Y-105372861D01*
X172914940Y-105355117D01*
X172936163Y-105339377D01*
X172958826Y-105325793D01*
X172982712Y-105314495D01*
X173007591Y-105305594D01*
X173033222Y-105299174D01*
X173059359Y-105295297D01*
X173085750Y-105294000D01*
X173624250Y-105294000D01*
X173650641Y-105295297D01*
G37*
D21*
X141290000Y-113760000D03*
X143190000Y-113760000D03*
X142240000Y-111760000D03*
D13*
G36*
X167965641Y-112915297D02*
G01*
X167991778Y-112919174D01*
X168017409Y-112925594D01*
X168042288Y-112934495D01*
X168066174Y-112945793D01*
X168088837Y-112959377D01*
X168110060Y-112975117D01*
X168129639Y-112992861D01*
X168147383Y-113012440D01*
X168163123Y-113033663D01*
X168176707Y-113056326D01*
X168188005Y-113080212D01*
X168196906Y-113105091D01*
X168203326Y-113130722D01*
X168207203Y-113156859D01*
X168208500Y-113183250D01*
X168208500Y-114146750D01*
X168207203Y-114173141D01*
X168203326Y-114199278D01*
X168196906Y-114224909D01*
X168188005Y-114249788D01*
X168176707Y-114273674D01*
X168163123Y-114296337D01*
X168147383Y-114317560D01*
X168129639Y-114337139D01*
X168110060Y-114354883D01*
X168088837Y-114370623D01*
X168066174Y-114384207D01*
X168042288Y-114395505D01*
X168017409Y-114404406D01*
X167991778Y-114410826D01*
X167965641Y-114414703D01*
X167939250Y-114416000D01*
X167400750Y-114416000D01*
X167374359Y-114414703D01*
X167348222Y-114410826D01*
X167322591Y-114404406D01*
X167297712Y-114395505D01*
X167273826Y-114384207D01*
X167251163Y-114370623D01*
X167229940Y-114354883D01*
X167210361Y-114337139D01*
X167192617Y-114317560D01*
X167176877Y-114296337D01*
X167163293Y-114273674D01*
X167151995Y-114249788D01*
X167143094Y-114224909D01*
X167136674Y-114199278D01*
X167132797Y-114173141D01*
X167131500Y-114146750D01*
X167131500Y-113183250D01*
X167132797Y-113156859D01*
X167136674Y-113130722D01*
X167143094Y-113105091D01*
X167151995Y-113080212D01*
X167163293Y-113056326D01*
X167176877Y-113033663D01*
X167192617Y-113012440D01*
X167210361Y-112992861D01*
X167229940Y-112975117D01*
X167251163Y-112959377D01*
X167273826Y-112945793D01*
X167297712Y-112934495D01*
X167322591Y-112925594D01*
X167348222Y-112919174D01*
X167374359Y-112915297D01*
X167400750Y-112914000D01*
X167939250Y-112914000D01*
X167965641Y-112915297D01*
G37*
G36*
X169840641Y-112915297D02*
G01*
X169866778Y-112919174D01*
X169892409Y-112925594D01*
X169917288Y-112934495D01*
X169941174Y-112945793D01*
X169963837Y-112959377D01*
X169985060Y-112975117D01*
X170004639Y-112992861D01*
X170022383Y-113012440D01*
X170038123Y-113033663D01*
X170051707Y-113056326D01*
X170063005Y-113080212D01*
X170071906Y-113105091D01*
X170078326Y-113130722D01*
X170082203Y-113156859D01*
X170083500Y-113183250D01*
X170083500Y-114146750D01*
X170082203Y-114173141D01*
X170078326Y-114199278D01*
X170071906Y-114224909D01*
X170063005Y-114249788D01*
X170051707Y-114273674D01*
X170038123Y-114296337D01*
X170022383Y-114317560D01*
X170004639Y-114337139D01*
X169985060Y-114354883D01*
X169963837Y-114370623D01*
X169941174Y-114384207D01*
X169917288Y-114395505D01*
X169892409Y-114404406D01*
X169866778Y-114410826D01*
X169840641Y-114414703D01*
X169814250Y-114416000D01*
X169275750Y-114416000D01*
X169249359Y-114414703D01*
X169223222Y-114410826D01*
X169197591Y-114404406D01*
X169172712Y-114395505D01*
X169148826Y-114384207D01*
X169126163Y-114370623D01*
X169104940Y-114354883D01*
X169085361Y-114337139D01*
X169067617Y-114317560D01*
X169051877Y-114296337D01*
X169038293Y-114273674D01*
X169026995Y-114249788D01*
X169018094Y-114224909D01*
X169011674Y-114199278D01*
X169007797Y-114173141D01*
X169006500Y-114146750D01*
X169006500Y-113183250D01*
X169007797Y-113156859D01*
X169011674Y-113130722D01*
X169018094Y-113105091D01*
X169026995Y-113080212D01*
X169038293Y-113056326D01*
X169051877Y-113033663D01*
X169067617Y-113012440D01*
X169085361Y-112992861D01*
X169104940Y-112975117D01*
X169126163Y-112959377D01*
X169148826Y-112945793D01*
X169172712Y-112934495D01*
X169197591Y-112925594D01*
X169223222Y-112919174D01*
X169249359Y-112915297D01*
X169275750Y-112914000D01*
X169814250Y-112914000D01*
X169840641Y-112915297D01*
G37*
G36*
X139573141Y-113097797D02*
G01*
X139599278Y-113101674D01*
X139624909Y-113108094D01*
X139649788Y-113116995D01*
X139673674Y-113128293D01*
X139696337Y-113141877D01*
X139717560Y-113157617D01*
X139737139Y-113175361D01*
X139754883Y-113194940D01*
X139770623Y-113216163D01*
X139784207Y-113238826D01*
X139795505Y-113262712D01*
X139804406Y-113287591D01*
X139810826Y-113313222D01*
X139814703Y-113339359D01*
X139816000Y-113365750D01*
X139816000Y-113904250D01*
X139814703Y-113930641D01*
X139810826Y-113956778D01*
X139804406Y-113982409D01*
X139795505Y-114007288D01*
X139784207Y-114031174D01*
X139770623Y-114053837D01*
X139754883Y-114075060D01*
X139737139Y-114094639D01*
X139717560Y-114112383D01*
X139696337Y-114128123D01*
X139673674Y-114141707D01*
X139649788Y-114153005D01*
X139624909Y-114161906D01*
X139599278Y-114168326D01*
X139573141Y-114172203D01*
X139546750Y-114173500D01*
X138583250Y-114173500D01*
X138556859Y-114172203D01*
X138530722Y-114168326D01*
X138505091Y-114161906D01*
X138480212Y-114153005D01*
X138456326Y-114141707D01*
X138433663Y-114128123D01*
X138412440Y-114112383D01*
X138392861Y-114094639D01*
X138375117Y-114075060D01*
X138359377Y-114053837D01*
X138345793Y-114031174D01*
X138334495Y-114007288D01*
X138325594Y-113982409D01*
X138319174Y-113956778D01*
X138315297Y-113930641D01*
X138314000Y-113904250D01*
X138314000Y-113365750D01*
X138315297Y-113339359D01*
X138319174Y-113313222D01*
X138325594Y-113287591D01*
X138334495Y-113262712D01*
X138345793Y-113238826D01*
X138359377Y-113216163D01*
X138375117Y-113194940D01*
X138392861Y-113175361D01*
X138412440Y-113157617D01*
X138433663Y-113141877D01*
X138456326Y-113128293D01*
X138480212Y-113116995D01*
X138505091Y-113108094D01*
X138530722Y-113101674D01*
X138556859Y-113097797D01*
X138583250Y-113096500D01*
X139546750Y-113096500D01*
X139573141Y-113097797D01*
G37*
G36*
X139573141Y-111222797D02*
G01*
X139599278Y-111226674D01*
X139624909Y-111233094D01*
X139649788Y-111241995D01*
X139673674Y-111253293D01*
X139696337Y-111266877D01*
X139717560Y-111282617D01*
X139737139Y-111300361D01*
X139754883Y-111319940D01*
X139770623Y-111341163D01*
X139784207Y-111363826D01*
X139795505Y-111387712D01*
X139804406Y-111412591D01*
X139810826Y-111438222D01*
X139814703Y-111464359D01*
X139816000Y-111490750D01*
X139816000Y-112029250D01*
X139814703Y-112055641D01*
X139810826Y-112081778D01*
X139804406Y-112107409D01*
X139795505Y-112132288D01*
X139784207Y-112156174D01*
X139770623Y-112178837D01*
X139754883Y-112200060D01*
X139737139Y-112219639D01*
X139717560Y-112237383D01*
X139696337Y-112253123D01*
X139673674Y-112266707D01*
X139649788Y-112278005D01*
X139624909Y-112286906D01*
X139599278Y-112293326D01*
X139573141Y-112297203D01*
X139546750Y-112298500D01*
X138583250Y-112298500D01*
X138556859Y-112297203D01*
X138530722Y-112293326D01*
X138505091Y-112286906D01*
X138480212Y-112278005D01*
X138456326Y-112266707D01*
X138433663Y-112253123D01*
X138412440Y-112237383D01*
X138392861Y-112219639D01*
X138375117Y-112200060D01*
X138359377Y-112178837D01*
X138345793Y-112156174D01*
X138334495Y-112132288D01*
X138325594Y-112107409D01*
X138319174Y-112081778D01*
X138315297Y-112055641D01*
X138314000Y-112029250D01*
X138314000Y-111490750D01*
X138315297Y-111464359D01*
X138319174Y-111438222D01*
X138325594Y-111412591D01*
X138334495Y-111387712D01*
X138345793Y-111363826D01*
X138359377Y-111341163D01*
X138375117Y-111319940D01*
X138392861Y-111300361D01*
X138412440Y-111282617D01*
X138433663Y-111266877D01*
X138456326Y-111253293D01*
X138480212Y-111241995D01*
X138505091Y-111233094D01*
X138530722Y-111226674D01*
X138556859Y-111222797D01*
X138583250Y-111221500D01*
X139546750Y-111221500D01*
X139573141Y-111222797D01*
G37*
G36*
X169810641Y-105295297D02*
G01*
X169836778Y-105299174D01*
X169862409Y-105305594D01*
X169887288Y-105314495D01*
X169911174Y-105325793D01*
X169933837Y-105339377D01*
X169955060Y-105355117D01*
X169974639Y-105372861D01*
X169992383Y-105392440D01*
X170008123Y-105413663D01*
X170021707Y-105436326D01*
X170033005Y-105460212D01*
X170041906Y-105485091D01*
X170048326Y-105510722D01*
X170052203Y-105536859D01*
X170053500Y-105563250D01*
X170053500Y-106526750D01*
X170052203Y-106553141D01*
X170048326Y-106579278D01*
X170041906Y-106604909D01*
X170033005Y-106629788D01*
X170021707Y-106653674D01*
X170008123Y-106676337D01*
X169992383Y-106697560D01*
X169974639Y-106717139D01*
X169955060Y-106734883D01*
X169933837Y-106750623D01*
X169911174Y-106764207D01*
X169887288Y-106775505D01*
X169862409Y-106784406D01*
X169836778Y-106790826D01*
X169810641Y-106794703D01*
X169784250Y-106796000D01*
X169245750Y-106796000D01*
X169219359Y-106794703D01*
X169193222Y-106790826D01*
X169167591Y-106784406D01*
X169142712Y-106775505D01*
X169118826Y-106764207D01*
X169096163Y-106750623D01*
X169074940Y-106734883D01*
X169055361Y-106717139D01*
X169037617Y-106697560D01*
X169021877Y-106676337D01*
X169008293Y-106653674D01*
X168996995Y-106629788D01*
X168988094Y-106604909D01*
X168981674Y-106579278D01*
X168977797Y-106553141D01*
X168976500Y-106526750D01*
X168976500Y-105563250D01*
X168977797Y-105536859D01*
X168981674Y-105510722D01*
X168988094Y-105485091D01*
X168996995Y-105460212D01*
X169008293Y-105436326D01*
X169021877Y-105413663D01*
X169037617Y-105392440D01*
X169055361Y-105372861D01*
X169074940Y-105355117D01*
X169096163Y-105339377D01*
X169118826Y-105325793D01*
X169142712Y-105314495D01*
X169167591Y-105305594D01*
X169193222Y-105299174D01*
X169219359Y-105295297D01*
X169245750Y-105294000D01*
X169784250Y-105294000D01*
X169810641Y-105295297D01*
G37*
G36*
X167935641Y-105295297D02*
G01*
X167961778Y-105299174D01*
X167987409Y-105305594D01*
X168012288Y-105314495D01*
X168036174Y-105325793D01*
X168058837Y-105339377D01*
X168080060Y-105355117D01*
X168099639Y-105372861D01*
X168117383Y-105392440D01*
X168133123Y-105413663D01*
X168146707Y-105436326D01*
X168158005Y-105460212D01*
X168166906Y-105485091D01*
X168173326Y-105510722D01*
X168177203Y-105536859D01*
X168178500Y-105563250D01*
X168178500Y-106526750D01*
X168177203Y-106553141D01*
X168173326Y-106579278D01*
X168166906Y-106604909D01*
X168158005Y-106629788D01*
X168146707Y-106653674D01*
X168133123Y-106676337D01*
X168117383Y-106697560D01*
X168099639Y-106717139D01*
X168080060Y-106734883D01*
X168058837Y-106750623D01*
X168036174Y-106764207D01*
X168012288Y-106775505D01*
X167987409Y-106784406D01*
X167961778Y-106790826D01*
X167935641Y-106794703D01*
X167909250Y-106796000D01*
X167370750Y-106796000D01*
X167344359Y-106794703D01*
X167318222Y-106790826D01*
X167292591Y-106784406D01*
X167267712Y-106775505D01*
X167243826Y-106764207D01*
X167221163Y-106750623D01*
X167199940Y-106734883D01*
X167180361Y-106717139D01*
X167162617Y-106697560D01*
X167146877Y-106676337D01*
X167133293Y-106653674D01*
X167121995Y-106629788D01*
X167113094Y-106604909D01*
X167106674Y-106579278D01*
X167102797Y-106553141D01*
X167101500Y-106526750D01*
X167101500Y-105563250D01*
X167102797Y-105536859D01*
X167106674Y-105510722D01*
X167113094Y-105485091D01*
X167121995Y-105460212D01*
X167133293Y-105436326D01*
X167146877Y-105413663D01*
X167162617Y-105392440D01*
X167180361Y-105372861D01*
X167199940Y-105355117D01*
X167221163Y-105339377D01*
X167243826Y-105325793D01*
X167267712Y-105314495D01*
X167292591Y-105305594D01*
X167318222Y-105299174D01*
X167344359Y-105295297D01*
X167370750Y-105294000D01*
X167909250Y-105294000D01*
X167935641Y-105295297D01*
G37*
M02*
